<svg xmlns="http://www.w3.org/2000/svg" xmlns:xlink="http://www.w3.org/1999/xlink" width="48" zoomAndPan="magnify" viewBox="0 0 36 36.000001" height="48" preserveAspectRatio="xMidYMid meet" version="1.0"><defs><clipPath id="6fafee6488"><path d="M 7.652344 4.582031 L 28.085938 4.582031 L 28.085938 30.121094 L 7.652344 30.121094 Z M 7.652344 4.582031 " clip-rule="nonzero"/></clipPath></defs><g clip-path="url(#6fafee6488)"><path fill="#4f2fda" d="M 8.515625 6.308594 C 8.515625 5.832031 8.902344 5.445312 9.378906 5.445312 L 24.460938 5.445312 L 24.460938 6.738281 C 24.460938 7.691406 25.230469 8.460938 26.183594 8.460938 L 27.476562 8.460938 L 27.476562 28.714844 C 27.476562 29.1875 27.089844 29.578125 26.613281 29.578125 L 9.378906 29.578125 C 8.902344 29.578125 8.515625 29.1875 8.515625 28.714844 Z M 26.867188 7.601562 L 26.183594 7.601562 C 25.707031 7.601562 25.320312 7.214844 25.320312 6.738281 L 25.320312 6.054688 Z M 9.378906 30.4375 L 26.613281 30.4375 C 27.566406 30.4375 28.335938 29.664062 28.335938 28.714844 L 28.335938 8.386719 C 28.335938 8.207031 28.296875 8.03125 28.226562 7.871094 C 28.222656 7.863281 28.21875 7.855469 28.214844 7.847656 C 28.152344 7.710938 28.066406 7.582031 27.957031 7.472656 L 25.449219 4.960938 C 25.339844 4.851562 25.210938 4.769531 25.074219 4.707031 C 25.066406 4.703125 25.058594 4.695312 25.050781 4.695312 C 24.890625 4.621094 24.714844 4.585938 24.535156 4.585938 L 9.378906 4.585938 C 8.425781 4.585938 7.652344 5.355469 7.652344 6.308594 L 7.652344 28.714844 C 7.652344 29.664062 8.425781 30.4375 9.378906 30.4375 " fill-opacity="1" fill-rule="nonzero"/></g><path fill="#4f2fda" d="M 11.101562 10.617188 C 11.101562 10.378906 11.296875 10.1875 11.53125 10.1875 L 14.117188 10.1875 C 14.304688 10.1875 14.457031 10.304688 14.519531 10.46875 L 13.257812 11.730469 L 12.699219 11.175781 C 12.53125 11.003906 12.257812 11.003906 12.089844 11.175781 C 11.921875 11.34375 11.921875 11.613281 12.089844 11.785156 L 12.953125 12.644531 C 13.035156 12.730469 13.144531 12.769531 13.257812 12.769531 C 13.367188 12.769531 13.476562 12.730469 13.5625 12.644531 L 14.546875 11.65625 L 14.546875 13.203125 C 14.546875 13.441406 14.355469 13.632812 14.117188 13.632812 L 11.53125 13.632812 C 11.296875 13.632812 11.101562 13.441406 11.101562 13.203125 Z M 11.53125 14.496094 L 14.117188 14.496094 C 14.832031 14.496094 15.410156 13.914062 15.410156 13.203125 L 15.410156 10.796875 L 16.578125 9.628906 C 16.746094 9.460938 16.746094 9.1875 16.578125 9.019531 C 16.410156 8.851562 16.136719 8.851562 15.96875 9.019531 L 15.144531 9.839844 C 14.910156 9.53125 14.539062 9.324219 14.117188 9.324219 L 11.53125 9.324219 C 10.820312 9.324219 10.238281 9.902344 10.238281 10.617188 L 10.238281 13.203125 C 10.238281 13.914062 10.820312 14.496094 11.53125 14.496094 " fill-opacity="1" fill-rule="nonzero"/><path fill="#4f2fda" d="M 11.101562 16.648438 C 11.101562 16.410156 11.296875 16.21875 11.53125 16.21875 L 14.117188 16.21875 C 14.355469 16.21875 14.546875 16.410156 14.546875 16.648438 L 14.546875 19.234375 C 14.546875 19.472656 14.355469 19.664062 14.117188 19.664062 L 11.53125 19.664062 C 11.296875 19.664062 11.101562 19.472656 11.101562 19.234375 Z M 11.53125 20.527344 L 14.117188 20.527344 C 14.832031 20.527344 15.410156 19.949219 15.410156 19.234375 L 15.410156 16.648438 C 15.410156 15.9375 14.832031 15.355469 14.117188 15.355469 L 11.53125 15.355469 C 10.820312 15.355469 10.238281 15.9375 10.238281 16.648438 L 10.238281 19.234375 C 10.238281 19.949219 10.820312 20.527344 11.53125 20.527344 " fill-opacity="1" fill-rule="nonzero"/><path fill="#4f2fda" d="M 11.101562 22.683594 C 11.101562 22.445312 11.296875 22.25 11.53125 22.25 L 14.117188 22.25 C 14.355469 22.25 14.546875 22.445312 14.546875 22.683594 L 14.546875 25.265625 C 14.546875 25.503906 14.355469 25.699219 14.117188 25.699219 L 11.53125 25.699219 C 11.296875 25.699219 11.101562 25.503906 11.101562 25.265625 Z M 11.53125 26.558594 L 14.117188 26.558594 C 14.832031 26.558594 15.410156 25.980469 15.410156 25.265625 L 15.410156 22.683594 C 15.410156 21.96875 14.832031 21.390625 14.117188 21.390625 L 11.53125 21.390625 C 10.820312 21.390625 10.238281 21.96875 10.238281 22.683594 L 10.238281 25.265625 C 10.238281 25.980469 10.820312 26.558594 11.53125 26.558594 " fill-opacity="1" fill-rule="nonzero"/><path fill="#4f2fda" d="M 17.996094 11.046875 L 25.320312 11.046875 C 25.558594 11.046875 25.753906 10.855469 25.753906 10.617188 C 25.753906 10.378906 25.558594 10.1875 25.320312 10.1875 L 17.996094 10.1875 C 17.757812 10.1875 17.566406 10.378906 17.566406 10.617188 C 17.566406 10.855469 17.757812 11.046875 17.996094 11.046875 " fill-opacity="1" fill-rule="nonzero"/><path fill="#4f2fda" d="M 17.996094 13.203125 L 22.304688 13.203125 C 22.542969 13.203125 22.734375 13.007812 22.734375 12.769531 C 22.734375 12.535156 22.542969 12.339844 22.304688 12.339844 L 17.996094 12.339844 C 17.757812 12.339844 17.566406 12.535156 17.566406 12.769531 C 17.566406 13.007812 17.757812 13.203125 17.996094 13.203125 " fill-opacity="1" fill-rule="nonzero"/><path fill="#4f2fda" d="M 17.996094 17.082031 L 25.320312 17.082031 C 25.558594 17.082031 25.753906 16.886719 25.753906 16.648438 C 25.753906 16.410156 25.558594 16.21875 25.320312 16.21875 L 17.996094 16.21875 C 17.757812 16.21875 17.566406 16.410156 17.566406 16.648438 C 17.566406 16.886719 17.757812 17.082031 17.996094 17.082031 " fill-opacity="1" fill-rule="nonzero"/><path fill="#4f2fda" d="M 17.996094 19.234375 L 22.304688 19.234375 C 22.542969 19.234375 22.734375 19.042969 22.734375 18.804688 C 22.734375 18.566406 22.542969 18.371094 22.304688 18.371094 L 17.996094 18.371094 C 17.757812 18.371094 17.566406 18.566406 17.566406 18.804688 C 17.566406 19.042969 17.757812 19.234375 17.996094 19.234375 " fill-opacity="1" fill-rule="nonzero"/><path fill="#4f2fda" d="M 17.996094 23.113281 L 25.320312 23.113281 C 25.558594 23.113281 25.753906 22.917969 25.753906 22.683594 C 25.753906 22.445312 25.558594 22.25 25.320312 22.25 L 17.996094 22.25 C 17.757812 22.25 17.566406 22.445312 17.566406 22.683594 C 17.566406 22.917969 17.757812 23.113281 17.996094 23.113281 " fill-opacity="1" fill-rule="nonzero"/><path fill="#4f2fda" d="M 17.996094 25.265625 L 22.304688 25.265625 C 22.542969 25.265625 22.734375 25.074219 22.734375 24.835938 C 22.734375 24.597656 22.542969 24.40625 22.304688 24.40625 L 17.996094 24.40625 C 17.757812 24.40625 17.566406 24.597656 17.566406 24.835938 C 17.566406 25.074219 17.757812 25.265625 17.996094 25.265625 " fill-opacity="1" fill-rule="nonzero"/></svg>