<svg xmlns="http://www.w3.org/2000/svg" xmlns:xlink="http://www.w3.org/1999/xlink" width="48" zoomAndPan="magnify" viewBox="0 0 36 36.000001" height="48" preserveAspectRatio="xMidYMid meet" version="1.0"><defs><clipPath id="2a6e8453d9"><path d="M 15 16 L 32 16 L 32 32.457031 L 15 32.457031 Z M 15 16 " clip-rule="nonzero"/></clipPath><clipPath id="fb5ec8cb0a"><path d="M 2.863281 4.730469 L 32.054688 4.730469 L 32.054688 21 L 2.863281 21 Z M 2.863281 4.730469 " clip-rule="nonzero"/></clipPath></defs><g clip-path="url(#2a6e8453d9)"><path fill="#4f2fda" d="M 24.511719 20.261719 L 15.84375 16.703125 L 17.277344 20.277344 L 22.148438 32.402344 L 23.960938 26.285156 L 28.078125 30.429688 L 29.476562 29.039062 L 25.363281 24.894531 L 31.492188 23.125 L 24.511719 20.261719 " fill-opacity="1" fill-rule="nonzero"/></g><path fill="#4f2fda" d="M 16.515625 13.261719 C 16.660156 13.367188 16.808594 13.4375 16.964844 13.484375 C 17.359375 13.589844 17.550781 13.558594 17.808594 13.480469 C 17.960938 13.433594 18.097656 13.371094 18.214844 13.289062 C 18.332031 13.207031 18.421875 13.109375 18.496094 12.992188 C 18.566406 12.878906 18.613281 12.742188 18.632812 12.585938 C 18.636719 12.480469 18.636719 12.289062 18.632812 12.015625 L 18.613281 11.308594 C 18.554688 11.226562 18.488281 11.152344 18.414062 11.085938 C 18.328125 11.011719 18.234375 10.953125 18.125 10.910156 C 17.855469 10.796875 17.613281 10.738281 17.390625 10.738281 C 17.210938 10.738281 17.035156 10.769531 16.867188 10.824219 C 16.703125 10.878906 16.558594 10.964844 16.433594 11.078125 C 16.308594 11.191406 16.207031 11.339844 16.132812 11.515625 C 16.050781 11.695312 16.011719 11.917969 16.011719 12.175781 C 16.011719 12.449219 16.058594 12.675781 16.15625 12.84375 C 16.257812 13.023438 16.375 13.160156 16.515625 13.261719 " fill-opacity="1" fill-rule="nonzero"/><g clip-path="url(#fb5ec8cb0a)"><path fill="#4f2fda" d="M 14.136719 14.476562 C 13.933594 14.476562 13.765625 14.371094 13.679688 14.1875 L 13.332031 12.851562 L 11.058594 12.851562 L 10.667969 14.140625 C 10.65625 14.167969 10.644531 14.191406 10.628906 14.214844 C 10.464844 14.445312 10.269531 14.496094 10.136719 14.496094 C 10.023438 14.496094 9.921875 14.460938 9.835938 14.394531 C 9.730469 14.3125 9.671875 14.191406 9.671875 14.050781 C 9.671875 14.023438 9.675781 13.957031 9.683594 13.933594 L 10.847656 10.324219 C 10.957031 9.984375 11.058594 9.675781 11.15625 9.394531 C 11.257812 9.109375 11.355469 8.859375 11.449219 8.648438 C 11.550781 8.425781 11.652344 8.25 11.757812 8.121094 C 11.898438 7.945312 12.058594 7.855469 12.230469 7.855469 C 12.351562 7.855469 12.535156 7.902344 12.707031 8.117188 C 12.808594 8.242188 12.90625 8.414062 13.007812 8.640625 C 13.097656 8.851562 13.191406 9.101562 13.285156 9.398438 C 13.378906 9.683594 13.480469 10 13.597656 10.347656 L 14.109375 11.910156 C 14.113281 11.910156 14.117188 11.910156 14.121094 11.914062 C 14.242188 11.941406 14.339844 12.011719 14.40625 12.109375 C 14.464844 12.195312 14.5 12.296875 14.5 12.402344 C 14.5 12.511719 14.460938 12.617188 14.386719 12.703125 C 14.375 12.71875 14.355469 12.730469 14.339844 12.746094 L 14.65625 13.914062 C 14.664062 13.945312 14.667969 13.976562 14.664062 14.007812 C 14.636719 14.296875 14.433594 14.476562 14.136719 14.476562 Z M 15.171875 11.066406 C 15.308594 10.75 15.496094 10.484375 15.726562 10.273438 C 15.957031 10.0625 16.21875 9.90625 16.511719 9.808594 C 16.800781 9.710938 17.097656 9.667969 17.398438 9.675781 C 17.546875 9.683594 17.691406 9.695312 17.832031 9.714844 C 17.976562 9.738281 18.117188 9.765625 18.257812 9.800781 C 18.375 9.832031 18.488281 9.875 18.605469 9.929688 C 18.609375 9.789062 18.617188 9.617188 18.625 9.414062 L 18.648438 8.890625 C 18.65625 8.644531 18.671875 8.351562 18.691406 8.019531 C 18.710938 7.6875 18.738281 7.308594 18.769531 6.878906 C 18.78125 6.734375 18.851562 6.605469 18.972656 6.519531 C 19.175781 6.375 19.40625 6.378906 19.597656 6.496094 C 19.703125 6.566406 19.777344 6.671875 19.8125 6.8125 C 19.820312 6.839844 19.820312 6.867188 19.820312 6.894531 C 19.761719 7.738281 19.71875 8.503906 19.699219 9.175781 C 19.679688 9.859375 19.667969 10.46875 19.667969 11 L 19.667969 11.398438 C 19.667969 11.523438 19.667969 11.640625 19.671875 11.75 C 19.679688 12.089844 19.6875 12.394531 19.699219 12.671875 C 19.710938 12.945312 19.730469 13.203125 19.753906 13.445312 C 19.757812 13.445312 19.792969 13.511719 19.917969 13.671875 C 20.132812 13.980469 20.046875 14.183594 19.976562 14.277344 C 19.882812 14.398438 19.753906 14.476562 19.597656 14.496094 C 19.417969 14.515625 19.292969 14.464844 19.222656 14.414062 C 19.15625 14.367188 19.074219 14.285156 18.957031 14.160156 C 18.925781 14.125 18.898438 14.089844 18.871094 14.054688 C 18.65625 14.207031 18.441406 14.324219 18.226562 14.402344 C 17.9375 14.511719 17.65625 14.578125 17.390625 14.597656 C 17.359375 14.597656 17.332031 14.597656 17.300781 14.597656 C 17.21875 14.597656 17.136719 14.59375 17.042969 14.582031 C 16.925781 14.566406 16.800781 14.539062 16.671875 14.5 C 16.542969 14.460938 16.414062 14.414062 16.285156 14.355469 C 16.152344 14.296875 16.023438 14.222656 15.898438 14.136719 C 15.765625 14.039062 15.644531 13.929688 15.535156 13.800781 C 15.425781 13.675781 15.328125 13.53125 15.242188 13.375 C 15.152344 13.210938 15.085938 13.03125 15.039062 12.832031 C 14.988281 12.640625 14.964844 12.417969 14.964844 12.175781 C 14.964844 11.753906 15.035156 11.382812 15.171875 11.066406 Z M 22.65625 12.898438 C 22.5625 12.808594 22.4375 12.730469 22.285156 12.667969 C 22.109375 12.597656 21.921875 12.53125 21.722656 12.472656 C 21.503906 12.410156 21.289062 12.324219 21.089844 12.222656 C 20.878906 12.109375 20.699219 11.964844 20.558594 11.789062 C 20.402344 11.597656 20.324219 11.34375 20.324219 11.035156 C 20.324219 10.917969 20.34375 10.785156 20.386719 10.621094 C 20.429688 10.445312 20.515625 10.277344 20.640625 10.117188 C 20.761719 9.960938 20.9375 9.824219 21.15625 9.710938 C 21.550781 9.507812 22.21875 9.480469 22.703125 9.652344 C 22.921875 9.730469 23.109375 9.839844 23.261719 9.976562 C 23.417969 10.117188 23.539062 10.289062 23.621094 10.480469 C 23.703125 10.679688 23.746094 10.890625 23.746094 11.109375 C 23.746094 11.417969 23.539062 11.621094 23.21875 11.621094 C 23.066406 11.621094 22.945312 11.582031 22.863281 11.5 C 22.785156 11.429688 22.734375 11.328125 22.703125 11.195312 C 22.699219 11.179688 22.699219 11.160156 22.695312 11.144531 L 22.6875 11.039062 C 22.683594 10.988281 22.671875 10.9375 22.621094 10.859375 C 22.578125 10.792969 22.507812 10.730469 22.40625 10.671875 C 22.339844 10.632812 22.203125 10.585938 21.933594 10.585938 C 21.761719 10.585938 21.667969 10.617188 21.621094 10.644531 C 21.550781 10.683594 21.496094 10.726562 21.460938 10.773438 C 21.421875 10.824219 21.398438 10.867188 21.390625 10.90625 C 21.371094 10.992188 21.371094 11.023438 21.371094 11.035156 C 21.371094 11.121094 21.402344 11.160156 21.445312 11.195312 C 21.546875 11.269531 21.675781 11.339844 21.835938 11.402344 C 22.011719 11.46875 22.203125 11.535156 22.40625 11.597656 C 22.636719 11.671875 22.851562 11.765625 23.046875 11.882812 C 23.261719 12.007812 23.4375 12.171875 23.578125 12.367188 C 23.726562 12.578125 23.804688 12.851562 23.804688 13.175781 C 23.804688 13.347656 23.765625 13.519531 23.6875 13.6875 C 23.613281 13.851562 23.503906 14 23.351562 14.136719 C 23.203125 14.269531 23.023438 14.375 22.820312 14.449219 C 22.613281 14.527344 22.371094 14.570312 22.101562 14.570312 C 21.839844 14.570312 21.59375 14.523438 21.367188 14.429688 C 21.148438 14.339844 20.949219 14.226562 20.78125 14.085938 C 20.605469 13.9375 20.464844 13.773438 20.367188 13.59375 C 20.261719 13.402344 20.207031 13.207031 20.207031 13.015625 C 20.207031 12.84375 20.246094 12.722656 20.332031 12.636719 C 20.40625 12.5625 20.515625 12.519531 20.691406 12.5 C 20.902344 12.476562 21.082031 12.566406 21.195312 12.742188 C 21.261719 12.847656 21.3125 12.953125 21.359375 13.058594 C 21.359375 13.066406 21.363281 13.070312 21.363281 13.074219 C 21.394531 13.128906 21.425781 13.183594 21.460938 13.238281 C 21.488281 13.289062 21.527344 13.332031 21.574219 13.375 C 21.621094 13.414062 21.683594 13.449219 21.761719 13.476562 C 21.921875 13.535156 22.269531 13.539062 22.441406 13.472656 C 22.527344 13.4375 22.59375 13.402344 22.640625 13.359375 C 22.683594 13.320312 22.714844 13.28125 22.730469 13.25 C 22.753906 13.199219 22.753906 13.175781 22.753906 13.175781 C 22.753906 13.011719 22.699219 12.941406 22.65625 12.898438 Z M 15.113281 15.96875 C 15.3125 15.773438 15.574219 15.667969 15.84375 15.667969 C 15.976562 15.667969 16.109375 15.695312 16.234375 15.746094 L 26.464844 19.945312 C 29.660156 18.984375 32.007812 16.011719 32.007812 12.511719 C 32.007812 8.242188 28.511719 4.75 24.242188 4.75 L 10.628906 4.75 C 6.359375 4.75 2.867188 8.242188 2.867188 12.511719 C 2.867188 16.78125 6.359375 20.277344 10.628906 20.277344 L 16.164062 20.277344 L 14.882812 17.089844 C 14.726562 16.703125 14.820312 16.261719 15.113281 15.96875 " fill-opacity="1" fill-rule="nonzero"/></g><path fill="#4f2fda" d="M 12.632812 10.753906 C 12.550781 10.507812 12.46875 10.269531 12.390625 10.042969 C 12.320312 9.84375 12.257812 9.660156 12.203125 9.492188 L 11.410156 11.839844 L 12.988281 11.839844 C 12.953125 11.726562 12.917969 11.609375 12.875 11.492188 L 12.632812 10.753906 " fill-opacity="1" fill-rule="nonzero"/></svg>