<svg xmlns="http://www.w3.org/2000/svg" xmlns:xlink="http://www.w3.org/1999/xlink" width="48" zoomAndPan="magnify" viewBox="0 0 36 36.000001" height="48" preserveAspectRatio="xMidYMid meet" version="1.0"><defs><clipPath id="b06644a295"><path d="M 5 3.503906 L 31 3.503906 L 31 7 L 5 7 Z M 5 3.503906 " clip-rule="nonzero"/></clipPath><clipPath id="4c58ad6083"><path d="M 3.207031 10 L 8 10 L 8 18 L 3.207031 18 Z M 3.207031 10 " clip-rule="nonzero"/></clipPath><clipPath id="d6f3b57c5b"><path d="M 5 16 L 31 16 L 31 31.960938 L 5 31.960938 Z M 5 16 " clip-rule="nonzero"/></clipPath></defs><g clip-path="url(#b06644a295)"><path fill="#4f2fda" d="M 6.5625 6.914062 C 5.9375 6.914062 5.425781 6.40625 5.425781 5.777344 L 5.425781 4.640625 C 5.425781 4.011719 5.9375 3.503906 6.5625 3.503906 L 29.3125 3.503906 C 29.941406 3.503906 30.449219 4.011719 30.449219 4.640625 L 30.449219 5.777344 C 30.449219 6.40625 29.941406 6.914062 29.3125 6.914062 Z M 6.5625 6.914062 " fill-opacity="1" fill-rule="nonzero"/></g><g clip-path="url(#4c58ad6083)"><path fill="#4f2fda" d="M 5.460938 10.328125 L 3.492188 15.980469 C 3.492188 15.980469 3.472656 17.144531 4.644531 17.144531 C 5.628906 17.144531 5.632812 15.980469 5.632812 15.980469 L 7.308594 10.328125 Z M 5.460938 10.328125 " fill-opacity="1" fill-rule="nonzero"/></g><path fill="#4f2fda" d="M 10.082031 10.328125 L 8.839844 15.980469 C 8.839844 15.980469 8.851562 17.144531 9.976562 17.144531 C 11.101562 17.144531 10.980469 15.980469 10.980469 15.980469 L 11.933594 10.328125 Z M 10.082031 10.328125 " fill-opacity="1" fill-rule="nonzero"/><path fill="#4f2fda" d="M 14.703125 10.328125 L 14.191406 15.980469 C 14.191406 15.980469 14.207031 17.144531 15.289062 17.144531 C 16.375 17.144531 16.332031 15.980469 16.332031 15.980469 L 16.550781 10.328125 Z M 14.703125 10.328125 " fill-opacity="1" fill-rule="nonzero"/><path fill="#4f2fda" d="M 19.324219 10.328125 L 19.542969 15.980469 C 19.542969 15.980469 19.503906 17.144531 20.621094 17.144531 C 21.742188 17.144531 21.683594 15.980469 21.683594 15.980469 L 21.175781 10.328125 Z M 19.324219 10.328125 " fill-opacity="1" fill-rule="nonzero"/><path fill="#4f2fda" d="M 23.945312 10.328125 L 24.898438 15.980469 C 24.898438 15.980469 24.976562 17.144531 26.023438 17.144531 C 27.003906 17.144531 27.035156 15.980469 27.035156 15.980469 L 25.792969 10.328125 Z M 23.945312 10.328125 " fill-opacity="1" fill-rule="nonzero"/><path fill="#4f2fda" d="M 28.566406 10.328125 L 30.25 15.980469 C 30.25 15.980469 30.183594 17.144531 31.359375 17.144531 C 32.53125 17.144531 32.390625 15.980469 32.390625 15.980469 L 30.414062 10.328125 Z M 28.566406 10.328125 " fill-opacity="1" fill-rule="nonzero"/><path fill="#4f2fda" d="M 5.425781 11.464844 L 5.425781 9.191406 C 5.425781 8.5625 5.9375 8.050781 6.5625 8.050781 L 29.3125 8.050781 C 29.941406 8.050781 30.449219 8.5625 30.449219 9.191406 L 30.449219 11.464844 Z M 5.425781 11.464844 " fill-opacity="1" fill-rule="nonzero"/><g clip-path="url(#d6f3b57c5b)"><path fill="#4f2fda" d="M 30.222656 16.015625 C 30.226562 16.039062 30.230469 16.0625 30.230469 16.085938 C 30.230469 16.976562 29.511719 17.699219 28.621094 17.699219 C 27.730469 17.699219 27.011719 16.976562 27.011719 16.085938 C 27.011719 16.0625 27.015625 16.039062 27.019531 16.015625 L 24.890625 16.015625 C 24.894531 16.039062 24.898438 16.0625 24.898438 16.085938 C 24.898438 16.976562 24.179688 17.699219 23.289062 17.699219 C 22.398438 17.699219 21.679688 16.976562 21.679688 16.085938 C 21.679688 16.0625 21.6875 16.039062 21.6875 16.015625 L 19.542969 16.015625 C 19.542969 16.039062 19.550781 16.0625 19.550781 16.085938 C 19.550781 16.976562 18.828125 17.699219 17.941406 17.699219 C 17.050781 17.699219 16.328125 16.976562 16.328125 16.085938 C 16.328125 16.0625 16.335938 16.039062 16.335938 16.015625 L 14.191406 16.015625 C 14.191406 16.039062 14.199219 16.0625 14.199219 16.085938 C 14.199219 16.976562 13.480469 17.699219 12.589844 17.699219 C 11.699219 17.699219 10.980469 16.976562 10.980469 16.085938 C 10.980469 16.0625 10.984375 16.039062 10.988281 16.015625 L 8.839844 16.015625 C 8.84375 16.039062 8.847656 16.0625 8.847656 16.085938 C 8.847656 16.976562 8.128906 17.699219 7.238281 17.699219 C 6.347656 17.699219 5.628906 16.976562 5.628906 16.085938 C 5.628906 16.0625 5.636719 16.039062 5.636719 16.015625 L 5.425781 16.015625 L 5.425781 30.800781 C 5.425781 31.429688 5.9375 31.9375 6.5625 31.9375 L 21.351562 31.9375 L 21.351562 20.566406 L 27.039062 20.566406 L 27.039062 31.9375 L 29.3125 31.9375 C 29.941406 31.9375 30.449219 31.429688 30.449219 30.800781 L 30.449219 16.015625 Z M 17.9375 28.527344 L 8.839844 28.527344 L 8.839844 20.566406 L 17.9375 20.566406 Z M 17.9375 28.527344 " fill-opacity="1" fill-rule="nonzero"/></g></svg>