<svg xmlns="http://www.w3.org/2000/svg" xmlns:xlink="http://www.w3.org/1999/xlink" width="48" zoomAndPan="magnify" viewBox="0 0 36 36.000001" height="48" preserveAspectRatio="xMidYMid meet" version="1.0"><defs><clipPath id="965fd0b8d8"><path d="M 13 5.253906 L 20 5.253906 L 20 12 L 13 12 Z M 13 5.253906 " clip-rule="nonzero"/></clipPath><clipPath id="aab8380ccb"><path d="M 25 7.519531 L 29.191406 7.519531 L 29.191406 10.832031 L 25 10.832031 Z M 25 7.519531 " clip-rule="nonzero"/></clipPath><clipPath id="8f171da0c2"><path d="M 6.566406 12 L 24 12 L 24 30 L 6.566406 30 Z M 6.566406 12 " clip-rule="nonzero"/></clipPath></defs><g clip-path="url(#965fd0b8d8)"><path fill="#4f2fda" d="M 19.644531 8.523438 C 19.671875 6.773438 18.273438 5.332031 16.523438 5.308594 C 14.769531 5.28125 13.332031 6.679688 13.300781 8.429688 C 13.300781 8.460938 13.300781 8.496094 13.300781 8.523438 C 13.277344 10.277344 14.671875 11.71875 16.425781 11.746094 C 18.175781 11.769531 19.621094 10.375 19.644531 8.621094 C 19.644531 8.589844 19.644531 8.558594 19.644531 8.523438 " fill-opacity="1" fill-rule="nonzero"/></g><path fill="#4f2fda" d="M 24.765625 8.351562 L 23.851562 8.351562 L 23.851562 9.925781 L 24.765625 9.925781 L 24.765625 8.351562 " fill-opacity="1" fill-rule="nonzero"/><g clip-path="url(#aab8380ccb)"><path fill="#4f2fda" d="M 28.875 7.972656 L 25.210938 7.972656 L 25.210938 10.304688 L 28.875 10.304688 C 29.082031 10.304688 29.253906 10.136719 29.253906 9.925781 L 29.253906 8.355469 C 29.253906 8.144531 29.082031 7.972656 28.875 7.972656 " fill-opacity="1" fill-rule="nonzero"/></g><path fill="#4f2fda" d="M 23.101562 11.402344 C 23.277344 11.367188 23.40625 11.210938 23.40625 11.027344 L 23.40625 7.25 C 23.40625 7.039062 23.234375 6.867188 23.023438 6.867188 L 21.289062 6.867188 C 21.078125 6.867188 20.90625 7.039062 20.90625 7.25 L 20.90625 10.464844 C 21.640625 10.066406 22.566406 10.339844 22.96875 11.078125 C 23.027344 11.183594 23.070312 11.289062 23.101562 11.402344 " fill-opacity="1" fill-rule="nonzero"/><g clip-path="url(#8f171da0c2)"><path fill="#4f2fda" d="M 15.851562 19.621094 L 17.269531 18.625 C 18.261719 17.929688 19.632812 18.167969 20.328125 19.164062 C 20.457031 19.34375 20.554688 19.542969 20.621094 19.753906 L 23.117188 27.523438 C 23.375 28.363281 22.902344 29.253906 22.066406 29.515625 C 21.238281 29.769531 20.359375 29.316406 20.085938 28.5 L 18.117188 22.367188 C 18.070312 22.21875 17.910156 22.136719 17.761719 22.1875 C 17.734375 22.195312 17.707031 22.207031 17.683594 22.222656 L 15.035156 24.082031 C 14.910156 24.171875 14.878906 24.347656 14.96875 24.472656 C 14.972656 24.484375 14.980469 24.492188 14.988281 24.503906 L 17.175781 26.949219 C 17.761719 27.609375 17.703125 28.613281 17.046875 29.199219 C 16.757812 29.457031 16.378906 29.601562 15.988281 29.601562 L 8.355469 29.601562 C 7.472656 29.601562 6.761719 28.890625 6.761719 28.011719 C 6.761719 27.132812 7.472656 26.417969 8.355469 26.417969 L 11.53125 26.417969 C 11.753906 26.417969 11.933594 26.238281 11.933594 26.015625 C 11.933594 25.914062 11.898438 25.820312 11.832031 25.746094 L 10.472656 24.222656 C 10.320312 24.050781 10.191406 23.855469 10.097656 23.640625 C 8.402344 19.753906 9.535156 15.214844 12.859375 12.582031 C 13.652344 11.953125 14.808594 12.089844 15.433594 12.882812 C 15.640625 13.136719 15.769531 13.441406 15.816406 13.769531 L 14.851562 13.453125 C 14.046875 13.203125 13.191406 13.652344 12.941406 14.453125 C 12.695312 15.242188 13.125 16.085938 13.90625 16.351562 L 15.578125 16.894531 C 15.464844 17.644531 15.320312 18.390625 15.136719 19.128906 C 15.074219 19.378906 15.222656 19.628906 15.472656 19.691406 C 15.601562 19.726562 15.742188 19.699219 15.851562 19.621094 " fill-opacity="1" fill-rule="nonzero"/></g><path fill="#4f2fda" d="M 20.757812 16.585938 L 22.621094 12.226562 C 22.855469 11.679688 22.601562 11.046875 22.050781 10.8125 C 21.503906 10.578125 20.871094 10.832031 20.636719 11.378906 L 19.125 14.925781 C 19.042969 15.117188 18.824219 15.214844 18.628906 15.152344 L 14.710938 13.875 C 14.144531 13.691406 13.535156 14 13.347656 14.566406 C 13.167969 15.132812 13.472656 15.742188 14.042969 15.925781 L 18.800781 17.476562 C 19.585938 17.730469 20.433594 17.34375 20.757812 16.585938 " fill-opacity="1" fill-rule="nonzero"/></svg>