<svg xmlns="http://www.w3.org/2000/svg" xmlns:xlink="http://www.w3.org/1999/xlink" width="48" zoomAndPan="magnify" viewBox="0 0 36 36.000001" height="48" preserveAspectRatio="xMidYMid meet" version="1.0"><defs><clipPath id="7cb674cc92"><path d="M 4 5 L 31.71875 5 L 31.71875 31.890625 L 4 31.890625 Z M 4 5 " clip-rule="nonzero"/></clipPath></defs><g clip-path="url(#7cb674cc92)"><path fill="#4f2fda" d="M 18.664062 11.28125 L 18.671875 11.273438 L 14.171875 8.675781 C 14.070312 8.617188 13.945312 8.617188 13.84375 8.675781 L 9.328125 11.285156 C 9.226562 11.34375 9.164062 11.449219 9.164062 11.570312 L 9.164062 16.710938 C 9.164062 16.828125 9.226562 16.933594 9.328125 16.996094 L 13.832031 19.652344 C 13.832031 19.652344 13.832031 19.652344 13.835938 19.65625 C 13.882812 19.683594 13.941406 19.699219 13.996094 19.699219 C 14.054688 19.699219 14.113281 19.683594 14.164062 19.652344 L 18.667969 16.996094 C 18.769531 16.933594 18.832031 16.828125 18.832031 16.710938 L 18.832031 11.570312 C 18.832031 11.449219 18.769531 11.339844 18.664062 11.28125 Z M 14.007812 9.34375 L 17.855469 11.5625 L 16.25 12.5 L 12.410156 10.265625 Z M 13.996094 13.8125 L 10.152344 11.570312 L 11.75 10.648438 L 15.59375 12.882812 Z M 9.824219 12.140625 L 13.667969 14.382812 L 13.667969 18.789062 L 9.824219 16.519531 Z M 18.171875 16.519531 L 14.328125 18.789062 L 14.328125 14.382812 L 18.171875 12.140625 Z M 14.789062 17.917969 C 14.839844 17.949219 14.894531 17.964844 14.953125 17.964844 C 15.007812 17.964844 15.066406 17.949219 15.117188 17.921875 L 17.671875 16.476562 C 17.777344 16.417969 17.839844 16.308594 17.839844 16.1875 L 17.839844 15.058594 C 17.839844 14.941406 17.777344 14.835938 17.675781 14.777344 C 17.574219 14.71875 17.449219 14.714844 17.347656 14.773438 L 14.792969 16.21875 C 14.6875 16.277344 14.625 16.386719 14.625 16.507812 L 14.625 17.632812 C 14.625 17.75 14.6875 17.859375 14.789062 17.917969 Z M 15.285156 16.699219 L 17.179688 15.625 L 17.183594 15.996094 L 15.285156 17.070312 Z M 19.167969 8.996094 C 16.320312 6.148438 11.683594 6.148438 8.832031 8.996094 C 5.984375 11.847656 5.984375 16.484375 8.832031 19.332031 C 10.257812 20.757812 12.128906 21.46875 14 21.46875 C 15.871094 21.46875 17.742188 20.757812 19.167969 19.332031 C 22.015625 16.484375 22.015625 11.847656 19.167969 8.996094 Z M 18.703125 18.867188 C 17.40625 20.164062 15.703125 20.808594 14 20.808594 C 12.296875 20.808594 10.59375 20.160156 9.296875 18.867188 C 6.707031 16.273438 6.707031 12.054688 9.296875 9.464844 C 10.59375 8.167969 12.296875 7.519531 14 7.519531 C 15.703125 7.519531 17.40625 8.167969 18.703125 9.464844 C 21.292969 12.054688 21.292969 16.273438 18.703125 18.867188 Z M 30.949219 27.742188 L 24.71875 21.507812 C 24.335938 21.128906 23.78125 21.027344 23.304688 21.199219 L 21.484375 19.378906 C 23.964844 15.824219 23.621094 10.886719 20.449219 7.714844 C 16.894531 4.160156 11.105469 4.160156 7.550781 7.714844 C 3.996094 11.269531 3.996094 17.058594 7.550781 20.613281 C 9.328125 22.390625 11.664062 23.28125 14 23.28125 C 15.828125 23.28125 17.65625 22.738281 19.214844 21.648438 L 21.027344 23.460938 C 20.839844 23.941406 20.9375 24.511719 21.328125 24.898438 L 27.5625 31.132812 C 27.824219 31.394531 28.164062 31.523438 28.511719 31.523438 C 28.851562 31.523438 29.195312 31.394531 29.457031 31.132812 L 30.953125 29.640625 C 31.203125 29.386719 31.34375 29.050781 31.34375 28.691406 C 31.34375 28.332031 31.203125 27.996094 30.949219 27.742188 Z M 8.015625 20.148438 C 4.71875 16.847656 4.71875 11.480469 8.015625 8.179688 C 9.667969 6.53125 11.832031 5.707031 14 5.707031 C 16.167969 5.707031 18.335938 6.53125 19.984375 8.179688 C 23.28125 11.480469 23.28125 16.847656 19.984375 20.148438 C 16.683594 23.445312 11.316406 23.445312 8.015625 20.148438 Z M 20.449219 20.613281 C 20.675781 20.390625 20.886719 20.152344 21.082031 19.910156 L 22.75 21.578125 L 21.414062 22.914062 L 19.746094 21.25 C 19.988281 21.050781 20.222656 20.839844 20.449219 20.613281 Z M 30.484375 29.175781 L 28.992188 30.667969 C 28.726562 30.933594 28.292969 30.933594 28.027344 30.667969 L 21.792969 24.433594 C 21.527344 24.167969 21.527344 23.734375 21.792969 23.46875 L 23.285156 21.976562 C 23.417969 21.84375 23.59375 21.777344 23.769531 21.777344 C 23.945312 21.777344 24.117188 21.84375 24.25 21.976562 L 30.484375 28.207031 C 30.613281 28.335938 30.683594 28.507812 30.683594 28.691406 C 30.683594 28.875 30.613281 29.046875 30.484375 29.175781 Z M 30.484375 29.175781 " fill-opacity="1" fill-rule="nonzero"/></g></svg>