<svg xmlns="http://www.w3.org/2000/svg" xmlns:xlink="http://www.w3.org/1999/xlink" width="48" zoomAndPan="magnify" viewBox="0 0 36 36.000001" height="48" preserveAspectRatio="xMidYMid meet" version="1.0"><defs><clipPath id="a1947b5c2f"><path d="M 15.523438 15.179688 L 31.039062 15.179688 L 31.039062 29.414062 L 15.523438 29.414062 Z M 15.523438 15.179688 " clip-rule="nonzero"/></clipPath><clipPath id="3c60fe9fe7"><path d="M 4.765625 5.605469 L 28 5.605469 L 28 29 L 4.765625 29 Z M 4.765625 5.605469 " clip-rule="nonzero"/></clipPath></defs><path fill="#4f2fda" d="M 18.15625 28.160156 L 18.992188 28.160156 L 18.992188 27.324219 L 18.15625 27.324219 L 18.15625 28.160156 " fill-opacity="1" fill-rule="nonzero"/><path fill="#4f2fda" d="M 25.675781 28.160156 L 26.511719 28.160156 L 26.511719 27.324219 L 25.675781 27.324219 L 25.675781 28.160156 " fill-opacity="1" fill-rule="nonzero"/><g clip-path="url(#a1947b5c2f)"><path fill="#4f2fda" d="M 26.09375 28.578125 C 25.632812 28.578125 25.257812 28.203125 25.257812 27.742188 C 25.257812 27.28125 25.632812 26.90625 26.09375 26.90625 C 26.554688 26.90625 26.929688 27.28125 26.929688 27.742188 C 26.929688 28.203125 26.554688 28.578125 26.09375 28.578125 Z M 17.640625 23.984375 L 16.605469 20.1875 L 28.230469 19.414062 L 27.175781 23.984375 Z M 18.574219 28.578125 C 18.113281 28.578125 17.742188 28.203125 17.742188 27.742188 C 17.742188 27.28125 18.113281 26.90625 18.574219 26.90625 C 19.035156 26.90625 19.410156 27.28125 19.410156 27.742188 C 19.410156 28.203125 19.035156 28.578125 18.574219 28.578125 Z M 31.207031 16.035156 L 31.003906 15.222656 L 29.085938 15.703125 L 28.425781 18.5625 L 15.53125 19.421875 L 17.003906 24.820312 L 26.984375 24.820312 L 26.667969 26.179688 C 26.488281 26.113281 26.296875 26.070312 26.09375 26.070312 C 25.480469 26.070312 24.945312 26.410156 24.65625 26.90625 L 20.015625 26.90625 C 19.722656 26.410156 19.191406 26.070312 18.574219 26.070312 C 17.652344 26.070312 16.90625 26.820312 16.90625 27.742188 C 16.90625 28.664062 17.652344 29.414062 18.574219 29.414062 C 19.496094 29.414062 20.246094 28.664062 20.246094 27.742188 L 24.421875 27.742188 C 24.421875 28.664062 25.171875 29.414062 26.09375 29.414062 C 27.015625 29.414062 27.765625 28.664062 27.765625 27.742188 C 27.765625 27.355469 27.625 27 27.402344 26.714844 L 29.785156 16.390625 L 31.207031 16.035156 " fill-opacity="1" fill-rule="nonzero"/></g><path fill="#4f2fda" d="M 19.828125 20.222656 L 18.15625 20.222656 L 18.15625 21.058594 L 19.828125 21.058594 L 19.828125 20.222656 " fill-opacity="1" fill-rule="nonzero"/><path fill="#4f2fda" d="M 23.171875 20.222656 L 21.5 20.222656 L 21.5 21.058594 L 23.171875 21.058594 L 23.171875 20.222656 " fill-opacity="1" fill-rule="nonzero"/><path fill="#4f2fda" d="M 24.839844 20.222656 L 24.839844 21.058594 L 26.511719 21.058594 L 26.511719 20.222656 L 24.839844 20.222656 " fill-opacity="1" fill-rule="nonzero"/><path fill="#4f2fda" d="M 21.5 21.476562 L 19.828125 21.476562 L 19.828125 22.3125 L 21.5 22.3125 L 21.5 21.476562 " fill-opacity="1" fill-rule="nonzero"/><path fill="#4f2fda" d="M 24.839844 21.476562 L 23.171875 21.476562 L 23.171875 22.3125 L 24.839844 22.3125 L 24.839844 21.476562 " fill-opacity="1" fill-rule="nonzero"/><path fill="#4f2fda" d="M 21.5 23.566406 L 23.171875 23.566406 L 23.171875 22.730469 L 21.5 22.730469 L 21.5 23.566406 " fill-opacity="1" fill-rule="nonzero"/><path fill="#4f2fda" d="M 24.839844 23.566406 L 26.511719 23.566406 L 26.511719 22.730469 L 24.839844 22.730469 L 24.839844 23.566406 " fill-opacity="1" fill-rule="nonzero"/><path fill="#4f2fda" d="M 18.15625 23.566406 L 19.828125 23.566406 L 19.828125 22.730469 L 18.15625 22.730469 L 18.15625 23.566406 " fill-opacity="1" fill-rule="nonzero"/><g clip-path="url(#3c60fe9fe7)"><path fill="#4f2fda" d="M 8.425781 23.984375 C 9.089844 23.582031 9.835938 23.230469 10.65625 22.949219 C 11.246094 24.613281 12.078125 25.972656 13.074219 26.886719 C 11.273438 26.34375 9.675781 25.328125 8.425781 23.984375 Z M 13.074219 6.878906 C 12.078125 7.792969 11.246094 9.15625 10.652344 10.824219 C 9.835938 10.539062 9.089844 10.1875 8.425781 9.777344 C 9.675781 8.433594 11.273438 7.421875 13.074219 6.878906 Z M 23.714844 9.777344 C 23.046875 10.1875 22.304688 10.539062 21.484375 10.824219 C 20.894531 9.15625 20.0625 7.792969 19.066406 6.878906 C 20.867188 7.421875 22.464844 8.433594 23.714844 9.777344 Z M 22.453125 16.464844 C 22.417969 14.707031 22.167969 13.066406 21.742188 11.613281 C 22.671875 11.296875 23.515625 10.890625 24.265625 10.421875 C 25.589844 12.097656 26.410156 14.1875 26.5 16.464844 Z M 16.488281 12.507812 C 18.046875 12.472656 19.558594 12.253906 20.9375 11.863281 C 21.34375 13.238281 21.585938 14.800781 21.617188 16.464844 L 16.488281 16.464844 Z M 15.652344 6.472656 L 15.652344 11.671875 C 14.175781 11.640625 12.753906 11.433594 11.457031 11.070312 C 12.382812 8.484375 13.90625 6.71875 15.652344 6.472656 Z M 16.488281 6.472656 C 18.234375 6.71875 19.757812 8.484375 20.683594 11.070312 C 19.386719 11.433594 17.960938 11.640625 16.488281 11.671875 Z M 10.519531 16.464844 C 10.554688 14.800781 10.796875 13.238281 11.199219 11.863281 C 12.578125 12.253906 14.089844 12.472656 15.652344 12.507812 L 15.652344 16.464844 Z M 5.636719 16.464844 C 5.726562 14.1875 6.550781 12.097656 7.875 10.421875 C 8.625 10.890625 9.46875 11.296875 10.394531 11.613281 C 9.972656 13.066406 9.71875 14.707031 9.683594 16.464844 Z M 10.398438 22.15625 C 9.46875 22.476562 8.621094 22.875 7.875 23.34375 C 6.550781 21.667969 5.726562 19.578125 5.636719 17.300781 L 9.683594 17.300781 C 9.71875 19.058594 9.972656 20.703125 10.398438 22.15625 Z M 16.488281 28.160156 L 16.488281 25.65625 L 15.652344 25.65625 L 15.652344 27.292969 C 13.90625 27.046875 12.382812 25.28125 11.457031 22.691406 C 12.757812 22.328125 14.1875 22.117188 15.660156 22.082031 L 15.640625 21.246094 C 14.089844 21.28125 12.578125 21.507812 11.199219 21.898438 C 10.796875 20.523438 10.554688 18.960938 10.519531 17.300781 L 15.652344 17.300781 L 15.652344 18.554688 L 16.488281 18.554688 L 16.488281 17.300781 L 26.511719 17.300781 L 26.511719 17.71875 L 27.347656 17.71875 L 27.347656 16.464844 L 27.335938 16.464844 C 27.117188 10.4375 22.148438 5.605469 16.070312 5.605469 C 9.851562 5.605469 4.792969 10.664062 4.792969 16.882812 C 4.792969 23.101562 9.851562 28.160156 16.070312 28.160156 L 16.488281 28.160156 " fill-opacity="1" fill-rule="nonzero"/></g></svg>