<svg xmlns="http://www.w3.org/2000/svg" xmlns:xlink="http://www.w3.org/1999/xlink" width="48" zoomAndPan="magnify" viewBox="0 0 36 36.000001" height="48" preserveAspectRatio="xMidYMid meet" version="1.0"><defs><g/><clipPath id="781182d21d"><path d="M 4.710938 5.84375 L 30.980469 5.84375 L 30.980469 31.386719 L 4.710938 31.386719 Z M 4.710938 5.84375 " clip-rule="nonzero"/></clipPath></defs><g clip-path="url(#781182d21d)"><path fill="#4f2fda" d="M 29.949219 30.636719 L 6.042969 30.636719 C 5.796875 30.636719 5.597656 30.4375 5.597656 30.195312 L 5.597656 10.273438 L 30.390625 10.273438 L 30.390625 30.195312 C 30.390625 30.4375 30.191406 30.636719 29.949219 30.636719 Z M 6.042969 6.730469 L 29.949219 6.730469 C 30.191406 6.730469 30.390625 6.929688 30.390625 7.171875 L 30.390625 9.386719 L 5.597656 9.386719 L 5.597656 7.171875 C 5.597656 6.929688 5.796875 6.730469 6.042969 6.730469 Z M 29.949219 5.84375 L 6.042969 5.84375 C 5.308594 5.84375 4.714844 6.441406 4.714844 7.171875 L 4.714844 30.195312 C 4.714844 30.925781 5.308594 31.523438 6.042969 31.523438 L 29.949219 31.523438 C 30.679688 31.523438 31.277344 30.925781 31.277344 30.195312 L 31.277344 7.171875 C 31.277344 6.441406 30.679688 5.84375 29.949219 5.84375 " fill-opacity="1" fill-rule="nonzero"/></g><path fill="#4f2fda" d="M 10.46875 8.5 C 10.714844 8.5 10.910156 8.304688 10.910156 8.058594 C 10.910156 7.8125 10.714844 7.617188 10.46875 7.617188 C 10.226562 7.617188 10.027344 7.8125 10.027344 8.058594 C 10.027344 8.304688 10.226562 8.5 10.46875 8.5 " fill-opacity="1" fill-rule="nonzero"/><path fill="#4f2fda" d="M 8.699219 8.5 C 8.941406 8.5 9.140625 8.304688 9.140625 8.058594 C 9.140625 7.8125 8.941406 7.617188 8.699219 7.617188 C 8.453125 7.617188 8.253906 7.8125 8.253906 8.058594 C 8.253906 8.304688 8.453125 8.5 8.699219 8.5 " fill-opacity="1" fill-rule="nonzero"/><path fill="#4f2fda" d="M 6.925781 8.5 C 7.171875 8.5 7.371094 8.304688 7.371094 8.058594 C 7.371094 7.8125 7.171875 7.617188 6.925781 7.617188 C 6.683594 7.617188 6.484375 7.8125 6.484375 8.058594 C 6.484375 8.304688 6.683594 8.5 6.925781 8.5 " fill-opacity="1" fill-rule="nonzero"/><path fill="#4f2fda" d="M 7.8125 20.011719 L 10.910156 20.011719 C 11.15625 20.011719 11.355469 19.8125 11.355469 19.570312 C 11.355469 19.324219 11.15625 19.125 10.910156 19.125 L 7.8125 19.125 C 7.570312 19.125 7.371094 19.324219 7.371094 19.570312 C 7.371094 19.8125 7.570312 20.011719 7.8125 20.011719 " fill-opacity="1" fill-rule="nonzero"/><path fill="#4f2fda" d="M 12.683594 17.355469 L 11.589844 17.355469 L 9.953125 14.898438 C 9.871094 14.773438 9.730469 14.699219 9.582031 14.699219 C 9.4375 14.699219 9.296875 14.773438 9.214844 14.898438 L 8.253906 16.335938 L 8.253906 12.929688 L 12.683594 12.929688 Z M 8.640625 17.355469 L 9.582031 15.941406 L 10.527344 17.355469 Z M 13.125 12.042969 L 7.8125 12.042969 C 7.570312 12.042969 7.371094 12.242188 7.371094 12.484375 L 7.371094 17.796875 C 7.371094 18.042969 7.570312 18.242188 7.8125 18.242188 L 13.125 18.242188 C 13.371094 18.242188 13.566406 18.042969 13.566406 17.796875 L 13.566406 12.484375 C 13.566406 12.242188 13.371094 12.042969 13.125 12.042969 " fill-opacity="1" fill-rule="nonzero"/><path fill="#4f2fda" d="M 11.355469 14.699219 C 11.597656 14.699219 11.796875 14.5 11.796875 14.257812 C 11.796875 14.011719 11.597656 13.8125 11.355469 13.8125 C 11.109375 13.8125 10.910156 14.011719 10.910156 14.257812 C 10.910156 14.5 11.109375 14.699219 11.355469 14.699219 " fill-opacity="1" fill-rule="nonzero"/><path fill="#4f2fda" d="M 20.207031 17.355469 L 19.117188 17.355469 L 17.476562 14.898438 C 17.394531 14.773438 17.257812 14.699219 17.109375 14.699219 C 16.960938 14.699219 16.824219 14.773438 16.742188 14.898438 L 15.78125 16.335938 L 15.78125 12.929688 L 20.207031 12.929688 Z M 16.167969 17.355469 L 17.109375 15.941406 L 18.054688 17.355469 Z M 20.652344 12.042969 L 15.339844 12.042969 C 15.09375 12.042969 14.894531 12.242188 14.894531 12.484375 L 14.894531 17.796875 C 14.894531 18.042969 15.09375 18.242188 15.339844 18.242188 L 20.652344 18.242188 C 20.894531 18.242188 21.09375 18.042969 21.09375 17.796875 L 21.09375 12.484375 C 21.09375 12.242188 20.894531 12.042969 20.652344 12.042969 " fill-opacity="1" fill-rule="nonzero"/><path fill="#4f2fda" d="M 18.878906 14.699219 C 19.125 14.699219 19.324219 14.5 19.324219 14.257812 C 19.324219 14.011719 19.125 13.8125 18.878906 13.8125 C 18.636719 13.8125 18.4375 14.011719 18.4375 14.257812 C 18.4375 14.5 18.636719 14.699219 18.878906 14.699219 " fill-opacity="1" fill-rule="nonzero"/><path fill="#4f2fda" d="M 27.734375 17.355469 L 26.644531 17.355469 L 25.003906 14.898438 C 24.921875 14.773438 24.785156 14.699219 24.636719 14.699219 C 24.488281 14.699219 24.351562 14.773438 24.269531 14.898438 L 23.308594 16.335938 L 23.308594 12.929688 L 27.734375 12.929688 Z M 23.691406 17.355469 L 24.636719 15.941406 L 25.578125 17.355469 Z M 28.175781 12.042969 L 22.863281 12.042969 C 22.621094 12.042969 22.421875 12.242188 22.421875 12.484375 L 22.421875 17.796875 C 22.421875 18.042969 22.621094 18.242188 22.863281 18.242188 L 28.175781 18.242188 C 28.421875 18.242188 28.621094 18.042969 28.621094 17.796875 L 28.621094 12.484375 C 28.621094 12.242188 28.421875 12.042969 28.175781 12.042969 " fill-opacity="1" fill-rule="nonzero"/><path fill="#4f2fda" d="M 26.40625 14.699219 C 26.652344 14.699219 26.847656 14.5 26.847656 14.257812 C 26.847656 14.011719 26.652344 13.8125 26.40625 13.8125 C 26.164062 13.8125 25.964844 14.011719 25.964844 14.257812 C 25.964844 14.5 26.164062 14.699219 26.40625 14.699219 " fill-opacity="1" fill-rule="nonzero"/><path fill="#4f2fda" d="M 12.683594 26.210938 L 11.589844 26.210938 L 9.953125 23.75 C 9.871094 23.628906 9.730469 23.554688 9.582031 23.554688 C 9.4375 23.554688 9.296875 23.628906 9.214844 23.75 L 8.253906 25.191406 L 8.253906 21.78125 L 12.683594 21.78125 Z M 8.640625 26.210938 L 9.582031 24.792969 L 10.527344 26.210938 Z M 13.125 20.898438 L 7.8125 20.898438 C 7.570312 20.898438 7.371094 21.09375 7.371094 21.339844 L 7.371094 26.652344 C 7.371094 26.898438 7.570312 27.09375 7.8125 27.09375 L 13.125 27.09375 C 13.371094 27.09375 13.566406 26.898438 13.566406 26.652344 L 13.566406 21.339844 C 13.566406 21.09375 13.371094 20.898438 13.125 20.898438 " fill-opacity="1" fill-rule="nonzero"/><path fill="#4f2fda" d="M 11.355469 23.554688 C 11.597656 23.554688 11.796875 23.355469 11.796875 23.109375 C 11.796875 22.867188 11.597656 22.667969 11.355469 22.667969 C 11.109375 22.667969 10.910156 22.867188 10.910156 23.109375 C 10.910156 23.355469 11.109375 23.554688 11.355469 23.554688 " fill-opacity="1" fill-rule="nonzero"/><path fill="#4f2fda" d="M 20.207031 26.210938 L 19.117188 26.210938 L 17.476562 23.75 C 17.394531 23.628906 17.257812 23.554688 17.109375 23.554688 C 16.960938 23.554688 16.824219 23.628906 16.742188 23.75 L 15.78125 25.191406 L 15.78125 21.78125 L 20.207031 21.78125 Z M 16.167969 26.210938 L 17.109375 24.792969 L 18.054688 26.210938 Z M 20.652344 20.898438 L 15.339844 20.898438 C 15.09375 20.898438 14.894531 21.09375 14.894531 21.339844 L 14.894531 26.652344 C 14.894531 26.898438 15.09375 27.09375 15.339844 27.09375 L 20.652344 27.09375 C 20.894531 27.09375 21.09375 26.898438 21.09375 26.652344 L 21.09375 21.339844 C 21.09375 21.09375 20.894531 20.898438 20.652344 20.898438 " fill-opacity="1" fill-rule="nonzero"/><path fill="#4f2fda" d="M 18.878906 23.554688 C 19.125 23.554688 19.324219 23.355469 19.324219 23.109375 C 19.324219 22.867188 19.125 22.667969 18.878906 22.667969 C 18.636719 22.667969 18.4375 22.867188 18.4375 23.109375 C 18.4375 23.355469 18.636719 23.554688 18.878906 23.554688 " fill-opacity="1" fill-rule="nonzero"/><path fill="#4f2fda" d="M 27.734375 26.210938 L 26.644531 26.210938 L 25.003906 23.75 C 24.921875 23.628906 24.785156 23.554688 24.636719 23.554688 C 24.488281 23.554688 24.351562 23.628906 24.269531 23.75 L 23.308594 25.191406 L 23.308594 21.78125 L 27.734375 21.78125 Z M 23.691406 26.210938 L 24.636719 24.792969 L 25.578125 26.210938 Z M 28.175781 20.898438 L 22.863281 20.898438 C 22.621094 20.898438 22.421875 21.09375 22.421875 21.339844 L 22.421875 26.652344 C 22.421875 26.898438 22.621094 27.09375 22.863281 27.09375 L 28.175781 27.09375 C 28.421875 27.09375 28.621094 26.898438 28.621094 26.652344 L 28.621094 21.339844 C 28.621094 21.09375 28.421875 20.898438 28.175781 20.898438 " fill-opacity="1" fill-rule="nonzero"/><path fill="#4f2fda" d="M 26.40625 23.554688 C 26.652344 23.554688 26.847656 23.355469 26.847656 23.109375 C 26.847656 22.867188 26.652344 22.667969 26.40625 22.667969 C 26.164062 22.667969 25.964844 22.867188 25.964844 23.109375 C 25.964844 23.355469 26.164062 23.554688 26.40625 23.554688 " fill-opacity="1" fill-rule="nonzero"/><path fill="#4f2fda" d="M 13.125 19.125 C 12.882812 19.125 12.683594 19.324219 12.683594 19.570312 C 12.683594 19.8125 12.882812 20.011719 13.125 20.011719 C 13.371094 20.011719 13.566406 19.8125 13.566406 19.570312 C 13.566406 19.324219 13.371094 19.125 13.125 19.125 " fill-opacity="1" fill-rule="nonzero"/><path fill="#4f2fda" d="M 15.339844 20.011719 L 18.4375 20.011719 C 18.683594 20.011719 18.878906 19.8125 18.878906 19.570312 C 18.878906 19.324219 18.683594 19.125 18.4375 19.125 L 15.339844 19.125 C 15.09375 19.125 14.894531 19.324219 14.894531 19.570312 C 14.894531 19.8125 15.09375 20.011719 15.339844 20.011719 " fill-opacity="1" fill-rule="nonzero"/><path fill="#4f2fda" d="M 20.652344 19.125 C 20.40625 19.125 20.207031 19.324219 20.207031 19.570312 C 20.207031 19.8125 20.40625 20.011719 20.652344 20.011719 C 20.894531 20.011719 21.09375 19.8125 21.09375 19.570312 C 21.09375 19.324219 20.894531 19.125 20.652344 19.125 " fill-opacity="1" fill-rule="nonzero"/><path fill="#4f2fda" d="M 22.863281 20.011719 L 25.964844 20.011719 C 26.207031 20.011719 26.40625 19.8125 26.40625 19.570312 C 26.40625 19.324219 26.207031 19.125 25.964844 19.125 L 22.863281 19.125 C 22.621094 19.125 22.421875 19.324219 22.421875 19.570312 C 22.421875 19.8125 22.621094 20.011719 22.863281 20.011719 " fill-opacity="1" fill-rule="nonzero"/><path fill="#4f2fda" d="M 28.175781 19.125 C 27.933594 19.125 27.734375 19.324219 27.734375 19.570312 C 27.734375 19.8125 27.933594 20.011719 28.175781 20.011719 C 28.421875 20.011719 28.621094 19.8125 28.621094 19.570312 C 28.621094 19.324219 28.421875 19.125 28.175781 19.125 " fill-opacity="1" fill-rule="nonzero"/><path fill="#4f2fda" d="M 10.910156 27.980469 L 7.8125 27.980469 C 7.570312 27.980469 7.371094 28.179688 7.371094 28.421875 C 7.371094 28.667969 7.570312 28.867188 7.8125 28.867188 L 10.910156 28.867188 C 11.15625 28.867188 11.355469 28.667969 11.355469 28.421875 C 11.355469 28.179688 11.15625 27.980469 10.910156 27.980469 " fill-opacity="1" fill-rule="nonzero"/><path fill="#4f2fda" d="M 13.125 27.980469 C 12.882812 27.980469 12.683594 28.179688 12.683594 28.421875 C 12.683594 28.667969 12.882812 28.867188 13.125 28.867188 C 13.371094 28.867188 13.566406 28.667969 13.566406 28.421875 C 13.566406 28.179688 13.371094 27.980469 13.125 27.980469 " fill-opacity="1" fill-rule="nonzero"/><path fill="#4f2fda" d="M 18.4375 27.980469 L 15.339844 27.980469 C 15.09375 27.980469 14.894531 28.179688 14.894531 28.421875 C 14.894531 28.667969 15.09375 28.867188 15.339844 28.867188 L 18.4375 28.867188 C 18.683594 28.867188 18.878906 28.667969 18.878906 28.421875 C 18.878906 28.179688 18.683594 27.980469 18.4375 27.980469 " fill-opacity="1" fill-rule="nonzero"/><path fill="#4f2fda" d="M 20.652344 27.980469 C 20.40625 27.980469 20.207031 28.179688 20.207031 28.421875 C 20.207031 28.667969 20.40625 28.867188 20.652344 28.867188 C 20.894531 28.867188 21.09375 28.667969 21.09375 28.421875 C 21.09375 28.179688 20.894531 27.980469 20.652344 27.980469 " fill-opacity="1" fill-rule="nonzero"/><path fill="#4f2fda" d="M 25.964844 27.980469 L 22.863281 27.980469 C 22.621094 27.980469 22.421875 28.179688 22.421875 28.421875 C 22.421875 28.667969 22.621094 28.867188 22.863281 28.867188 L 25.964844 28.867188 C 26.207031 28.867188 26.40625 28.667969 26.40625 28.421875 C 26.40625 28.179688 26.207031 27.980469 25.964844 27.980469 " fill-opacity="1" fill-rule="nonzero"/><path fill="#4f2fda" d="M 28.175781 27.980469 C 27.933594 27.980469 27.734375 28.179688 27.734375 28.421875 C 27.734375 28.667969 27.933594 28.867188 28.175781 28.867188 C 28.421875 28.867188 28.621094 28.667969 28.621094 28.421875 C 28.621094 28.179688 28.421875 27.980469 28.175781 27.980469 " fill-opacity="1" fill-rule="nonzero"/><g fill="#ff2041" fill-opacity="1"><g transform="translate(24.47495, 5.17442)"><g><path d="M 1.96875 0 L 1.546875 0 L 1.390625 -0.46875 L 0.609375 -0.46875 L 0.453125 0 L 0.03125 0 L 0.734375 -2.046875 L 1.265625 -2.046875 Z M 0.96875 -1.625 L 0.71875 -0.8125 L 1.28125 -0.8125 L 1.015625 -1.625 Z M 0.96875 -1.625 "/></g></g><g transform="translate(26.475028, 5.17442)"><g><path d="M 0.921875 -1.1875 L 1.390625 -1.1875 L 1.390625 -0.859375 L 0.921875 -0.859375 L 0.921875 -0.390625 L 0.59375 -0.390625 L 0.59375 -0.859375 L 0.125 -0.859375 L 0.125 -1.1875 L 0.59375 -1.1875 L 0.59375 -1.65625 L 0.921875 -1.65625 Z M 0.921875 -1.1875 "/></g></g><g transform="translate(27.989472, 5.17442)"><g><path d="M 0.921875 -1.1875 L 1.390625 -1.1875 L 1.390625 -0.859375 L 0.921875 -0.859375 L 0.921875 -0.390625 L 0.59375 -0.390625 L 0.59375 -0.859375 L 0.125 -0.859375 L 0.125 -1.1875 L 0.59375 -1.1875 L 0.59375 -1.65625 L 0.921875 -1.65625 Z M 0.921875 -1.1875 "/></g></g></g></svg>