<svg xmlns="http://www.w3.org/2000/svg" xmlns:xlink="http://www.w3.org/1999/xlink" width="48" zoomAndPan="magnify" viewBox="0 0 36 36.000001" height="48" preserveAspectRatio="xMidYMid meet" version="1.0"><defs><clipPath id="a04b3c24b2"><path d="M 4.117188 5.800781 L 31.847656 5.800781 L 31.847656 29.152344 L 4.117188 29.152344 Z M 4.117188 5.800781 " clip-rule="nonzero"/></clipPath></defs><g clip-path="url(#a04b3c24b2)"><path fill="#4f2fda" d="M 30.0625 5.804688 L 5.925781 5.804688 C 5.039062 5.804688 4.320312 6.527344 4.320312 7.414062 L 4.320312 24.015625 C 4.320312 24.902344 5.039062 25.625 5.925781 25.625 L 13.777344 25.625 L 13.777344 27.558594 L 13.566406 27.558594 C 13.109375 27.558594 12.738281 27.929688 12.738281 28.386719 C 12.738281 28.847656 13.109375 29.21875 13.566406 29.21875 L 22.421875 29.21875 C 22.878906 29.21875 23.25 28.847656 23.25 28.386719 C 23.25 27.929688 22.878906 27.558594 22.421875 27.558594 L 22.214844 27.558594 L 22.214844 25.625 L 30.0625 25.625 C 30.949219 25.625 31.671875 24.902344 31.671875 24.015625 L 31.671875 7.414062 C 31.671875 6.527344 30.949219 5.804688 30.0625 5.804688 Z M 30.425781 24.015625 C 30.425781 24.214844 30.261719 24.378906 30.0625 24.378906 L 5.925781 24.378906 C 5.726562 24.378906 5.566406 24.214844 5.566406 24.015625 L 5.566406 7.414062 C 5.566406 7.214844 5.726562 7.050781 5.925781 7.050781 L 30.0625 7.050781 C 30.261719 7.050781 30.425781 7.214844 30.425781 7.414062 Z M 30.425781 24.015625 " fill-opacity="1" fill-rule="nonzero"/></g><path fill="#4f2fda" d="M 9.484375 16.648438 L 7.828125 16.648438 C 7.367188 16.648438 6.996094 17.019531 6.996094 17.476562 L 6.996094 22.90625 L 10.316406 22.90625 L 10.316406 17.476562 C 10.316406 17.019531 9.945312 16.648438 9.484375 16.648438 Z M 9.484375 16.648438 " fill-opacity="1" fill-rule="nonzero"/><path fill="#4f2fda" d="M 14.15625 15.019531 L 12.496094 15.019531 C 12.039062 15.019531 11.664062 15.394531 11.664062 15.851562 L 11.664062 22.90625 L 14.984375 22.90625 L 14.984375 15.851562 C 14.984375 15.394531 14.613281 15.019531 14.15625 15.019531 Z M 14.15625 15.019531 " fill-opacity="1" fill-rule="nonzero"/><path fill="#4f2fda" d="M 18.824219 18.1875 L 17.167969 18.1875 C 16.707031 18.1875 16.335938 18.558594 16.335938 19.015625 L 16.335938 22.90625 L 19.65625 22.90625 L 19.65625 19.015625 C 19.652344 18.558594 19.28125 18.1875 18.824219 18.1875 Z M 18.824219 18.1875 " fill-opacity="1" fill-rule="nonzero"/><path fill="#4f2fda" d="M 23.496094 14.191406 L 21.835938 14.191406 C 21.375 14.191406 21.003906 14.5625 21.003906 15.019531 L 21.003906 22.90625 L 24.324219 22.90625 L 24.324219 15.019531 C 24.324219 14.5625 23.953125 14.191406 23.496094 14.191406 Z M 23.496094 14.191406 " fill-opacity="1" fill-rule="nonzero"/><path fill="#4f2fda" d="M 28.164062 12.53125 L 26.503906 12.53125 C 26.046875 12.53125 25.671875 12.902344 25.671875 13.363281 L 25.671875 22.90625 L 28.992188 22.90625 L 28.992188 13.363281 C 28.992188 12.902344 28.621094 12.53125 28.164062 12.53125 Z M 28.164062 12.53125 " fill-opacity="1" fill-rule="nonzero"/><path fill="#4f2fda" d="M 8.65625 14.671875 C 9.207031 14.671875 9.652344 14.222656 9.652344 13.675781 C 9.652344 13.667969 9.648438 13.664062 9.648438 13.65625 L 12.539062 12.652344 C 12.71875 12.890625 13.003906 13.042969 13.324219 13.042969 C 13.554688 13.042969 13.761719 12.964844 13.929688 12.835938 L 17.039062 14.941406 C 17.015625 15.03125 17 15.121094 17 15.210938 C 17 15.765625 17.445312 16.210938 17.996094 16.210938 C 18.542969 16.210938 18.988281 15.765625 18.988281 15.210938 C 18.988281 15.078125 18.964844 14.953125 18.914062 14.835938 L 22.148438 12.066406 C 22.300781 12.160156 22.476562 12.214844 22.664062 12.214844 C 23.214844 12.214844 23.660156 11.769531 23.660156 11.21875 C 23.660156 11.210938 23.65625 11.203125 23.65625 11.199219 L 26.550781 10.167969 C 26.734375 10.402344 27.015625 10.554688 27.335938 10.554688 C 27.882812 10.554688 28.332031 10.109375 28.332031 9.558594 C 28.332031 9.007812 27.882812 8.5625 27.335938 8.5625 C 26.78125 8.5625 26.335938 9.007812 26.335938 9.558594 C 26.335938 9.566406 26.339844 9.574219 26.339844 9.582031 L 23.449219 10.609375 C 23.265625 10.375 22.984375 10.222656 22.664062 10.222656 C 22.113281 10.222656 21.667969 10.667969 21.667969 11.21875 C 21.667969 11.351562 21.695312 11.480469 21.742188 11.597656 L 18.507812 14.363281 C 18.359375 14.273438 18.183594 14.21875 17.996094 14.21875 C 17.765625 14.21875 17.558594 14.296875 17.390625 14.429688 L 14.277344 12.316406 C 14.304688 12.230469 14.320312 12.144531 14.320312 12.046875 C 14.320312 11.5 13.875 11.054688 13.324219 11.054688 C 12.773438 11.054688 12.328125 11.5 12.328125 12.046875 C 12.328125 12.054688 12.332031 12.058594 12.332031 12.066406 L 9.441406 13.070312 C 9.261719 12.835938 8.976562 12.675781 8.65625 12.675781 C 8.105469 12.675781 7.660156 13.125 7.660156 13.671875 C 7.660156 14.222656 8.105469 14.671875 8.65625 14.671875 Z M 8.65625 14.671875 " fill-opacity="1" fill-rule="nonzero"/></svg>