<svg xmlns="http://www.w3.org/2000/svg" xmlns:xlink="http://www.w3.org/1999/xlink" width="48" zoomAndPan="magnify" viewBox="0 0 36 36.000001" height="48" preserveAspectRatio="xMidYMid meet" version="1.0"><defs><clipPath id="0dac91123d"><path d="M 3.988281 6.382812 L 30.988281 6.382812 L 30.988281 29 L 3.988281 29 Z M 3.988281 6.382812 " clip-rule="nonzero"/></clipPath></defs><g clip-path="url(#0dac91123d)"><path fill="#4f2fda" d="M 6.175781 6.761719 C 5.972656 6.972656 5.59375 7.375 5.335938 7.648438 C 5.070312 7.921875 4.664062 8.355469 4.421875 8.605469 L 3.992188 9.0625 L 3.992188 9.9375 C 3.992188 11.089844 4.144531 11.765625 4.519531 12.292969 C 4.625 12.4375 4.625 12.492188 4.625 18.738281 C 4.625 22.722656 4.644531 25.101562 4.675781 25.222656 C 4.703125 25.320312 4.800781 25.472656 4.890625 25.5625 L 5.050781 25.71875 L 9.613281 25.734375 L 14.171875 25.742188 L 14.171875 25.917969 C 14.167969 26.683594 13.632812 27.644531 12.8125 28.339844 L 12.484375 28.617188 L 14.988281 28.632812 C 16.367188 28.640625 18.625 28.640625 19.996094 28.632812 L 22.5 28.617188 L 22.148438 28.339844 C 21.738281 28.015625 21.414062 27.632812 21.1875 27.214844 C 21.015625 26.886719 20.820312 26.203125 20.820312 25.921875 L 20.820312 25.742188 L 25.375 25.734375 L 29.941406 25.71875 L 30.097656 25.5625 C 30.1875 25.472656 30.289062 25.320312 30.3125 25.222656 C 30.347656 25.101562 30.367188 22.722656 30.367188 18.742188 L 30.367188 12.449219 L 30.53125 12.179688 C 30.621094 12.039062 30.757812 11.730469 30.832031 11.511719 C 30.953125 11.148438 30.96875 11.003906 30.988281 10.085938 L 31.011719 9.066406 L 30.804688 8.875 C 30.695312 8.765625 30.078125 8.160156 29.433594 7.527344 L 28.261719 6.382812 L 6.53125 6.382812 Z M 10.105469 7.160156 C 10.105469 7.183594 9.929688 7.570312 9.71875 8.019531 L 9.339844 8.835938 L 7.261719 8.851562 L 5.175781 8.863281 L 5.519531 8.507812 C 5.710938 8.308594 6.089844 7.917969 6.363281 7.632812 L 6.867188 7.121094 L 8.484375 7.121094 C 9.382812 7.121094 10.109375 7.136719 10.105469 7.160156 Z M 14.851562 7.210938 C 14.851562 7.265625 14.785156 7.648438 14.703125 8.070312 L 14.5625 8.835938 L 12.308594 8.851562 C 11.070312 8.855469 10.058594 8.847656 10.058594 8.824219 C 10.058594 8.800781 10.226562 8.410156 10.4375 7.957031 L 10.820312 7.121094 L 12.84375 7.121094 C 14.726562 7.121094 14.859375 7.128906 14.851562 7.210938 Z M 19.574219 7.921875 C 19.660156 8.367188 19.738281 8.761719 19.746094 8.792969 C 19.769531 8.847656 19.300781 8.863281 17.496094 8.863281 C 15.351562 8.863281 15.222656 8.855469 15.242188 8.765625 C 15.257812 8.71875 15.335938 8.328125 15.417969 7.898438 L 15.558594 7.121094 L 19.425781 7.121094 Z M 24.46875 7.9375 C 24.703125 8.371094 24.902344 8.761719 24.917969 8.800781 C 24.9375 8.851562 24.484375 8.863281 22.6875 8.851562 L 20.429688 8.835938 L 20.265625 7.976562 L 20.097656 7.121094 L 22.074219 7.132812 L 24.046875 7.148438 Z M 28.863281 7.988281 L 29.761719 8.855469 L 27.703125 8.855469 L 25.644531 8.863281 L 25.214844 8.023438 C 24.96875 7.558594 24.773438 7.167969 24.773438 7.152344 C 24.773438 7.136719 25.492188 7.121094 26.375 7.121094 L 27.96875 7.121094 Z M 9.25 10.296875 C 9.234375 10.824219 9.195312 11.078125 9.113281 11.308594 C 8.886719 11.949219 8.433594 12.464844 7.851562 12.75 C 7.578125 12.886719 7.5 12.898438 6.972656 12.898438 C 6.421875 12.898438 6.371094 12.886719 6.046875 12.730469 C 5.488281 12.457031 5.039062 11.949219 4.820312 11.351562 C 4.734375 11.113281 4.703125 10.894531 4.6875 10.324219 L 4.664062 9.601562 L 9.28125 9.601562 Z M 14.542969 10.058594 C 14.542969 10.714844 14.457031 11.152344 14.257812 11.578125 C 14.007812 12.105469 13.671875 12.460938 13.179688 12.699219 C 12.792969 12.894531 12.757812 12.898438 12.21875 12.898438 C 11.699219 12.898438 11.644531 12.886719 11.300781 12.71875 C 10.886719 12.519531 10.464844 12.117188 10.257812 11.730469 C 10.03125 11.316406 9.953125 10.921875 9.953125 10.222656 L 9.953125 9.601562 L 14.542969 9.601562 Z M 19.765625 10.253906 C 19.765625 11.035156 19.664062 11.425781 19.335938 11.917969 C 19.078125 12.300781 18.789062 12.554688 18.359375 12.75 C 18.082031 12.882812 17.992188 12.898438 17.496094 12.898438 C 16.984375 12.898438 16.914062 12.886719 16.582031 12.730469 C 15.976562 12.4375 15.480469 11.835938 15.300781 11.164062 C 15.257812 11.015625 15.210938 10.601562 15.191406 10.246094 L 15.160156 9.601562 L 19.765625 9.601562 Z M 25.039062 10.21875 C 25.035156 10.941406 24.988281 11.195312 24.765625 11.648438 C 24.542969 12.089844 24.132812 12.503906 23.6875 12.71875 C 23.34375 12.886719 23.292969 12.898438 22.769531 12.898438 C 22.234375 12.898438 22.195312 12.894531 21.8125 12.699219 C 20.898438 12.25 20.453125 11.398438 20.449219 10.113281 L 20.449219 9.601562 L 25.039062 9.601562 Z M 30.3125 10.195312 C 30.3125 10.878906 30.230469 11.261719 29.992188 11.714844 C 29.78125 12.105469 29.296875 12.570312 28.90625 12.753906 C 28.632812 12.882812 28.542969 12.898438 28.019531 12.898438 C 27.488281 12.898438 27.414062 12.886719 27.121094 12.746094 C 26.695312 12.535156 26.210938 12.042969 26 11.605469 C 25.796875 11.179688 25.726562 10.78125 25.726562 10.117188 L 25.726562 9.601562 L 30.3125 9.601562 Z M 10.042969 12.644531 C 10.289062 12.945312 10.875 13.363281 11.265625 13.511719 C 11.632812 13.652344 12.390625 13.699219 12.816406 13.609375 C 13.496094 13.472656 14.214844 12.972656 14.621094 12.351562 C 14.734375 12.175781 14.839844 12.027344 14.859375 12.027344 C 14.875 12.027344 14.988281 12.179688 15.109375 12.367188 C 15.9375 13.625 17.570312 14.03125 18.863281 13.308594 C 19.261719 13.089844 19.753906 12.609375 19.964844 12.238281 L 20.117188 11.976562 L 20.339844 12.3125 C 20.75 12.945312 21.484375 13.46875 22.175781 13.609375 C 22.589844 13.699219 23.308594 13.652344 23.695312 13.515625 C 24.289062 13.292969 24.824219 12.859375 25.199219 12.285156 L 25.398438 11.976562 L 25.546875 12.222656 C 25.894531 12.8125 26.523438 13.316406 27.175781 13.519531 C 27.457031 13.605469 27.671875 13.632812 28.074219 13.632812 C 28.566406 13.625 28.8125 13.574219 29.273438 13.371094 C 29.359375 13.335938 29.363281 13.503906 29.363281 16.53125 L 29.363281 19.730469 L 21.683594 19.730469 L 21.398438 20.308594 L 29.363281 20.308594 L 29.363281 22.589844 L 29.1875 22.769531 L 29.007812 22.949219 L 5.984375 22.949219 L 5.625 22.589844 L 5.625 20.308594 L 13.589844 20.308594 L 13.308594 19.730469 L 5.625 19.730469 L 5.625 16.539062 C 5.625 14.78125 5.632812 13.347656 5.640625 13.347656 C 5.648438 13.347656 5.789062 13.394531 5.953125 13.453125 C 7.292969 13.921875 8.613281 13.484375 9.382812 12.3125 L 9.601562 11.980469 L 9.726562 12.191406 C 9.789062 12.308594 9.929688 12.507812 10.042969 12.644531 Z M 10.042969 12.644531 " fill-opacity="1" fill-rule="nonzero"/></g><path fill="#4f2fda" d="M 16.996094 14.644531 C 16.683594 14.691406 16.253906 14.835938 15.945312 14.992188 C 14.386719 15.773438 13.648438 17.582031 14.207031 19.21875 C 14.566406 20.257812 15.34375 21.027344 16.398438 21.40625 C 16.742188 21.527344 16.863281 21.542969 17.496094 21.542969 C 18.128906 21.542969 18.25 21.527344 18.59375 21.40625 C 19.648438 21.027344 20.421875 20.257812 20.78125 19.21875 C 21.421875 17.351562 20.363281 15.324219 18.445312 14.75 C 18.15625 14.660156 17.289062 14.601562 16.996094 14.644531 Z M 18.261719 15.0625 C 18.835938 15.207031 19.230469 15.441406 19.691406 15.898438 C 20.148438 16.359375 20.382812 16.753906 20.527344 17.328125 C 20.628906 17.726562 20.628906 18.507812 20.527344 18.886719 C 20.445312 19.207031 20.097656 19.941406 20.03125 19.941406 C 19.90625 19.941406 18.707031 19.597656 18.550781 19.519531 C 18.449219 19.464844 18.328125 19.359375 18.28125 19.28125 C 18.203125 19.144531 18.207031 19.132812 18.535156 18.636719 C 18.933594 18.027344 19.03125 17.773438 18.902344 17.628906 C 18.835938 17.554688 18.8125 17.425781 18.8125 17.085938 C 18.8125 16.570312 18.714844 16.296875 18.441406 16.0625 C 18.191406 15.859375 17.636719 15.605469 17.359375 15.574219 C 17.140625 15.550781 17.125 15.558594 17.125 15.679688 C 17.125 15.773438 17.082031 15.820312 16.9375 15.875 C 16.6875 15.964844 16.386719 16.230469 16.304688 16.441406 C 16.261719 16.542969 16.230469 16.808594 16.230469 17.09375 C 16.230469 17.382812 16.207031 17.566406 16.175781 17.566406 C 16.085938 17.566406 16.027344 17.789062 16.078125 17.945312 C 16.097656 18.027344 16.25 18.296875 16.410156 18.542969 C 16.570312 18.789062 16.703125 19.035156 16.703125 19.074219 C 16.703125 19.222656 16.546875 19.464844 16.394531 19.539062 C 16.269531 19.601562 15.582031 19.796875 15.035156 19.925781 C 14.949219 19.945312 14.894531 19.886719 14.742188 19.585938 C 14.484375 19.097656 14.382812 18.679688 14.382812 18.078125 C 14.382812 16.671875 15.34375 15.425781 16.703125 15.066406 C 17.089844 14.964844 17.871094 14.960938 18.261719 15.0625 Z M 18.261719 15.0625 " fill-opacity="1" fill-rule="nonzero"/></svg>