<svg xmlns="http://www.w3.org/2000/svg" xmlns:xlink="http://www.w3.org/1999/xlink" width="48" zoomAndPan="magnify" viewBox="0 0 36 36.000001" height="48" preserveAspectRatio="xMidYMid meet" version="1.0"><defs><clipPath id="e9182b0716"><path d="M 6 20 L 11 20 L 11 28.914062 L 6 28.914062 Z M 6 20 " clip-rule="nonzero"/></clipPath><clipPath id="6eb8ddcdff"><path d="M 11 19 L 15 19 L 15 28.914062 L 11 28.914062 Z M 11 19 " clip-rule="nonzero"/></clipPath><clipPath id="29df832b7d"><path d="M 15 16 L 20 16 L 20 28.914062 L 15 28.914062 Z M 15 16 " clip-rule="nonzero"/></clipPath><clipPath id="280415d3aa"><path d="M 20 15 L 24 15 L 24 28.914062 L 20 28.914062 Z M 20 15 " clip-rule="nonzero"/></clipPath><clipPath id="685e7988ea"><path d="M 24 11 L 29 11 L 29 28.914062 L 24 28.914062 Z M 24 11 " clip-rule="nonzero"/></clipPath><clipPath id="a79462d181"><path d="M 4 6.292969 L 31.71875 6.292969 L 31.71875 24 L 4 24 Z M 4 6.292969 " clip-rule="nonzero"/></clipPath></defs><g clip-path="url(#e9182b0716)"><path fill="#4f2fda" d="M 9.484375 20.132812 C 9.460938 20.132812 9.425781 20.140625 9.394531 20.167969 L 6.976562 22.40625 L 6.976562 28.371094 C 6.976562 28.570312 7.136719 28.734375 7.335938 28.734375 L 10.039062 28.734375 C 10.238281 28.734375 10.402344 28.570312 10.402344 28.371094 L 10.402344 20.875 L 9.566406 20.164062 C 9.535156 20.140625 9.503906 20.132812 9.484375 20.132812 " fill-opacity="1" fill-rule="nonzero"/></g><g clip-path="url(#6eb8ddcdff)"><path fill="#4f2fda" d="M 11.835938 21.730469 C 11.699219 21.730469 11.5625 21.707031 11.433594 21.660156 L 11.433594 28.371094 C 11.433594 28.570312 11.597656 28.734375 11.796875 28.734375 L 14.5 28.734375 C 14.699219 28.734375 14.859375 28.570312 14.859375 28.371094 L 14.859375 19.324219 L 12.632812 21.414062 C 12.417969 21.617188 12.132812 21.730469 11.835938 21.730469 " fill-opacity="1" fill-rule="nonzero"/></g><g clip-path="url(#29df832b7d)"><path fill="#4f2fda" d="M 18.359375 16.089844 C 18.332031 16.089844 18.300781 16.09375 18.269531 16.125 L 15.894531 18.351562 L 15.894531 28.371094 C 15.894531 28.570312 16.054688 28.734375 16.257812 28.734375 L 18.960938 28.734375 C 19.160156 28.734375 19.320312 28.570312 19.320312 28.371094 L 19.320312 16.933594 L 18.445312 16.121094 C 18.414062 16.09375 18.378906 16.089844 18.359375 16.089844 " fill-opacity="1" fill-rule="nonzero"/></g><g clip-path="url(#280415d3aa)"><path fill="#4f2fda" d="M 20.503906 17.609375 C 20.453125 17.609375 20.402344 17.605469 20.355469 17.597656 L 20.355469 28.371094 C 20.355469 28.570312 20.515625 28.734375 20.714844 28.734375 L 23.421875 28.734375 C 23.617188 28.734375 23.78125 28.570312 23.78125 28.371094 L 23.78125 15.136719 L 21.265625 17.324219 C 21.054688 17.507812 20.785156 17.609375 20.503906 17.609375 " fill-opacity="1" fill-rule="nonzero"/></g><g clip-path="url(#685e7988ea)"><path fill="#4f2fda" d="M 24.816406 28.371094 C 24.816406 28.570312 24.976562 28.734375 25.175781 28.734375 L 27.878906 28.734375 C 28.078125 28.734375 28.242188 28.570312 28.242188 28.371094 L 28.242188 11.257812 L 24.816406 14.238281 L 24.816406 28.371094 " fill-opacity="1" fill-rule="nonzero"/></g><g clip-path="url(#a79462d181)"><path fill="#4f2fda" d="M 31.210938 6.34375 L 28.070312 6.703125 C 27.554688 6.761719 27.316406 7.371094 27.65625 7.765625 L 28.023438 8.195312 C 28.253906 8.464844 28.226562 8.871094 27.957031 9.105469 L 20.953125 15.195312 C 20.707031 15.414062 20.332031 15.40625 20.089844 15.179688 L 18.792969 13.976562 C 18.542969 13.746094 18.15625 13.746094 17.910156 13.976562 L 12.238281 19.304688 C 11.996094 19.53125 11.625 19.539062 11.375 19.328125 L 9.867188 18.042969 C 9.617188 17.832031 9.246094 17.839844 9.007812 18.0625 L 4.28125 22.4375 C 4.015625 22.679688 4 23.085938 4.242188 23.347656 C 4.484375 23.613281 4.894531 23.625 5.15625 23.386719 L 9.042969 19.789062 C 9.285156 19.566406 9.652344 19.558594 9.902344 19.769531 L 11.417969 21.058594 C 11.667969 21.273438 12.039062 21.265625 12.28125 21.039062 L 17.914062 15.746094 C 18.160156 15.515625 18.546875 15.511719 18.796875 15.742188 L 20.0625 16.917969 C 20.304688 17.144531 20.679688 17.148438 20.925781 16.933594 L 28.792969 10.089844 C 29.0625 9.855469 29.472656 9.886719 29.707031 10.160156 L 29.960938 10.453125 C 30.296875 10.847656 30.9375 10.703125 31.074219 10.203125 L 31.90625 7.15625 C 32.027344 6.714844 31.664062 6.292969 31.210938 6.34375 " fill-opacity="1" fill-rule="nonzero"/></g></svg>