<svg xmlns="http://www.w3.org/2000/svg" xmlns:xlink="http://www.w3.org/1999/xlink" width="48" zoomAndPan="magnify" viewBox="0 0 36 36.000001" height="48" preserveAspectRatio="xMidYMid meet" version="1.0"><defs><clipPath id="016aa31255"><path d="M 3.988281 6.644531 L 23 6.644531 L 23 25 L 3.988281 25 Z M 3.988281 6.644531 " clip-rule="nonzero"/></clipPath><clipPath id="0fd1ee776f"><path d="M 15 14 L 31.71875 14 L 31.71875 28.539062 L 15 28.539062 Z M 15 14 " clip-rule="nonzero"/></clipPath></defs><g clip-path="url(#016aa31255)"><path fill="#4f2fda" d="M 5.847656 20.636719 L 5.847656 10.214844 C 5.847656 9.277344 6.613281 8.511719 7.554688 8.511719 L 10.851562 8.511719 L 10.421875 10.425781 C 10.394531 10.589844 10.460938 10.757812 10.59375 10.847656 L 12.679688 12.226562 C 12.859375 12.355469 12.910156 12.597656 12.792969 12.777344 L 11.265625 15.128906 C 11.160156 15.292969 11.191406 15.507812 11.328125 15.636719 L 13.15625 17.367188 C 13.253906 17.457031 13.300781 17.601562 13.269531 17.734375 L 12.871094 19.75 C 12.78125 20.179688 13.347656 20.410156 13.589844 20.054688 L 15.332031 17.464844 C 15.4375 17.308594 15.421875 17.105469 15.296875 16.972656 L 14.082031 15.65625 C 13.949219 15.5 13.941406 15.269531 14.082031 15.113281 L 16.375 12.554688 C 16.539062 12.382812 16.507812 12.097656 16.308594 11.964844 L 14.410156 10.625 C 14.246094 10.503906 14.195312 10.296875 14.277344 10.117188 L 15.078125 8.507812 L 19.347656 8.507812 C 20.277344 8.507812 21.046875 9.273438 21.046875 10.214844 L 21.046875 12.648438 C 21.597656 12.300781 22.230469 12.082031 22.90625 12.023438 L 22.90625 10.214844 C 22.90625 8.25 21.308594 6.652344 19.347656 6.652344 L 7.554688 6.652344 C 5.589844 6.652344 3.988281 8.25 3.988281 10.214844 L 3.988281 20.636719 C 3.988281 22.59375 5.589844 24.195312 7.554688 24.195312 L 13.621094 24.195312 C 13.648438 24.132812 13.679688 24.078125 13.71875 24.015625 L 14.722656 22.335938 L 7.554688 22.335938 C 6.617188 22.335938 5.847656 21.570312 5.847656 20.636719 Z M 5.847656 20.636719 " fill-opacity="1" fill-rule="nonzero"/></g><g clip-path="url(#0fd1ee776f)"><path fill="#4f2fda" d="M 31.117188 25.050781 L 25.167969 15.082031 C 24.765625 14.414062 24.0625 14.011719 23.28125 14.011719 C 22.5 14.011719 21.796875 14.410156 21.394531 15.082031 L 15.441406 25.050781 C 15.03125 25.738281 15.023438 26.5625 15.421875 27.261719 C 15.816406 27.957031 16.53125 28.371094 17.328125 28.371094 L 29.230469 28.371094 C 30.03125 28.371094 30.746094 27.957031 31.140625 27.261719 C 31.535156 26.5625 31.527344 25.738281 31.117188 25.050781 Z M 23.285156 26.414062 C 22.703125 26.414062 22.230469 25.941406 22.230469 25.359375 C 22.230469 24.777344 22.699219 24.304688 23.285156 24.304688 C 23.863281 24.304688 24.335938 24.777344 24.335938 25.359375 C 24.335938 25.941406 23.863281 26.414062 23.285156 26.414062 Z M 24.402344 18.4375 L 24.027344 22.757812 C 23.992188 23.167969 23.628906 23.476562 23.214844 23.441406 C 22.84375 23.410156 22.5625 23.113281 22.53125 22.757812 L 22.160156 18.4375 C 22.105469 17.816406 22.5625 17.269531 23.183594 17.21875 C 23.804688 17.164062 24.351562 17.621094 24.402344 18.242188 C 24.410156 18.308594 24.410156 18.375 24.402344 18.4375 Z M 24.402344 18.4375 " fill-opacity="1" fill-rule="nonzero"/></g></svg>