<svg xmlns="http://www.w3.org/2000/svg" xmlns:xlink="http://www.w3.org/1999/xlink" width="48" zoomAndPan="magnify" viewBox="0 0 36 36.000001" height="48" preserveAspectRatio="xMidYMid meet" version="1.0"><defs><clipPath id="62c5314d9f"><path d="M 2.675781 2.480469 L 32.59375 2.480469 L 32.59375 32.398438 L 2.675781 32.398438 Z M 2.675781 2.480469 " clip-rule="nonzero"/></clipPath></defs><g clip-path="url(#62c5314d9f)"><path fill="#4f2fda" d="M 5.601562 6.367188 C 6.238281 6.367188 6.757812 5.847656 6.757812 5.207031 C 6.757812 4.566406 6.238281 4.046875 5.601562 4.046875 C 4.960938 4.046875 4.441406 4.566406 4.441406 5.207031 C 4.441406 5.847656 4.960938 6.367188 5.601562 6.367188 Z M 5.601562 4.992188 C 5.71875 4.992188 5.816406 5.089844 5.816406 5.207031 C 5.816406 5.328125 5.71875 5.421875 5.601562 5.421875 C 5.480469 5.421875 5.382812 5.328125 5.382812 5.207031 C 5.386719 5.089844 5.480469 4.992188 5.601562 4.992188 Z M 8.449219 6.367188 C 9.089844 6.367188 9.609375 5.847656 9.609375 5.207031 C 9.609375 4.566406 9.089844 4.046875 8.449219 4.046875 C 7.8125 4.046875 7.292969 4.566406 7.292969 5.207031 C 7.292969 5.847656 7.8125 6.367188 8.449219 6.367188 Z M 8.449219 4.992188 C 8.570312 4.992188 8.667969 5.089844 8.667969 5.207031 C 8.667969 5.328125 8.570312 5.421875 8.449219 5.421875 C 8.332031 5.421875 8.234375 5.328125 8.234375 5.207031 C 8.234375 5.089844 8.332031 4.992188 8.449219 4.992188 Z M 18.558594 5.207031 C 18.558594 4.945312 18.769531 4.734375 19.03125 4.734375 L 26.683594 4.734375 C 26.945312 4.734375 27.15625 4.945312 27.15625 5.207031 C 27.15625 5.46875 26.945312 5.679688 26.683594 5.679688 L 19.03125 5.679688 C 18.769531 5.679688 18.558594 5.46875 18.558594 5.207031 Z M 11.300781 6.367188 C 11.9375 6.367188 12.457031 5.847656 12.457031 5.207031 C 12.457031 4.566406 11.9375 4.046875 11.300781 4.046875 C 10.660156 4.046875 10.140625 4.566406 10.140625 5.207031 C 10.140625 5.847656 10.660156 6.367188 11.300781 6.367188 Z M 11.300781 4.992188 C 11.417969 4.992188 11.515625 5.089844 11.515625 5.207031 C 11.515625 5.328125 11.417969 5.421875 11.300781 5.421875 C 11.179688 5.421875 11.085938 5.328125 11.085938 5.207031 C 11.085938 5.089844 11.179688 4.992188 11.300781 4.992188 Z M 12.320312 16.070312 C 12.949219 15.617188 13.359375 14.875 13.359375 14.042969 C 13.359375 12.65625 12.234375 11.53125 10.851562 11.53125 C 9.464844 11.53125 8.339844 12.65625 8.339844 14.042969 C 8.339844 14.875 8.75 15.617188 9.378906 16.070312 C 7.867188 16.636719 6.746094 18.042969 6.621094 19.726562 C 6.605469 19.929688 6.675781 20.132812 6.8125 20.28125 C 6.953125 20.433594 7.148438 20.515625 7.351562 20.515625 L 14.347656 20.515625 C 14.550781 20.515625 14.746094 20.433594 14.886719 20.28125 C 15.023438 20.132812 15.09375 19.929688 15.078125 19.726562 C 14.953125 18.042969 13.832031 16.636719 12.320312 16.070312 Z M 10.851562 12.476562 C 11.714844 12.476562 12.414062 13.179688 12.414062 14.042969 C 12.414062 14.90625 11.714844 15.609375 10.851562 15.609375 C 9.984375 15.609375 9.285156 14.90625 9.285156 14.042969 C 9.285156 13.179688 9.984375 12.476562 10.851562 12.476562 Z M 7.585938 19.574219 C 7.816406 17.972656 9.210938 16.746094 10.851562 16.746094 C 12.488281 16.746094 13.882812 17.972656 14.113281 19.574219 Z M 14.351562 21.777344 L 7.347656 21.777344 C 6.960938 21.777344 6.648438 22.089844 6.648438 22.476562 L 6.648438 24.296875 C 6.648438 24.683594 6.960938 25 7.347656 25 L 14.351562 25 C 14.738281 25 15.050781 24.683594 15.050781 24.296875 L 15.050781 22.476562 C 15.050781 22.089844 14.738281 21.777344 14.351562 21.777344 Z M 14.109375 24.054688 L 7.589844 24.054688 L 7.589844 22.71875 L 14.109375 22.71875 Z M 25.792969 17.09375 C 25.792969 17.351562 25.582031 17.566406 25.320312 17.566406 L 16.882812 17.566406 C 16.621094 17.566406 16.410156 17.351562 16.410156 17.09375 C 16.410156 16.832031 16.621094 16.621094 16.882812 16.621094 L 25.320312 16.621094 C 25.582031 16.621094 25.792969 16.832031 25.792969 17.09375 Z M 25.792969 19.4375 C 25.792969 19.699219 25.582031 19.910156 25.320312 19.910156 L 16.882812 19.910156 C 16.621094 19.910156 16.410156 19.699219 16.410156 19.4375 C 16.410156 19.175781 16.621094 18.964844 16.882812 18.964844 L 25.320312 18.964844 C 25.582031 18.964844 25.792969 19.175781 25.792969 19.4375 Z M 16.410156 12.402344 C 16.410156 12.144531 16.621094 11.933594 16.882812 11.933594 L 25.320312 11.933594 C 25.582031 11.933594 25.792969 12.144531 25.792969 12.402344 C 25.792969 12.664062 25.582031 12.875 25.320312 12.875 L 16.882812 12.875 C 16.621094 12.875 16.410156 12.664062 16.410156 12.402344 Z M 25.792969 14.75 C 25.792969 15.007812 25.582031 15.21875 25.320312 15.21875 L 16.882812 15.21875 C 16.621094 15.21875 16.410156 15.007812 16.410156 14.75 C 16.410156 14.488281 16.621094 14.277344 16.882812 14.277344 L 25.320312 14.277344 C 25.582031 14.277344 25.792969 14.488281 25.792969 14.75 Z M 32.261719 24.835938 L 31.664062 24.835938 C 31.546875 24.410156 31.375 24.003906 31.160156 23.621094 L 31.582031 23.199219 C 31.765625 23.015625 31.765625 22.714844 31.582031 22.53125 L 30.214844 21.164062 C 30.125 21.078125 30.007812 21.027344 29.882812 21.027344 C 29.832031 21.027344 29.78125 21.035156 29.734375 21.050781 L 29.734375 4.710938 C 29.734375 3.480469 28.734375 2.480469 27.503906 2.480469 L 4.90625 2.480469 C 3.675781 2.480469 2.675781 3.480469 2.675781 4.710938 L 2.675781 27.308594 C 2.675781 28.539062 3.675781 29.539062 4.90625 29.539062 L 21.246094 29.539062 C 21.230469 29.585938 21.222656 29.636719 21.222656 29.6875 C 21.222656 29.8125 21.269531 29.929688 21.359375 30.019531 L 22.726562 31.386719 C 22.8125 31.476562 22.933594 31.523438 23.058594 31.523438 C 23.183594 31.523438 23.304688 31.476562 23.390625 31.386719 L 23.816406 30.964844 C 24.199219 31.183594 24.605469 31.351562 25.03125 31.46875 L 25.03125 32.066406 C 25.03125 32.324219 25.242188 32.535156 25.503906 32.535156 L 27.4375 32.535156 C 27.695312 32.535156 27.90625 32.324219 27.90625 32.066406 L 27.90625 31.46875 C 28.332031 31.351562 28.742188 31.183594 29.125 30.964844 L 29.546875 31.386719 C 29.730469 31.570312 30.03125 31.570312 30.214844 31.386719 L 31.582031 30.019531 C 31.667969 29.929688 31.71875 29.8125 31.71875 29.6875 C 31.71875 29.5625 31.667969 29.441406 31.582031 29.351562 L 31.160156 28.929688 C 31.375 28.546875 31.546875 28.136719 31.664062 27.714844 L 32.261719 27.714844 C 32.519531 27.714844 32.730469 27.503906 32.730469 27.242188 L 32.730469 25.308594 C 32.730469 25.046875 32.519531 24.835938 32.261719 24.835938 Z M 4.90625 3.425781 L 27.503906 3.425781 C 28.214844 3.425781 28.792969 4 28.792969 4.710938 L 28.792969 6.992188 L 3.617188 6.992188 L 3.617188 4.710938 C 3.617188 4 4.195312 3.425781 4.90625 3.425781 Z M 3.617188 27.308594 L 3.617188 7.933594 L 28.792969 7.933594 L 28.792969 21.414062 C 28.507812 21.277344 28.210938 21.167969 27.90625 21.082031 L 27.90625 9.289062 C 27.90625 9.027344 27.695312 8.816406 27.4375 8.816406 L 4.976562 8.816406 C 4.714844 8.816406 4.503906 9.027344 4.503906 9.289062 L 4.503906 27.242188 C 4.503906 27.503906 4.714844 27.714844 4.976562 27.714844 L 21.277344 27.714844 C 21.359375 28.019531 21.472656 28.3125 21.609375 28.597656 L 4.90625 28.597656 C 4.195312 28.597656 3.617188 28.019531 3.617188 27.308594 Z M 25.503906 20.015625 C 25.242188 20.015625 25.03125 20.226562 25.03125 20.484375 L 25.03125 21.082031 C 24.605469 21.199219 24.199219 21.367188 23.816406 21.585938 L 23.390625 21.164062 C 23.207031 20.980469 22.910156 20.980469 22.726562 21.164062 L 22.578125 21.3125 L 16.882812 21.3125 C 16.621094 21.3125 16.410156 21.523438 16.410156 21.78125 C 16.410156 22.042969 16.621094 22.253906 16.882812 22.253906 L 21.636719 22.253906 L 21.359375 22.53125 C 21.269531 22.621094 21.222656 22.738281 21.222656 22.863281 C 21.222656 22.988281 21.269531 23.109375 21.359375 23.199219 L 21.78125 23.621094 C 21.773438 23.632812 21.769531 23.644531 21.761719 23.65625 L 16.882812 23.65625 C 16.621094 23.65625 16.410156 23.867188 16.410156 24.128906 C 16.410156 24.386719 16.621094 24.597656 16.882812 24.597656 L 21.351562 24.597656 C 21.324219 24.679688 21.300781 24.757812 21.277344 24.835938 L 20.679688 24.835938 C 20.417969 24.835938 20.207031 25.046875 20.207031 25.308594 L 20.207031 26.769531 L 5.445312 26.769531 L 5.445312 9.761719 L 26.964844 9.761719 L 26.964844 20.015625 Z M 31.789062 26.769531 L 31.289062 26.769531 C 31.066406 26.769531 30.871094 26.929688 30.828125 27.148438 C 30.714844 27.71875 30.492188 28.253906 30.167969 28.738281 C 30.042969 28.925781 30.070312 29.175781 30.226562 29.332031 L 30.582031 29.6875 L 29.878906 30.386719 L 29.527344 30.035156 C 29.371094 29.875 29.121094 29.851562 28.933594 29.976562 C 28.449219 30.296875 27.914062 30.519531 27.34375 30.632812 C 27.125 30.675781 26.964844 30.871094 26.964844 31.097656 L 26.964844 31.59375 L 25.976562 31.59375 L 25.976562 31.097656 C 25.976562 30.871094 25.816406 30.675781 25.597656 30.632812 C 25.027344 30.519531 24.492188 30.296875 24.007812 29.976562 C 23.820312 29.851562 23.570312 29.875 23.410156 30.035156 L 23.058594 30.386719 L 22.359375 29.6875 L 22.644531 29.402344 L 22.710938 29.332031 C 22.871094 29.175781 22.894531 28.925781 22.769531 28.738281 C 22.445312 28.253906 22.226562 27.71875 22.113281 27.148438 C 22.109375 27.140625 22.109375 27.136719 22.105469 27.128906 C 22.105469 27.121094 22.101562 27.113281 22.101562 27.105469 C 22.097656 27.097656 22.097656 27.09375 22.09375 27.085938 C 22.089844 27.078125 22.089844 27.070312 22.085938 27.066406 C 22.082031 27.058594 22.082031 27.050781 22.078125 27.046875 C 22.074219 27.039062 22.070312 27.03125 22.066406 27.023438 C 22.066406 27.019531 22.0625 27.011719 22.058594 27.007812 C 22.054688 27 22.050781 26.992188 22.046875 26.988281 C 22.042969 26.980469 22.039062 26.976562 22.035156 26.972656 C 22.03125 26.964844 22.027344 26.957031 22.019531 26.949219 C 22.015625 26.945312 22.011719 26.941406 22.011719 26.9375 C 22.003906 26.929688 21.996094 26.921875 21.992188 26.917969 C 21.988281 26.914062 21.984375 26.910156 21.980469 26.90625 C 21.972656 26.898438 21.964844 26.890625 21.957031 26.882812 C 21.953125 26.882812 21.953125 26.878906 21.949219 26.878906 C 21.9375 26.867188 21.925781 26.859375 21.914062 26.851562 C 21.910156 26.847656 21.90625 26.847656 21.902344 26.84375 C 21.894531 26.839844 21.886719 26.835938 21.878906 26.828125 C 21.875 26.828125 21.867188 26.824219 21.863281 26.820312 C 21.855469 26.816406 21.847656 26.8125 21.839844 26.8125 C 21.835938 26.808594 21.828125 26.804688 21.820312 26.804688 C 21.816406 26.800781 21.808594 26.796875 21.800781 26.796875 C 21.792969 26.792969 21.789062 26.789062 21.78125 26.789062 C 21.773438 26.785156 21.765625 26.785156 21.757812 26.78125 C 21.75 26.78125 21.746094 26.78125 21.738281 26.777344 C 21.730469 26.777344 21.71875 26.777344 21.710938 26.773438 C 21.707031 26.773438 21.699219 26.773438 21.695312 26.773438 C 21.679688 26.769531 21.664062 26.769531 21.648438 26.769531 L 21.152344 26.769531 L 21.152344 25.78125 L 21.648438 25.78125 C 21.875 25.78125 22.066406 25.621094 22.113281 25.402344 C 22.226562 24.832031 22.445312 24.296875 22.769531 23.8125 C 22.894531 23.625 22.871094 23.375 22.710938 23.21875 L 22.359375 22.863281 L 23.058594 22.164062 L 23.410156 22.515625 C 23.570312 22.675781 23.820312 22.699219 24.007812 22.574219 C 24.492188 22.253906 25.027344 22.03125 25.597656 21.917969 C 25.816406 21.875 25.976562 21.679688 25.976562 21.453125 L 25.976562 20.957031 L 26.964844 20.957031 L 26.964844 21.453125 C 26.964844 21.46875 26.964844 21.484375 26.96875 21.5 C 26.96875 21.503906 26.96875 21.511719 26.96875 21.515625 C 26.96875 21.523438 26.972656 21.535156 26.972656 21.542969 C 26.976562 21.550781 26.976562 21.554688 26.976562 21.5625 C 26.980469 21.570312 26.980469 21.578125 26.984375 21.585938 C 26.984375 21.59375 26.988281 21.597656 26.988281 21.605469 C 26.992188 21.613281 26.996094 21.621094 26.996094 21.628906 C 27 21.632812 27.003906 21.640625 27.003906 21.644531 C 27.007812 21.652344 27.011719 21.660156 27.015625 21.667969 C 27.019531 21.671875 27.019531 21.679688 27.023438 21.683594 C 27.027344 21.691406 27.035156 21.699219 27.039062 21.707031 C 27.042969 21.710938 27.042969 21.714844 27.046875 21.71875 C 27.054688 21.730469 27.0625 21.742188 27.070312 21.753906 C 27.074219 21.757812 27.074219 21.757812 27.078125 21.757812 C 27.085938 21.769531 27.09375 21.777344 27.101562 21.785156 C 27.105469 21.789062 27.109375 21.792969 27.109375 21.796875 C 27.117188 21.800781 27.125 21.808594 27.132812 21.816406 C 27.136719 21.820312 27.140625 21.820312 27.144531 21.824219 C 27.152344 21.832031 27.160156 21.835938 27.167969 21.839844 C 27.171875 21.84375 27.175781 21.847656 27.179688 21.851562 C 27.1875 21.855469 27.195312 21.859375 27.203125 21.863281 C 27.207031 21.867188 27.214844 21.871094 27.21875 21.875 C 27.226562 21.875 27.234375 21.878906 27.242188 21.882812 C 27.246094 21.886719 27.253906 21.890625 27.257812 21.890625 C 27.265625 21.894531 27.273438 21.898438 27.28125 21.898438 C 27.285156 21.902344 27.292969 21.90625 27.300781 21.90625 C 27.308594 21.910156 27.316406 21.910156 27.324219 21.914062 C 27.328125 21.914062 27.335938 21.914062 27.34375 21.917969 C 27.914062 22.03125 28.449219 22.253906 28.933594 22.574219 C 29.121094 22.699219 29.371094 22.675781 29.527344 22.515625 L 29.882812 22.164062 L 30.582031 22.863281 L 30.226562 23.21875 C 30.070312 23.375 30.042969 23.625 30.167969 23.8125 C 30.492188 24.296875 30.714844 24.832031 30.828125 25.402344 C 30.871094 25.621094 31.066406 25.78125 31.289062 25.78125 L 31.789062 25.78125 Z M 26.46875 22.550781 C 24.414062 22.550781 22.742188 24.21875 22.742188 26.273438 C 22.742188 28.332031 24.414062 30.003906 26.46875 30.003906 C 28.523438 30.003906 30.195312 28.332031 30.195312 26.277344 C 30.195312 24.21875 28.523438 22.550781 26.46875 22.550781 Z M 26.46875 29.058594 C 24.933594 29.058594 23.6875 27.808594 23.6875 26.273438 C 23.6875 24.742188 24.933594 23.492188 26.46875 23.492188 C 28.003906 23.492188 29.253906 24.742188 29.253906 26.273438 C 29.253906 27.808594 28.003906 29.058594 26.46875 29.058594 Z M 26.46875 29.058594 " fill-opacity="1" fill-rule="nonzero"/></g></svg>