<svg xmlns="http://www.w3.org/2000/svg" xmlns:xlink="http://www.w3.org/1999/xlink" width="48" zoomAndPan="magnify" viewBox="0 0 36 36.000001" height="48" preserveAspectRatio="xMidYMid meet" version="1.0"><defs><clipPath id="c5aef8f3e8"><path d="M 2.382812 3.503906 L 33.03125 3.503906 L 33.03125 31.234375 L 2.382812 31.234375 Z M 2.382812 3.503906 " clip-rule="nonzero"/></clipPath></defs><g clip-path="url(#c5aef8f3e8)"><path fill="#4f2fda" d="M 30.992188 5.621094 L 4.777344 5.621094 C 4.660156 5.621094 4.558594 5.664062 4.476562 5.746094 C 4.394531 5.828125 4.355469 5.929688 4.355469 6.046875 L 4.355469 22.5625 C 4.355469 22.679688 4.394531 22.777344 4.476562 22.859375 C 4.558594 22.941406 4.660156 22.984375 4.777344 22.984375 L 30.992188 22.984375 C 31.109375 22.984375 31.210938 22.941406 31.292969 22.859375 C 31.375 22.777344 31.417969 22.679688 31.417969 22.5625 L 31.417969 6.046875 C 31.417969 5.929688 31.375 5.828125 31.292969 5.746094 C 31.210938 5.664062 31.109375 5.621094 30.992188 5.621094 Z M 30.570312 22.136719 L 5.199219 22.136719 L 5.199219 6.46875 L 30.570312 6.46875 Z M 19.339844 24.148438 C 19.339844 24.265625 19.296875 24.363281 19.214844 24.445312 C 19.132812 24.527344 19.03125 24.570312 18.914062 24.570312 L 16.855469 24.570312 C 16.738281 24.570312 16.636719 24.527344 16.554688 24.445312 C 16.472656 24.363281 16.433594 24.265625 16.433594 24.148438 C 16.433594 24.03125 16.472656 23.929688 16.554688 23.847656 C 16.636719 23.765625 16.738281 23.722656 16.855469 23.722656 L 18.914062 23.722656 C 19.03125 23.722656 19.132812 23.765625 19.214844 23.847656 C 19.296875 23.929688 19.339844 24.03125 19.339844 24.148438 Z M 31.691406 3.503906 L 4.078125 3.503906 C 3.144531 3.503906 2.386719 4.308594 2.386719 5.292969 L 2.386719 24.371094 C 2.386719 25.355469 3.144531 26.15625 4.078125 26.15625 L 14.140625 26.15625 L 14.140625 28.804688 L 12.203125 28.804688 C 11.28125 28.804688 10.53125 29.445312 10.53125 30.234375 L 10.53125 31.097656 C 10.53125 31.214844 10.574219 31.316406 10.65625 31.398438 C 10.738281 31.480469 10.835938 31.519531 10.953125 31.519531 L 24.816406 31.519531 C 24.933594 31.519531 25.03125 31.480469 25.113281 31.398438 C 25.199219 31.316406 25.238281 31.214844 25.238281 31.097656 L 25.238281 30.234375 C 25.238281 29.445312 24.488281 28.804688 23.566406 28.804688 L 21.632812 28.804688 L 21.632812 26.15625 L 31.691406 26.15625 C 32.625 26.15625 33.382812 25.355469 33.382812 24.371094 L 33.382812 5.292969 C 33.382812 4.308594 32.625 3.503906 31.691406 3.503906 Z M 23.566406 29.652344 C 24.015625 29.652344 24.390625 29.917969 24.390625 30.234375 L 24.390625 30.675781 L 11.378906 30.675781 L 11.378906 30.234375 C 11.378906 29.917969 11.753906 29.652344 12.203125 29.652344 Z M 14.984375 28.804688 L 14.984375 26.15625 L 20.785156 26.15625 L 20.785156 28.804688 Z M 32.539062 24.371094 C 32.539062 24.890625 32.160156 25.3125 31.691406 25.3125 L 4.078125 25.3125 C 3.609375 25.3125 3.230469 24.890625 3.230469 24.371094 L 3.230469 5.292969 C 3.230469 4.773438 3.609375 4.351562 4.078125 4.351562 L 31.691406 4.351562 C 32.160156 4.351562 32.539062 4.773438 32.539062 5.292969 Z M 25.066406 20.152344 C 25.066406 20.035156 25.105469 19.933594 25.191406 19.851562 C 25.273438 19.769531 25.371094 19.726562 25.488281 19.726562 L 29.140625 19.726562 C 29.257812 19.726562 29.359375 19.765625 29.441406 19.851562 C 29.527344 19.933594 29.566406 20.035156 29.566406 20.152344 C 29.566406 20.269531 29.527344 20.371094 29.441406 20.453125 C 29.359375 20.535156 29.257812 20.574219 29.140625 20.574219 L 25.488281 20.574219 C 25.371094 20.574219 25.273438 20.53125 25.191406 20.449219 C 25.105469 20.367188 25.066406 20.269531 25.066406 20.152344 Z M 21.324219 9.871094 C 21.324219 9.753906 21.363281 9.652344 21.449219 9.570312 C 21.53125 9.488281 21.628906 9.445312 21.746094 9.445312 L 21.765625 9.445312 C 21.882812 9.445312 21.980469 9.488281 22.0625 9.570312 C 22.144531 9.652344 22.1875 9.753906 22.1875 9.871094 C 22.1875 9.988281 22.144531 10.085938 22.0625 10.167969 C 21.980469 10.25 21.882812 10.292969 21.765625 10.292969 L 21.746094 10.292969 C 21.628906 10.292969 21.53125 10.25 21.449219 10.167969 C 21.363281 10.085938 21.324219 9.988281 21.324219 9.871094 Z M 25.066406 18.605469 C 25.066406 18.488281 25.105469 18.386719 25.191406 18.304688 C 25.273438 18.222656 25.371094 18.183594 25.488281 18.183594 L 29.140625 18.183594 C 29.257812 18.179688 29.359375 18.222656 29.441406 18.304688 C 29.527344 18.386719 29.566406 18.488281 29.566406 18.605469 C 29.566406 18.722656 29.527344 18.824219 29.441406 18.90625 C 29.359375 18.988281 29.257812 19.027344 29.140625 19.027344 L 25.488281 19.027344 C 25.371094 19.027344 25.273438 18.988281 25.191406 18.902344 C 25.105469 18.820312 25.066406 18.722656 25.066406 18.605469 Z M 25.066406 11.546875 C 25.066406 11.429688 25.105469 11.332031 25.191406 11.246094 C 25.273438 11.164062 25.371094 11.125 25.488281 11.125 L 29.140625 11.125 C 29.257812 11.125 29.355469 11.164062 29.4375 11.246094 C 29.519531 11.332031 29.5625 11.429688 29.5625 11.546875 C 29.5625 11.664062 29.519531 11.761719 29.4375 11.847656 C 29.355469 11.929688 29.257812 11.96875 29.140625 11.96875 L 25.488281 11.96875 C 25.371094 11.96875 25.273438 11.929688 25.191406 11.847656 C 25.105469 11.761719 25.066406 11.664062 25.066406 11.546875 Z M 25.066406 8.453125 C 25.066406 8.335938 25.105469 8.238281 25.191406 8.15625 C 25.273438 8.070312 25.371094 8.03125 25.488281 8.03125 L 29.140625 8.03125 C 29.257812 8.03125 29.359375 8.070312 29.441406 8.152344 C 29.527344 8.234375 29.566406 8.335938 29.566406 8.453125 C 29.566406 8.570312 29.527344 8.671875 29.441406 8.753906 C 29.359375 8.835938 29.257812 8.878906 29.140625 8.878906 L 25.488281 8.878906 C 25.371094 8.878906 25.273438 8.835938 25.191406 8.753906 C 25.105469 8.671875 25.066406 8.570312 25.066406 8.453125 Z M 25.066406 10 C 25.066406 9.882812 25.105469 9.785156 25.191406 9.703125 C 25.273438 9.617188 25.371094 9.578125 25.488281 9.578125 L 29.140625 9.578125 C 29.257812 9.578125 29.355469 9.617188 29.4375 9.703125 C 29.519531 9.785156 29.5625 9.882812 29.5625 10 C 29.5625 10.117188 29.519531 10.21875 29.4375 10.300781 C 29.355469 10.382812 29.257812 10.421875 29.140625 10.421875 L 25.488281 10.421875 C 25.371094 10.421875 25.273438 10.382812 25.191406 10.300781 C 25.105469 10.21875 25.066406 10.117188 25.066406 10 Z M 25.066406 13.09375 C 25.066406 12.976562 25.105469 12.875 25.191406 12.792969 C 25.273438 12.710938 25.371094 12.671875 25.488281 12.671875 L 29.140625 12.671875 C 29.257812 12.671875 29.355469 12.710938 29.4375 12.792969 C 29.519531 12.875 29.5625 12.976562 29.5625 13.09375 C 29.5625 13.210938 29.519531 13.308594 29.4375 13.394531 C 29.355469 13.476562 29.257812 13.515625 29.140625 13.515625 L 25.488281 13.515625 C 25.371094 13.515625 25.273438 13.476562 25.191406 13.390625 C 25.105469 13.308594 25.066406 13.210938 25.066406 13.09375 Z M 25.066406 17.058594 C 25.066406 16.941406 25.105469 16.839844 25.191406 16.757812 C 25.273438 16.675781 25.371094 16.636719 25.488281 16.636719 L 29.140625 16.636719 C 29.257812 16.636719 29.355469 16.675781 29.4375 16.757812 C 29.519531 16.839844 29.5625 16.941406 29.5625 17.058594 C 29.5625 17.175781 29.519531 17.273438 29.4375 17.359375 C 29.355469 17.441406 29.257812 17.480469 29.140625 17.480469 L 25.488281 17.480469 C 25.371094 17.480469 25.273438 17.441406 25.191406 17.359375 C 25.105469 17.273438 25.066406 17.175781 25.066406 17.058594 Z M 25.066406 15.511719 C 25.066406 15.394531 25.105469 15.296875 25.191406 15.210938 C 25.273438 15.128906 25.371094 15.089844 25.488281 15.089844 L 29.140625 15.089844 C 29.257812 15.089844 29.355469 15.128906 29.4375 15.210938 C 29.519531 15.296875 29.5625 15.394531 29.5625 15.511719 C 29.5625 15.628906 29.519531 15.726562 29.4375 15.8125 C 29.355469 15.894531 29.257812 15.933594 29.140625 15.933594 L 25.488281 15.933594 C 25.371094 15.933594 25.273438 15.894531 25.191406 15.8125 C 25.105469 15.726562 25.066406 15.628906 25.066406 15.511719 Z M 12.851562 20.152344 C 12.851562 20.035156 12.894531 19.933594 12.976562 19.851562 C 13.058594 19.769531 13.15625 19.726562 13.273438 19.726562 L 16.925781 19.726562 C 17.042969 19.726562 17.144531 19.765625 17.226562 19.851562 C 17.3125 19.933594 17.355469 20.035156 17.355469 20.152344 C 17.355469 20.269531 17.3125 20.371094 17.226562 20.453125 C 17.144531 20.535156 17.042969 20.574219 16.925781 20.574219 L 13.273438 20.574219 C 13.15625 20.574219 13.058594 20.53125 12.976562 20.449219 C 12.894531 20.367188 12.851562 20.269531 12.851562 20.152344 Z M 12.851562 15.511719 C 12.851562 15.394531 12.894531 15.296875 12.976562 15.210938 C 13.058594 15.128906 13.15625 15.089844 13.273438 15.089844 L 16.925781 15.089844 C 17.042969 15.089844 17.140625 15.128906 17.226562 15.210938 C 17.308594 15.296875 17.347656 15.394531 17.347656 15.511719 C 17.347656 15.628906 17.308594 15.726562 17.226562 15.8125 C 17.140625 15.894531 17.042969 15.933594 16.925781 15.933594 L 13.273438 15.933594 C 13.15625 15.933594 13.058594 15.894531 12.976562 15.8125 C 12.894531 15.726562 12.851562 15.628906 12.851562 15.511719 Z M 12.851562 17.058594 C 12.851562 16.941406 12.894531 16.839844 12.976562 16.757812 C 13.058594 16.675781 13.15625 16.636719 13.273438 16.636719 L 16.925781 16.636719 C 17.042969 16.636719 17.140625 16.675781 17.226562 16.757812 C 17.308594 16.839844 17.347656 16.941406 17.347656 17.058594 C 17.347656 17.175781 17.308594 17.273438 17.226562 17.359375 C 17.140625 17.441406 17.042969 17.480469 16.925781 17.480469 L 13.273438 17.480469 C 13.15625 17.480469 13.058594 17.441406 12.976562 17.359375 C 12.894531 17.273438 12.851562 17.175781 12.851562 17.058594 Z M 9.109375 9.871094 C 9.109375 9.753906 9.152344 9.652344 9.234375 9.570312 C 9.316406 9.488281 9.414062 9.445312 9.53125 9.445312 L 9.550781 9.445312 C 9.667969 9.445312 9.769531 9.488281 9.851562 9.570312 C 9.933594 9.652344 9.976562 9.753906 9.976562 9.871094 C 9.976562 9.988281 9.933594 10.085938 9.851562 10.167969 C 9.769531 10.25 9.667969 10.292969 9.550781 10.292969 L 9.53125 10.292969 C 9.414062 10.292969 9.316406 10.25 9.234375 10.167969 C 9.152344 10.085938 9.109375 9.988281 9.109375 9.871094 Z M 12.851562 18.605469 C 12.851562 18.488281 12.894531 18.386719 12.976562 18.304688 C 13.058594 18.222656 13.15625 18.183594 13.273438 18.183594 L 16.925781 18.183594 C 17.042969 18.179688 17.144531 18.222656 17.226562 18.304688 C 17.3125 18.386719 17.355469 18.488281 17.355469 18.605469 C 17.355469 18.722656 17.3125 18.824219 17.226562 18.90625 C 17.144531 18.988281 17.042969 19.027344 16.925781 19.027344 L 13.273438 19.027344 C 13.15625 19.027344 13.058594 18.988281 12.976562 18.902344 C 12.894531 18.820312 12.851562 18.722656 12.851562 18.605469 Z M 6.632812 20.734375 L 11.585938 20.734375 C 11.703125 20.734375 11.804688 20.691406 11.886719 20.609375 C 11.96875 20.527344 12.011719 20.429688 12.011719 20.3125 L 12.011719 15.355469 C 12.011719 15.238281 11.96875 15.136719 11.886719 15.054688 C 11.804688 14.972656 11.703125 14.929688 11.585938 14.929688 L 6.632812 14.929688 C 6.515625 14.929688 6.414062 14.972656 6.332031 15.054688 C 6.25 15.136719 6.210938 15.238281 6.210938 15.355469 L 6.210938 20.3125 C 6.210938 20.425781 6.25 20.527344 6.332031 20.609375 C 6.414062 20.691406 6.515625 20.734375 6.632812 20.734375 Z M 11.164062 19.648438 C 10.699219 19.480469 10.273438 19.246094 9.878906 18.949219 C 10.179688 18.789062 10.511719 18.761719 11.164062 18.976562 Z M 7.054688 15.777344 L 11.164062 15.777344 L 11.164062 18.09375 C 10.226562 17.84375 9.726562 18.015625 9.214844 18.371094 C 8.6875 17.890625 8.167969 17.511719 7.054688 17.777344 Z M 7.054688 18.652344 C 7.964844 18.371094 8.21875 18.605469 8.765625 19.105469 C 9.070312 19.398438 9.394531 19.65625 9.746094 19.886719 L 7.054688 19.886719 Z M 6.632812 13.675781 L 11.585938 13.675781 C 11.703125 13.675781 11.804688 13.632812 11.886719 13.550781 C 11.96875 13.46875 12.011719 13.367188 12.011719 13.25 L 12.011719 8.296875 C 12.011719 8.179688 11.96875 8.078125 11.886719 7.996094 C 11.804688 7.914062 11.703125 7.871094 11.585938 7.871094 L 6.632812 7.871094 C 6.515625 7.871094 6.414062 7.914062 6.332031 7.996094 C 6.25 8.078125 6.210938 8.179688 6.210938 8.296875 L 6.210938 13.25 C 6.210938 13.367188 6.25 13.46875 6.332031 13.550781 C 6.414062 13.632812 6.515625 13.675781 6.632812 13.675781 Z M 11.164062 12.589844 C 10.699219 12.425781 10.269531 12.191406 9.878906 11.890625 C 10.175781 11.734375 10.511719 11.707031 11.164062 11.917969 Z M 7.054688 8.71875 L 11.164062 8.71875 L 11.164062 11.035156 C 10.226562 10.785156 9.726562 10.957031 9.214844 11.3125 C 8.6875 10.835938 8.167969 10.453125 7.054688 10.71875 Z M 7.054688 11.59375 C 7.964844 11.3125 8.21875 11.546875 8.765625 12.050781 C 9.066406 12.339844 9.394531 12.597656 9.742188 12.828125 L 7.054688 12.828125 Z M 9.109375 16.929688 C 9.109375 16.8125 9.152344 16.714844 9.234375 16.628906 C 9.316406 16.546875 9.414062 16.507812 9.53125 16.507812 L 9.550781 16.507812 C 9.667969 16.503906 9.769531 16.546875 9.855469 16.628906 C 9.9375 16.710938 9.980469 16.8125 9.980469 16.929688 C 9.980469 17.046875 9.9375 17.148438 9.855469 17.230469 C 9.769531 17.3125 9.667969 17.355469 9.550781 17.351562 L 9.53125 17.351562 C 9.414062 17.351562 9.316406 17.3125 9.234375 17.230469 C 9.152344 17.144531 9.109375 17.046875 9.109375 16.929688 Z M 18.84375 13.675781 L 23.800781 13.675781 C 23.917969 13.675781 24.019531 13.632812 24.101562 13.550781 C 24.183594 13.46875 24.222656 13.367188 24.222656 13.25 L 24.222656 8.296875 C 24.222656 8.179688 24.183594 8.078125 24.101562 7.996094 C 24.019531 7.914062 23.917969 7.871094 23.800781 7.871094 L 18.84375 7.871094 C 18.726562 7.871094 18.628906 7.914062 18.546875 7.996094 C 18.460938 8.078125 18.421875 8.179688 18.421875 8.296875 L 18.421875 13.25 C 18.421875 13.367188 18.460938 13.46875 18.546875 13.550781 C 18.628906 13.632812 18.726562 13.675781 18.84375 13.675781 Z M 23.378906 12.589844 C 22.914062 12.421875 22.484375 12.191406 22.09375 11.890625 C 22.390625 11.730469 22.722656 11.707031 23.378906 11.917969 Z M 19.265625 8.71875 L 23.378906 8.71875 L 23.378906 11.039062 C 22.441406 10.792969 21.929688 10.964844 21.429688 11.3125 C 20.898438 10.835938 20.382812 10.453125 19.265625 10.71875 Z M 19.265625 11.59375 C 20.175781 11.3125 20.433594 11.546875 20.980469 12.050781 C 21.28125 12.339844 21.609375 12.597656 21.957031 12.828125 L 19.265625 12.828125 Z M 18.84375 20.734375 L 23.800781 20.734375 C 23.917969 20.734375 24.019531 20.691406 24.101562 20.609375 C 24.183594 20.527344 24.222656 20.429688 24.222656 20.3125 L 24.222656 15.355469 C 24.222656 15.238281 24.183594 15.136719 24.101562 15.054688 C 24.019531 14.972656 23.917969 14.929688 23.800781 14.929688 L 18.84375 14.929688 C 18.726562 14.929688 18.628906 14.972656 18.546875 15.054688 C 18.460938 15.136719 18.421875 15.238281 18.421875 15.355469 L 18.421875 20.3125 C 18.421875 20.429688 18.460938 20.527344 18.546875 20.609375 C 18.628906 20.691406 18.726562 20.734375 18.84375 20.734375 Z M 23.378906 19.648438 C 22.914062 19.480469 22.484375 19.246094 22.09375 18.949219 C 22.390625 18.789062 22.722656 18.761719 23.378906 18.976562 Z M 19.265625 15.777344 L 23.378906 15.777344 L 23.378906 18.09375 C 22.441406 17.847656 21.929688 18.023438 21.425781 18.371094 C 20.898438 17.894531 20.382812 17.511719 19.265625 17.777344 Z M 19.265625 18.652344 C 20.175781 18.371094 20.433594 18.605469 20.980469 19.109375 C 21.28125 19.398438 21.609375 19.65625 21.957031 19.886719 L 19.265625 19.886719 Z M 12.851562 13.09375 C 12.851562 12.976562 12.894531 12.875 12.976562 12.792969 C 13.058594 12.710938 13.15625 12.671875 13.273438 12.671875 L 16.925781 12.671875 C 17.042969 12.671875 17.140625 12.710938 17.226562 12.792969 C 17.308594 12.875 17.347656 12.976562 17.347656 13.09375 C 17.347656 13.210938 17.308594 13.308594 17.226562 13.390625 C 17.140625 13.476562 17.042969 13.515625 16.925781 13.515625 L 13.273438 13.515625 C 13.15625 13.515625 13.058594 13.476562 12.976562 13.390625 C 12.894531 13.308594 12.851562 13.210938 12.851562 13.09375 Z M 12.851562 8.453125 C 12.851562 8.335938 12.894531 8.238281 12.976562 8.15625 C 13.058594 8.070312 13.15625 8.03125 13.273438 8.03125 L 16.925781 8.03125 C 17.042969 8.03125 17.144531 8.070312 17.226562 8.152344 C 17.3125 8.234375 17.355469 8.335938 17.355469 8.453125 C 17.355469 8.570312 17.3125 8.671875 17.226562 8.753906 C 17.144531 8.835938 17.042969 8.878906 16.925781 8.875 L 13.273438 8.875 C 13.15625 8.875 13.058594 8.835938 12.976562 8.753906 C 12.894531 8.671875 12.851562 8.570312 12.851562 8.453125 Z M 21.324219 16.929688 C 21.324219 16.8125 21.363281 16.714844 21.449219 16.628906 C 21.53125 16.546875 21.628906 16.507812 21.746094 16.507812 L 21.765625 16.507812 C 21.882812 16.503906 21.984375 16.546875 22.066406 16.628906 C 22.148438 16.710938 22.191406 16.8125 22.191406 16.929688 C 22.191406 17.046875 22.148438 17.148438 22.066406 17.230469 C 21.984375 17.3125 21.882812 17.355469 21.765625 17.351562 L 21.746094 17.351562 C 21.628906 17.351562 21.53125 17.3125 21.449219 17.230469 C 21.363281 17.144531 21.324219 17.046875 21.324219 16.929688 Z M 12.851562 10 C 12.851562 9.882812 12.894531 9.785156 12.976562 9.703125 C 13.058594 9.617188 13.15625 9.578125 13.273438 9.578125 L 16.925781 9.578125 C 17.042969 9.578125 17.140625 9.617188 17.226562 9.703125 C 17.308594 9.785156 17.347656 9.882812 17.347656 10 C 17.347656 10.117188 17.308594 10.21875 17.226562 10.300781 C 17.140625 10.382812 17.042969 10.421875 16.925781 10.421875 L 13.273438 10.421875 C 13.15625 10.421875 13.058594 10.382812 12.976562 10.300781 C 12.894531 10.21875 12.851562 10.117188 12.851562 10 Z M 12.851562 11.546875 C 12.851562 11.429688 12.894531 11.332031 12.976562 11.246094 C 13.058594 11.164062 13.15625 11.125 13.273438 11.125 L 16.925781 11.125 C 17.042969 11.125 17.140625 11.164062 17.226562 11.246094 C 17.308594 11.332031 17.347656 11.429688 17.347656 11.546875 C 17.347656 11.664062 17.308594 11.761719 17.226562 11.847656 C 17.140625 11.929688 17.042969 11.96875 16.925781 11.96875 L 13.273438 11.96875 C 13.15625 11.96875 13.058594 11.929688 12.976562 11.847656 C 12.894531 11.761719 12.851562 11.664062 12.851562 11.546875 Z M 12.851562 11.546875 " fill-opacity="1" fill-rule="nonzero"/></g></svg>