<svg xmlns="http://www.w3.org/2000/svg" xmlns:xlink="http://www.w3.org/1999/xlink" width="48" zoomAndPan="magnify" viewBox="0 0 36 36.000001" height="48" preserveAspectRatio="xMidYMid meet" version="1.0"><defs><clipPath id="28b4e2721d"><path d="M 1.433594 25 L 34.273438 25 L 34.273438 29.460938 L 1.433594 29.460938 Z M 1.433594 25 " clip-rule="nonzero"/></clipPath><clipPath id="6188e22552"><path d="M 4 5.378906 L 32 5.378906 L 32 25 L 4 25 Z M 4 5.378906 " clip-rule="nonzero"/></clipPath></defs><g clip-path="url(#28b4e2721d)"><path fill="#4f2fda" d="M 3.441406 25.476562 L 1.585938 25.476562 L 1.585938 27.425781 C 1.585938 27.722656 1.644531 28.007812 1.757812 28.28125 C 1.871094 28.550781 2.03125 28.792969 2.238281 29.003906 C 2.449219 29.210938 2.6875 29.371094 2.960938 29.484375 C 3.234375 29.597656 3.519531 29.65625 3.8125 29.65625 L 32.179688 29.65625 C 32.476562 29.65625 32.757812 29.601562 33.03125 29.488281 C 33.304688 29.375 33.542969 29.210938 33.753906 29.003906 C 33.960938 28.792969 34.121094 28.554688 34.234375 28.28125 C 34.347656 28.007812 34.40625 27.726562 34.40625 27.429688 L 34.40625 25.476562 Z M 3.441406 25.476562 " fill-opacity="1" fill-rule="nonzero"/></g><g clip-path="url(#6188e22552)"><path fill="#4f2fda" d="M 31.964844 5.367188 L 4.027344 5.367188 L 4.027344 24.304688 L 31.964844 24.304688 Z M 9.6875 14.25 C 10.058594 14.25 10.414062 14.320312 10.753906 14.460938 C 11.09375 14.601562 11.394531 14.800781 11.65625 15.0625 C 11.917969 15.324219 12.117188 15.625 12.257812 15.964844 C 12.398438 16.304688 12.46875 16.660156 12.46875 17.03125 C 12.46875 17.398438 12.398438 17.753906 12.257812 18.09375 C 12.117188 18.4375 11.917969 18.738281 11.65625 18.996094 C 11.394531 19.257812 11.09375 19.460938 10.753906 19.601562 C 10.414062 19.742188 10.058594 19.8125 9.6875 19.8125 C 9.320312 19.8125 8.964844 19.742188 8.625 19.601562 C 8.28125 19.460938 7.980469 19.257812 7.722656 18.996094 C 7.460938 18.738281 7.257812 18.4375 7.117188 18.09375 C 6.976562 17.753906 6.90625 17.398438 6.90625 17.03125 C 6.90625 16.867188 6.964844 16.730469 7.078125 16.617188 C 7.191406 16.5 7.332031 16.445312 7.492188 16.445312 C 7.652344 16.445312 7.792969 16.5 7.90625 16.617188 C 8.019531 16.730469 8.078125 16.867188 8.078125 17.03125 C 8.078125 17.242188 8.121094 17.449219 8.199219 17.644531 C 8.28125 17.84375 8.398438 18.019531 8.550781 18.167969 C 8.699219 18.320312 8.875 18.4375 9.074219 18.519531 C 9.269531 18.597656 9.476562 18.640625 9.6875 18.640625 C 9.902344 18.640625 10.105469 18.597656 10.304688 18.519531 C 10.5 18.4375 10.675781 18.320312 10.828125 18.167969 C 10.976562 18.019531 11.09375 17.84375 11.175781 17.644531 C 11.257812 17.449219 11.296875 17.242188 11.296875 17.03125 C 11.296875 16.816406 11.257812 16.613281 11.175781 16.414062 C 11.09375 16.21875 10.976562 16.042969 10.828125 15.890625 C 10.675781 15.742188 10.5 15.625 10.304688 15.542969 C 10.105469 15.460938 9.902344 15.421875 9.6875 15.421875 C 9.320312 15.421875 8.964844 15.351562 8.625 15.207031 C 8.28125 15.066406 7.980469 14.867188 7.722656 14.605469 C 7.460938 14.34375 7.257812 14.042969 7.117188 13.703125 C 6.976562 13.363281 6.90625 13.007812 6.90625 12.636719 C 6.90625 12.269531 6.976562 11.914062 7.117188 11.574219 C 7.257812 11.234375 7.460938 10.933594 7.722656 10.671875 C 7.980469 10.410156 8.28125 10.207031 8.625 10.066406 C 8.964844 9.925781 9.320312 9.855469 9.6875 9.855469 C 10.058594 9.855469 10.414062 9.925781 10.753906 10.066406 C 11.09375 10.210938 11.394531 10.410156 11.65625 10.671875 C 11.917969 10.933594 12.117188 11.234375 12.257812 11.574219 C 12.398438 11.914062 12.46875 12.269531 12.46875 12.640625 C 12.46875 12.800781 12.414062 12.9375 12.296875 13.054688 C 12.183594 13.167969 12.046875 13.226562 11.882812 13.226562 C 11.722656 13.226562 11.585938 13.167969 11.46875 13.054688 C 11.355469 12.9375 11.296875 12.800781 11.296875 12.640625 C 11.296875 12.425781 11.257812 12.21875 11.175781 12.023438 C 11.09375 11.824219 10.976562 11.652344 10.828125 11.5 C 10.675781 11.347656 10.503906 11.234375 10.304688 11.152344 C 10.109375 11.070312 9.902344 11.027344 9.6875 11.027344 C 9.476562 11.027344 9.269531 11.070312 9.074219 11.152344 C 8.875 11.234375 8.703125 11.347656 8.550781 11.5 C 8.398438 11.652344 8.28125 11.824219 8.199219 12.023438 C 8.121094 12.21875 8.078125 12.425781 8.078125 12.636719 C 8.078125 12.851562 8.121094 13.058594 8.199219 13.253906 C 8.28125 13.453125 8.398438 13.625 8.550781 13.777344 C 8.699219 13.925781 8.875 14.042969 9.070312 14.125 C 9.269531 14.207031 9.476562 14.25 9.6875 14.25 Z M 18.550781 19.8125 L 14.484375 19.8125 C 14.324219 19.8125 14.183594 19.753906 14.070312 19.640625 C 13.957031 19.527344 13.898438 19.386719 13.898438 19.226562 L 13.898438 10.441406 C 13.898438 10.28125 13.957031 10.140625 14.070312 10.027344 C 14.183594 9.914062 14.324219 9.855469 14.484375 9.855469 L 18.550781 9.855469 C 18.714844 9.855469 18.851562 9.914062 18.964844 10.027344 C 19.082031 10.140625 19.136719 10.28125 19.136719 10.441406 C 19.136719 10.605469 19.082031 10.742188 18.964844 10.855469 C 18.851562 10.972656 18.714844 11.027344 18.550781 11.027344 L 15.070312 11.027344 L 15.070312 14.25 L 16.929688 14.25 C 17.09375 14.25 17.230469 14.304688 17.34375 14.417969 C 17.460938 14.535156 17.515625 14.671875 17.515625 14.835938 C 17.515625 14.996094 17.460938 15.132812 17.34375 15.25 C 17.230469 15.363281 17.09375 15.421875 16.929688 15.421875 L 15.070312 15.421875 L 15.070312 18.640625 L 18.550781 18.640625 C 18.714844 18.640625 18.851562 18.699219 18.964844 18.8125 C 19.082031 18.925781 19.136719 19.066406 19.136719 19.226562 C 19.136719 19.386719 19.082031 19.527344 18.964844 19.640625 C 18.851562 19.753906 18.714844 19.8125 18.550781 19.8125 Z M 24.109375 19.8125 C 23.78125 19.8125 23.457031 19.78125 23.136719 19.714844 C 22.816406 19.652344 22.503906 19.558594 22.203125 19.433594 C 21.902344 19.308594 21.613281 19.15625 21.34375 18.972656 C 21.070312 18.792969 20.820312 18.585938 20.589844 18.355469 C 20.359375 18.125 20.152344 17.871094 19.96875 17.601562 C 19.789062 17.328125 19.632812 17.042969 19.507812 16.738281 C 19.382812 16.4375 19.289062 16.125 19.226562 15.804688 C 19.164062 15.484375 19.128906 15.160156 19.128906 14.835938 C 19.128906 14.507812 19.164062 14.183594 19.226562 13.863281 C 19.289062 13.542969 19.382812 13.230469 19.507812 12.929688 C 19.632812 12.628906 19.789062 12.339844 19.96875 12.070312 C 20.152344 11.796875 20.359375 11.546875 20.589844 11.3125 C 20.820312 11.082031 21.070312 10.875 21.34375 10.695312 C 21.613281 10.511719 21.902344 10.359375 22.203125 10.234375 C 22.503906 10.109375 22.816406 10.015625 23.136719 9.953125 C 23.457031 9.886719 23.78125 9.855469 24.109375 9.855469 C 24.4375 9.855469 24.757812 9.886719 25.078125 9.953125 C 25.402344 10.015625 25.710938 10.109375 26.015625 10.234375 C 26.316406 10.359375 26.601562 10.511719 26.875 10.695312 C 27.144531 10.875 27.398438 11.082031 27.628906 11.3125 C 27.859375 11.546875 28.066406 11.796875 28.246094 12.070312 C 28.429688 12.339844 28.582031 12.628906 28.707031 12.929688 C 28.832031 13.230469 28.925781 13.542969 28.992188 13.863281 C 29.054688 14.183594 29.085938 14.507812 29.085938 14.835938 C 29.085938 15.160156 29.054688 15.484375 28.992188 15.804688 C 28.925781 16.125 28.832031 16.4375 28.707031 16.738281 C 28.582031 17.039062 28.429688 17.328125 28.246094 17.597656 C 28.066406 17.871094 27.859375 18.121094 27.628906 18.351562 C 27.398438 18.585938 27.144531 18.789062 26.875 18.972656 C 26.601562 19.152344 26.316406 19.308594 26.011719 19.433594 C 25.710938 19.558594 25.398438 19.652344 25.078125 19.714844 C 24.757812 19.78125 24.4375 19.8125 24.109375 19.8125 Z M 24.109375 19.8125 " fill-opacity="1" fill-rule="nonzero"/></g><path fill="#4f2fda" d="M 27.914062 14.835938 C 27.914062 15.339844 27.816406 15.824219 27.625 16.289062 C 27.433594 16.757812 27.15625 17.167969 26.800781 17.527344 C 26.441406 17.882812 26.03125 18.15625 25.566406 18.351562 C 25.097656 18.542969 24.613281 18.640625 24.109375 18.640625 C 23.605469 18.640625 23.117188 18.542969 22.652344 18.351562 C 22.1875 18.15625 21.773438 17.882812 21.417969 17.527344 C 21.0625 17.167969 20.785156 16.757812 20.59375 16.289062 C 20.398438 15.824219 20.304688 15.339844 20.304688 14.835938 C 20.304688 14.328125 20.398438 13.84375 20.59375 13.378906 C 20.785156 12.910156 21.0625 12.5 21.417969 12.144531 C 21.773438 11.785156 22.1875 11.511719 22.652344 11.316406 C 23.117188 11.125 23.605469 11.027344 24.109375 11.027344 C 24.613281 11.027344 25.097656 11.125 25.566406 11.316406 C 26.03125 11.511719 26.441406 11.785156 26.800781 12.144531 C 27.15625 12.5 27.433594 12.910156 27.625 13.378906 C 27.816406 13.84375 27.914062 14.328125 27.914062 14.835938 Z M 27.914062 14.835938 " fill-opacity="1" fill-rule="nonzero"/></svg>