<svg xmlns="http://www.w3.org/2000/svg" xmlns:xlink="http://www.w3.org/1999/xlink" width="48" zoomAndPan="magnify" viewBox="0 0 36 36.000001" height="48" preserveAspectRatio="xMidYMid meet" version="1.0"><defs><clipPath id="2a00c14c6a"><path d="M 4 7.878906 L 32 7.878906 L 32 30.5 L 4 30.5 Z M 4 7.878906 " clip-rule="nonzero"/></clipPath></defs><g clip-path="url(#2a00c14c6a)"><path fill="#4f2fda" d="M 18.824219 13.714844 L 17.183594 12.074219 C 17.089844 11.976562 16.992188 11.929688 16.847656 11.929688 L 14.53125 11.929688 C 14.386719 11.929688 14.292969 11.976562 14.195312 12.074219 L 12.554688 13.714844 C 12.457031 13.808594 12.410156 13.90625 12.410156 14.050781 L 12.410156 17.957031 L 10.578125 17.957031 C 10.289062 17.957031 10.097656 18.148438 10.097656 18.4375 L 10.097656 25.191406 C 10.097656 25.480469 10.289062 25.671875 10.578125 25.671875 L 18.101562 25.671875 C 18.246094 25.671875 18.390625 25.625 18.484375 25.527344 L 21.136719 22.441406 C 21.234375 22.34375 21.234375 22.25 21.234375 22.105469 L 21.234375 18.4375 C 21.234375 18.148438 21.042969 17.957031 20.753906 17.957031 L 18.921875 17.957031 L 18.921875 14.050781 C 18.96875 13.953125 18.921875 13.808594 18.824219 13.714844 Z M 13.375 14.246094 L 14.726562 12.894531 L 16.605469 12.894531 L 17.957031 14.246094 L 17.957031 17.957031 L 13.375 17.957031 Z M 20.320312 21.910156 L 17.90625 24.707031 L 11.109375 24.707031 L 11.109375 18.921875 L 20.320312 18.921875 Z M 15.207031 23.019531 L 15.207031 20.464844 C 15.207031 20.175781 15.398438 19.980469 15.691406 19.980469 C 15.980469 19.980469 16.171875 20.175781 16.171875 20.464844 L 16.171875 23.019531 C 16.171875 23.308594 15.980469 23.503906 15.691406 23.503906 C 15.398438 23.503906 15.207031 23.308594 15.207031 23.019531 Z M 31.746094 26.734375 L 27.503906 19.402344 C 27.164062 18.875 26.585938 18.535156 25.960938 18.535156 C 25.332031 18.535156 24.753906 18.875 24.417969 19.402344 L 20.175781 26.734375 C 19.835938 27.261719 19.835938 27.9375 20.175781 28.515625 C 20.511719 29.046875 21.089844 29.386719 21.71875 29.386719 L 30.15625 29.386719 C 30.78125 29.386719 31.359375 29.046875 31.699219 28.515625 C 32.035156 27.988281 32.035156 27.3125 31.746094 26.734375 Z M 30.878906 28.035156 C 30.734375 28.277344 30.445312 28.421875 30.15625 28.421875 L 21.71875 28.421875 C 21.425781 28.421875 21.136719 28.277344 20.992188 28.035156 C 20.847656 27.792969 20.847656 27.457031 20.992188 27.214844 L 25.238281 19.886719 C 25.382812 19.644531 25.671875 19.5 25.960938 19.5 C 26.25 19.5 26.539062 19.644531 26.683594 19.886719 L 30.878906 27.214844 C 31.023438 27.503906 31.023438 27.792969 30.878906 28.035156 Z M 26.25 20.03125 C 26.105469 19.789062 25.765625 19.789062 25.671875 20.03125 L 21.332031 27.503906 C 21.1875 27.746094 21.378906 28.035156 21.621094 28.035156 L 30.300781 28.035156 C 30.589844 28.035156 30.734375 27.746094 30.589844 27.503906 Z M 25.960938 21.1875 C 26.25 21.1875 26.441406 21.332031 26.441406 21.71875 C 26.441406 22.054688 26.347656 22.875 26.25 24.128906 L 26.152344 25.382812 L 25.816406 25.382812 L 25.71875 24.128906 C 25.621094 22.875 25.527344 22.007812 25.527344 21.71875 C 25.476562 21.378906 25.671875 21.1875 25.960938 21.1875 Z M 25.960938 27.457031 C 25.671875 27.457031 25.382812 27.214844 25.382812 26.878906 C 25.382812 26.589844 25.621094 26.300781 25.960938 26.300781 C 26.296875 26.300781 26.539062 26.589844 26.539062 26.878906 C 26.539062 27.167969 26.25 27.457031 25.960938 27.457031 Z M 19.691406 28.757812 C 19.789062 29 19.691406 29.289062 19.402344 29.386719 C 18.101562 29.914062 16.703125 30.203125 15.253906 30.203125 C 9.132812 30.15625 4.117188 25.191406 4.117188 19.019531 C 4.117188 12.847656 9.132812 7.878906 15.253906 7.878906 C 20.800781 7.878906 25.527344 12.027344 26.296875 17.476562 C 26.347656 17.714844 26.152344 18.003906 25.863281 18.003906 C 25.621094 18.054688 25.332031 17.859375 25.332031 17.570312 C 24.660156 12.554688 20.320312 8.796875 15.253906 8.796875 C 9.664062 8.84375 5.082031 13.375 5.082031 19.019531 C 5.082031 24.660156 9.664062 29.191406 15.253906 29.191406 C 16.558594 29.191406 17.8125 28.949219 19.015625 28.46875 C 19.304688 28.371094 19.59375 28.515625 19.691406 28.757812 Z M 19.691406 28.757812 " fill-opacity="1" fill-rule="nonzero"/></g></svg>