<svg xmlns="http://www.w3.org/2000/svg" xmlns:xlink="http://www.w3.org/1999/xlink" width="48" zoomAndPan="magnify" viewBox="0 0 36 36.000001" height="48" preserveAspectRatio="xMidYMid meet" version="1.0"><defs><clipPath id="f8ba53199e"><path d="M 5 4.523438 L 31 4.523438 L 31 35.027344 L 5 35.027344 Z M 5 4.523438 " clip-rule="nonzero"/></clipPath></defs><g clip-path="url(#f8ba53199e)"><path fill="#4f2fda" d="M 14.203125 21.164062 L 14.203125 23.332031 L 5.175781 48.382812 C 5.03125 48.78125 5.242188 49.226562 5.644531 49.371094 C 6.042969 49.515625 6.488281 49.308594 6.632812 48.90625 L 15.53125 24.21875 L 17.21875 24.21875 L 17.226562 48.644531 C 17.226562 49.070312 17.574219 49.417969 18 49.417969 C 18.429688 49.417969 18.777344 49.070312 18.777344 48.644531 L 18.765625 24.21875 L 20.472656 24.21875 L 29.371094 48.90625 C 29.515625 49.308594 29.957031 49.515625 30.359375 49.371094 C 30.761719 49.226562 30.972656 48.78125 30.828125 48.382812 L 21.800781 23.332031 L 21.800781 21.164062 L 28.597656 21.164062 C 29.019531 21.164062 29.425781 21 29.722656 20.699219 C 30.023438 20.402344 30.1875 19.996094 30.1875 19.574219 L 30.1875 7.339844 C 30.1875 6.917969 30.023438 6.511719 29.722656 6.214844 C 29.425781 5.914062 29.019531 5.75 28.597656 5.75 L 26.566406 5.75 C 26.566406 5.75 25.980469 4.867188 25.980469 4.867188 C 25.835938 4.652344 25.59375 4.523438 25.335938 4.523438 L 13.914062 4.523438 C 13.65625 4.523438 13.414062 4.652344 13.269531 4.867188 L 12.683594 5.75 C 12.683594 5.75 7.386719 5.75 7.386719 5.75 C 6.964844 5.75 6.5625 5.914062 6.261719 6.214844 C 5.964844 6.511719 5.796875 6.917969 5.796875 7.339844 C 5.796875 9.796875 5.796875 17.117188 5.796875 19.574219 C 5.796875 19.996094 5.964844 20.402344 6.261719 20.699219 C 6.5625 21 6.964844 21.164062 7.386719 21.164062 Z M 20.25 22.667969 L 15.75 22.667969 C 15.75 22.667969 15.75 21.191406 15.75 21.191406 L 20.25 21.191406 Z M 9.820312 7.296875 L 9.824219 19.617188 L 7.386719 19.617188 C 7.375 19.617188 7.367188 19.613281 7.355469 19.605469 C 7.347656 19.597656 7.34375 19.585938 7.34375 19.574219 L 7.34375 7.339844 C 7.34375 7.328125 7.347656 7.316406 7.355469 7.308594 C 7.367188 7.300781 7.375 7.296875 7.386719 7.296875 Z M 11.375 19.617188 L 11.371094 7.296875 L 13.097656 7.296875 C 13.355469 7.296875 13.597656 7.167969 13.742188 6.953125 L 14.328125 6.074219 C 14.328125 6.074219 24.921875 6.074219 24.921875 6.074219 C 24.921875 6.074219 25.507812 6.953125 25.507812 6.953125 C 25.652344 7.167969 25.894531 7.296875 26.152344 7.296875 L 28.597656 7.296875 C 28.609375 7.296875 28.621094 7.300781 28.628906 7.308594 C 28.636719 7.316406 28.640625 7.328125 28.640625 7.339844 L 28.640625 19.574219 C 28.640625 19.585938 28.636719 19.597656 28.628906 19.605469 C 28.621094 19.613281 28.609375 19.617188 28.597656 19.617188 Z M 19.625 8.394531 C 16.929688 8.394531 14.742188 10.582031 14.742188 13.277344 C 14.742188 15.972656 16.929688 18.160156 19.625 18.160156 C 22.320312 18.160156 24.507812 15.972656 24.507812 13.277344 C 24.507812 10.582031 22.320312 8.394531 19.625 8.394531 Z M 19.625 9.941406 C 21.464844 9.941406 22.960938 11.4375 22.960938 13.277344 C 22.960938 15.117188 21.464844 16.613281 19.625 16.613281 C 17.785156 16.613281 16.289062 15.117188 16.289062 13.277344 C 16.289062 11.4375 17.785156 9.941406 19.625 9.941406 Z M 19.78125 12.308594 L 19.625 12.460938 C 19.625 12.460938 19.46875 12.308594 19.46875 12.308594 C 19.132812 11.96875 18.585938 11.96875 18.246094 12.308594 C 17.910156 12.644531 17.910156 13.195312 18.246094 13.53125 L 19.625 14.910156 L 21.003906 13.53125 C 21.339844 13.195312 21.339844 12.644531 21.003906 12.308594 C 20.664062 11.96875 20.117188 11.96875 19.78125 12.308594 Z M 26.097656 8.820312 C 26.660156 8.820312 27.117188 9.277344 27.117188 9.839844 C 27.117188 10.402344 26.660156 10.859375 26.097656 10.859375 C 25.535156 10.859375 25.078125 10.402344 25.078125 9.839844 C 25.078125 9.277344 25.535156 8.820312 26.097656 8.820312 Z M 26.097656 8.820312 " fill-opacity="1" fill-rule="evenodd"/></g></svg>