<svg xmlns="http://www.w3.org/2000/svg" xmlns:xlink="http://www.w3.org/1999/xlink" width="48" zoomAndPan="magnify" viewBox="0 0 36 36.000001" height="48" preserveAspectRatio="xMidYMid meet" version="1.0"><defs><clipPath id="e3c0ed60bb"><path d="M 5.742188 5.789062 L 29 5.789062 L 29 29.140625 L 5.742188 29.140625 Z M 5.742188 5.789062 " clip-rule="nonzero"/></clipPath></defs><g clip-path="url(#e3c0ed60bb)"><path fill="#4e2fda" d="M 12.574219 23.9375 L 10.644531 26.210938 C 10.644531 26.210938 10.644531 26.214844 10.644531 26.214844 C 10.515625 26.363281 10.34375 26.441406 10.152344 26.441406 C 9.953125 26.441406 9.78125 26.359375 9.65625 26.210938 L 5.941406 21.832031 C 5.773438 21.636719 5.738281 21.375 5.847656 21.144531 C 5.953125 20.910156 6.171875 20.765625 6.433594 20.765625 L 7.789062 20.765625 L 7.789062 8.847656 C 7.789062 8.34375 8.199219 7.933594 8.703125 7.933594 L 11.597656 7.933594 C 12.101562 7.933594 12.515625 8.34375 12.515625 8.847656 C 12.515625 8.847656 12.515625 18.585938 12.515625 20.457031 C 12.675781 19.828125 12.929688 19.191406 13.292969 18.554688 C 14.128906 17.09375 15.414062 15.449219 17.15625 13.542969 C 16.640625 13.308594 16.277344 12.785156 16.277344 12.179688 C 16.277344 11.371094 16.933594 10.707031 17.738281 10.6875 C 17.210938 10.160156 16.546875 9.5 16.550781 9.5 C 15.953125 8.90625 15.953125 7.933594 16.546875 7.339844 C 17.050781 6.835938 17.847656 6.75 18.453125 7.132812 C 18.511719 7.171875 18.582031 7.179688 18.648438 7.152344 C 18.71875 7.125 18.761719 7.070312 18.777344 7 C 18.925781 6.316406 19.539062 5.796875 20.269531 5.796875 C 20.984375 5.796875 21.605469 6.300781 21.761719 7 C 21.777344 7.070312 21.820312 7.125 21.886719 7.152344 C 21.957031 7.179688 22.023438 7.171875 22.085938 7.136719 C 22.675781 6.757812 23.476562 6.824219 23.988281 7.339844 L 23.992188 7.339844 C 24.582031 7.933594 24.582031 8.90625 23.988281 9.496094 L 22.800781 10.6875 C 23.605469 10.707031 24.257812 11.371094 24.257812 12.179688 C 24.257812 12.785156 23.898438 13.308594 23.382812 13.542969 C 25.125 15.449219 26.410156 17.09375 27.242188 18.554688 C 30.253906 23.839844 26.003906 29.226562 20.269531 29.136719 C 16.5625 29.195312 13.476562 26.953125 12.574219 23.9375 Z M 13.214844 20.765625 L 13.871094 20.765625 C 14.125 20.765625 14.347656 20.90625 14.457031 21.144531 C 14.5625 21.375 14.527344 21.636719 14.363281 21.832031 L 13.171875 23.234375 C 13.777344 26.199219 16.71875 28.441406 20.261719 28.382812 C 20.265625 28.382812 20.269531 28.382812 20.277344 28.382812 C 25.421875 28.46875 29.289062 23.667969 26.589844 18.925781 C 25.726562 17.410156 24.355469 15.695312 22.480469 13.675781 L 18.054688 13.675781 C 16.183594 15.695312 14.8125 17.410156 13.945312 18.925781 C 13.597656 19.542969 13.355469 20.160156 13.214844 20.765625 Z M 18.800781 10.6875 L 21.734375 10.6875 L 23.457031 8.964844 C 23.757812 8.664062 23.757812 8.171875 23.457031 7.871094 C 23.195312 7.609375 22.792969 7.578125 22.492188 7.769531 C 22.214844 7.945312 21.902344 7.972656 21.597656 7.847656 C 21.296875 7.722656 21.09375 7.480469 21.023438 7.160156 C 20.945312 6.808594 20.632812 6.550781 20.269531 6.550781 C 19.898438 6.550781 19.589844 6.8125 19.515625 7.160156 C 19.445312 7.480469 19.242188 7.722656 18.9375 7.847656 C 18.636719 7.972656 18.320312 7.945312 18.046875 7.769531 C 17.742188 7.574219 17.335938 7.617188 17.082031 7.871094 C 16.78125 8.171875 16.777344 8.664062 17.082031 8.964844 Z M 22.765625 11.441406 L 17.773438 11.441406 C 17.367188 11.441406 17.03125 11.773438 17.03125 12.179688 C 17.03125 12.589844 17.367188 12.925781 17.773438 12.925781 L 22.765625 12.925781 C 23.171875 12.925781 23.507812 12.589844 23.507812 12.179688 C 23.507812 11.773438 23.171875 11.441406 22.765625 11.441406 Z M 6.664062 21.519531 L 10.152344 25.628906 L 13.640625 21.519531 L 12.136719 21.519531 C 11.929688 21.519531 11.761719 21.351562 11.761719 21.144531 L 11.761719 8.847656 C 11.761719 8.757812 11.6875 8.683594 11.597656 8.683594 L 8.703125 8.683594 C 8.613281 8.683594 8.539062 8.757812 8.539062 8.847656 L 8.539062 21.144531 C 8.539062 21.351562 8.371094 21.519531 8.164062 21.519531 Z M 20.226562 23.628906 C 20.234375 23.625 20.242188 23.625 20.246094 23.625 C 20.253906 23.625 20.261719 23.625 20.269531 23.628906 C 20.285156 23.628906 20.300781 23.628906 20.316406 23.625 C 20.695312 23.617188 21.113281 23.519531 21.421875 23.308594 C 21.679688 23.128906 21.851562 22.863281 21.804688 22.492188 C 21.761719 22.125 21.554688 21.890625 21.289062 21.730469 C 20.96875 21.535156 20.5625 21.441406 20.191406 21.378906 C 19.230469 21.222656 18.1875 20.765625 18.132812 19.625 C 18.089844 18.765625 18.625 18.136719 19.355469 17.847656 C 19.519531 17.785156 19.691406 17.738281 19.871094 17.710938 L 19.871094 17.199219 C 19.871094 16.992188 20.039062 16.820312 20.246094 16.820312 C 20.453125 16.820312 20.625 16.992188 20.625 17.199219 L 20.625 17.703125 C 21.347656 17.808594 22.035156 18.234375 22.375 19.046875 C 22.457031 19.238281 22.367188 19.457031 22.175781 19.539062 C 21.984375 19.617188 21.761719 19.527344 21.683594 19.335938 C 21.417969 18.707031 20.839844 18.433594 20.273438 18.429688 C 20.265625 18.429688 20.257812 18.429688 20.246094 18.429688 C 20.242188 18.429688 20.234375 18.429688 20.226562 18.429688 C 20.019531 18.433594 19.816406 18.476562 19.628906 18.546875 C 19.195312 18.71875 18.859375 19.078125 18.882812 19.589844 C 18.902344 19.996094 19.15625 20.238281 19.472656 20.390625 C 19.730469 20.519531 20.03125 20.589844 20.3125 20.636719 C 21.304688 20.800781 22.410156 21.222656 22.554688 22.402344 C 22.695312 23.597656 21.644531 24.238281 20.625 24.359375 L 20.625 24.859375 C 20.625 25.066406 20.453125 25.234375 20.246094 25.234375 C 20.039062 25.234375 19.871094 25.066406 19.871094 24.859375 L 19.871094 24.355469 C 18.972656 24.230469 18.175781 23.6875 17.941406 22.75 C 17.890625 22.546875 18.011719 22.34375 18.214844 22.292969 C 18.417969 22.242188 18.621094 22.367188 18.671875 22.566406 C 18.847656 23.277344 19.53125 23.617188 20.226562 23.628906 Z M 20.226562 23.628906 " fill-opacity="1" fill-rule="evenodd"/></g></svg>