<svg xmlns="http://www.w3.org/2000/svg" xmlns:xlink="http://www.w3.org/1999/xlink" width="48" zoomAndPan="magnify" viewBox="0 0 36 36.000001" height="48" preserveAspectRatio="xMidYMid meet" version="1.0"><defs><clipPath id="d2e89849bf"><path d="M 1.652344 11 L 14 11 L 14 24 L 1.652344 24 Z M 1.652344 11 " clip-rule="nonzero"/></clipPath><clipPath id="1812f47e6f"><path d="M 5 24 L 34.492188 24 L 34.492188 28 L 5 28 Z M 5 24 " clip-rule="nonzero"/></clipPath></defs><path fill="#4e2fda" d="M 6.824219 20.003906 C 6.667969 20.003906 6.539062 19.96875 6.410156 19.90625 C 5.996094 19.652344 5.835938 19.140625 6.089844 18.726562 L 8.070312 15.277344 C 8.230469 15.023438 8.519531 14.863281 8.804688 14.863281 C 8.964844 14.863281 9.125 14.894531 9.25 14.992188 C 9.445312 15.085938 9.570312 15.277344 9.636719 15.5 C 9.699219 15.726562 9.667969 15.949219 9.570312 16.140625 L 7.558594 19.585938 C 7.433594 19.84375 7.144531 20.003906 6.824219 20.003906 Z M 8.804688 15.5 C 8.742188 15.5 8.675781 15.53125 8.613281 15.597656 L 6.632812 19.042969 C 6.570312 19.140625 6.601562 19.300781 6.730469 19.363281 C 6.824219 19.394531 6.953125 19.363281 7.015625 19.269531 L 8.996094 15.820312 C 9.027344 15.789062 9.027344 15.726562 9.027344 15.660156 C 8.996094 15.597656 8.964844 15.566406 8.933594 15.53125 C 8.902344 15.5 8.867188 15.5 8.804688 15.5 Z M 8.804688 15.5 " fill-opacity="1" fill-rule="evenodd"/><path fill="#4e2fda" d="M 9.859375 19.585938 C 9.667969 19.585938 9.507812 19.554688 9.347656 19.460938 C 9.125 19.332031 8.964844 19.109375 8.902344 18.851562 C 8.835938 18.597656 8.867188 18.34375 8.996094 18.117188 C 9.15625 17.832031 9.507812 17.640625 9.859375 17.640625 C 10.019531 17.640625 10.175781 17.671875 10.335938 17.769531 C 10.816406 18.023438 10.976562 18.628906 10.6875 19.109375 C 10.527344 19.394531 10.210938 19.585938 9.859375 19.585938 Z M 9.859375 18.277344 C 9.730469 18.277344 9.601562 18.34375 9.539062 18.4375 C 9.507812 18.503906 9.476562 18.597656 9.507812 18.695312 C 9.539062 18.789062 9.601562 18.851562 9.667969 18.917969 C 9.828125 19.011719 10.050781 18.949219 10.144531 18.789062 C 10.242188 18.628906 10.175781 18.40625 10.019531 18.308594 C 9.953125 18.277344 9.921875 18.277344 9.859375 18.277344 Z M 9.859375 18.277344 " fill-opacity="1" fill-rule="evenodd"/><path fill="#4e2fda" d="M 5.804688 17.257812 C 5.613281 17.257812 5.453125 17.226562 5.292969 17.128906 C 5.070312 17 4.910156 16.777344 4.847656 16.523438 C 4.78125 16.265625 4.816406 16.011719 4.941406 15.789062 C 5.132812 15.46875 5.453125 15.277344 5.804688 15.277344 C 5.964844 15.277344 6.15625 15.339844 6.28125 15.40625 C 6.761719 15.691406 6.921875 16.300781 6.632812 16.777344 C 6.472656 17.066406 6.15625 17.257812 5.804688 17.257812 Z M 5.804688 15.917969 C 5.675781 15.917969 5.546875 15.980469 5.484375 16.109375 C 5.453125 16.171875 5.453125 16.265625 5.453125 16.363281 C 5.484375 16.457031 5.546875 16.523438 5.613281 16.554688 C 5.773438 16.652344 5.996094 16.617188 6.089844 16.457031 C 6.1875 16.265625 6.125 16.074219 5.964844 15.980469 C 5.933594 15.949219 5.867188 15.917969 5.804688 15.917969 Z M 5.804688 15.917969 " fill-opacity="1" fill-rule="evenodd"/><g clip-path="url(#d2e89849bf)"><path fill="#4e2fda" d="M 7.816406 23.609375 C 7.527344 23.609375 7.273438 23.515625 7.050781 23.355469 C 6.792969 23.449219 6.507812 23.480469 6.21875 23.386719 C 5.964844 23.324219 5.707031 23.164062 5.546875 22.9375 C 5.261719 22.972656 4.972656 22.9375 4.75 22.78125 C 4.496094 22.652344 4.304688 22.429688 4.207031 22.171875 C 3.921875 22.140625 3.664062 22.011719 3.472656 21.789062 C 3.25 21.597656 3.121094 21.34375 3.089844 21.054688 C 2.835938 20.960938 2.613281 20.769531 2.484375 20.511719 C 2.324219 20.289062 2.292969 20.003906 2.324219 19.714844 C 2.101562 19.554688 1.941406 19.300781 1.878906 19.042969 C 1.78125 18.757812 1.8125 18.46875 1.910156 18.214844 C 1.75 17.992188 1.652344 17.734375 1.652344 17.449219 C 1.652344 17.160156 1.75 16.875 1.910156 16.652344 C 1.8125 16.394531 1.78125 16.109375 1.878906 15.851562 C 1.941406 15.566406 2.101562 15.339844 2.324219 15.148438 C 2.292969 14.894531 2.324219 14.605469 2.484375 14.351562 C 2.613281 14.097656 2.835938 13.9375 3.089844 13.808594 C 3.121094 13.554688 3.25 13.265625 3.472656 13.074219 C 3.664062 12.882812 3.921875 12.753906 4.207031 12.722656 C 4.304688 12.46875 4.496094 12.246094 4.75 12.085938 C 4.972656 11.957031 5.261719 11.894531 5.546875 11.925781 C 5.707031 11.734375 5.964844 11.542969 6.21875 11.480469 C 6.507812 11.414062 6.792969 11.445312 7.050781 11.542969 C 7.273438 11.382812 7.527344 11.289062 7.816406 11.289062 C 8.101562 11.289062 8.390625 11.382812 8.613281 11.542969 C 8.867188 11.445312 9.15625 11.414062 9.410156 11.480469 C 9.699219 11.542969 9.921875 11.734375 10.113281 11.925781 C 10.371094 11.894531 10.65625 11.957031 10.910156 12.085938 C 11.167969 12.246094 11.328125 12.46875 11.453125 12.722656 C 11.710938 12.753906 11.996094 12.882812 12.1875 13.074219 C 12.378906 13.265625 12.507812 13.554688 12.539062 13.808594 C 12.796875 13.9375 13.019531 14.097656 13.179688 14.351562 C 13.304688 14.605469 13.371094 14.894531 13.339844 15.148438 C 13.53125 15.339844 13.722656 15.566406 13.785156 15.851562 C 13.847656 16.109375 13.847656 16.394531 13.722656 16.652344 C 13.878906 16.875 13.976562 17.160156 13.976562 17.449219 C 13.976562 17.734375 13.878906 17.992188 13.722656 18.214844 C 13.847656 18.46875 13.847656 18.757812 13.785156 19.042969 C 13.722656 19.300781 13.53125 19.554688 13.339844 19.714844 C 13.371094 20.003906 13.304688 20.289062 13.179688 20.511719 C 13.019531 20.769531 12.796875 20.960938 12.539062 21.054688 C 12.507812 21.34375 12.378906 21.597656 12.1875 21.789062 C 11.996094 22.011719 11.710938 22.140625 11.453125 22.171875 C 11.328125 22.429688 11.167969 22.652344 10.910156 22.78125 C 10.65625 22.9375 10.371094 22.972656 10.113281 22.9375 C 9.921875 23.164062 9.699219 23.324219 9.410156 23.386719 C 9.15625 23.480469 8.867188 23.449219 8.613281 23.355469 C 8.390625 23.515625 8.101562 23.609375 7.816406 23.609375 Z M 7.082031 22.621094 C 7.175781 22.621094 7.273438 22.683594 7.335938 22.746094 C 7.464844 22.875 7.625 22.972656 7.816406 22.972656 C 8.007812 22.972656 8.199219 22.875 8.292969 22.746094 C 8.421875 22.621094 8.582031 22.589844 8.742188 22.683594 C 8.867188 22.8125 9.058594 22.84375 9.25 22.78125 C 9.445312 22.746094 9.570312 22.621094 9.667969 22.429688 C 9.730469 22.300781 9.890625 22.207031 10.050781 22.269531 C 10.242188 22.332031 10.433594 22.332031 10.59375 22.238281 C 10.753906 22.140625 10.847656 21.980469 10.878906 21.789062 C 10.910156 21.628906 11.070312 21.535156 11.230469 21.535156 C 11.421875 21.535156 11.613281 21.472656 11.742188 21.34375 C 11.871094 21.214844 11.933594 21.023438 11.902344 20.863281 C 11.902344 20.671875 12.027344 20.546875 12.1875 20.511719 C 12.347656 20.480469 12.507812 20.355469 12.605469 20.195312 C 12.699219 20.035156 12.730469 19.84375 12.667969 19.683594 C 12.605469 19.523438 12.667969 19.363281 12.828125 19.269531 C 12.988281 19.203125 13.113281 19.042969 13.179688 18.886719 C 13.210938 18.695312 13.179688 18.503906 13.082031 18.34375 C 12.988281 18.214844 12.988281 18.023438 13.113281 17.925781 C 13.273438 17.800781 13.339844 17.640625 13.339844 17.449219 C 13.339844 17.257812 13.273438 17.066406 13.113281 16.96875 C 12.988281 16.84375 12.988281 16.683594 13.082031 16.523438 C 13.179688 16.394531 13.210938 16.203125 13.179688 16.011719 C 13.113281 15.820312 12.988281 15.691406 12.828125 15.597656 C 12.667969 15.53125 12.605469 15.375 12.667969 15.214844 C 12.730469 15.023438 12.699219 14.832031 12.605469 14.671875 C 12.507812 14.511719 12.347656 14.414062 12.1875 14.382812 C 12.027344 14.351562 11.902344 14.191406 11.902344 14.03125 C 11.933594 13.839844 11.871094 13.648438 11.742188 13.523438 C 11.613281 13.394531 11.421875 13.332031 11.230469 13.363281 C 11.070312 13.363281 10.910156 13.234375 10.878906 13.074219 C 10.847656 12.914062 10.753906 12.753906 10.59375 12.660156 C 10.433594 12.5625 10.242188 12.53125 10.050781 12.597656 C 9.890625 12.660156 9.730469 12.597656 9.667969 12.4375 C 9.570312 12.277344 9.445312 12.148438 9.25 12.085938 C 9.058594 12.054688 8.867188 12.085938 8.742188 12.179688 C 8.582031 12.277344 8.421875 12.277344 8.292969 12.148438 C 8.199219 11.988281 8.007812 11.925781 7.816406 11.925781 C 7.625 11.925781 7.464844 11.988281 7.335938 12.148438 C 7.242188 12.277344 7.050781 12.277344 6.921875 12.179688 C 6.761719 12.085938 6.570312 12.054688 6.378906 12.085938 C 6.21875 12.148438 6.058594 12.277344 5.996094 12.4375 C 5.898438 12.597656 5.742188 12.660156 5.582031 12.597656 C 5.421875 12.53125 5.230469 12.5625 5.070312 12.660156 C 4.910156 12.753906 4.78125 12.914062 4.75 13.074219 C 4.71875 13.234375 4.589844 13.363281 4.398438 13.363281 C 4.238281 13.332031 4.046875 13.394531 3.921875 13.523438 C 3.792969 13.648438 3.730469 13.839844 3.730469 14.03125 C 3.730469 14.191406 3.632812 14.351562 3.472656 14.382812 C 3.28125 14.414062 3.121094 14.511719 3.027344 14.671875 C 2.929688 14.832031 2.929688 15.023438 2.996094 15.214844 C 3.058594 15.375 2.964844 15.53125 2.835938 15.597656 C 2.644531 15.691406 2.515625 15.820312 2.484375 16.011719 C 2.421875 16.203125 2.453125 16.394531 2.578125 16.523438 C 2.675781 16.683594 2.644531 16.84375 2.515625 16.96875 C 2.386719 17.066406 2.292969 17.257812 2.292969 17.449219 C 2.292969 17.640625 2.386719 17.800781 2.515625 17.925781 C 2.644531 18.023438 2.675781 18.214844 2.578125 18.34375 C 2.453125 18.503906 2.421875 18.695312 2.484375 18.886719 C 2.515625 19.042969 2.644531 19.203125 2.835938 19.269531 C 2.964844 19.363281 3.058594 19.523438 2.996094 19.683594 C 2.929688 19.84375 2.929688 20.035156 3.027344 20.195312 C 3.121094 20.355469 3.28125 20.480469 3.472656 20.511719 C 3.632812 20.546875 3.730469 20.671875 3.730469 20.863281 C 3.730469 21.023438 3.792969 21.214844 3.921875 21.34375 C 4.046875 21.472656 4.238281 21.535156 4.398438 21.535156 C 4.589844 21.535156 4.71875 21.628906 4.75 21.789062 C 4.78125 21.980469 4.910156 22.140625 5.070312 22.238281 C 5.230469 22.332031 5.421875 22.332031 5.582031 22.269531 C 5.742188 22.207031 5.898438 22.300781 5.996094 22.429688 C 6.058594 22.621094 6.21875 22.746094 6.378906 22.78125 C 6.570312 22.84375 6.761719 22.8125 6.921875 22.683594 C 6.984375 22.652344 7.050781 22.621094 7.082031 22.621094 Z M 7.082031 22.621094 " fill-opacity="1" fill-rule="evenodd"/></g><path fill="#4e2fda" d="M 7.816406 21.980469 C 5.324219 21.980469 3.28125 19.9375 3.28125 17.449219 C 3.28125 14.925781 5.324219 12.882812 7.816406 12.882812 C 10.335938 12.882812 12.378906 14.925781 12.378906 17.449219 C 12.378906 19.9375 10.335938 21.980469 7.816406 21.980469 Z M 7.816406 13.523438 C 5.675781 13.523438 3.921875 15.277344 3.921875 17.449219 C 3.921875 19.585938 5.675781 21.34375 7.816406 21.34375 C 9.984375 21.34375 11.742188 19.585938 11.742188 17.449219 C 11.742188 15.277344 9.984375 13.523438 7.816406 13.523438 Z M 7.816406 13.523438 " fill-opacity="1" fill-rule="evenodd"/><g clip-path="url(#1812f47e6f)"><path fill="#4e2fda" d="M 34.023438 27.664062 L 5.898438 27.664062 C 5.742188 27.664062 5.582031 27.503906 5.582031 27.34375 L 5.582031 25.238281 C 5.582031 25.078125 5.742188 24.917969 5.898438 24.917969 L 34.023438 24.917969 C 34.214844 24.917969 34.34375 25.078125 34.34375 25.238281 L 34.34375 27.34375 C 34.34375 27.503906 34.214844 27.664062 34.023438 27.664062 Z M 6.21875 27.027344 L 33.707031 27.027344 L 33.707031 25.558594 L 6.21875 25.558594 Z M 6.21875 27.027344 " fill-opacity="1" fill-rule="evenodd"/></g><path fill="#4e2fda" d="M 19.976562 25.558594 L 8.230469 25.558594 C 8.039062 25.558594 7.910156 25.429688 7.910156 25.238281 L 7.910156 23.195312 C 7.910156 23.066406 7.976562 22.972656 8.070312 22.90625 C 8.167969 22.875 8.230469 22.8125 8.292969 22.746094 C 8.421875 22.621094 8.582031 22.589844 8.742188 22.683594 C 8.867188 22.8125 9.058594 22.84375 9.25 22.78125 C 9.445312 22.746094 9.570312 22.621094 9.667969 22.429688 C 9.730469 22.300781 9.890625 22.207031 10.050781 22.269531 C 10.242188 22.332031 10.433594 22.332031 10.59375 22.238281 C 10.753906 22.140625 10.847656 21.980469 10.878906 21.789062 C 10.910156 21.628906 11.070312 21.535156 11.230469 21.535156 C 11.421875 21.535156 11.613281 21.472656 11.742188 21.34375 C 11.871094 21.214844 11.933594 21.023438 11.902344 20.863281 C 11.902344 20.671875 12.027344 20.546875 12.1875 20.511719 C 12.347656 20.480469 12.507812 20.355469 12.605469 20.195312 C 12.699219 20.035156 12.730469 19.84375 12.667969 19.683594 C 12.605469 19.523438 12.667969 19.363281 12.828125 19.269531 C 12.988281 19.203125 13.113281 19.042969 13.179688 18.886719 C 13.210938 18.695312 13.179688 18.503906 13.082031 18.34375 C 12.988281 18.214844 12.988281 18.023438 13.113281 17.925781 C 13.273438 17.800781 13.339844 17.640625 13.339844 17.449219 C 13.339844 17.417969 13.339844 17.417969 13.339844 17.382812 C 13.339844 17.320312 13.371094 17.226562 13.433594 17.160156 C 13.496094 17.097656 13.59375 17.066406 13.65625 17.066406 L 19.976562 17.066406 C 20.136719 17.066406 20.296875 17.191406 20.296875 17.382812 L 20.296875 25.238281 C 20.296875 25.429688 20.136719 25.558594 19.976562 25.558594 Z M 8.550781 24.917969 L 19.660156 24.917969 L 19.660156 17.703125 L 13.976562 17.703125 C 13.914062 17.894531 13.847656 18.054688 13.722656 18.214844 C 13.847656 18.46875 13.847656 18.757812 13.785156 19.042969 C 13.722656 19.300781 13.53125 19.554688 13.339844 19.714844 C 13.371094 20.003906 13.304688 20.289062 13.179688 20.511719 C 13.019531 20.769531 12.796875 20.960938 12.539062 21.054688 C 12.507812 21.34375 12.378906 21.597656 12.1875 21.789062 C 11.996094 22.011719 11.710938 22.140625 11.453125 22.171875 C 11.328125 22.429688 11.167969 22.652344 10.910156 22.78125 C 10.65625 22.9375 10.371094 22.972656 10.113281 22.9375 C 9.921875 23.164062 9.699219 23.324219 9.410156 23.386719 C 9.15625 23.480469 8.867188 23.449219 8.613281 23.355469 C 8.582031 23.355469 8.550781 23.386719 8.550781 23.386719 Z M 8.550781 24.917969 " fill-opacity="1" fill-rule="evenodd"/><path fill="#4e2fda" d="M 31.726562 25.558594 L 19.976562 25.558594 C 19.785156 25.558594 19.660156 25.429688 19.660156 25.238281 L 19.660156 15.46875 C 19.660156 15.308594 19.785156 15.148438 19.976562 15.148438 L 31.726562 15.148438 C 31.886719 15.148438 32.046875 15.308594 32.046875 15.46875 L 32.046875 25.238281 C 32.046875 25.429688 31.886719 25.558594 31.726562 25.558594 Z M 20.296875 24.917969 L 31.40625 24.917969 L 31.40625 15.789062 L 20.296875 15.789062 Z M 20.296875 24.917969 " fill-opacity="1" fill-rule="evenodd"/><path fill="#4e2fda" d="M 15.730469 20.160156 C 15.667969 20.160156 15.605469 20.128906 15.539062 20.097656 L 14.105469 19.203125 L 13.433594 19.621094 C 13.304688 19.683594 13.113281 19.652344 13.019531 19.554688 C 12.921875 19.429688 12.921875 19.234375 13.019531 19.140625 C 13.082031 19.042969 13.148438 18.980469 13.179688 18.886719 C 13.210938 18.695312 13.179688 18.503906 13.082031 18.34375 C 12.988281 18.214844 12.988281 18.023438 13.113281 17.925781 C 13.273438 17.800781 13.339844 17.640625 13.339844 17.449219 C 13.339844 17.417969 13.339844 17.417969 13.339844 17.382812 C 13.339844 17.320312 13.371094 17.226562 13.433594 17.160156 C 13.496094 17.097656 13.59375 17.066406 13.65625 17.066406 L 15.730469 17.066406 C 15.890625 17.066406 16.050781 17.191406 16.050781 17.382812 L 16.050781 19.84375 C 16.050781 19.9375 15.988281 20.066406 15.859375 20.128906 C 15.828125 20.128906 15.765625 20.160156 15.730469 20.160156 Z M 14.105469 18.503906 C 14.136719 18.503906 14.199219 18.535156 14.265625 18.566406 L 15.414062 19.269531 L 15.414062 17.703125 L 13.976562 17.703125 C 13.914062 17.894531 13.847656 18.054688 13.722656 18.214844 C 13.785156 18.34375 13.816406 18.46875 13.816406 18.628906 L 13.914062 18.566406 C 13.976562 18.535156 14.039062 18.503906 14.105469 18.503906 Z M 14.105469 18.503906 " fill-opacity="1" fill-rule="evenodd"/><path fill="#4e2fda" d="M 27.480469 19.332031 C 27.382812 19.332031 27.320312 19.300781 27.257812 19.269531 L 25.851562 17.992188 L 24.449219 19.269531 C 24.351562 19.332031 24.191406 19.363281 24.097656 19.300781 C 23.96875 19.269531 23.90625 19.140625 23.90625 19.011719 L 23.90625 15.46875 C 23.90625 15.308594 24.03125 15.148438 24.222656 15.148438 L 27.480469 15.148438 C 27.640625 15.148438 27.800781 15.308594 27.800781 15.46875 L 27.800781 19.011719 C 27.800781 19.140625 27.703125 19.269531 27.609375 19.300781 C 27.574219 19.332031 27.511719 19.332031 27.480469 19.332031 Z M 25.851562 17.257812 C 25.914062 17.257812 26.011719 17.257812 26.042969 17.320312 L 27.160156 18.308594 L 27.160156 15.789062 L 24.542969 15.789062 L 24.542969 18.308594 L 25.628906 17.320312 C 25.691406 17.257812 25.757812 17.257812 25.851562 17.257812 Z M 25.851562 17.257812 " fill-opacity="1" fill-rule="evenodd"/><path fill="#4e2fda" d="M 31.726562 15.789062 L 19.976562 15.789062 C 19.785156 15.789062 19.660156 15.660156 19.660156 15.46875 L 19.660156 5.734375 C 19.660156 5.542969 19.785156 5.414062 19.976562 5.414062 L 31.726562 5.414062 C 31.886719 5.414062 32.046875 5.542969 32.046875 5.734375 L 32.046875 15.46875 C 32.046875 15.660156 31.886719 15.789062 31.726562 15.789062 Z M 20.296875 15.148438 L 31.40625 15.148438 L 31.40625 6.050781 L 20.296875 6.050781 Z M 20.296875 15.148438 " fill-opacity="1" fill-rule="evenodd"/><path fill="#4e2fda" d="M 27.480469 9.5625 C 27.382812 9.5625 27.320312 9.5625 27.257812 9.5 L 25.851562 8.222656 L 24.449219 9.5 C 24.351562 9.59375 24.191406 9.59375 24.097656 9.5625 C 23.96875 9.5 23.90625 9.371094 23.90625 9.246094 L 23.90625 5.734375 C 23.90625 5.542969 24.03125 5.414062 24.222656 5.414062 L 27.480469 5.414062 C 27.640625 5.414062 27.800781 5.542969 27.800781 5.734375 L 27.800781 9.246094 C 27.800781 9.371094 27.703125 9.5 27.609375 9.5625 C 27.574219 9.5625 27.511719 9.5625 27.480469 9.5625 Z M 25.851562 7.488281 C 25.914062 7.488281 26.011719 7.519531 26.042969 7.550781 L 27.160156 8.542969 L 27.160156 6.050781 L 24.542969 6.050781 L 24.542969 8.542969 L 25.628906 7.550781 C 25.691406 7.519531 25.757812 7.488281 25.851562 7.488281 Z M 25.851562 7.488281 " fill-opacity="1" fill-rule="evenodd"/><path fill="#4e2fda" d="M 19.976562 17.703125 L 13.65625 17.703125 C 13.496094 17.703125 13.371094 17.578125 13.339844 17.382812 C 13.339844 17.226562 13.273438 17.066406 13.113281 16.96875 C 12.988281 16.84375 12.988281 16.683594 13.082031 16.523438 C 13.179688 16.394531 13.210938 16.203125 13.179688 16.011719 C 13.113281 15.820312 12.988281 15.691406 12.828125 15.597656 C 12.667969 15.53125 12.605469 15.375 12.667969 15.214844 C 12.730469 15.023438 12.699219 14.832031 12.605469 14.671875 C 12.507812 14.511719 12.347656 14.414062 12.1875 14.382812 C 12.027344 14.351562 11.902344 14.191406 11.902344 14.03125 C 11.933594 13.839844 11.871094 13.648438 11.742188 13.523438 C 11.613281 13.394531 11.421875 13.332031 11.230469 13.363281 C 11.070312 13.363281 10.910156 13.234375 10.878906 13.074219 C 10.847656 12.914062 10.753906 12.753906 10.59375 12.660156 C 10.433594 12.5625 10.242188 12.53125 10.050781 12.597656 C 9.890625 12.660156 9.730469 12.597656 9.667969 12.4375 C 9.570312 12.277344 9.445312 12.148438 9.25 12.085938 C 9.058594 12.054688 8.867188 12.085938 8.742188 12.179688 C 8.582031 12.277344 8.421875 12.277344 8.292969 12.148438 C 8.230469 12.054688 8.167969 12.023438 8.070312 11.957031 C 7.976562 11.925781 7.910156 11.796875 7.910156 11.671875 L 7.910156 9.5 C 7.910156 9.339844 8.039062 9.179688 8.230469 9.179688 L 19.976562 9.179688 C 20.136719 9.179688 20.296875 9.339844 20.296875 9.5 L 20.296875 17.382812 C 20.296875 17.542969 20.136719 17.703125 19.976562 17.703125 Z M 13.945312 17.066406 L 19.660156 17.066406 L 19.660156 9.820312 L 8.550781 9.820312 L 8.550781 11.480469 C 8.550781 11.511719 8.582031 11.511719 8.613281 11.542969 C 8.867188 11.414062 9.15625 11.414062 9.410156 11.480469 C 9.699219 11.542969 9.921875 11.734375 10.113281 11.925781 C 10.371094 11.894531 10.65625 11.957031 10.910156 12.085938 C 11.167969 12.246094 11.328125 12.46875 11.453125 12.722656 C 11.710938 12.753906 11.996094 12.882812 12.1875 13.074219 C 12.378906 13.265625 12.507812 13.554688 12.539062 13.808594 C 12.796875 13.9375 13.019531 14.097656 13.179688 14.351562 C 13.304688 14.605469 13.371094 14.894531 13.339844 15.148438 C 13.53125 15.339844 13.722656 15.566406 13.785156 15.851562 C 13.847656 16.109375 13.847656 16.394531 13.722656 16.652344 C 13.816406 16.777344 13.878906 16.90625 13.945312 17.066406 Z M 13.945312 17.066406 " fill-opacity="1" fill-rule="evenodd"/><path fill="#4e2fda" d="M 15.730469 12.277344 C 15.667969 12.277344 15.605469 12.277344 15.539062 12.246094 L 14.105469 11.320312 L 12.636719 12.246094 C 12.539062 12.308594 12.414062 12.308594 12.316406 12.246094 C 12.222656 12.179688 12.15625 12.085938 12.15625 11.957031 L 12.15625 9.5 C 12.15625 9.339844 12.285156 9.179688 12.476562 9.179688 L 15.730469 9.179688 C 15.890625 9.179688 16.050781 9.339844 16.050781 9.5 L 16.050781 11.957031 C 16.050781 12.085938 15.988281 12.179688 15.859375 12.246094 C 15.828125 12.277344 15.765625 12.277344 15.730469 12.277344 Z M 14.105469 10.648438 C 14.136719 10.648438 14.199219 10.648438 14.265625 10.679688 L 15.414062 11.382812 L 15.414062 9.820312 L 12.796875 9.820312 L 12.796875 11.382812 L 13.914062 10.679688 C 13.976562 10.648438 14.039062 10.648438 14.105469 10.648438 Z M 14.105469 10.648438 " fill-opacity="1" fill-rule="evenodd"/><path fill="#4e2fda" d="M 9.570312 29.613281 L 9.285156 29.613281 C 8.582031 29.613281 7.976562 29.035156 7.976562 28.335938 L 7.976562 27.34375 C 7.976562 27.152344 8.132812 27.027344 8.292969 27.027344 L 10.5625 27.027344 C 10.753906 27.027344 10.878906 27.152344 10.878906 27.34375 L 10.878906 28.335938 C 10.878906 29.035156 10.304688 29.613281 9.570312 29.613281 Z M 8.613281 27.664062 L 8.613281 28.335938 C 8.613281 28.6875 8.933594 28.972656 9.285156 28.972656 L 9.570312 28.972656 C 9.953125 28.972656 10.242188 28.6875 10.242188 28.335938 L 10.242188 27.664062 Z M 8.613281 27.664062 " fill-opacity="1" fill-rule="evenodd"/><path fill="#4e2fda" d="M 30.640625 29.613281 L 30.351562 29.613281 C 29.652344 29.613281 29.042969 29.035156 29.042969 28.335938 L 29.042969 27.34375 C 29.042969 27.152344 29.203125 27.027344 29.363281 27.027344 L 31.628906 27.027344 C 31.820312 27.027344 31.949219 27.152344 31.949219 27.34375 L 31.949219 28.335938 C 31.949219 29.035156 31.375 29.613281 30.640625 29.613281 Z M 29.683594 27.664062 L 29.683594 28.335938 C 29.683594 28.6875 30.003906 28.972656 30.351562 28.972656 L 30.640625 28.972656 C 31.023438 28.972656 31.3125 28.6875 31.3125 28.335938 L 31.3125 27.664062 Z M 29.683594 27.664062 " fill-opacity="1" fill-rule="evenodd"/></svg>