<svg xmlns="http://www.w3.org/2000/svg" xmlns:xlink="http://www.w3.org/1999/xlink" width="48" zoomAndPan="magnify" viewBox="0 0 36 36.000001" height="48" preserveAspectRatio="xMidYMid meet" version="1.0"><defs><clipPath id="509ad6dd81"><path d="M 3.003906 1.53125 L 32.921875 1.53125 L 32.921875 31.453125 L 3.003906 31.453125 Z M 3.003906 1.53125 " clip-rule="nonzero"/></clipPath></defs><path fill="#4e2fda" d="M 8.253906 14.84375 C 9.246094 14.9375 11.5625 15.324219 13.460938 16.898438 C 13.679688 17.078125 13.882812 17.289062 14.070312 17.527344 L 14.910156 16.6875 C 14.824219 16.5625 14.734375 16.449219 14.648438 16.355469 C 13.21875 14.816406 10.636719 14.125 10.609375 14.117188 C 10.527344 14.097656 10.464844 14.035156 10.4375 13.957031 C 10.410156 13.875 10.429688 13.789062 10.484375 13.722656 L 15.433594 7.8125 C 15.484375 7.753906 15.5625 7.71875 15.644531 7.726562 C 15.789062 7.738281 19.097656 8.054688 21.472656 10.125 L 22.355469 9.242188 C 19.9375 7.074219 15.773438 6.589844 15 6.519531 Z M 8.253906 14.84375 " fill-opacity="1" fill-rule="nonzero"/><path fill="#4e2fda" d="M 17.484375 23.460938 C 17.796875 24.1875 18.230469 24.511719 18.417969 24.625 L 24.050781 21.738281 C 23.773438 21.398438 23.339844 20.730469 23.261719 19.761719 C 23.234375 19.417969 23.28125 18.960938 23.34375 18.375 C 23.460938 17.238281 23.617188 15.71875 23.28125 14.167969 L 16.816406 20.632812 C 16.902344 21.007812 16.980469 21.375 17.050781 21.703125 C 17.214844 22.484375 17.359375 23.160156 17.484375 23.460938 Z M 17.484375 23.460938 " fill-opacity="1" fill-rule="nonzero"/><path fill="#4e2fda" d="M 11.101562 13.753906 C 11.898438 14.007812 13.800781 14.722656 15.007812 16.019531 C 15.09375 16.113281 15.179688 16.21875 15.261719 16.335938 L 21.125 10.472656 C 19.121094 8.746094 16.34375 8.308594 15.726562 8.230469 Z M 11.101562 13.753906 " fill-opacity="1" fill-rule="nonzero"/><path fill="#4e2fda" d="M 16.171875 25.0625 C 16.71875 26.125 17.769531 26.5625 18.085938 26.675781 L 26.421875 21.921875 C 25.96875 21.609375 25.242188 20.960938 24.984375 19.949219 C 24.882812 19.535156 24.882812 18.859375 24.886719 18.003906 C 24.890625 16.625 24.894531 14.777344 24.449219 13.003906 L 23.691406 13.757812 C 24.132812 15.492188 23.960938 17.183594 23.832031 18.425781 C 23.777344 18.960938 23.726562 19.425781 23.753906 19.722656 C 23.851562 20.9375 24.605469 21.617188 24.613281 21.621094 C 24.675781 21.675781 24.707031 21.757812 24.695312 21.835938 C 24.683594 21.917969 24.636719 21.988281 24.5625 22.027344 L 18.53125 25.121094 C 18.496094 25.136719 18.457031 25.148438 18.417969 25.148438 C 18.386719 25.148438 18.355469 25.140625 18.324219 25.128906 C 18.292969 25.113281 17.515625 24.785156 17.035156 23.652344 C 16.886719 23.308594 16.746094 22.644531 16.570312 21.804688 C 16.515625 21.558594 16.460938 21.304688 16.40625 21.046875 L 15.59375 21.855469 C 15.648438 22.214844 15.691406 22.5625 15.734375 22.902344 C 15.855469 23.839844 15.960938 24.648438 16.171875 25.0625 Z M 16.171875 25.0625 " fill-opacity="1" fill-rule="nonzero"/><g clip-path="url(#509ad6dd81)"><path fill="#4e2fda" d="M 17.996094 1.53125 C 9.730469 1.53125 3.003906 8.257812 3.003906 16.527344 C 3.003906 24.792969 9.730469 31.519531 17.996094 31.519531 C 26.265625 31.519531 32.992188 24.792969 32.992188 16.527344 C 32.992188 8.257812 26.265625 1.53125 17.996094 1.53125 Z M 7.832031 24.359375 C 7.824219 24.359375 7.820312 24.359375 7.8125 24.359375 C 7.742188 24.351562 7.675781 24.316406 7.636719 24.261719 C 5.957031 22.011719 5.066406 19.339844 5.066406 16.527344 C 5.066406 9.398438 10.867188 3.597656 17.996094 3.597656 C 20.808594 3.597656 23.484375 4.484375 25.730469 6.164062 C 25.789062 6.207031 25.824219 6.269531 25.828125 6.34375 C 25.835938 6.414062 25.808594 6.484375 25.757812 6.535156 L 8.003906 24.285156 C 7.960938 24.332031 7.898438 24.359375 7.832031 24.359375 Z M 17.996094 29.457031 C 15.183594 29.457031 12.511719 28.570312 10.265625 26.890625 C 10.207031 26.847656 10.171875 26.78125 10.164062 26.710938 C 10.160156 26.636719 10.1875 26.570312 10.238281 26.519531 L 27.988281 8.765625 C 28.039062 8.714844 28.109375 8.6875 28.179688 8.695312 C 28.253906 8.699219 28.316406 8.734375 28.359375 8.792969 C 30.039062 11.039062 30.925781 13.714844 30.925781 16.527344 C 30.925781 23.65625 25.128906 29.457031 17.996094 29.457031 Z M 17.996094 29.457031 " fill-opacity="1" fill-rule="nonzero"/></g></svg>