<svg xmlns="http://www.w3.org/2000/svg" xmlns:xlink="http://www.w3.org/1999/xlink" width="48" zoomAndPan="magnify" viewBox="0 0 36 36.000001" height="48" preserveAspectRatio="xMidYMid meet" version="1.0"><defs><clipPath id="675ec348f3"><path d="M 5 2.480469 L 7 2.480469 L 7 9 L 5 9 Z M 5 2.480469 " clip-rule="nonzero"/></clipPath><clipPath id="a2930be7da"><path d="M 7 2.480469 L 9 2.480469 L 9 6 L 7 6 Z M 7 2.480469 " clip-rule="nonzero"/></clipPath><clipPath id="7333e20a71"><path d="M 2.96875 2.480469 L 4 2.480469 L 4 6 L 2.96875 6 Z M 2.96875 2.480469 " clip-rule="nonzero"/></clipPath><clipPath id="513a75b6ed"><path d="M 29 26 L 31 26 L 31 32.398438 L 29 32.398438 Z M 29 26 " clip-rule="nonzero"/></clipPath><clipPath id="6d47cdade4"><path d="M 27 29 L 29 29 L 29 32.398438 L 27 32.398438 Z M 27 29 " clip-rule="nonzero"/></clipPath><clipPath id="19d8dca505"><path d="M 32 29 L 32.886719 29 L 32.886719 32.398438 L 32 32.398438 Z M 32 29 " clip-rule="nonzero"/></clipPath><clipPath id="e3ca284082"><path d="M 2.96875 19 L 18 19 L 18 30 L 2.96875 30 Z M 2.96875 19 " clip-rule="nonzero"/></clipPath><clipPath id="d96038fb73"><path d="M 20 3 L 32.886719 3 L 32.886719 17 L 20 17 Z M 20 3 " clip-rule="nonzero"/></clipPath></defs><g clip-path="url(#675ec348f3)"><path fill="#4e2fda" d="M 5.785156 8.117188 C 6.042969 8.117188 6.253906 7.90625 6.253906 7.648438 L 6.253906 2.949219 C 6.253906 2.691406 6.042969 2.480469 5.785156 2.480469 C 5.527344 2.480469 5.316406 2.691406 5.316406 2.949219 L 5.316406 7.648438 C 5.316406 7.90625 5.527344 8.117188 5.785156 8.117188 Z M 5.785156 8.117188 " fill-opacity="1" fill-rule="nonzero"/></g><g clip-path="url(#a2930be7da)"><path fill="#4e2fda" d="M 8.109375 5.296875 C 8.367188 5.296875 8.578125 5.085938 8.578125 4.828125 L 8.578125 2.949219 C 8.578125 2.691406 8.367188 2.480469 8.109375 2.480469 C 7.851562 2.480469 7.640625 2.691406 7.640625 2.949219 L 7.640625 4.828125 C 7.640625 5.085938 7.851562 5.296875 8.109375 5.296875 Z M 8.109375 5.296875 " fill-opacity="1" fill-rule="nonzero"/></g><g clip-path="url(#7333e20a71)"><path fill="#4e2fda" d="M 3.4375 5.296875 C 3.695312 5.296875 3.90625 5.085938 3.90625 4.828125 L 3.90625 2.949219 C 3.90625 2.691406 3.695312 2.480469 3.4375 2.480469 C 3.179688 2.480469 2.96875 2.691406 2.96875 2.949219 L 2.96875 4.828125 C 2.96875 5.085938 3.179688 5.296875 3.4375 5.296875 Z M 3.4375 5.296875 " fill-opacity="1" fill-rule="nonzero"/></g><g clip-path="url(#513a75b6ed)"><path fill="#4e2fda" d="M 30.207031 26.902344 C 29.949219 26.902344 29.734375 27.113281 29.734375 27.371094 L 29.734375 32.066406 C 29.734375 32.324219 29.949219 32.535156 30.207031 32.535156 C 30.464844 32.535156 30.675781 32.324219 30.675781 32.066406 L 30.675781 27.371094 C 30.675781 27.113281 30.464844 26.902344 30.207031 26.902344 Z M 30.207031 26.902344 " fill-opacity="1" fill-rule="nonzero"/></g><g clip-path="url(#6d47cdade4)"><path fill="#4e2fda" d="M 27.882812 29.71875 C 27.621094 29.71875 27.410156 29.929688 27.410156 30.1875 L 27.410156 32.066406 C 27.410156 32.324219 27.621094 32.535156 27.882812 32.535156 C 28.140625 32.535156 28.351562 32.324219 28.351562 32.066406 L 28.351562 30.1875 C 28.351562 29.929688 28.140625 29.71875 27.882812 29.71875 Z M 27.882812 29.71875 " fill-opacity="1" fill-rule="nonzero"/></g><g clip-path="url(#19d8dca505)"><path fill="#4e2fda" d="M 32.554688 29.71875 C 32.296875 29.71875 32.085938 29.929688 32.085938 30.1875 L 32.085938 32.066406 C 32.085938 32.324219 32.296875 32.535156 32.554688 32.535156 C 32.8125 32.535156 33.023438 32.324219 33.023438 32.066406 L 33.023438 30.1875 C 33.023438 29.929688 32.8125 29.71875 32.554688 29.71875 Z M 32.554688 29.71875 " fill-opacity="1" fill-rule="nonzero"/></g><path fill="#4e2fda" d="M 9.753906 27.839844 C 9.753906 27.96875 9.707031 28.082031 9.617188 28.171875 C 9.523438 28.265625 9.414062 28.308594 9.285156 28.308594 C 9.152344 28.308594 9.042969 28.265625 8.953125 28.171875 C 8.859375 28.082031 8.8125 27.96875 8.8125 27.839844 C 8.8125 27.710938 8.859375 27.601562 8.953125 27.507812 C 9.042969 27.417969 9.152344 27.371094 9.285156 27.371094 C 9.414062 27.371094 9.523438 27.417969 9.617188 27.507812 C 9.707031 27.601562 9.753906 27.710938 9.753906 27.839844 Z M 9.753906 27.839844 " fill-opacity="1" fill-rule="nonzero"/><path fill="#4e2fda" d="M 26.964844 22.675781 C 26.660156 21.96875 25.863281 21.59375 25.132812 21.78125 L 18.371094 23.753906 C 18.113281 23.824219 17.972656 24.082031 18.042969 24.34375 C 18.113281 24.601562 18.371094 24.742188 18.628906 24.671875 L 25.367188 22.699219 C 25.625 22.628906 25.980469 22.792969 26.097656 23.050781 L 26.308594 23.542969 C 26.425781 23.800781 26.308594 24.152344 26.074219 24.296875 L 16.65625 29.578125 C 16.351562 29.765625 15.765625 29.765625 15.460938 29.625 L 11.28125 27.535156 C 11.046875 27.417969 10.761719 27.511719 10.644531 27.746094 C 10.527344 27.980469 10.621094 28.261719 10.855469 28.378906 L 15.035156 30.46875 C 15.320312 30.613281 15.671875 30.683594 16.023438 30.683594 C 16.421875 30.683594 16.820312 30.589844 17.125 30.398438 L 26.542969 25.117188 C 27.199219 24.742188 27.480469 23.894531 27.175781 23.167969 Z M 26.964844 22.675781 " fill-opacity="1" fill-rule="nonzero"/><g clip-path="url(#e3ca284082)"><path fill="#4e2fda" d="M 13.488281 22.207031 C 13.511719 22.207031 13.535156 22.230469 13.535156 22.230469 L 16.585938 25.679688 C 16.773438 25.890625 16.773438 26.21875 16.585938 26.433594 L 16.398438 26.644531 C 16.304688 26.738281 16.210938 26.785156 16.09375 26.785156 C 15.976562 26.785156 15.859375 26.738281 15.765625 26.667969 L 13.957031 24.929688 C 13.769531 24.742188 13.464844 24.765625 13.300781 24.953125 C 13.113281 25.140625 13.136719 25.445312 13.324219 25.609375 L 15.128906 27.347656 C 15.390625 27.605469 15.742188 27.746094 16.09375 27.746094 C 16.117188 27.746094 16.117188 27.746094 16.140625 27.746094 C 16.515625 27.746094 16.867188 27.582031 17.125 27.300781 L 17.316406 27.089844 C 17.832031 26.527344 17.855469 25.65625 17.339844 25.070312 L 14.238281 21.59375 C 14.074219 21.40625 13.769531 21.265625 13.511719 21.265625 L 8.109375 21.265625 L 8.109375 20.796875 C 8.109375 20.019531 7.453125 19.386719 6.652344 19.386719 L 4.421875 19.386719 C 3.625 19.386719 2.96875 20.019531 2.96875 20.796875 L 2.96875 27.839844 C 2.96875 28.617188 3.625 29.25 4.421875 29.25 L 6.652344 29.25 C 7.453125 29.25 8.109375 28.617188 8.109375 27.839844 L 8.109375 22.207031 Z M 7.171875 27.839844 C 7.171875 28.097656 6.9375 28.308594 6.652344 28.308594 L 4.421875 28.308594 C 4.140625 28.308594 3.90625 28.097656 3.90625 27.839844 L 3.90625 20.796875 C 3.90625 20.539062 4.140625 20.328125 4.421875 20.328125 L 6.652344 20.328125 C 6.9375 20.328125 7.171875 20.539062 7.171875 20.796875 Z M 7.171875 27.839844 " fill-opacity="1" fill-rule="nonzero"/></g><g clip-path="url(#d96038fb73)"><path fill="#4e2fda" d="M 26.589844 3.890625 C 23.113281 3.890625 20.273438 6.730469 20.273438 10.230469 C 20.273438 13.726562 23.089844 16.570312 26.589844 16.570312 C 30.089844 16.570312 32.90625 13.726562 32.90625 10.230469 C 32.90625 6.730469 30.089844 3.890625 26.589844 3.890625 Z M 26.589844 15.628906 C 23.632812 15.628906 21.210938 13.210938 21.210938 10.230469 C 21.210938 7.246094 23.632812 4.828125 26.589844 4.828125 C 29.546875 4.828125 31.964844 7.246094 31.964844 10.230469 C 31.964844 13.210938 29.546875 15.628906 26.589844 15.628906 Z M 26.589844 15.628906 " fill-opacity="1" fill-rule="nonzero"/></g><path fill="#4e2fda" d="M 26.988281 8.234375 C 27.457031 8.304688 27.90625 8.65625 28.023438 9.03125 C 28.09375 9.289062 28.351562 9.40625 28.609375 9.335938 C 28.867188 9.265625 28.984375 9.007812 28.914062 8.75 C 28.703125 8.046875 27.976562 7.4375 27.152344 7.292969 C 27.128906 7.292969 27.082031 7.292969 27.058594 7.269531 L 27.058594 6.472656 C 27.058594 6.214844 26.847656 6.003906 26.589844 6.003906 C 26.332031 6.003906 26.121094 6.214844 26.121094 6.472656 L 26.121094 7.316406 C 25.601562 7.386719 25.0625 7.625 24.734375 8.070312 C 24.359375 8.585938 24.359375 9.289062 24.734375 9.855469 C 25.15625 10.488281 25.886719 10.675781 26.542969 10.839844 C 27.246094 11.027344 27.667969 11.167969 27.808594 11.542969 C 27.953125 11.921875 27.527344 12.179688 27.292969 12.273438 C 26.871094 12.4375 26.355469 12.414062 25.910156 12.203125 C 25.53125 12.039062 25.273438 11.78125 25.15625 11.472656 C 25.0625 11.238281 24.804688 11.097656 24.546875 11.191406 C 24.3125 11.285156 24.195312 11.542969 24.265625 11.804688 C 24.476562 12.34375 24.898438 12.789062 25.507812 13.046875 C 25.695312 13.140625 25.910156 13.1875 26.121094 13.234375 L 26.121094 13.988281 C 26.121094 14.246094 26.332031 14.457031 26.589844 14.457031 C 26.847656 14.457031 27.058594 14.246094 27.058594 13.988281 L 27.058594 13.304688 C 27.269531 13.28125 27.457031 13.234375 27.644531 13.164062 C 28.515625 12.8125 28.960938 12.015625 28.703125 11.238281 C 28.398438 10.371094 27.503906 10.136719 26.800781 9.949219 C 26.261719 9.808594 25.769531 9.691406 25.554688 9.359375 C 25.390625 9.125 25.390625 8.84375 25.53125 8.632812 C 25.792969 8.234375 26.472656 8.164062 26.988281 8.234375 Z M 26.988281 8.234375 " fill-opacity="1" fill-rule="nonzero"/><path fill="#4e2fda" d="M 10.785156 16.6875 C 9.308594 17.085938 8.296875 17.226562 8.273438 17.226562 C 8.0625 17.25 7.921875 17.414062 7.875 17.601562 C 7.828125 17.8125 7.921875 18.003906 8.109375 18.097656 L 12.054688 20.257812 C 12.125 20.304688 12.195312 20.304688 12.289062 20.304688 C 12.3125 20.304688 12.3125 20.304688 12.335938 20.304688 C 15.695312 19.996094 19.734375 17.765625 22.339844 16.101562 C 22.082031 15.914062 21.824219 15.699219 21.589844 15.464844 C 19.074219 17.0625 15.390625 19.058594 12.382812 19.386719 L 9.730469 17.929688 C 10.246094 17.8125 10.878906 17.671875 11.609375 17.460938 C 11.328125 17.226562 11.046875 16.96875 10.785156 16.6875 Z M 10.785156 16.6875 " fill-opacity="1" fill-rule="nonzero"/><path fill="#4e2fda" d="M 14.660156 17.507812 C 16.984375 17.507812 18.863281 15.605469 18.863281 13.28125 C 18.863281 10.957031 16.984375 9.054688 14.660156 9.054688 C 12.335938 9.054688 10.457031 10.957031 10.457031 13.28125 C 10.457031 15.605469 12.335938 17.507812 14.660156 17.507812 Z M 14.660156 9.996094 C 16.46875 9.996094 17.925781 11.472656 17.925781 13.28125 C 17.925781 15.089844 16.445312 16.570312 14.660156 16.570312 C 12.851562 16.570312 11.398438 15.089844 11.398438 13.28125 C 11.398438 11.472656 12.851562 9.996094 14.660156 9.996094 Z M 14.660156 9.996094 " fill-opacity="1" fill-rule="nonzero"/><path fill="#4e2fda" d="M 14.917969 14.246094 C 14.777344 14.292969 14.613281 14.292969 14.472656 14.222656 C 14.332031 14.152344 14.214844 14.058594 14.191406 13.917969 C 14.097656 13.679688 13.839844 13.539062 13.605469 13.609375 C 13.371094 13.703125 13.230469 13.964844 13.300781 14.199219 C 13.417969 14.574219 13.722656 14.878906 14.097656 15.066406 C 14.144531 15.089844 14.167969 15.089844 14.214844 15.113281 L 14.214844 15.394531 C 14.214844 15.652344 14.425781 15.867188 14.683594 15.867188 C 14.941406 15.867188 15.152344 15.652344 15.152344 15.394531 L 15.152344 15.160156 C 15.203125 15.136719 15.273438 15.136719 15.320312 15.113281 C 15.859375 14.878906 16.140625 14.316406 15.976562 13.800781 C 15.789062 13.1875 15.25 13.046875 14.871094 12.929688 C 14.660156 12.859375 14.449219 12.8125 14.378906 12.695312 C 14.332031 12.625 14.332031 12.53125 14.378906 12.484375 C 14.449219 12.367188 14.683594 12.34375 14.871094 12.367188 C 15.011719 12.390625 15.175781 12.53125 15.203125 12.671875 C 15.273438 12.929688 15.53125 13.070312 15.789062 13 C 16.046875 12.929688 16.1875 12.671875 16.117188 12.414062 C 16 11.992188 15.625 11.613281 15.203125 11.472656 L 15.203125 11.167969 C 15.203125 10.910156 14.988281 10.699219 14.730469 10.699219 C 14.472656 10.699219 14.261719 10.910156 14.261719 11.167969 L 14.261719 11.472656 C 14.003906 11.542969 13.769531 11.710938 13.605469 11.96875 C 13.371094 12.320312 13.371094 12.789062 13.605469 13.164062 C 13.863281 13.585938 14.285156 13.726562 14.636719 13.824219 C 14.964844 13.917969 15.082031 13.964844 15.105469 14.082031 C 15.082031 14.175781 14.917969 14.246094 14.917969 14.246094 Z M 14.917969 14.246094 " fill-opacity="1" fill-rule="nonzero"/><path fill="#4e2fda" d="M 29.265625 17.980469 C 28.65625 17.835938 28.164062 17.625 27.738281 17.414062 C 27.363281 17.484375 26.964844 17.507812 26.566406 17.507812 C 26.449219 17.507812 26.332031 17.507812 26.214844 17.507812 C 26.589844 17.835938 27.058594 18.167969 27.667969 18.449219 C 25.648438 19.105469 21.445312 20.328125 17.902344 20.328125 C 17.289062 20.328125 16.726562 20.28125 16.210938 20.210938 C 15.765625 20.375 15.34375 20.515625 14.894531 20.632812 L 15.128906 20.867188 C 15.203125 20.9375 15.273438 20.984375 15.367188 21.007812 C 16.117188 21.171875 16.960938 21.242188 17.902344 21.242188 C 22.972656 21.242188 29.078125 18.941406 29.335938 18.847656 C 29.523438 18.777344 29.640625 18.589844 29.640625 18.378906 C 29.617188 18.191406 29.476562 18.027344 29.265625 17.980469 Z M 29.265625 17.980469 " fill-opacity="1" fill-rule="nonzero"/></svg>