<svg xmlns="http://www.w3.org/2000/svg" xmlns:xlink="http://www.w3.org/1999/xlink" width="48" zoomAndPan="magnify" viewBox="0 0 36 36.000001" height="48" preserveAspectRatio="xMidYMid meet" version="1.0"><defs><clipPath id="3f4bc78e1c"><path d="M 4.027344 3.539062 L 31.753906 3.539062 L 31.753906 31.269531 L 4.027344 31.269531 Z M 4.027344 3.539062 " clip-rule="nonzero"/></clipPath></defs><g clip-path="url(#3f4bc78e1c)"><path fill="#4e2fda" d="M 31.039062 24.03125 L 29.644531 24.03125 L 29.644531 17.046875 L 31.039062 17.046875 Z M 25.941406 25.410156 C 25.667969 25.679688 25.222656 25.679688 24.949219 25.410156 C 24.769531 25.226562 24.472656 25.226562 24.292969 25.410156 C 24.203125 25.5 24.15625 25.621094 24.15625 25.738281 C 24.15625 25.859375 24.203125 25.976562 24.292969 26.066406 C 24.5625 26.335938 24.5625 26.789062 24.292969 27.054688 C 24.019531 27.328125 23.574219 27.328125 23.300781 27.054688 C 23.117188 26.875 22.820312 26.878906 22.640625 27.058594 C 22.554688 27.148438 22.507812 27.269531 22.507812 27.386719 C 22.507812 27.507812 22.554688 27.625 22.644531 27.71875 C 22.917969 27.988281 22.910156 28.4375 22.640625 28.703125 C 22.371094 28.972656 21.925781 28.96875 21.65625 28.703125 C 21.476562 28.519531 21.183594 28.519531 21 28.703125 C 20.90625 28.792969 20.863281 28.914062 20.863281 29.03125 C 20.863281 29.152344 20.90625 29.269531 21 29.359375 C 21.265625 29.628906 21.269531 30.082031 21.003906 30.347656 C 20.726562 30.621094 20.28125 30.621094 19.996094 30.335938 C 19.980469 30.324219 19.65625 30.023438 19.101562 29.546875 C 19.394531 28.886719 19.226562 28.078125 18.628906 27.605469 C 18.351562 27.382812 18.019531 27.273438 17.691406 27.257812 C 17.75 26.71875 17.546875 26.15625 17.085938 25.789062 C 16.808594 25.574219 16.484375 25.464844 16.152344 25.445312 C 16.167969 25.324219 16.171875 25.203125 16.15625 25.074219 C 16.109375 24.640625 15.890625 24.253906 15.550781 23.984375 C 15.210938 23.714844 14.78125 23.589844 14.351562 23.644531 C 14.222656 23.660156 14.101562 23.691406 13.984375 23.734375 C 13.894531 23.417969 13.710938 23.125 13.4375 22.902344 C 12.730469 22.347656 11.703125 22.464844 11.140625 23.171875 L 10.519531 23.957031 C 9.332031 23.472656 8.246094 23.1875 7.285156 23.121094 L 7.285156 17.976562 L 11.945312 17.976562 C 12.164062 17.976562 12.382812 17.925781 12.566406 17.832031 L 15.636719 16.285156 C 15.992188 16.101562 16.441406 16.078125 16.839844 16.195312 L 14.230469 18.941406 C 13.921875 19.28125 13.773438 19.746094 13.820312 20.210938 C 13.867188 20.679688 14.101562 21.101562 14.46875 21.375 C 15.128906 21.863281 16.058594 21.796875 16.617188 21.230469 L 18.960938 19.035156 C 19.015625 19.070312 24.332031 23 25.960938 24.441406 C 26.246094 24.691406 26.191406 25.160156 25.941406 25.410156 Z M 18.164062 29.316406 L 17.398438 30.285156 C 17.15625 30.589844 16.710938 30.640625 16.414062 30.402344 C 16.109375 30.164062 16.058594 29.722656 16.296875 29.421875 C 16.296875 29.421875 17.066406 28.449219 17.070312 28.449219 C 17.292969 28.164062 17.753906 28.097656 18.046875 28.332031 C 18.351562 28.574219 18.402344 29.015625 18.164062 29.316406 Z M 14.582031 28.960938 C 14.28125 28.71875 14.230469 28.28125 14.464844 27.976562 C 14.464844 27.976562 15.535156 26.632812 15.535156 26.632812 C 15.757812 26.347656 16.21875 26.292969 16.507812 26.519531 C 16.8125 26.761719 16.863281 27.203125 16.625 27.503906 L 15.566406 28.84375 C 15.324219 29.144531 14.882812 29.191406 14.582031 28.960938 Z M 12.753906 27.515625 C 12.457031 27.28125 12.402344 26.828125 12.640625 26.535156 C 12.640625 26.535156 13.992188 24.832031 13.992188 24.828125 C 14.226562 24.53125 14.675781 24.480469 14.972656 24.714844 C 15.269531 24.949219 15.320312 25.402344 15.085938 25.695312 L 13.734375 27.402344 C 13.496094 27.699219 13.058594 27.753906 12.753906 27.515625 Z M 10.929688 26.074219 C 10.628906 25.832031 10.574219 25.386719 10.816406 25.085938 C 10.816406 25.085938 11.871094 23.75 11.871094 23.75 C 12.097656 23.460938 12.5625 23.398438 12.855469 23.632812 C 13.15625 23.875 13.207031 24.3125 12.972656 24.617188 L 11.910156 25.953125 C 11.671875 26.257812 11.230469 26.308594 10.929688 26.074219 Z M 11.945312 10.527344 C 11.945312 7.1875 14.660156 4.472656 18 4.472656 C 21.335938 4.472656 24.054688 7.1875 24.054688 10.527344 C 24.054688 12.78125 22.832031 14.804688 20.851562 15.863281 L 20.054688 15.460938 C 19.703125 15.28125 19.304688 15.183594 18.902344 15.183594 C 18.453125 15.183594 18.011719 15.304688 17.628906 15.523438 C 16.894531 15.113281 15.941406 15.082031 15.214844 15.457031 L 14.804688 15.664062 C 13.035156 14.566406 11.945312 12.621094 11.945312 10.527344 Z M 23.316406 17.976562 L 28.710938 17.976562 L 28.710938 23.113281 C 27.597656 23.171875 26.769531 23.410156 26.359375 23.554688 C 24.507812 21.972656 19.726562 18.4375 19.507812 18.277344 C 19.148438 18.023438 18.65625 18.058594 18.339844 18.359375 L 15.96875 20.5625 C 15.71875 20.816406 15.3125 20.84375 15.027344 20.628906 C 14.871094 20.511719 14.769531 20.324219 14.746094 20.121094 C 14.726562 19.914062 14.792969 19.710938 14.914062 19.574219 L 17.71875 16.621094 C 18.199219 16.117188 19.019531 15.976562 19.628906 16.289062 L 22.6875 17.828125 C 22.878906 17.925781 23.097656 17.976562 23.316406 17.976562 Z M 6.355469 24.03125 L 4.957031 24.03125 L 4.957031 17.046875 L 6.355469 17.046875 Z M 31.039062 16.113281 L 29.644531 16.113281 C 29.128906 16.113281 28.710938 16.535156 28.710938 17.046875 L 23.316406 17.046875 C 23.246094 17.046875 23.175781 17.03125 23.113281 17 L 21.839844 16.359375 C 23.800781 15.074219 24.984375 12.914062 24.984375 10.527344 C 24.984375 6.671875 21.851562 3.539062 18 3.539062 C 14.144531 3.539062 11.011719 6.671875 11.011719 10.527344 C 11.011719 12.753906 12.082031 14.835938 13.851562 16.140625 L 12.144531 17 C 12.085938 17.03125 12.015625 17.046875 11.945312 17.046875 L 7.285156 17.046875 C 7.285156 16.535156 6.867188 16.113281 6.355469 16.113281 L 4.957031 16.113281 C 4.445312 16.113281 4.027344 16.535156 4.027344 17.046875 L 4.027344 24.03125 C 4.027344 24.546875 4.445312 24.964844 4.957031 24.964844 L 6.355469 24.964844 C 6.859375 24.964844 7.273438 24.558594 7.285156 24.054688 C 8.070312 24.117188 8.960938 24.34375 9.945312 24.726562 C 9.5625 25.414062 9.71875 26.296875 10.351562 26.800781 C 10.648438 27.035156 11.003906 27.148438 11.359375 27.148438 C 11.429688 27.148438 11.5 27.136719 11.570312 27.125 C 11.570312 27.136719 11.570312 27.144531 11.570312 27.15625 C 11.621094 27.585938 11.835938 27.972656 12.179688 28.246094 C 12.476562 28.480469 12.832031 28.597656 13.1875 28.597656 C 13.257812 28.597656 13.328125 28.582031 13.398438 28.574219 C 13.441406 28.996094 13.648438 29.402344 14.003906 29.691406 C 14.304688 29.925781 14.660156 30.039062 15.011719 30.039062 C 15.085938 30.039062 15.15625 30.023438 15.226562 30.011719 C 15.269531 30.4375 15.472656 30.847656 15.832031 31.132812 C 16.128906 31.367188 16.488281 31.484375 16.839844 31.484375 C 17.324219 31.484375 17.804688 31.273438 18.128906 30.863281 L 18.5625 30.3125 C 19.058594 30.738281 19.351562 31.011719 19.351562 31.011719 C 19.671875 31.324219 20.085938 31.480469 20.503906 31.480469 C 20.921875 31.480469 21.339844 31.324219 21.65625 31.007812 C 21.96875 30.699219 22.136719 30.289062 22.136719 29.855469 C 22.136719 29.851562 22.136719 29.84375 22.136719 29.839844 C 22.144531 29.839844 22.148438 29.835938 22.15625 29.839844 C 22.589844 29.835938 23 29.667969 23.300781 29.363281 C 23.609375 29.054688 23.78125 28.644531 23.78125 28.207031 C 23.78125 28.203125 23.78125 28.195312 23.78125 28.1875 C 24.183594 28.1875 24.628906 28.035156 24.949219 27.714844 C 25.261719 27.40625 25.429688 26.996094 25.429688 26.5625 C 25.429688 26.558594 25.429688 26.550781 25.429688 26.542969 C 25.839844 26.558594 26.277344 26.390625 26.601562 26.066406 C 26.925781 25.738281 27.101562 25.292969 27.085938 24.835938 C 27.078125 24.660156 27.039062 24.492188 26.980469 24.335938 C 27.367188 24.222656 27.960938 24.089844 28.714844 24.050781 C 28.722656 24.554688 29.136719 24.964844 29.644531 24.964844 L 31.039062 24.964844 C 31.554688 24.964844 31.972656 24.546875 31.972656 24.03125 L 31.972656 17.046875 C 31.972656 16.535156 31.554688 16.113281 31.039062 16.113281 " fill-opacity="1" fill-rule="nonzero"/></g><path fill="#4e2fda" d="M 15.671875 13.320312 C 15.789062 13.320312 15.910156 13.273438 16 13.183594 L 20.65625 8.527344 C 20.839844 8.34375 20.839844 8.050781 20.65625 7.867188 C 20.476562 7.6875 20.179688 7.6875 20 7.867188 L 15.339844 12.523438 C 15.160156 12.707031 15.160156 13.003906 15.339844 13.183594 C 15.433594 13.273438 15.550781 13.320312 15.671875 13.320312 " fill-opacity="1" fill-rule="nonzero"/><path fill="#4e2fda" d="M 15.671875 8.664062 C 15.671875 8.40625 15.878906 8.195312 16.136719 8.195312 C 16.390625 8.195312 16.601562 8.40625 16.601562 8.664062 C 16.601562 8.917969 16.390625 9.128906 16.136719 9.128906 C 15.878906 9.128906 15.671875 8.917969 15.671875 8.664062 Z M 17.53125 8.664062 C 17.53125 7.890625 16.90625 7.265625 16.136719 7.265625 C 15.363281 7.265625 14.738281 7.890625 14.738281 8.664062 C 14.738281 9.433594 15.363281 10.058594 16.136719 10.058594 C 16.90625 10.058594 17.53125 9.433594 17.53125 8.664062 " fill-opacity="1" fill-rule="nonzero"/><path fill="#4e2fda" d="M 20.328125 12.390625 C 20.328125 12.644531 20.117188 12.855469 19.863281 12.855469 C 19.605469 12.855469 19.394531 12.644531 19.394531 12.390625 C 19.394531 12.132812 19.605469 11.921875 19.863281 11.921875 C 20.117188 11.921875 20.328125 12.132812 20.328125 12.390625 Z M 18.464844 12.390625 C 18.464844 13.160156 19.089844 13.785156 19.863281 13.785156 C 20.632812 13.785156 21.257812 13.160156 21.257812 12.390625 C 21.257812 11.617188 20.632812 10.992188 19.863281 10.992188 C 19.089844 10.992188 18.464844 11.617188 18.464844 12.390625 " fill-opacity="1" fill-rule="nonzero"/></svg>