<svg xmlns="http://www.w3.org/2000/svg" xmlns:xlink="http://www.w3.org/1999/xlink" width="48" zoomAndPan="magnify" viewBox="0 0 36 36.000001" height="48" preserveAspectRatio="xMidYMid meet" version="1.0"><defs><clipPath id="57bb00bdac"><path d="M 4.792969 13 L 17 13 L 17 34.882812 L 4.792969 34.882812 Z M 4.792969 13 " clip-rule="nonzero"/></clipPath><clipPath id="b7f90bc108"><path d="M 19 13 L 31.0625 13 L 31.0625 34.882812 L 19 34.882812 Z M 19 13 " clip-rule="nonzero"/></clipPath><clipPath id="f0430fe632"><path d="M 10 8.609375 L 26 8.609375 L 26 26 L 10 26 Z M 10 8.609375 " clip-rule="nonzero"/></clipPath></defs><g clip-path="url(#57bb00bdac)"><path fill="#4e2fda" d="M 9.191406 32.929688 L 9.191406 35.019531 L 10.074219 35.019531 L 10.074219 32.816406 C 10.074219 32.742188 10.054688 32.667969 10.019531 32.605469 L 6.0625 25.480469 C 5.804688 25.023438 5.671875 24.503906 5.671875 23.980469 L 5.671875 15.652344 C 5.671875 15.167969 6.066406 14.773438 6.550781 14.773438 C 7.039062 14.773438 7.433594 15.167969 7.433594 15.652344 L 7.433594 21.96875 C 6.886719 22.605469 6.886719 23.554688 7.460938 24.183594 L 11.070312 28.152344 L 11.71875 27.558594 L 8.113281 23.59375 C 7.828125 23.277344 7.835938 22.789062 8.140625 22.488281 C 8.296875 22.332031 8.507812 22.253906 8.726562 22.253906 C 8.949219 22.261719 9.152344 22.355469 9.300781 22.519531 L 12.386719 25.949219 C 12.417969 25.984375 12.476562 26.027344 12.519531 26.050781 C 14.269531 27.050781 15.355469 28.921875 15.355469 30.9375 L 15.355469 35.019531 L 16.234375 35.019531 L 16.234375 30.617188 L 16.226562 30.617188 C 16.117188 28.433594 14.914062 26.433594 12.996094 25.308594 L 9.953125 21.929688 C 9.644531 21.585938 9.214844 21.386719 8.75 21.375 C 8.597656 21.371094 8.453125 21.394531 8.3125 21.425781 L 8.3125 15.652344 C 8.3125 14.679688 7.523438 13.890625 6.550781 13.890625 C 5.582031 13.890625 4.792969 14.679688 4.792969 15.652344 L 4.792969 23.980469 C 4.792969 24.65625 4.964844 25.320312 5.289062 25.90625 L 9.191406 32.929688 " fill-opacity="1" fill-rule="nonzero"/></g><g clip-path="url(#b7f90bc108)"><path fill="#4e2fda" d="M 29.4375 13.890625 C 28.46875 13.890625 27.679688 14.679688 27.679688 15.652344 L 27.679688 21.425781 C 27.535156 21.394531 27.390625 21.371094 27.242188 21.375 C 26.777344 21.386719 26.347656 21.585938 26.035156 21.929688 L 22.996094 25.308594 C 21.089844 26.414062 19.875 28.425781 19.765625 30.617188 L 19.757812 30.617188 L 19.757812 35.019531 L 20.636719 35.019531 L 20.636719 30.9375 C 20.636719 28.921875 21.722656 27.050781 23.492188 26.039062 C 23.53125 26.015625 23.570312 25.984375 23.601562 25.949219 L 26.691406 22.519531 C 26.839844 22.355469 27.042969 22.261719 27.265625 22.253906 C 27.492188 22.253906 27.695312 22.332031 27.851562 22.488281 C 28.152344 22.789062 28.164062 23.277344 27.878906 23.59375 L 24.273438 27.558594 L 24.921875 28.152344 L 28.527344 24.183594 C 29.101562 23.554688 29.101562 22.605469 28.558594 21.96875 L 28.558594 15.652344 C 28.558594 15.167969 28.953125 14.773438 29.4375 14.773438 C 29.921875 14.773438 30.320312 15.167969 30.320312 15.652344 L 30.320312 23.9375 C 30.320312 24.484375 30.171875 25.027344 29.886719 25.507812 L 25.972656 32.605469 C 25.9375 32.667969 25.917969 32.742188 25.917969 32.816406 L 25.917969 35.019531 L 26.796875 35.019531 L 26.796875 32.929688 L 30.652344 25.945312 C 31.011719 25.335938 31.199219 24.640625 31.199219 23.9375 L 31.199219 15.652344 C 31.199219 14.679688 30.410156 13.890625 29.4375 13.890625 " fill-opacity="1" fill-rule="nonzero"/></g><g clip-path="url(#f0430fe632)"><path fill="#4e2fda" d="M 24.597656 20.566406 L 18.4375 24.132812 L 18.4375 17.230469 L 24.597656 13.765625 Z M 17.996094 16.46875 L 15.175781 14.882812 L 21.320312 11.425781 L 24.140625 13.011719 Z M 17.554688 24.132812 L 11.394531 20.566406 L 11.394531 13.765625 L 17.554688 17.230469 Z M 17.996094 9.554688 L 20.421875 10.921875 L 14.277344 14.378906 L 11.851562 13.011719 Z M 25.476562 20.820312 L 25.476562 13.011719 C 25.476562 12.972656 25.472656 12.933594 25.460938 12.898438 C 25.457031 12.886719 25.453125 12.871094 25.445312 12.859375 C 25.4375 12.835938 25.429688 12.8125 25.417969 12.792969 C 25.410156 12.777344 25.398438 12.769531 25.390625 12.757812 C 25.378906 12.738281 25.367188 12.71875 25.347656 12.699219 C 25.339844 12.691406 25.324219 12.683594 25.316406 12.675781 C 25.296875 12.660156 25.28125 12.644531 25.257812 12.632812 C 25.257812 12.632812 25.257812 12.632812 25.253906 12.628906 L 18.210938 8.667969 C 18.078125 8.59375 17.914062 8.59375 17.78125 8.667969 L 10.738281 12.628906 C 10.738281 12.628906 10.738281 12.628906 10.734375 12.628906 C 10.734375 12.632812 10.730469 12.632812 10.730469 12.632812 C 10.710938 12.644531 10.695312 12.660156 10.675781 12.675781 C 10.664062 12.683594 10.652344 12.691406 10.640625 12.699219 C 10.625 12.71875 10.613281 12.738281 10.597656 12.757812 C 10.589844 12.769531 10.582031 12.777344 10.574219 12.792969 C 10.558594 12.8125 10.554688 12.835938 10.542969 12.859375 C 10.539062 12.871094 10.53125 12.886719 10.527344 12.898438 C 10.519531 12.933594 10.511719 12.972656 10.511719 13.011719 L 10.511719 20.820312 C 10.511719 20.980469 10.597656 21.125 10.734375 21.203125 L 17.773438 25.273438 C 17.773438 25.273438 17.773438 25.277344 17.773438 25.277344 C 17.800781 25.292969 17.832031 25.300781 17.859375 25.3125 C 17.867188 25.3125 17.875 25.316406 17.882812 25.320312 C 17.917969 25.332031 17.957031 25.335938 17.996094 25.335938 C 18.035156 25.335938 18.070312 25.332031 18.109375 25.320312 C 18.117188 25.316406 18.125 25.3125 18.132812 25.3125 C 18.160156 25.300781 18.191406 25.292969 18.214844 25.277344 C 18.214844 25.277344 18.214844 25.273438 18.214844 25.273438 L 25.257812 21.203125 C 25.394531 21.125 25.476562 20.980469 25.476562 20.820312 " fill-opacity="1" fill-rule="nonzero"/></g><path fill="#4e2fda" d="M 23.71875 19.613281 L 22.835938 19.613281 L 22.835938 20.492188 L 23.71875 20.492188 L 23.71875 19.613281 " fill-opacity="1" fill-rule="nonzero"/><path fill="#4e2fda" d="M 21.957031 20.492188 L 21.078125 20.492188 L 21.078125 21.375 L 21.957031 21.375 L 21.957031 20.492188 " fill-opacity="1" fill-rule="nonzero"/><path fill="#4e2fda" d="M 20.195312 21.375 L 19.316406 21.375 L 19.316406 22.253906 L 20.195312 22.253906 L 20.195312 21.375 " fill-opacity="1" fill-rule="nonzero"/></svg>