<svg xmlns="http://www.w3.org/2000/svg" xmlns:xlink="http://www.w3.org/1999/xlink" width="48" zoomAndPan="magnify" viewBox="0 0 36 36.000001" height="48" preserveAspectRatio="xMidYMid meet" version="1.0"><defs><clipPath id="1b14bef41f"><path d="M 6.191406 1.921875 L 29.542969 1.921875 L 29.542969 33.300781 L 6.191406 33.300781 Z M 6.191406 1.921875 " clip-rule="nonzero"/></clipPath></defs><g clip-path="url(#1b14bef41f)"><path fill="#4e2fda" d="M 28.476562 1.933594 L 10.019531 1.933594 C 9.285156 1.933594 8.691406 2.527344 8.691406 3.261719 L 8.691406 4.203125 L 7.515625 4.203125 C 6.785156 4.203125 6.191406 4.796875 6.191406 5.53125 L 6.191406 31.734375 C 6.191406 32.464844 6.785156 33.0625 7.515625 33.0625 L 25.976562 33.0625 C 26.707031 33.0625 27.304688 32.464844 27.304688 31.734375 L 27.304688 30.792969 L 28.476562 30.792969 C 29.207031 30.792969 29.804688 30.199219 29.804688 29.464844 L 29.804688 3.261719 C 29.804688 2.527344 29.207031 1.933594 28.476562 1.933594 Z M 26.4375 31.734375 C 26.4375 31.988281 26.230469 32.195312 25.976562 32.195312 L 7.515625 32.195312 C 7.265625 32.195312 7.058594 31.988281 7.058594 31.734375 L 7.058594 5.53125 C 7.058594 5.277344 7.265625 5.070312 7.515625 5.070312 L 25.976562 5.070312 C 26.230469 5.070312 26.4375 5.277344 26.4375 5.53125 Z M 28.9375 29.464844 C 28.9375 29.71875 28.730469 29.925781 28.476562 29.925781 L 27.304688 29.925781 L 27.304688 5.53125 C 27.304688 4.796875 26.707031 4.203125 25.976562 4.203125 L 9.558594 4.203125 L 9.558594 3.261719 C 9.558594 3.007812 9.765625 2.800781 10.019531 2.800781 L 28.476562 2.800781 C 28.730469 2.800781 28.9375 3.007812 28.9375 3.261719 Z M 28.9375 29.464844 " fill-opacity="1" fill-rule="nonzero"/></g><path fill="#4e2fda" d="M 13.480469 18.082031 C 15.496094 18.082031 17.277344 16.796875 17.910156 14.886719 C 18.070312 14.410156 18.148438 13.917969 18.148438 13.410156 C 18.148438 10.835938 16.054688 8.742188 13.480469 8.742188 C 10.90625 8.742188 8.8125 10.835938 8.8125 13.410156 C 8.8125 15.984375 10.90625 18.082031 13.480469 18.082031 Z M 17.28125 13.410156 C 17.28125 13.675781 17.253906 13.9375 17.199219 14.191406 L 13.914062 13.097656 L 13.914062 9.636719 C 15.808594 9.851562 17.28125 11.460938 17.28125 13.410156 Z M 13.046875 9.632812 L 13.046875 13.410156 C 13.046875 13.597656 13.167969 13.761719 13.34375 13.824219 L 16.929688 15.015625 C 16.3125 16.34375 14.976562 17.210938 13.480469 17.210938 C 11.386719 17.210938 9.679688 15.507812 9.679688 13.410156 C 9.679688 11.460938 11.152344 9.851562 13.046875 9.632812 Z M 13.046875 9.632812 " fill-opacity="1" fill-rule="nonzero"/><path fill="#4e2fda" d="M 24.28125 28.53125 L 24.277344 28.53125 L 24.277344 23.488281 C 24.277344 23.042969 23.914062 22.683594 23.46875 22.683594 L 21.726562 22.683594 C 21.28125 22.683594 20.921875 23.042969 20.921875 23.488281 L 20.921875 28.53125 L 20.226562 28.53125 L 20.226562 21.855469 C 20.226562 21.355469 19.820312 20.949219 19.320312 20.949219 L 17.777344 20.949219 C 17.277344 20.949219 16.871094 21.355469 16.871094 21.855469 L 16.871094 28.53125 L 16.179688 28.53125 L 16.179688 23.589844 C 16.179688 23.089844 15.773438 22.683594 15.277344 22.683594 L 13.730469 22.683594 C 13.230469 22.683594 12.824219 23.089844 12.824219 23.589844 L 12.824219 28.53125 L 12.132812 28.53125 L 12.132812 26.210938 C 12.132812 25.753906 11.761719 25.382812 11.304688 25.382812 L 9.605469 25.382812 C 9.148438 25.382812 8.777344 25.753906 8.777344 26.210938 L 8.777344 28.53125 C 8.542969 28.535156 8.351562 28.726562 8.351562 28.964844 C 8.351562 29.203125 8.546875 29.398438 8.789062 29.398438 L 24.28125 29.398438 C 24.523438 29.398438 24.714844 29.203125 24.714844 28.964844 C 24.714844 28.722656 24.523438 28.53125 24.28125 28.53125 Z M 9.644531 28.53125 L 9.644531 26.25 L 11.265625 26.25 L 11.265625 28.53125 Z M 13.691406 28.53125 L 13.691406 23.589844 C 13.691406 23.566406 13.710938 23.550781 13.730469 23.550781 L 15.277344 23.550781 C 15.296875 23.550781 15.3125 23.566406 15.3125 23.589844 L 15.3125 28.53125 Z M 17.742188 28.53125 L 17.742188 21.855469 C 17.742188 21.832031 17.757812 21.816406 17.777344 21.816406 L 19.320312 21.816406 C 19.34375 21.816406 19.359375 21.832031 19.359375 21.855469 L 19.359375 28.53125 Z M 21.789062 28.53125 L 21.789062 23.550781 L 23.40625 23.550781 L 23.40625 28.53125 Z M 21.789062 28.53125 " fill-opacity="1" fill-rule="nonzero"/><path fill="#4e2fda" d="M 20.328125 10.136719 L 23.839844 10.136719 C 24.082031 10.136719 24.277344 9.941406 24.277344 9.703125 C 24.277344 9.464844 24.082031 9.269531 23.839844 9.269531 L 20.328125 9.269531 C 20.089844 9.269531 19.894531 9.464844 19.894531 9.703125 C 19.894531 9.941406 20.089844 10.136719 20.328125 10.136719 Z M 20.328125 10.136719 " fill-opacity="1" fill-rule="nonzero"/><path fill="#4e2fda" d="M 20.328125 12.496094 L 23.839844 12.496094 C 24.082031 12.496094 24.277344 12.300781 24.277344 12.0625 C 24.277344 11.820312 24.082031 11.625 23.839844 11.625 L 20.328125 11.625 C 20.089844 11.625 19.894531 11.820312 19.894531 12.0625 C 19.894531 12.300781 20.089844 12.496094 20.328125 12.496094 Z M 20.328125 12.496094 " fill-opacity="1" fill-rule="nonzero"/><path fill="#4e2fda" d="M 20.328125 14.851562 L 23.839844 14.851562 C 24.082031 14.851562 24.277344 14.65625 24.277344 14.417969 C 24.277344 14.179688 24.082031 13.984375 23.839844 13.984375 L 20.328125 13.984375 C 20.089844 13.984375 19.894531 14.179688 19.894531 14.417969 C 19.894531 14.65625 20.089844 14.851562 20.328125 14.851562 Z M 20.328125 14.851562 " fill-opacity="1" fill-rule="nonzero"/><path fill="#4e2fda" d="M 20.328125 17.210938 L 23.839844 17.210938 C 24.082031 17.210938 24.277344 17.015625 24.277344 16.777344 C 24.277344 16.535156 24.082031 16.339844 23.839844 16.339844 L 20.328125 16.339844 C 20.089844 16.339844 19.894531 16.535156 19.894531 16.777344 C 19.894531 17.015625 20.089844 17.210938 20.328125 17.210938 Z M 20.328125 17.210938 " fill-opacity="1" fill-rule="nonzero"/></svg>