<svg xmlns="http://www.w3.org/2000/svg" xmlns:xlink="http://www.w3.org/1999/xlink" width="48" zoomAndPan="magnify" viewBox="0 0 36 36.000001" height="48" preserveAspectRatio="xMidYMid meet" version="1.0"><defs><clipPath id="048be3b200"><path d="M 4.347656 5.773438 L 31.347656 5.773438 L 31.347656 29.125 L 4.347656 29.125 Z M 4.347656 5.773438 " clip-rule="nonzero"/></clipPath></defs><g clip-path="url(#048be3b200)"><path fill="#4e2fda" d="M 18.023438 5.820312 C 17.460938 5.820312 16.898438 6.089844 16.585938 6.636719 L 5.167969 26.71875 C 4.546875 27.808594 5.351562 29.226562 6.605469 29.226562 L 29.441406 29.226562 C 30.695312 29.226562 31.5 27.808594 30.878906 26.71875 L 19.460938 6.636719 C 19.148438 6.089844 18.585938 5.820312 18.023438 5.820312 Z M 18.023438 6.867188 C 18.210938 6.867188 18.394531 6.96875 18.511719 7.175781 L 29.929688 27.253906 C 30.164062 27.667969 29.898438 28.136719 29.441406 28.136719 L 6.605469 28.136719 C 6.148438 28.136719 5.882812 27.667969 6.117188 27.257812 L 17.535156 7.175781 C 17.652344 6.96875 17.839844 6.867188 18.023438 6.867188 Z M 9.308594 6.878906 C 9.074219 6.878906 8.910156 6.980469 8.808594 7.191406 C 8.710938 7.398438 8.734375 7.59375 8.878906 7.773438 L 11.058594 10.496094 C 11.152344 10.613281 11.277344 10.679688 11.425781 10.699219 C 11.574219 10.714844 11.707031 10.675781 11.828125 10.582031 C 11.945312 10.488281 12.011719 10.367188 12.027344 10.214844 C 12.042969 10.066406 12.003906 9.933594 11.910156 9.816406 L 9.730469 7.089844 C 9.625 6.953125 9.484375 6.882812 9.308594 6.878906 Z M 26.722656 6.882812 C 26.554688 6.886719 26.417969 6.957031 26.316406 7.089844 L 24.136719 9.816406 C 24.042969 9.933594 24.003906 10.066406 24.019531 10.214844 C 24.035156 10.367188 24.105469 10.488281 24.222656 10.582031 C 24.339844 10.675781 24.472656 10.714844 24.621094 10.699219 C 24.773438 10.679688 24.894531 10.613281 24.988281 10.496094 L 27.167969 7.773438 C 27.316406 7.589844 27.339844 7.394531 27.234375 7.183594 C 27.128906 6.972656 26.960938 6.871094 26.722656 6.882812 Z M 6.019531 10.699219 C 5.890625 10.699219 5.78125 10.742188 5.683594 10.824219 C 5.585938 10.902344 5.523438 11.003906 5.5 11.128906 C 5.472656 11.25 5.484375 11.367188 5.539062 11.480469 C 5.597656 11.59375 5.679688 11.679688 5.792969 11.734375 L 9.0625 13.367188 C 9.199219 13.433594 9.335938 13.445312 9.480469 13.398438 C 9.621094 13.351562 9.726562 13.257812 9.792969 13.125 C 9.863281 12.988281 9.871094 12.851562 9.824219 12.707031 C 9.777344 12.566406 9.683594 12.460938 9.550781 12.394531 L 6.28125 10.757812 C 6.199219 10.714844 6.109375 10.695312 6.019531 10.699219 Z M 30.011719 10.699219 C 29.925781 10.699219 29.84375 10.71875 29.765625 10.757812 L 26.496094 12.394531 C 26.363281 12.460938 26.273438 12.566406 26.222656 12.707031 C 26.175781 12.851562 26.1875 12.988281 26.253906 13.125 C 26.320312 13.257812 26.425781 13.351562 26.570312 13.398438 C 26.710938 13.445312 26.851562 13.433594 26.984375 13.367188 L 30.253906 11.734375 C 30.367188 11.675781 30.453125 11.59375 30.507812 11.476562 C 30.5625 11.363281 30.578125 11.242188 30.546875 11.117188 C 30.519531 10.996094 30.453125 10.894531 30.355469 10.816406 C 30.253906 10.734375 30.140625 10.695312 30.011719 10.699219 Z M 17.476562 13.425781 C 17.175781 13.425781 16.933594 13.667969 16.933594 13.96875 L 16.933594 21.597656 C 16.933594 21.898438 17.175781 22.144531 17.476562 22.144531 L 18.570312 22.144531 C 18.871094 22.144531 19.113281 21.898438 19.113281 21.597656 L 19.113281 13.96875 C 19.113281 13.667969 18.871094 13.425781 18.570312 13.425781 Z M 4.949219 15.605469 C 4.796875 15.601562 4.664062 15.65625 4.558594 15.761719 C 4.449219 15.867188 4.394531 15.996094 4.394531 16.148438 C 4.394531 16.300781 4.449219 16.429688 4.558594 16.539062 C 4.664062 16.644531 4.796875 16.695312 4.949219 16.695312 L 8.214844 16.695312 C 8.367188 16.695312 8.5 16.644531 8.605469 16.539062 C 8.714844 16.429688 8.769531 16.300781 8.769531 16.148438 C 8.769531 15.996094 8.714844 15.867188 8.605469 15.761719 C 8.5 15.65625 8.367188 15.601562 8.214844 15.605469 Z M 27.832031 15.605469 C 27.679688 15.601562 27.550781 15.65625 27.441406 15.761719 C 27.332031 15.867188 27.277344 15.996094 27.277344 16.148438 C 27.277344 16.300781 27.332031 16.429688 27.441406 16.539062 C 27.550781 16.644531 27.679688 16.695312 27.832031 16.695312 L 31.101562 16.695312 C 31.25 16.695312 31.382812 16.644531 31.488281 16.539062 C 31.597656 16.429688 31.652344 16.300781 31.652344 16.148438 C 31.652344 15.996094 31.597656 15.867188 31.488281 15.761719 C 31.382812 15.65625 31.25 15.601562 31.101562 15.605469 Z M 17.476562 23.777344 C 17.175781 23.777344 16.933594 24.019531 16.933594 24.320312 L 16.933594 25.410156 C 16.933594 25.710938 17.175781 25.957031 17.476562 25.957031 L 18.570312 25.957031 C 18.871094 25.957031 19.113281 25.710938 19.113281 25.410156 L 19.113281 24.320312 C 19.113281 24.019531 18.871094 23.777344 18.570312 23.777344 Z M 17.476562 23.777344 " fill-opacity="1" fill-rule="nonzero"/></g></svg>