<svg xmlns="http://www.w3.org/2000/svg" xmlns:xlink="http://www.w3.org/1999/xlink" width="48" zoomAndPan="magnify" viewBox="0 0 36 36.000001" height="48" preserveAspectRatio="xMidYMid meet" version="1.0"><defs><clipPath id="235843187c"><path d="M 0.488281 0 L 35.511719 0 L 35.511719 35.027344 L 0.488281 35.027344 Z M 0.488281 0 " clip-rule="nonzero"/></clipPath><clipPath id="0ae8925226"><path d="M 5.578125 5.511719 L 30.386719 5.511719 L 30.386719 29.589844 L 5.578125 29.589844 Z M 5.578125 5.511719 " clip-rule="nonzero"/></clipPath></defs><g clip-path="url(#235843187c)"><path fill="#ffffff" d="M 0.488281 0 L 35.511719 0 L 35.511719 35.027344 L 0.488281 35.027344 Z M 0.488281 0 " fill-opacity="1" fill-rule="nonzero"/><path fill="#ffffff" d="M 0.488281 0 L 35.511719 0 L 35.511719 35.027344 L 0.488281 35.027344 Z M 0.488281 0 " fill-opacity="1" fill-rule="nonzero"/></g><g clip-path="url(#0ae8925226)"><path fill="#57aaf9" d="M 29.167969 28.683594 L 6.820312 28.683594 C 6.59375 28.683594 6.40625 28.5 6.40625 28.269531 L 6.40625 9.648438 L 29.582031 9.648438 L 29.582031 28.269531 C 29.582031 28.5 29.394531 28.683594 29.167969 28.683594 Z M 6.820312 6.339844 L 29.167969 6.339844 C 29.394531 6.339844 29.582031 6.523438 29.582031 6.75 L 29.582031 8.820312 L 6.40625 8.820312 L 6.40625 6.75 C 6.40625 6.523438 6.59375 6.339844 6.820312 6.339844 Z M 29.167969 5.511719 L 6.820312 5.511719 C 6.136719 5.511719 5.582031 6.066406 5.582031 6.75 L 5.582031 28.269531 C 5.582031 28.953125 6.136719 29.511719 6.820312 29.511719 L 29.167969 29.511719 C 29.851562 29.511719 30.410156 28.953125 30.410156 28.269531 L 30.410156 6.75 C 30.410156 6.066406 29.851562 5.511719 29.167969 5.511719 " fill-opacity="1" fill-rule="nonzero"/></g><path fill="#57aaf9" d="M 10.960938 7.992188 C 11.1875 7.992188 11.375 7.808594 11.375 7.578125 C 11.375 7.351562 11.1875 7.164062 10.960938 7.164062 C 10.730469 7.164062 10.546875 7.351562 10.546875 7.578125 C 10.546875 7.808594 10.730469 7.992188 10.960938 7.992188 " fill-opacity="1" fill-rule="nonzero"/><path fill="#57aaf9" d="M 9.304688 7.992188 C 9.53125 7.992188 9.71875 7.808594 9.71875 7.578125 C 9.71875 7.351562 9.53125 7.164062 9.304688 7.164062 C 9.074219 7.164062 8.890625 7.351562 8.890625 7.578125 C 8.890625 7.808594 9.074219 7.992188 9.304688 7.992188 " fill-opacity="1" fill-rule="nonzero"/><path fill="#57aaf9" d="M 7.648438 7.992188 C 7.878906 7.992188 8.0625 7.808594 8.0625 7.578125 C 8.0625 7.351562 7.878906 7.164062 7.648438 7.164062 C 7.421875 7.164062 7.234375 7.351562 7.234375 7.578125 C 7.234375 7.808594 7.421875 7.992188 7.648438 7.992188 " fill-opacity="1" fill-rule="nonzero"/><path fill="#57aaf9" d="M 8.476562 18.753906 L 11.375 18.753906 C 11.601562 18.753906 11.789062 18.566406 11.789062 18.339844 C 11.789062 18.109375 11.601562 17.925781 11.375 17.925781 L 8.476562 17.925781 C 8.25 17.925781 8.0625 18.109375 8.0625 18.339844 C 8.0625 18.566406 8.25 18.753906 8.476562 18.753906 " fill-opacity="1" fill-rule="nonzero"/><path fill="#57aaf9" d="M 13.027344 16.269531 L 12.007812 16.269531 L 10.476562 13.972656 C 10.398438 13.855469 10.269531 13.785156 10.132812 13.785156 C 9.992188 13.785156 9.863281 13.855469 9.789062 13.972656 L 8.890625 15.316406 L 8.890625 12.132812 L 13.027344 12.132812 Z M 9.25 16.269531 L 10.132812 14.945312 L 11.015625 16.269531 Z M 13.441406 11.304688 L 8.476562 11.304688 C 8.25 11.304688 8.0625 11.488281 8.0625 11.71875 L 8.0625 16.683594 C 8.0625 16.910156 8.25 17.097656 8.476562 17.097656 L 13.441406 17.097656 C 13.671875 17.097656 13.855469 16.910156 13.855469 16.683594 L 13.855469 11.71875 C 13.855469 11.488281 13.671875 11.304688 13.441406 11.304688 " fill-opacity="1" fill-rule="nonzero"/><path fill="#57aaf9" d="M 11.789062 13.785156 C 12.015625 13.785156 12.199219 13.601562 12.199219 13.371094 C 12.199219 13.144531 12.015625 12.960938 11.789062 12.960938 C 11.558594 12.960938 11.375 13.144531 11.375 13.371094 C 11.375 13.601562 11.558594 13.785156 11.789062 13.785156 " fill-opacity="1" fill-rule="nonzero"/><path fill="#57aaf9" d="M 20.0625 16.269531 L 19.042969 16.269531 L 17.511719 13.972656 C 17.433594 13.855469 17.304688 13.785156 17.167969 13.785156 C 17.027344 13.785156 16.898438 13.855469 16.824219 13.972656 L 15.925781 15.316406 L 15.925781 12.132812 L 20.0625 12.132812 Z M 16.285156 16.269531 L 17.167969 14.945312 L 18.050781 16.269531 Z M 20.476562 11.304688 L 15.511719 11.304688 C 15.28125 11.304688 15.097656 11.488281 15.097656 11.71875 L 15.097656 16.683594 C 15.097656 16.910156 15.28125 17.097656 15.511719 17.097656 L 20.476562 17.097656 C 20.707031 17.097656 20.890625 16.910156 20.890625 16.683594 L 20.890625 11.71875 C 20.890625 11.488281 20.707031 11.304688 20.476562 11.304688 " fill-opacity="1" fill-rule="nonzero"/><path fill="#57aaf9" d="M 18.820312 13.785156 C 19.050781 13.785156 19.234375 13.601562 19.234375 13.371094 C 19.234375 13.144531 19.050781 12.960938 18.820312 12.960938 C 18.59375 12.960938 18.410156 13.144531 18.410156 13.371094 C 18.410156 13.601562 18.59375 13.785156 18.820312 13.785156 " fill-opacity="1" fill-rule="nonzero"/><path fill="#57aaf9" d="M 27.097656 16.269531 L 26.078125 16.269531 L 24.546875 13.972656 C 24.46875 13.855469 24.339844 13.785156 24.203125 13.785156 C 24.0625 13.785156 23.933594 13.855469 23.859375 13.972656 L 22.960938 15.316406 L 22.960938 12.132812 L 27.097656 12.132812 Z M 23.320312 16.269531 L 24.203125 14.945312 L 25.082031 16.269531 Z M 27.511719 11.304688 L 22.546875 11.304688 C 22.316406 11.304688 22.132812 11.488281 22.132812 11.71875 L 22.132812 16.683594 C 22.132812 16.910156 22.316406 17.097656 22.546875 17.097656 L 27.511719 17.097656 C 27.742188 17.097656 27.925781 16.910156 27.925781 16.683594 L 27.925781 11.71875 C 27.925781 11.488281 27.742188 11.304688 27.511719 11.304688 " fill-opacity="1" fill-rule="nonzero"/><path fill="#57aaf9" d="M 25.855469 13.785156 C 26.085938 13.785156 26.269531 13.601562 26.269531 13.371094 C 26.269531 13.144531 26.085938 12.960938 25.855469 12.960938 C 25.628906 12.960938 25.441406 13.144531 25.441406 13.371094 C 25.441406 13.601562 25.628906 13.785156 25.855469 13.785156 " fill-opacity="1" fill-rule="nonzero"/><path fill="#57aaf9" d="M 13.027344 24.546875 L 12.007812 24.546875 L 10.476562 22.246094 C 10.398438 22.132812 10.269531 22.0625 10.132812 22.0625 C 9.992188 22.0625 9.863281 22.132812 9.789062 22.246094 L 8.890625 23.59375 L 8.890625 20.40625 L 13.027344 20.40625 Z M 9.25 24.546875 L 10.132812 23.222656 L 11.015625 24.546875 Z M 13.441406 19.582031 L 8.476562 19.582031 C 8.25 19.582031 8.0625 19.765625 8.0625 19.992188 L 8.0625 24.960938 C 8.0625 25.1875 8.25 25.375 8.476562 25.375 L 13.441406 25.375 C 13.671875 25.375 13.855469 25.1875 13.855469 24.960938 L 13.855469 19.992188 C 13.855469 19.765625 13.671875 19.582031 13.441406 19.582031 " fill-opacity="1" fill-rule="nonzero"/><path fill="#57aaf9" d="M 11.789062 22.0625 C 12.015625 22.0625 12.199219 21.878906 12.199219 21.648438 C 12.199219 21.421875 12.015625 21.234375 11.789062 21.234375 C 11.558594 21.234375 11.375 21.421875 11.375 21.648438 C 11.375 21.878906 11.558594 22.0625 11.789062 22.0625 " fill-opacity="1" fill-rule="nonzero"/><path fill="#57aaf9" d="M 20.0625 24.546875 L 19.042969 24.546875 L 17.511719 22.246094 C 17.433594 22.132812 17.304688 22.0625 17.167969 22.0625 C 17.027344 22.0625 16.898438 22.132812 16.824219 22.246094 L 15.925781 23.59375 L 15.925781 20.40625 L 20.0625 20.40625 Z M 16.285156 24.546875 L 17.167969 23.222656 L 18.050781 24.546875 Z M 20.476562 19.582031 L 15.511719 19.582031 C 15.28125 19.582031 15.097656 19.765625 15.097656 19.992188 L 15.097656 24.960938 C 15.097656 25.1875 15.28125 25.375 15.511719 25.375 L 20.476562 25.375 C 20.707031 25.375 20.890625 25.1875 20.890625 24.960938 L 20.890625 19.992188 C 20.890625 19.765625 20.707031 19.582031 20.476562 19.582031 " fill-opacity="1" fill-rule="nonzero"/><path fill="#57aaf9" d="M 18.820312 22.0625 C 19.050781 22.0625 19.234375 21.878906 19.234375 21.648438 C 19.234375 21.421875 19.050781 21.234375 18.820312 21.234375 C 18.59375 21.234375 18.410156 21.421875 18.410156 21.648438 C 18.410156 21.878906 18.59375 22.0625 18.820312 22.0625 " fill-opacity="1" fill-rule="nonzero"/><path fill="#57aaf9" d="M 27.097656 24.546875 L 26.078125 24.546875 L 24.546875 22.246094 C 24.46875 22.132812 24.339844 22.0625 24.203125 22.0625 C 24.0625 22.0625 23.933594 22.132812 23.859375 22.246094 L 22.960938 23.59375 L 22.960938 20.40625 L 27.097656 20.40625 Z M 23.320312 24.546875 L 24.203125 23.222656 L 25.082031 24.546875 Z M 27.511719 19.582031 L 22.546875 19.582031 C 22.316406 19.582031 22.132812 19.765625 22.132812 19.992188 L 22.132812 24.960938 C 22.132812 25.1875 22.316406 25.375 22.546875 25.375 L 27.511719 25.375 C 27.742188 25.375 27.925781 25.1875 27.925781 24.960938 L 27.925781 19.992188 C 27.925781 19.765625 27.742188 19.582031 27.511719 19.582031 " fill-opacity="1" fill-rule="nonzero"/><path fill="#57aaf9" d="M 25.855469 22.0625 C 26.085938 22.0625 26.269531 21.878906 26.269531 21.648438 C 26.269531 21.421875 26.085938 21.234375 25.855469 21.234375 C 25.628906 21.234375 25.441406 21.421875 25.441406 21.648438 C 25.441406 21.878906 25.628906 22.0625 25.855469 22.0625 " fill-opacity="1" fill-rule="nonzero"/><path fill="#57aaf9" d="M 13.441406 17.925781 C 13.214844 17.925781 13.027344 18.109375 13.027344 18.339844 C 13.027344 18.566406 13.214844 18.753906 13.441406 18.753906 C 13.671875 18.753906 13.855469 18.566406 13.855469 18.339844 C 13.855469 18.109375 13.671875 17.925781 13.441406 17.925781 " fill-opacity="1" fill-rule="nonzero"/><path fill="#57aaf9" d="M 15.511719 18.753906 L 18.410156 18.753906 C 18.636719 18.753906 18.820312 18.566406 18.820312 18.339844 C 18.820312 18.109375 18.636719 17.925781 18.410156 17.925781 L 15.511719 17.925781 C 15.28125 17.925781 15.097656 18.109375 15.097656 18.339844 C 15.097656 18.566406 15.28125 18.753906 15.511719 18.753906 " fill-opacity="1" fill-rule="nonzero"/><path fill="#57aaf9" d="M 20.476562 17.925781 C 20.25 17.925781 20.0625 18.109375 20.0625 18.339844 C 20.0625 18.566406 20.25 18.753906 20.476562 18.753906 C 20.707031 18.753906 20.890625 18.566406 20.890625 18.339844 C 20.890625 18.109375 20.707031 17.925781 20.476562 17.925781 " fill-opacity="1" fill-rule="nonzero"/><path fill="#57aaf9" d="M 22.546875 18.753906 L 25.441406 18.753906 C 25.671875 18.753906 25.855469 18.566406 25.855469 18.339844 C 25.855469 18.109375 25.671875 17.925781 25.441406 17.925781 L 22.546875 17.925781 C 22.316406 17.925781 22.132812 18.109375 22.132812 18.339844 C 22.132812 18.566406 22.316406 18.753906 22.546875 18.753906 " fill-opacity="1" fill-rule="nonzero"/><path fill="#57aaf9" d="M 27.511719 17.925781 C 27.285156 17.925781 27.097656 18.109375 27.097656 18.339844 C 27.097656 18.566406 27.285156 18.753906 27.511719 18.753906 C 27.742188 18.753906 27.925781 18.566406 27.925781 18.339844 C 27.925781 18.109375 27.742188 17.925781 27.511719 17.925781 " fill-opacity="1" fill-rule="nonzero"/><path fill="#57aaf9" d="M 11.375 26.203125 L 8.476562 26.203125 C 8.25 26.203125 8.0625 26.386719 8.0625 26.613281 C 8.0625 26.84375 8.25 27.027344 8.476562 27.027344 L 11.375 27.027344 C 11.601562 27.027344 11.789062 26.84375 11.789062 26.613281 C 11.789062 26.386719 11.601562 26.203125 11.375 26.203125 " fill-opacity="1" fill-rule="nonzero"/><path fill="#57aaf9" d="M 13.441406 26.203125 C 13.214844 26.203125 13.027344 26.386719 13.027344 26.613281 C 13.027344 26.84375 13.214844 27.027344 13.441406 27.027344 C 13.671875 27.027344 13.855469 26.84375 13.855469 26.613281 C 13.855469 26.386719 13.671875 26.203125 13.441406 26.203125 " fill-opacity="1" fill-rule="nonzero"/><path fill="#57aaf9" d="M 18.410156 26.203125 L 15.511719 26.203125 C 15.28125 26.203125 15.097656 26.386719 15.097656 26.613281 C 15.097656 26.84375 15.28125 27.027344 15.511719 27.027344 L 18.410156 27.027344 C 18.636719 27.027344 18.820312 26.84375 18.820312 26.613281 C 18.820312 26.386719 18.636719 26.203125 18.410156 26.203125 " fill-opacity="1" fill-rule="nonzero"/><path fill="#57aaf9" d="M 20.476562 26.203125 C 20.25 26.203125 20.0625 26.386719 20.0625 26.613281 C 20.0625 26.84375 20.25 27.027344 20.476562 27.027344 C 20.707031 27.027344 20.890625 26.84375 20.890625 26.613281 C 20.890625 26.386719 20.707031 26.203125 20.476562 26.203125 " fill-opacity="1" fill-rule="nonzero"/><path fill="#57aaf9" d="M 25.441406 26.203125 L 22.546875 26.203125 C 22.316406 26.203125 22.132812 26.386719 22.132812 26.613281 C 22.132812 26.84375 22.316406 27.027344 22.546875 27.027344 L 25.441406 27.027344 C 25.671875 27.027344 25.855469 26.84375 25.855469 26.613281 C 25.855469 26.386719 25.671875 26.203125 25.441406 26.203125 " fill-opacity="1" fill-rule="nonzero"/><path fill="#57aaf9" d="M 27.511719 26.203125 C 27.285156 26.203125 27.097656 26.386719 27.097656 26.613281 C 27.097656 26.84375 27.285156 27.027344 27.511719 27.027344 C 27.742188 27.027344 27.925781 26.84375 27.925781 26.613281 C 27.925781 26.386719 27.742188 26.203125 27.511719 26.203125 " fill-opacity="1" fill-rule="nonzero"/></svg>