<svg xmlns="http://www.w3.org/2000/svg" xmlns:xlink="http://www.w3.org/1999/xlink" width="48" zoomAndPan="magnify" viewBox="0 0 36 36.000001" height="48" preserveAspectRatio="xMidYMid meet" version="1.0"><defs><clipPath id="46c2833d4e"><path d="M 0.488281 0 L 35.511719 0 L 35.511719 35.027344 L 0.488281 35.027344 Z M 0.488281 0 " clip-rule="nonzero"/></clipPath><clipPath id="e93468a292"><path d="M 3.988281 9.640625 L 30.257812 9.640625 L 30.257812 31.53125 L 3.988281 31.53125 Z M 3.988281 9.640625 " clip-rule="nonzero"/></clipPath></defs><g clip-path="url(#46c2833d4e)"><path fill="#ffffff" d="M 0.488281 0 L 35.511719 0 L 35.511719 35.027344 L 0.488281 35.027344 Z M 0.488281 0 " fill-opacity="1" fill-rule="nonzero"/><path fill="#ffffff" d="M 0.488281 0 L 35.511719 0 L 35.511719 35.027344 L 0.488281 35.027344 Z M 0.488281 0 " fill-opacity="1" fill-rule="nonzero"/></g><g clip-path="url(#e93468a292)"><path fill="#57aaf9" d="M 4.902344 12.3125 C 4.902344 11.394531 5.648438 10.648438 6.5625 10.648438 L 25.414062 10.648438 C 26.328125 10.648438 27.074219 11.394531 27.074219 12.3125 L 27.074219 21.832031 L 25.148438 20.808594 C 25.5 20.335938 25.695312 19.761719 25.695312 19.164062 C 25.695312 18.015625 24.992188 17.027344 23.996094 16.601562 C 24.316406 16.589844 24.632812 16.457031 24.878906 16.214844 C 25.132812 15.960938 25.273438 15.625 25.273438 15.265625 C 25.273438 14.90625 25.132812 14.570312 24.878906 14.320312 C 24.363281 13.800781 23.644531 13.503906 22.914062 13.503906 C 21.378906 13.503906 20.132812 14.75 20.132812 16.285156 C 20.132812 17.433594 20.835938 18.425781 21.835938 18.847656 C 21.511719 18.859375 21.195312 18.992188 20.949219 19.238281 C 20.945312 19.242188 20.9375 19.246094 20.933594 19.25 C 20.425781 19.773438 20.429688 20.617188 20.949219 21.132812 C 21.34375 21.527344 21.855469 21.792969 22.402344 21.894531 L 22.300781 24.800781 L 6.5625 24.800781 C 5.648438 24.800781 4.902344 24.054688 4.902344 23.136719 Z M 29.519531 24.355469 C 29.519531 24.410156 29.503906 24.554688 29.355469 24.644531 L 27.734375 25.582031 C 27.515625 25.703125 27.441406 25.984375 27.566406 26.203125 L 29.011719 28.699219 C 29.285156 29.175781 29.125 29.78125 28.644531 30.058594 C 28.160156 30.335938 27.5625 30.167969 27.289062 29.695312 L 25.847656 27.195312 C 25.785156 27.09375 25.6875 27.015625 25.570312 26.984375 C 25.53125 26.972656 25.492188 26.96875 25.453125 26.96875 C 25.371094 26.96875 25.292969 26.988281 25.222656 27.03125 L 23.601562 27.964844 C 23.453125 28.050781 23.320312 27.992188 23.269531 27.960938 C 23.21875 27.933594 23.105469 27.84375 23.113281 27.667969 C 23.179688 25.675781 23.28125 22.816406 23.324219 21.570312 C 23.332031 21.355469 23.476562 21.25 23.539062 21.214844 C 23.601562 21.179688 23.765625 21.105469 23.957031 21.207031 L 24.207031 21.34375 C 24.207031 21.34375 24.210938 21.34375 24.210938 21.34375 L 29.34375 24.070312 C 29.5 24.152344 29.515625 24.296875 29.519531 24.355469 Z M 23.21875 16.402344 C 23.121094 16.390625 23.015625 16.382812 22.914062 16.382812 C 22.847656 16.382812 22.8125 16.351562 22.8125 16.285156 C 22.8125 16.21875 22.847656 16.183594 22.914062 16.183594 C 22.945312 16.183594 22.960938 16.191406 22.984375 16.214844 C 23.058594 16.285156 23.136719 16.347656 23.21875 16.402344 Z M 22.605469 19.046875 C 22.707031 19.058594 22.808594 19.0625 22.914062 19.0625 C 22.980469 19.0625 23.015625 19.101562 23.015625 19.164062 C 23.015625 19.304688 22.894531 19.292969 22.84375 19.238281 C 22.769531 19.164062 22.6875 19.101562 22.605469 19.046875 Z M 22.914062 20.179688 C 23.480469 20.179688 23.925781 19.734375 23.925781 19.164062 C 23.925781 18.597656 23.480469 18.152344 22.914062 18.152344 C 21.882812 18.152344 21.042969 17.316406 21.042969 16.285156 C 21.042969 15.269531 21.902344 14.417969 22.914062 14.417969 C 23.40625 14.417969 23.886719 14.617188 24.234375 14.964844 C 24.316406 15.042969 24.359375 15.152344 24.359375 15.265625 C 24.359375 15.378906 24.316406 15.488281 24.234375 15.570312 C 24.066406 15.734375 23.796875 15.734375 23.628906 15.570312 C 23.4375 15.378906 23.183594 15.269531 22.914062 15.269531 C 22.34375 15.269531 21.902344 15.714844 21.902344 16.285156 C 21.902344 16.851562 22.34375 17.296875 22.914062 17.296875 C 23.925781 17.296875 24.785156 18.152344 24.785156 19.164062 C 24.785156 19.613281 24.609375 20.039062 24.320312 20.378906 C 23.921875 20.191406 23.464844 20.203125 23.082031 20.425781 C 22.847656 20.558594 22.671875 20.761719 22.558594 21 C 22.195312 20.925781 21.855469 20.75 21.59375 20.488281 C 21.425781 20.320312 21.425781 20.050781 21.59375 19.882812 C 21.59375 19.878906 21.597656 19.875 21.601562 19.871094 C 21.765625 19.714844 22.035156 19.71875 22.199219 19.882812 C 22.390625 20.074219 22.640625 20.179688 22.914062 20.179688 Z M 6.5625 25.714844 L 22.265625 25.714844 L 22.199219 27.636719 C 22.183594 28.09375 22.40625 28.507812 22.800781 28.742188 C 23.191406 28.980469 23.660156 28.984375 24.058594 28.753906 L 25.285156 28.046875 L 26.5 30.152344 C 27.027344 31.066406 28.1875 31.375 29.101562 30.847656 C 30.015625 30.320312 30.328125 29.160156 29.800781 28.246094 L 28.585938 26.140625 L 29.8125 25.433594 C 30.207031 25.203125 30.4375 24.796875 30.429688 24.339844 C 30.421875 23.882812 30.175781 23.480469 29.773438 23.265625 L 27.988281 22.316406 L 27.988281 12.3125 C 27.988281 10.890625 26.832031 9.738281 25.414062 9.738281 L 6.5625 9.738281 C 5.144531 9.738281 3.988281 10.890625 3.988281 12.3125 L 3.988281 23.136719 C 3.988281 24.558594 5.144531 25.714844 6.5625 25.714844 " fill-opacity="1" fill-rule="nonzero"/></g><path fill="#57aaf9" d="M 9.65625 16.035156 C 10.007812 16.035156 10.273438 16.257812 10.335938 16.578125 L 8.976562 16.578125 C 9.039062 16.257812 9.308594 16.035156 9.65625 16.035156 Z M 8.503906 17.488281 L 10.808594 17.488281 C 11.0625 17.488281 11.265625 17.285156 11.265625 17.035156 L 11.265625 16.730469 C 11.265625 15.828125 10.558594 15.125 9.65625 15.125 C 8.757812 15.125 8.050781 15.828125 8.050781 16.730469 L 8.050781 17.035156 C 8.050781 17.285156 8.253906 17.488281 8.503906 17.488281 " fill-opacity="1" fill-rule="nonzero"/><path fill="#57aaf9" d="M 7.191406 16.730469 C 7.191406 15.371094 8.296875 14.265625 9.65625 14.265625 C 11.015625 14.265625 12.121094 15.371094 12.121094 16.730469 L 12.121094 20.757812 C 12.121094 20.992188 11.929688 21.183594 11.691406 21.183594 C 11.457031 21.183594 11.265625 20.992188 11.265625 20.757812 L 11.265625 18.800781 C 11.265625 18.550781 11.0625 18.347656 10.808594 18.347656 L 8.503906 18.347656 C 8.253906 18.347656 8.050781 18.550781 8.050781 18.800781 L 8.050781 20.757812 C 8.050781 20.992188 7.855469 21.183594 7.621094 21.183594 C 7.386719 21.183594 7.191406 20.992188 7.191406 20.757812 Z M 7.621094 22.09375 C 8.359375 22.09375 8.960938 21.496094 8.960938 20.757812 L 8.960938 19.257812 L 10.351562 19.257812 L 10.351562 20.757812 C 10.351562 21.496094 10.953125 22.09375 11.691406 22.09375 C 12.433594 22.09375 13.03125 21.496094 13.03125 20.757812 L 13.03125 16.730469 C 13.03125 14.867188 11.519531 13.355469 9.65625 13.355469 C 7.796875 13.355469 6.28125 14.867188 6.28125 16.730469 L 6.28125 20.757812 C 6.28125 21.496094 6.882812 22.09375 7.621094 22.09375 " fill-opacity="1" fill-rule="nonzero"/><path fill="#57aaf9" d="M 16.117188 16.035156 L 16.894531 16.035156 C 16.996094 16.035156 17.050781 16.085938 17.050781 16.1875 L 17.050781 19.261719 C 17.050781 19.332031 17.023438 19.417969 16.894531 19.417969 L 16.117188 19.417969 Z M 15.660156 20.328125 L 16.894531 20.328125 C 17.503906 20.328125 17.960938 19.867188 17.960938 19.261719 L 17.960938 16.1875 C 17.960938 15.582031 17.503906 15.125 16.894531 15.125 L 15.660156 15.125 C 15.40625 15.125 15.203125 15.328125 15.203125 15.578125 L 15.203125 19.871094 C 15.203125 20.125 15.40625 20.328125 15.660156 20.328125 " fill-opacity="1" fill-rule="nonzero"/><path fill="#57aaf9" d="M 14.347656 14.695312 C 14.347656 14.460938 14.539062 14.265625 14.777344 14.265625 L 16.894531 14.265625 C 17.9375 14.265625 18.816406 15.144531 18.816406 16.1875 L 18.816406 19.261719 C 18.816406 20.304688 17.9375 21.183594 16.894531 21.183594 L 14.777344 21.183594 C 14.539062 21.183594 14.347656 20.992188 14.347656 20.757812 Z M 14.777344 22.09375 L 16.894531 22.09375 C 18.457031 22.09375 19.730469 20.824219 19.730469 19.261719 L 19.730469 16.1875 C 19.730469 14.625 18.457031 13.355469 16.894531 13.355469 L 14.777344 13.355469 C 14.039062 13.355469 13.4375 13.957031 13.4375 14.695312 L 13.4375 20.757812 C 13.4375 21.496094 14.039062 22.09375 14.777344 22.09375 " fill-opacity="1" fill-rule="nonzero"/></svg>