<svg xmlns="http://www.w3.org/2000/svg" xmlns:xlink="http://www.w3.org/1999/xlink" width="48" zoomAndPan="magnify" viewBox="0 0 36 36.000001" height="48" preserveAspectRatio="xMidYMid meet" version="1.0"><defs><clipPath id="1e72baef40"><path d="M 0.488281 0 L 35.511719 0 L 35.511719 35.027344 L 0.488281 35.027344 Z M 0.488281 0 " clip-rule="nonzero"/></clipPath><clipPath id="2ff717d849"><path d="M 22 23 L 29.785156 23 L 29.785156 30 L 22 30 Z M 22 23 " clip-rule="nonzero"/></clipPath><clipPath id="a68f6fabdc"><path d="M 22 17 L 29.785156 17 L 29.785156 24 L 22 24 Z M 22 17 " clip-rule="nonzero"/></clipPath><clipPath id="f3949583c8"><path d="M 9 5.226562 L 15 5.226562 L 15 11 L 9 11 Z M 9 5.226562 " clip-rule="nonzero"/></clipPath><clipPath id="bded87e7bc"><path d="M 6.433594 10 L 15 10 L 15 16 L 6.433594 16 Z M 6.433594 10 " clip-rule="nonzero"/></clipPath></defs><g clip-path="url(#1e72baef40)"><path fill="#ffffff" d="M 0.488281 0 L 35.511719 0 L 35.511719 35.027344 L 0.488281 35.027344 Z M 0.488281 0 " fill-opacity="1" fill-rule="nonzero"/><path fill="#ffffff" d="M 0.488281 0 L 35.511719 0 L 35.511719 35.027344 L 0.488281 35.027344 Z M 0.488281 0 " fill-opacity="1" fill-rule="nonzero"/></g><path fill="#57aaf9" d="M 16.753906 16.085938 C 16.890625 16.21875 17.074219 16.300781 17.269531 16.3125 L 21.21875 16.566406 C 21.238281 16.570312 21.257812 16.570312 21.273438 16.570312 C 21.707031 16.570312 22.070312 16.234375 22.097656 15.796875 C 22.125 15.34375 21.78125 14.949219 21.328125 14.921875 L 17.675781 14.683594 L 17.429688 14.449219 L 16.539062 15.882812 Z M 16.753906 16.085938 " fill-opacity="1" fill-rule="nonzero"/><path fill="#57aaf9" d="M 19.207031 26.472656 L 18.933594 26.679688 L 18.683594 26.472656 L 18.390625 26.679688 L 18.109375 26.472656 L 17.914062 26.679688 L 17.914062 23.929688 L 15.269531 23.929688 L 15.269531 29.648438 L 22.148438 29.648438 L 22.148438 23.929688 L 19.503906 23.929688 L 19.503906 26.679688 Z M 19.207031 26.472656 " fill-opacity="1" fill-rule="nonzero"/><g clip-path="url(#2ff717d849)"><path fill="#57aaf9" d="M 26.90625 26.679688 L 26.605469 26.472656 L 26.335938 26.679688 L 26.082031 26.472656 L 25.792969 26.679688 L 25.507812 26.472656 L 25.3125 26.679688 L 25.3125 23.929688 L 22.671875 23.929688 L 22.671875 29.648438 L 29.546875 29.648438 L 29.546875 23.929688 L 26.90625 23.929688 Z M 26.90625 26.679688 " fill-opacity="1" fill-rule="nonzero"/></g><path fill="#57aaf9" d="M 22.148438 17.648438 L 19.503906 17.648438 L 19.503906 20.398438 L 19.207031 20.191406 L 18.933594 20.398438 L 18.683594 20.191406 L 18.390625 20.398438 L 18.109375 20.191406 L 17.914062 20.398438 L 17.914062 17.648438 L 15.269531 17.648438 L 15.269531 23.367188 L 22.148438 23.367188 Z M 22.148438 17.648438 " fill-opacity="1" fill-rule="nonzero"/><g clip-path="url(#a68f6fabdc)"><path fill="#57aaf9" d="M 26.90625 20.398438 L 26.605469 20.191406 L 26.335938 20.398438 L 26.082031 20.191406 L 25.792969 20.398438 L 25.507812 20.191406 L 25.3125 20.398438 L 25.3125 17.648438 L 22.671875 17.648438 L 22.671875 23.367188 L 29.546875 23.367188 L 29.546875 17.648438 L 26.90625 17.648438 Z M 26.90625 20.398438 " fill-opacity="1" fill-rule="nonzero"/></g><g clip-path="url(#f3949583c8)"><path fill="#57aaf9" d="M 12.699219 5.476562 C 11.445312 5.222656 10.21875 6.035156 9.964844 7.292969 C 9.710938 8.546875 10.523438 9.773438 11.777344 10.027344 C 13.035156 10.28125 14.257812 9.46875 14.511719 8.210938 C 14.765625 6.957031 13.957031 5.730469 12.699219 5.476562 Z M 12.699219 5.476562 " fill-opacity="1" fill-rule="nonzero"/></g><path fill="#57aaf9" d="M 12.914062 28.515625 L 12.914062 18.472656 L 13.425781 15.953125 L 12.261719 15.515625 C 12.230469 15.503906 12.203125 15.492188 12.175781 15.476562 L 7.761719 15.816406 L 7.371094 17.742188 C 7.363281 17.78125 7.359375 17.820312 7.359375 17.855469 C 7.34375 17.929688 7.335938 18.003906 7.335938 18.082031 L 7.335938 28.515625 C 7.335938 29.222656 7.90625 29.792969 8.613281 29.792969 C 9.316406 29.792969 9.886719 29.222656 9.886719 28.515625 L 9.886719 19.0625 L 10.363281 19.160156 L 10.363281 28.515625 C 10.363281 29.222656 10.9375 29.792969 11.640625 29.792969 C 12.34375 29.792969 12.914062 29.222656 12.914062 28.515625 Z M 12.914062 28.515625 " fill-opacity="1" fill-rule="nonzero"/><path fill="#57aaf9" d="M 15.601562 16.515625 C 15.726562 16.5625 15.867188 16.515625 15.9375 16.402344 L 18.597656 12.128906 C 18.691406 11.976562 18.621094 11.78125 18.457031 11.71875 L 15.132812 10.472656 C 14.929688 10.394531 14.699219 10.472656 14.582031 10.660156 L 12.945312 13.285156 L 14.03125 13.203125 C 14.058594 13.199219 14.085938 13.199219 14.113281 13.199219 C 14.664062 13.199219 15.128906 13.628906 15.171875 14.179688 C 15.195312 14.460938 15.105469 14.738281 14.921875 14.953125 C 14.734375 15.167969 14.476562 15.296875 14.195312 15.320312 L 12.71875 15.433594 Z M 14.882812 11.144531 C 14.945312 11.035156 15.082031 10.996094 15.1875 11.058594 C 15.292969 11.117188 15.328125 11.253906 15.265625 11.363281 C 15.203125 11.472656 15.066406 11.507812 14.960938 11.449219 C 14.855469 11.386719 14.820312 11.25 14.882812 11.144531 Z M 14.882812 11.144531 " fill-opacity="1" fill-rule="nonzero"/><g clip-path="url(#bded87e7bc)"><path fill="#57aaf9" d="M 6.675781 15.3125 C 6.835938 15.5 7.066406 15.609375 7.3125 15.609375 C 7.335938 15.609375 7.355469 15.609375 7.375 15.609375 L 14.175781 15.082031 C 14.632812 15.050781 14.972656 14.652344 14.9375 14.199219 C 14.902344 13.742188 14.507812 13.402344 14.050781 13.4375 L 8.460938 13.871094 C 8.660156 13.296875 8.851562 12.886719 9.019531 12.585938 L 9.265625 12.632812 C 9.132812 12.863281 8.976562 13.175781 8.8125 13.605469 L 12.652344 13.308594 L 13.984375 11.167969 C 13.96875 11.160156 13.953125 11.152344 13.9375 11.144531 C 13.84375 11.074219 13.734375 11.023438 13.613281 10.996094 L 9.710938 10.207031 C 9.628906 10.191406 9.546875 10.1875 9.464844 10.195312 C 8.960938 10.21875 8.140625 10.570312 7.335938 12.269531 C 7.058594 12.859375 6.78125 13.609375 6.515625 14.566406 C 6.445312 14.828125 6.507812 15.105469 6.675781 15.3125 Z M 6.675781 15.3125 " fill-opacity="1" fill-rule="nonzero"/></g></svg>