<svg xmlns="http://www.w3.org/2000/svg" xmlns:xlink="http://www.w3.org/1999/xlink" width="48" zoomAndPan="magnify" viewBox="0 0 36 36.000001" height="48" preserveAspectRatio="xMidYMid meet" version="1.0"><defs><clipPath id="679edbc394"><path d="M 0.488281 0 L 35.511719 0 L 35.511719 35.027344 L 0.488281 35.027344 Z M 0.488281 0 " clip-rule="nonzero"/></clipPath><clipPath id="c4e9e41386"><path d="M 7.566406 5 L 28.726562 5 L 28.726562 30.386719 L 7.566406 30.386719 Z M 7.566406 5 " clip-rule="nonzero"/></clipPath></defs><g clip-path="url(#679edbc394)"><path fill="#ffffff" d="M 0.488281 0 L 35.511719 0 L 35.511719 35.027344 L 0.488281 35.027344 Z M 0.488281 0 " fill-opacity="1" fill-rule="nonzero"/><path fill="#ffffff" d="M 0.488281 0 L 35.511719 0 L 35.511719 35.027344 L 0.488281 35.027344 Z M 0.488281 0 " fill-opacity="1" fill-rule="nonzero"/></g><g clip-path="url(#c4e9e41386)"><path fill="#57aaf9" d="M 17.957031 5.019531 C 17.808594 5.023438 17.691406 5.144531 17.695312 5.289062 L 17.695312 7.292969 C 17.691406 7.445312 17.8125 7.570312 17.960938 7.570312 C 18.113281 7.570312 18.230469 7.445312 18.226562 7.292969 L 18.226562 5.289062 C 18.230469 5.140625 18.109375 5.019531 17.957031 5.019531 Z M 15.347656 5.367188 C 15.167969 5.359375 15.035156 5.53125 15.085938 5.703125 L 15.601562 7.640625 C 15.636719 7.785156 15.785156 7.875 15.929688 7.835938 C 16.078125 7.796875 16.160156 7.644531 16.117188 7.503906 L 15.597656 5.566406 C 15.566406 5.449219 15.464844 5.371094 15.347656 5.367188 Z M 12.886719 6.378906 C 12.6875 6.386719 12.566406 6.605469 12.667969 6.78125 L 13.671875 8.515625 C 13.742188 8.648438 13.90625 8.691406 14.039062 8.617188 C 14.167969 8.542969 14.210938 8.375 14.132812 8.246094 L 13.128906 6.515625 C 13.082031 6.425781 12.988281 6.375 12.886719 6.378906 Z M 21.789062 7.160156 C 21.246094 7.160156 20.683594 7.226562 20.101562 7.363281 L 20.726562 9.695312 C 20.84375 9.613281 20.980469 9.546875 21.128906 9.507812 C 21.296875 9.464844 21.464844 9.457031 21.625 9.476562 C 22.113281 9.546875 22.535156 9.898438 22.667969 10.398438 C 22.847656 11.066406 22.449219 11.761719 21.777344 11.941406 C 21.632812 11.980469 21.484375 11.992188 21.335938 11.980469 L 21.96875 14.339844 L 24.253906 13.726562 C 24.488281 13.617188 24.726562 13.871094 24.601562 14.097656 C 24.597656 14.101562 24.597656 14.105469 24.59375 14.105469 C 24.503906 14.269531 24.46875 14.460938 24.523438 14.65625 C 24.628906 15.050781 25.023438 15.277344 25.414062 15.171875 C 25.804688 15.066406 26.03125 14.671875 25.929688 14.28125 C 25.875 14.085938 25.75 13.933594 25.589844 13.839844 C 25.585938 13.839844 25.585938 13.835938 25.582031 13.835938 C 25.582031 13.835938 25.578125 13.832031 25.578125 13.832031 C 25.367188 13.699219 25.441406 13.375 25.6875 13.34375 L 27.867188 12.761719 C 27.808594 12.175781 27.707031 11.636719 27.527344 11.125 C 27.464844 11.148438 27.402344 11.167969 27.335938 11.1875 C 26.289062 11.46875 25.207031 10.84375 24.925781 9.796875 C 24.769531 9.210938 24.894531 8.609375 25.21875 8.148438 C 24.261719 7.511719 23.089844 7.15625 21.789062 7.160156 Z M 26.8125 7.847656 C 26.695312 7.851562 26.574219 7.863281 26.457031 7.898438 C 25.683594 8.105469 25.230469 8.886719 25.4375 9.65625 C 25.644531 10.425781 26.429688 10.878906 27.199219 10.671875 C 27.96875 10.46875 28.421875 9.683594 28.214844 8.914062 C 28.058594 8.335938 27.582031 7.9375 27.027344 7.859375 C 26.957031 7.851562 26.886719 7.847656 26.8125 7.847656 Z M 10.800781 7.984375 C 10.558594 7.984375 10.441406 8.277344 10.613281 8.445312 L 12.03125 9.859375 C 12.136719 9.964844 12.300781 9.964844 12.40625 9.859375 C 12.511719 9.753906 12.511719 9.589844 12.40625 9.484375 L 10.992188 8.066406 C 10.941406 8.015625 10.871094 7.984375 10.800781 7.984375 Z M 27.375 8.398438 C 27.582031 8.402344 27.703125 8.628906 27.597656 8.804688 L 26.933594 9.929688 C 26.859375 10.054688 26.699219 10.097656 26.574219 10.027344 L 26.046875 9.726562 C 25.914062 9.65625 25.867188 9.492188 25.941406 9.363281 C 26.015625 9.234375 26.179688 9.1875 26.308594 9.265625 L 26.605469 9.433594 L 27.140625 8.53125 C 27.1875 8.449219 27.277344 8.398438 27.375 8.398438 Z M 17.691406 8.980469 C 13.4375 9.125 10.953125 12.566406 11.585938 16.210938 L 13.402344 16.210938 C 13.351562 16.074219 13.324219 15.925781 13.324219 15.773438 C 13.324219 15.082031 13.890625 14.515625 14.585938 14.515625 C 15.277344 14.515625 15.84375 15.082031 15.84375 15.773438 C 15.84375 15.925781 15.816406 16.074219 15.765625 16.210938 L 17.695312 16.210938 C 17.683594 15.164062 17.707031 13.703125 17.710938 13.285156 C 17.710938 13.28125 17.710938 13.277344 17.710938 13.273438 C 17.710938 13.273438 17.710938 13.269531 17.710938 13.269531 C 17.71875 13.128906 17.832031 13.015625 17.972656 13.015625 C 18.054688 13.015625 18.132812 13.050781 18.183594 13.113281 C 18.3125 13.234375 18.484375 13.308594 18.679688 13.308594 C 19.082031 13.308594 19.40625 12.988281 19.40625 12.582031 C 19.40625 12.179688 19.082031 11.855469 18.679688 11.855469 C 18.476562 11.855469 18.296875 11.9375 18.164062 12.070312 C 18.160156 12.074219 18.160156 12.074219 18.15625 12.078125 C 18.152344 12.078125 18.152344 12.082031 18.148438 12.082031 C 18.144531 12.089844 18.136719 12.09375 18.132812 12.097656 C 18.125 12.101562 18.117188 12.105469 18.113281 12.109375 C 18.109375 12.109375 18.109375 12.109375 18.109375 12.109375 C 17.933594 12.214844 17.707031 12.085938 17.710938 11.878906 C 17.710938 11.289062 17.703125 9.746094 17.691406 8.980469 Z M 9.199219 10.085938 C 8.921875 10.074219 8.816406 10.445312 9.058594 10.582031 L 10.792969 11.582031 C 11.101562 11.757812 11.367188 11.300781 11.0625 11.121094 L 9.324219 10.121094 C 9.289062 10.097656 9.246094 10.085938 9.199219 10.085938 Z M 8.171875 12.523438 C 7.863281 12.535156 7.8125 12.976562 8.113281 13.050781 L 10.050781 13.570312 C 10.386719 13.65625 10.523438 13.148438 10.1875 13.054688 L 8.25 12.535156 C 8.226562 12.527344 8.199219 12.523438 8.171875 12.523438 Z M 14.585938 15.046875 C 14.179688 15.046875 13.855469 15.371094 13.855469 15.773438 C 13.855469 15.976562 13.9375 16.15625 14.070312 16.289062 C 14.074219 16.289062 14.074219 16.292969 14.078125 16.296875 C 14.082031 16.300781 14.089844 16.308594 14.09375 16.316406 C 14.097656 16.324219 14.101562 16.328125 14.105469 16.335938 C 14.105469 16.335938 14.109375 16.339844 14.109375 16.339844 C 14.113281 16.34375 14.117188 16.351562 14.117188 16.355469 C 14.121094 16.359375 14.121094 16.363281 14.121094 16.363281 C 14.125 16.371094 14.128906 16.375 14.128906 16.382812 C 14.132812 16.382812 14.132812 16.386719 14.132812 16.390625 C 14.136719 16.394531 14.136719 16.402344 14.140625 16.410156 C 14.140625 16.410156 14.140625 16.410156 14.140625 16.414062 C 14.144531 16.417969 14.144531 16.425781 14.144531 16.433594 C 14.144531 16.4375 14.144531 16.4375 14.144531 16.441406 C 14.148438 16.445312 14.148438 16.453125 14.148438 16.457031 C 14.148438 16.460938 14.148438 16.464844 14.148438 16.464844 C 14.148438 16.46875 14.148438 16.476562 14.148438 16.480469 C 14.148438 16.484375 14.148438 16.492188 14.148438 16.496094 C 14.148438 16.496094 14.148438 16.5 14.148438 16.5 C 14.148438 16.507812 14.144531 16.515625 14.144531 16.523438 C 14.144531 16.53125 14.140625 16.539062 14.140625 16.546875 C 14.136719 16.554688 14.132812 16.566406 14.132812 16.574219 C 14.128906 16.574219 14.128906 16.574219 14.128906 16.574219 C 14.121094 16.589844 14.113281 16.605469 14.105469 16.621094 C 14.101562 16.628906 14.097656 16.632812 14.089844 16.640625 C 14.039062 16.707031 13.960938 16.742188 13.878906 16.742188 L 11.671875 16.742188 C 11.679688 16.761719 11.683594 16.78125 11.6875 16.796875 C 12.21875 18.78125 13.292969 20.011719 14.269531 21.054688 C 14.757812 21.582031 15.222656 22.054688 15.574219 22.5625 C 15.871094 22.996094 16.058594 23.472656 16.117188 23.992188 L 17.695312 23.992188 C 17.695312 22.941406 17.691406 21.886719 17.691406 20.835938 C 17.554688 20.882812 17.410156 20.914062 17.253906 20.914062 C 16.5625 20.914062 15.996094 20.347656 15.996094 19.652344 C 15.996094 18.960938 16.5625 18.394531 17.253906 18.394531 C 17.410156 18.394531 17.554688 18.421875 17.691406 18.472656 L 17.695312 16.742188 L 15.289062 16.742188 C 15.285156 16.742188 15.28125 16.742188 15.28125 16.742188 C 15.269531 16.742188 15.261719 16.742188 15.25 16.738281 C 15.242188 16.738281 15.234375 16.734375 15.226562 16.734375 C 15.226562 16.734375 15.226562 16.734375 15.222656 16.734375 C 15.21875 16.734375 15.210938 16.730469 15.207031 16.726562 C 15.203125 16.726562 15.199219 16.726562 15.199219 16.726562 C 15.191406 16.722656 15.183594 16.722656 15.179688 16.71875 C 15.175781 16.71875 15.175781 16.71875 15.171875 16.714844 C 15.167969 16.710938 15.160156 16.710938 15.152344 16.707031 C 15.152344 16.703125 15.152344 16.703125 15.152344 16.703125 C 15.144531 16.699219 15.140625 16.695312 15.132812 16.691406 C 15.132812 16.691406 15.128906 16.691406 15.128906 16.6875 C 15.125 16.683594 15.117188 16.679688 15.113281 16.675781 C 15.113281 16.671875 15.109375 16.671875 15.109375 16.671875 C 15.105469 16.667969 15.097656 16.660156 15.09375 16.65625 C 15.09375 16.65625 15.089844 16.65625 15.089844 16.652344 C 15.085938 16.648438 15.082031 16.644531 15.078125 16.640625 C 15.078125 16.636719 15.074219 16.636719 15.074219 16.632812 C 15.070312 16.628906 15.066406 16.625 15.0625 16.621094 C 15.0625 16.617188 15.058594 16.613281 15.058594 16.609375 C 15.054688 16.605469 15.050781 16.601562 15.050781 16.597656 C 15.046875 16.59375 15.046875 16.589844 15.042969 16.585938 C 15.042969 16.582031 15.042969 16.578125 15.039062 16.574219 C 15.039062 16.570312 15.039062 16.566406 15.035156 16.5625 C 15.035156 16.558594 15.03125 16.550781 15.03125 16.546875 C 15.03125 16.542969 15.03125 16.539062 15.027344 16.535156 C 15.027344 16.53125 15.027344 16.527344 15.027344 16.523438 C 15.027344 16.519531 15.027344 16.515625 15.023438 16.507812 C 15.023438 16.507812 15.023438 16.503906 15.023438 16.5 C 15.023438 16.496094 15.023438 16.488281 15.023438 16.480469 C 15.023438 16.480469 15.023438 16.476562 15.023438 16.472656 C 15.023438 16.46875 15.023438 16.460938 15.023438 16.457031 C 15.023438 16.453125 15.023438 16.449219 15.023438 16.445312 C 15.023438 16.441406 15.027344 16.433594 15.027344 16.429688 C 15.027344 16.425781 15.027344 16.425781 15.027344 16.421875 C 15.027344 16.414062 15.03125 16.410156 15.03125 16.402344 C 15.03125 16.402344 15.03125 16.402344 15.035156 16.398438 C 15.035156 16.394531 15.039062 16.386719 15.039062 16.378906 C 15.042969 16.375 15.042969 16.375 15.042969 16.371094 C 15.046875 16.367188 15.050781 16.359375 15.050781 16.351562 C 15.054688 16.351562 15.054688 16.351562 15.054688 16.351562 C 15.066406 16.328125 15.082031 16.308594 15.101562 16.289062 C 15.230469 16.15625 15.3125 15.976562 15.3125 15.773438 C 15.3125 15.371094 14.988281 15.050781 14.585938 15.050781 Z M 9.84375 15.144531 C 9.84375 15.144531 9.839844 15.144531 9.839844 15.144531 L 7.835938 15.144531 C 7.6875 15.140625 7.5625 15.261719 7.5625 15.410156 C 7.5625 15.5625 7.6875 15.683594 7.835938 15.679688 L 9.839844 15.679688 C 9.992188 15.683594 10.117188 15.566406 10.117188 15.414062 C 10.117188 15.265625 9.992188 15.140625 9.84375 15.144531 Z M 18.226562 16.742188 L 18.222656 18.953125 C 18.222656 18.957031 18.222656 18.960938 18.222656 18.964844 C 18.21875 19.222656 17.886719 19.320312 17.738281 19.113281 C 17.613281 18.996094 17.441406 18.925781 17.253906 18.925781 C 16.851562 18.925781 16.527344 19.246094 16.527344 19.652344 C 16.527344 20.058594 16.851562 20.378906 17.253906 20.378906 C 17.441406 20.378906 17.609375 20.308594 17.738281 20.195312 C 17.886719 19.980469 18.222656 20.085938 18.222656 20.347656 C 18.222656 20.351562 18.222656 20.355469 18.222656 20.355469 C 18.222656 21.566406 18.226562 22.785156 18.230469 23.992188 L 19.800781 23.992188 C 19.859375 23.472656 20.042969 23 20.339844 22.574219 C 20.691406 22.070312 21.152344 21.605469 21.640625 21.085938 C 22.613281 20.050781 23.6875 18.820312 24.230469 16.796875 C 24.234375 16.78125 24.238281 16.757812 24.242188 16.742188 L 22.519531 16.742188 C 22.570312 16.878906 22.597656 17.023438 22.597656 17.179688 C 22.597656 17.871094 22.03125 18.4375 21.339844 18.4375 C 20.648438 18.4375 20.078125 17.871094 20.078125 17.179688 C 20.078125 17.023438 20.109375 16.878906 20.15625 16.742188 Z M 10.121094 17.246094 C 10.09375 17.246094 10.070312 17.25 10.046875 17.257812 L 8.113281 17.773438 C 7.96875 17.8125 7.882812 17.957031 7.921875 18.101562 C 7.960938 18.246094 8.109375 18.328125 8.25 18.289062 L 10.1875 17.769531 C 10.492188 17.695312 10.433594 17.246094 10.121094 17.246094 Z M 10.941406 19.203125 C 10.890625 19.203125 10.839844 19.214844 10.792969 19.242188 L 9.058594 20.242188 C 8.929688 20.3125 8.878906 20.480469 8.957031 20.609375 C 9.03125 20.742188 9.199219 20.78125 9.324219 20.703125 L 11.0625 19.703125 C 11.296875 19.570312 11.210938 19.214844 10.941406 19.203125 Z M 12.214844 20.882812 C 12.144531 20.886719 12.078125 20.914062 12.03125 20.964844 L 10.613281 22.382812 C 10.503906 22.484375 10.503906 22.65625 10.605469 22.761719 C 10.714844 22.871094 10.886719 22.867188 10.992188 22.757812 L 12.40625 21.34375 C 12.582031 21.171875 12.457031 20.878906 12.214844 20.882812 Z M 15.828125 24.523438 C 15.578125 24.523438 15.386719 24.71875 15.386719 24.96875 C 15.386719 25.21875 15.578125 25.414062 15.828125 25.414062 L 20.085938 25.414062 C 20.335938 25.414062 20.527344 25.21875 20.527344 24.96875 C 20.527344 24.71875 20.335938 24.523438 20.085938 24.523438 Z M 15.914062 25.945312 L 15.9375 28.035156 C 15.949219 29.152344 16.832031 30.039062 17.957031 30.039062 C 19.078125 30.039062 19.960938 29.152344 19.976562 28.035156 L 20 25.945312 Z M 16.957031 27.734375 L 18.957031 27.734375 C 19.105469 27.734375 19.226562 27.851562 19.226562 28 C 19.226562 28.148438 19.105469 28.269531 18.957031 28.265625 L 16.957031 28.265625 C 16.808594 28.269531 16.6875 28.148438 16.6875 28 C 16.6875 27.851562 16.808594 27.734375 16.957031 27.734375 Z M 16.957031 27.734375 " fill-opacity="1" fill-rule="nonzero"/></g></svg>