<svg xmlns="http://www.w3.org/2000/svg" xmlns:xlink="http://www.w3.org/1999/xlink" width="48" zoomAndPan="magnify" viewBox="0 0 36 36.000001" height="48" preserveAspectRatio="xMidYMid meet" version="1.0"><defs><clipPath id="3450196c58"><path d="M 0.488281 0 L 35.511719 0 L 35.511719 35.027344 L 0.488281 35.027344 Z M 0.488281 0 " clip-rule="nonzero"/></clipPath><clipPath id="85c1b141fe"><path d="M 5.742188 5.621094 L 30.550781 5.621094 L 30.550781 29.703125 L 5.742188 29.703125 Z M 5.742188 5.621094 " clip-rule="nonzero"/></clipPath></defs><g clip-path="url(#3450196c58)"><path fill="#ffffff" d="M 0.488281 0 L 35.511719 0 L 35.511719 35.027344 L 0.488281 35.027344 Z M 0.488281 0 " fill-opacity="1" fill-rule="nonzero"/><path fill="#ffffff" d="M 0.488281 0 L 35.511719 0 L 35.511719 35.027344 L 0.488281 35.027344 Z M 0.488281 0 " fill-opacity="1" fill-rule="nonzero"/></g><g clip-path="url(#85c1b141fe)"><path fill="#57aaf9" d="M 6.25 26.558594 L 6.222656 26.558594 C 5.941406 26.558594 5.746094 26.363281 5.746094 26.109375 L 5.746094 21.058594 C 5.746094 20.777344 5.859375 20.527344 6.054688 20.328125 L 10.125 16.34375 C 10.320312 16.148438 10.546875 16.0625 10.828125 16.0625 L 14.054688 16.0625 C 14 17.972656 13.96875 19.65625 13.96875 21.113281 L 30.25 21.113281 L 30.25 26.558594 L 28.03125 26.558594 C 28.03125 24.59375 26.460938 23.023438 24.496094 23.023438 C 22.53125 23.023438 20.957031 24.59375 20.957031 26.558594 L 13.828125 26.558594 C 13.828125 24.59375 12.230469 23.023438 10.292969 23.023438 C 8.328125 23.023438 6.730469 24.59375 6.730469 26.558594 Z M 10.292969 23.753906 C 11.835938 23.753906 13.101562 25.015625 13.101562 26.558594 C 13.101562 28.132812 11.835938 29.394531 10.292969 29.394531 C 8.722656 29.394531 7.457031 28.132812 7.457031 26.558594 C 7.457031 25.015625 8.722656 23.753906 10.292969 23.753906 Z M 24.496094 23.753906 C 26.066406 23.753906 27.332031 25.015625 27.332031 26.558594 C 27.332031 28.132812 26.066406 29.394531 24.496094 29.394531 C 22.921875 29.394531 21.660156 28.132812 21.660156 26.558594 C 21.660156 25.015625 22.921875 23.753906 24.496094 23.753906 Z M 15.933594 9.945312 L 16.945312 9.945312 C 16.945312 10.027344 16.945312 10.140625 16.945312 10.253906 C 16.945312 13.117188 19.273438 15.445312 22.136719 15.445312 C 25.027344 15.445312 27.359375 13.117188 27.359375 10.253906 C 27.359375 10.140625 27.359375 10.027344 27.332031 9.945312 L 28.144531 9.945312 C 28.675781 9.945312 29.097656 10.367188 29.097656 10.898438 L 29.097656 19.488281 C 29.097656 20.019531 28.675781 20.441406 28.144531 20.441406 L 15.933594 20.441406 C 15.402344 20.441406 14.980469 20.019531 14.980469 19.488281 L 14.980469 10.898438 C 14.980469 10.367188 15.402344 9.945312 15.933594 9.945312 Z M 22.136719 5.621094 C 24.691406 5.621094 26.769531 7.699219 26.769531 10.253906 C 26.769531 12.808594 24.691406 14.882812 22.136719 14.882812 C 19.582031 14.882812 17.507812 12.808594 17.507812 10.253906 C 17.507812 7.699219 19.582031 5.621094 22.136719 5.621094 Z M 21.800781 7.894531 L 21.800781 7.277344 L 22.503906 7.277344 L 22.503906 7.894531 C 23.261719 7.980469 23.792969 8.34375 24.019531 9.019531 L 22.894531 9.355469 C 22.753906 9.046875 22.53125 8.90625 22.164062 8.90625 C 21.886719 8.90625 21.714844 8.988281 21.714844 9.1875 C 21.714844 9.269531 21.746094 9.328125 21.800781 9.355469 C 21.855469 9.410156 21.996094 9.46875 22.222656 9.523438 C 22.753906 9.636719 23.121094 9.71875 23.34375 9.832031 C 23.570312 9.917969 23.765625 10.054688 23.90625 10.28125 C 24.074219 10.503906 24.128906 10.757812 24.128906 11.039062 C 24.128906 11.460938 23.988281 11.796875 23.710938 12.078125 C 23.402344 12.359375 23.007812 12.527344 22.503906 12.582031 L 22.503906 13.226562 L 21.800781 13.226562 L 21.800781 12.582031 C 20.929688 12.5 20.371094 12.019531 20.144531 11.207031 L 21.40625 10.984375 C 21.519531 11.347656 21.800781 11.542969 22.25 11.542969 C 22.585938 11.542969 22.753906 11.433594 22.753906 11.261719 C 22.753906 11.152344 22.699219 11.066406 22.644531 11.011719 C 22.558594 10.953125 22.417969 10.925781 22.195312 10.871094 C 21.40625 10.703125 20.902344 10.503906 20.679688 10.253906 C 20.480469 10 20.371094 9.71875 20.371094 9.382812 C 20.371094 9.019531 20.480469 8.710938 20.734375 8.429688 C 20.957031 8.148438 21.324219 7.980469 21.800781 7.894531 Z M 24.496094 25.183594 C 25.253906 25.183594 25.871094 25.800781 25.871094 26.558594 C 25.871094 27.316406 25.253906 27.9375 24.496094 27.9375 C 23.738281 27.9375 23.121094 27.316406 23.121094 26.558594 C 23.121094 25.800781 23.738281 25.183594 24.496094 25.183594 Z M 10.292969 25.183594 C 11.050781 25.183594 11.667969 25.800781 11.667969 26.558594 C 11.667969 27.316406 11.050781 27.9375 10.292969 27.9375 C 9.507812 27.9375 8.890625 27.316406 8.890625 26.558594 C 8.890625 25.800781 9.507812 25.183594 10.292969 25.183594 Z M 9.984375 17.886719 L 11.921875 17.886719 C 12.171875 17.886719 12.398438 18.113281 12.398438 18.363281 L 12.398438 21.085938 C 12.398438 21.339844 12.171875 21.535156 11.921875 21.535156 L 8.1875 21.535156 C 7.933594 21.535156 7.738281 21.339844 7.738281 21.085938 L 7.738281 20.105469 C 7.738281 19.992188 7.765625 19.878906 7.878906 19.796875 L 9.675781 18.027344 C 9.761719 17.945312 9.84375 17.886719 9.984375 17.886719 Z M 9.984375 17.886719 " fill-opacity="1" fill-rule="evenodd"/></g></svg>