<svg xmlns="http://www.w3.org/2000/svg" xmlns:xlink="http://www.w3.org/1999/xlink" width="48" zoomAndPan="magnify" viewBox="0 0 36 36.000001" height="48" preserveAspectRatio="xMidYMid meet" version="1.0"><defs><clipPath id="ed3629d3c5"><path d="M 0.488281 0 L 35.511719 0 L 35.511719 35.027344 L 0.488281 35.027344 Z M 0.488281 0 " clip-rule="nonzero"/></clipPath><clipPath id="1da082f905"><path d="M 5.460938 4 L 30.269531 4 L 30.269531 31.730469 L 5.460938 31.730469 Z M 5.460938 4 " clip-rule="nonzero"/></clipPath></defs><g clip-path="url(#ed3629d3c5)"><path fill="#ffffff" d="M 0.488281 0 L 35.511719 0 L 35.511719 35.027344 L 0.488281 35.027344 Z M 0.488281 0 " fill-opacity="1" fill-rule="nonzero"/><path fill="#ffffff" d="M 0.488281 0 L 35.511719 0 L 35.511719 35.027344 L 0.488281 35.027344 Z M 0.488281 0 " fill-opacity="1" fill-rule="nonzero"/></g><g clip-path="url(#1da082f905)"><path fill="#57aaf9" d="M 30.519531 17.945312 L 30.511719 18.339844 C 30.507812 18.472656 30.492188 18.601562 30.484375 18.734375 L 30.460938 19.109375 C 30.445312 19.234375 30.433594 19.359375 30.417969 19.484375 C 30.324219 20.191406 30.183594 20.894531 29.980469 21.582031 C 29.734375 22.441406 29.40625 23.277344 29 24.074219 C 28.980469 24.109375 28.960938 24.148438 28.941406 24.1875 L 28.894531 24.277344 L 28.84375 24.367188 L 28.746094 24.546875 C 28.675781 24.664062 28.609375 24.785156 28.539062 24.902344 L 28.320312 25.25 L 28.207031 25.421875 L 28.089844 25.589844 L 27.851562 25.929688 C 27.773438 26.039062 27.6875 26.144531 27.601562 26.253906 C 27.4375 26.472656 27.253906 26.679688 27.078125 26.886719 C 26.988281 26.996094 26.886719 27.097656 26.789062 27.199219 C 26.6875 27.304688 26.59375 27.410156 26.492188 27.507812 L 26.183594 27.804688 C 26.132812 27.851562 26.082031 27.902344 26.027344 27.949219 L 25.867188 28.089844 C 25.113281 28.753906 24.292969 29.335938 23.414062 29.824219 C 23.363281 29.855469 23.304688 29.882812 23.25 29.914062 L 23.078125 30 L 22.738281 30.171875 L 22.394531 30.324219 L 22.21875 30.402344 L 22.132812 30.441406 L 22.042969 30.476562 L 21.542969 30.671875 C 21.375 30.734375 21.203125 30.789062 21.03125 30.84375 C 20.863281 30.90625 20.691406 30.949219 20.515625 31 L 20.257812 31.070312 C 20.171875 31.097656 20.082031 31.113281 19.996094 31.132812 L 19.671875 31.203125 C 19.617188 31.214844 19.566406 31.226562 19.511719 31.238281 L 19.347656 31.265625 C 19.171875 31.292969 18.996094 31.328125 18.820312 31.355469 L 18.285156 31.421875 C 17.855469 31.464844 17.425781 31.5 16.996094 31.488281 C 16.941406 31.488281 16.890625 31.492188 16.835938 31.492188 C 16.761719 31.496094 16.683594 31.492188 16.609375 31.488281 L 16.378906 31.484375 L 15.921875 31.46875 C 15.769531 31.460938 15.617188 31.441406 15.464844 31.429688 C 15.3125 31.414062 15.160156 31.402344 15.007812 31.382812 C 14.34375 31.28125 13.679688 31.15625 13.039062 30.960938 C 12.957031 30.9375 12.878906 30.910156 12.796875 30.886719 C 11.882812 30.605469 11.007812 30.21875 10.191406 29.742188 C 10.078125 29.671875 9.964844 29.601562 9.859375 29.527344 C 9.675781 29.414062 9.503906 29.28125 9.320312 29.15625 C 9.230469 29.09375 9.140625 29.03125 9.050781 28.96875 C 8.960938 28.902344 8.875 28.832031 8.785156 28.761719 C 8.707031 28.703125 8.628906 28.640625 8.550781 28.578125 C 8.472656 28.515625 8.394531 28.457031 8.320312 28.386719 C 8.171875 28.253906 8.027344 28.121094 7.886719 27.988281 L 7.8125 27.921875 L 7.746094 27.851562 L 7.609375 27.710938 C 7.519531 27.617188 7.429688 27.523438 7.335938 27.429688 C 7.3125 27.402344 7.285156 27.375 7.257812 27.34375 L 7.183594 27.257812 L 7.03125 27.078125 C 6.933594 26.960938 6.832031 26.847656 6.738281 26.726562 C 6.617188 26.5625 6.511719 26.402344 6.398438 26.242188 C 6.382812 26.21875 6.363281 26.191406 6.363281 26.179688 C 6.335938 26.09375 6.257812 25.953125 6.179688 25.816406 C 6.167969 25.796875 6.160156 25.777344 6.152344 25.757812 C 6.074219 25.578125 6.074219 25.578125 5.960938 25.390625 C 6.070312 25.511719 6.171875 25.636719 6.261719 25.703125 C 6.285156 25.71875 6.335938 25.785156 6.371094 25.832031 C 6.410156 25.882812 6.445312 25.925781 6.480469 25.96875 C 6.519531 26.007812 6.558594 26.042969 6.597656 26.074219 C 6.683594 26.136719 6.777344 26.242188 6.875 26.347656 C 6.9375 26.417969 6.996094 26.488281 7.0625 26.550781 C 7.125 26.617188 7.191406 26.679688 7.257812 26.738281 C 7.324219 26.800781 7.386719 26.859375 7.453125 26.914062 C 7.519531 26.972656 7.582031 27.027344 7.652344 27.078125 C 7.714844 27.121094 7.785156 27.179688 7.847656 27.238281 C 7.960938 27.34375 8.074219 27.449219 8.191406 27.546875 C 8.308594 27.644531 8.429688 27.742188 8.546875 27.84375 C 8.605469 27.890625 8.664062 27.9375 8.71875 27.984375 C 8.777344 28.03125 8.839844 28.074219 8.902344 28.117188 C 9.023438 28.203125 9.144531 28.285156 9.269531 28.367188 C 9.3125 28.398438 9.351562 28.425781 9.398438 28.453125 L 9.53125 28.535156 C 9.617188 28.585938 9.707031 28.640625 9.792969 28.695312 C 9.882812 28.75 9.96875 28.804688 10.058594 28.855469 C 10.152344 28.90625 10.242188 28.957031 10.332031 29.007812 L 10.574219 29.144531 L 10.695312 29.210938 C 10.734375 29.230469 10.777344 29.25 10.816406 29.269531 L 11.3125 29.507812 L 11.394531 29.546875 L 11.476562 29.578125 C 11.53125 29.601562 11.585938 29.625 11.644531 29.644531 C 11.734375 29.683594 11.828125 29.71875 11.914062 29.746094 C 11.992188 29.769531 12.066406 29.800781 12.144531 29.824219 C 12.222656 29.851562 12.304688 29.875 12.382812 29.902344 C 12.472656 29.933594 12.558594 29.964844 12.648438 29.996094 C 12.691406 30.011719 12.734375 30.023438 12.78125 30.039062 L 12.84375 30.058594 C 12.867188 30.0625 12.890625 30.066406 12.910156 30.070312 C 12.929688 30.074219 12.949219 30.078125 12.96875 30.085938 C 13.15625 30.140625 13.339844 30.1875 13.523438 30.234375 C 13.617188 30.257812 13.710938 30.265625 13.800781 30.285156 C 13.894531 30.300781 13.988281 30.316406 14.078125 30.332031 C 14.191406 30.347656 14.300781 30.375 14.410156 30.394531 L 14.746094 30.445312 C 14.839844 30.460938 14.941406 30.480469 15.035156 30.492188 C 15.132812 30.507812 15.234375 30.511719 15.335938 30.519531 L 15.9375 30.566406 C 16.039062 30.566406 16.136719 30.566406 16.238281 30.570312 C 17.199219 30.589844 18.167969 30.535156 19.113281 30.351562 C 19.363281 30.3125 19.605469 30.246094 19.847656 30.195312 C 19.972656 30.167969 20.089844 30.132812 20.210938 30.097656 L 20.574219 30 C 20.695312 29.960938 20.816406 29.917969 20.9375 29.878906 C 21.054688 29.835938 21.179688 29.796875 21.296875 29.746094 L 21.773438 29.558594 L 22.238281 29.34375 C 22.316406 29.3125 22.394531 29.273438 22.46875 29.234375 L 22.699219 29.117188 C 22.773438 29.078125 22.851562 29.039062 22.925781 28.996094 L 23.148438 28.871094 C 23.738281 28.527344 24.308594 28.148438 24.835938 27.714844 C 25.464844 27.207031 26.042969 26.640625 26.566406 26.023438 L 26.679688 25.890625 C 26.71875 25.84375 26.753906 25.796875 26.789062 25.75 L 27.003906 25.472656 C 27.078125 25.378906 27.140625 25.28125 27.210938 25.183594 L 27.414062 24.894531 C 27.8125 24.300781 28.164062 23.671875 28.460938 23.019531 L 28.558594 22.804688 L 28.609375 22.695312 L 28.652344 22.582031 L 28.828125 22.140625 C 28.882812 21.988281 28.929688 21.839844 28.984375 21.6875 C 29.007812 21.613281 29.035156 21.539062 29.058594 21.460938 L 29.121094 21.230469 C 29.171875 21.0625 29.21875 20.890625 29.253906 20.71875 C 29.273438 20.632812 29.296875 20.546875 29.316406 20.460938 C 29.335938 20.375 29.359375 20.292969 29.375 20.207031 C 29.433594 19.917969 29.488281 19.628906 29.515625 19.335938 L 29.539062 19.117188 L 29.554688 19.007812 L 29.5625 18.898438 C 29.570312 18.753906 29.582031 18.609375 29.59375 18.460938 C 29.597656 18.417969 29.601562 18.375 29.605469 18.328125 L 29.609375 18.195312 L 29.613281 17.933594 C 29.617188 17.84375 29.617188 17.753906 29.617188 17.667969 L 29.609375 17.402344 C 29.605469 17.046875 29.566406 16.699219 29.535156 16.347656 C 29.496094 16.042969 29.464844 15.734375 29.402344 15.433594 L 29.363281 15.203125 L 29.34375 15.089844 L 29.316406 14.980469 L 29.210938 14.527344 C 29.175781 14.375 29.125 14.226562 29.085938 14.074219 C 29.0625 13.996094 29.042969 13.914062 29.015625 13.835938 L 28.9375 13.597656 C 28.882812 13.441406 28.835938 13.28125 28.773438 13.125 C 28.714844 12.96875 28.65625 12.8125 28.59375 12.660156 L 28.390625 12.203125 C 28.101562 11.582031 27.765625 10.980469 27.382812 10.410156 L 27.167969 10.101562 C 27.128906 10.050781 27.097656 10 27.058594 9.949219 L 26.941406 9.800781 L 26.710938 9.503906 C 26.628906 9.410156 26.546875 9.316406 26.46875 9.21875 L 26.320312 9.046875 C 26.269531 8.988281 26.214844 8.933594 26.164062 8.878906 C 26.058594 8.765625 25.953125 8.65625 25.847656 8.546875 C 25.628906 8.335938 25.414062 8.117188 25.183594 7.917969 L 24.960938 7.722656 L 24.5 7.355469 C 24.421875 7.296875 24.339844 7.242188 24.261719 7.183594 L 24.027344 7.015625 C 23.949219 6.957031 23.867188 6.90625 23.789062 6.855469 C 23.625 6.75 23.46875 6.640625 23.300781 6.546875 C 23.199219 6.488281 23.097656 6.429688 22.992188 6.371094 C 22.25 5.964844 21.472656 5.617188 20.664062 5.359375 C 20.605469 5.339844 20.546875 5.324219 20.488281 5.308594 L 20.3125 5.257812 C 20.191406 5.222656 20.074219 5.1875 19.957031 5.15625 L 19.554688 5.0625 L 19.351562 5.011719 L 19.148438 4.976562 L 18.902344 4.929688 C 18.816406 4.914062 18.734375 4.898438 18.652344 4.886719 L 18.152344 4.824219 C 18.074219 4.808594 17.996094 4.804688 17.917969 4.800781 L 17.679688 4.78125 L 17.445312 4.761719 C 17.367188 4.753906 17.289062 4.753906 17.207031 4.753906 L 16.734375 4.738281 L 16.261719 4.75 C 16.1875 4.75 16.113281 4.75 16.039062 4.753906 L 15.816406 4.773438 C 15.667969 4.785156 15.519531 4.792969 15.371094 4.808594 L 14.929688 4.863281 C 14.859375 4.875 14.785156 4.882812 14.710938 4.894531 L 14.492188 4.933594 C 14.335938 4.964844 14.179688 4.980469 14.027344 5.015625 C 13.921875 5.039062 13.816406 5.066406 13.714844 5.09375 C 13.601562 5.121094 13.492188 5.144531 13.386719 5.175781 C 13.28125 5.203125 13.175781 5.226562 13.070312 5.242188 C 13.023438 5.246094 12.960938 5.261719 12.90625 5.277344 L 12.808594 5.304688 L 12.714844 5.335938 L 12.523438 5.402344 C 12.398438 5.445312 12.269531 5.480469 12.144531 5.527344 C 11.992188 5.582031 11.835938 5.652344 11.679688 5.714844 C 11.578125 5.75 11.484375 5.796875 11.386719 5.839844 L 11.09375 5.972656 C 10.996094 6.011719 10.902344 6.0625 10.804688 6.109375 C 10.710938 6.160156 10.617188 6.207031 10.519531 6.253906 C 10.425781 6.296875 10.335938 6.351562 10.242188 6.40625 L 9.964844 6.5625 C 9.871094 6.613281 9.78125 6.671875 9.691406 6.726562 C 9.601562 6.78125 9.507812 6.835938 9.417969 6.894531 C 9.324219 6.949219 9.230469 7.015625 9.140625 7.085938 C 9.046875 7.152344 8.953125 7.222656 8.863281 7.292969 C 8.808594 7.332031 8.757812 7.375 8.707031 7.417969 L 8.554688 7.546875 L 8.398438 7.675781 C 8.347656 7.71875 8.296875 7.761719 8.25 7.808594 C 8.175781 7.875 8.097656 7.941406 8.03125 7.976562 C 7.976562 8.003906 7.917969 8.054688 7.859375 8.109375 C 7.71875 8.234375 7.582031 8.367188 7.445312 8.496094 C 7.410156 8.53125 7.371094 8.566406 7.339844 8.601562 C 7.144531 8.816406 6.949219 9.027344 6.757812 9.246094 C 6.730469 9.277344 6.699219 9.308594 6.671875 9.34375 C 6.6875 9.339844 6.707031 9.335938 6.722656 9.335938 C 6.753906 9.332031 6.78125 9.332031 6.8125 9.328125 C 6.820312 9.328125 6.828125 9.324219 6.835938 9.324219 C 6.898438 9.308594 6.964844 9.308594 7.027344 9.296875 C 7.046875 9.292969 7.066406 9.289062 7.082031 9.285156 C 7.101562 9.28125 7.125 9.28125 7.144531 9.28125 C 7.171875 9.277344 7.195312 9.273438 7.222656 9.269531 C 7.269531 9.265625 7.316406 9.261719 7.363281 9.253906 C 7.410156 9.246094 7.453125 9.238281 7.496094 9.230469 C 7.507812 9.230469 7.519531 9.234375 7.53125 9.230469 C 7.542969 9.230469 7.550781 9.226562 7.554688 9.222656 C 7.574219 9.214844 7.589844 9.214844 7.609375 9.238281 C 7.613281 9.242188 7.621094 9.246094 7.625 9.246094 C 7.644531 9.246094 7.664062 9.242188 7.683594 9.246094 C 7.699219 9.25 7.710938 9.242188 7.722656 9.238281 C 7.753906 9.238281 7.789062 9.238281 7.820312 9.238281 C 7.855469 9.242188 7.886719 9.238281 7.921875 9.25 C 7.9375 9.257812 7.953125 9.25 7.972656 9.242188 C 7.988281 9.234375 8.007812 9.226562 8.027344 9.21875 C 8.035156 9.214844 8.042969 9.214844 8.050781 9.230469 C 8.058594 9.246094 8.0625 9.246094 8.070312 9.246094 C 8.085938 9.246094 8.097656 9.246094 8.113281 9.246094 C 8.117188 9.25 8.121094 9.25 8.125 9.246094 C 8.144531 9.230469 8.167969 9.234375 8.1875 9.234375 C 8.203125 9.234375 8.21875 9.242188 8.234375 9.257812 C 8.25 9.269531 8.261719 9.28125 8.273438 9.292969 C 8.277344 9.296875 8.28125 9.300781 8.285156 9.308594 C 8.28125 9.328125 8.269531 9.332031 8.265625 9.339844 C 8.257812 9.34375 8.25 9.351562 8.242188 9.359375 C 8.246094 9.359375 8.246094 9.363281 8.246094 9.363281 C 8.25 9.363281 8.253906 9.367188 8.253906 9.378906 C 8.257812 9.382812 8.253906 9.386719 8.253906 9.390625 C 8.253906 9.402344 8.253906 9.410156 8.253906 9.421875 C 8.261719 9.441406 8.269531 9.429688 8.277344 9.445312 C 8.285156 9.460938 8.28125 9.464844 8.277344 9.46875 C 8.257812 9.503906 8.230469 9.519531 8.207031 9.539062 C 8.175781 9.566406 8.140625 9.589844 8.109375 9.625 C 8.070312 9.660156 8.035156 9.6875 7.996094 9.71875 C 7.972656 9.738281 7.945312 9.761719 7.917969 9.78125 C 7.886719 9.804688 7.855469 9.824219 7.820312 9.847656 C 7.789062 9.871094 7.75 9.886719 7.714844 9.902344 C 7.699219 9.90625 7.6875 9.910156 7.671875 9.914062 C 7.621094 9.925781 7.570312 9.941406 7.523438 9.957031 C 7.496094 9.964844 7.472656 9.96875 7.445312 9.976562 C 7.4375 9.976562 7.429688 9.980469 7.421875 9.984375 C 7.40625 9.992188 7.394531 10 7.375 9.992188 C 7.371094 9.988281 7.367188 9.992188 7.363281 9.992188 C 7.339844 10.015625 7.308594 10.011719 7.28125 10.019531 C 7.257812 10.03125 7.230469 10.035156 7.207031 10.042969 C 7.171875 10.050781 7.140625 10.054688 7.109375 10.066406 C 7.082031 10.074219 7.050781 10.085938 7.023438 10.09375 C 7.007812 10.097656 6.988281 10.101562 6.972656 10.105469 C 6.933594 10.117188 6.894531 10.128906 6.851562 10.136719 C 6.800781 10.148438 6.75 10.160156 6.695312 10.167969 L 6.4375 10.222656 L 6.390625 10.230469 C 6.386719 10.234375 6.378906 10.234375 6.375 10.234375 C 6.339844 10.253906 6.300781 10.257812 6.265625 10.269531 C 6.238281 10.277344 6.214844 10.289062 6.1875 10.296875 C 6.179688 10.300781 6.171875 10.304688 6.164062 10.304688 C 6.136719 10.304688 6.113281 10.3125 6.089844 10.320312 C 6.0625 10.332031 6.03125 10.335938 6.003906 10.34375 L 5.964844 10.351562 C 5.738281 10.398438 5.515625 10.253906 5.46875 10.023438 C 5.460938 9.984375 5.457031 9.945312 5.460938 9.90625 L 5.464844 9.890625 C 5.464844 9.863281 5.46875 9.839844 5.46875 9.816406 C 5.46875 9.796875 5.464844 9.777344 5.464844 9.761719 C 5.46875 9.710938 5.476562 9.660156 5.476562 9.609375 C 5.476562 9.546875 5.472656 9.480469 5.46875 9.417969 L 5.46875 9.40625 C 5.472656 9.332031 5.476562 9.253906 5.476562 9.175781 C 5.476562 9.132812 5.484375 9.09375 5.484375 9.054688 C 5.488281 8.984375 5.492188 8.910156 5.5 8.839844 C 5.5 8.804688 5.507812 8.769531 5.511719 8.734375 C 5.519531 8.683594 5.527344 8.632812 5.535156 8.582031 C 5.539062 8.566406 5.546875 8.554688 5.546875 8.539062 C 5.550781 8.511719 5.554688 8.488281 5.558594 8.460938 C 5.5625 8.433594 5.5625 8.402344 5.582031 8.371094 C 5.582031 8.367188 5.582031 8.363281 5.582031 8.363281 C 5.585938 8.320312 5.589844 8.273438 5.597656 8.230469 C 5.605469 8.183594 5.621094 8.136719 5.632812 8.09375 C 5.632812 8.085938 5.636719 8.082031 5.636719 8.074219 C 5.648438 8.007812 5.675781 7.941406 5.714844 7.878906 C 5.71875 7.867188 5.726562 7.859375 5.738281 7.851562 C 5.769531 7.824219 5.785156 7.792969 5.804688 7.765625 C 5.820312 7.738281 5.835938 7.710938 5.863281 7.683594 C 5.882812 7.667969 5.898438 7.648438 5.914062 7.632812 C 5.933594 7.613281 5.953125 7.589844 5.976562 7.570312 C 5.996094 7.558594 6.019531 7.546875 6.039062 7.535156 C 6.042969 7.535156 6.046875 7.53125 6.054688 7.53125 C 6.09375 7.527344 6.113281 7.519531 6.136719 7.511719 C 6.140625 7.507812 6.144531 7.507812 6.152344 7.507812 C 6.199219 7.496094 6.199219 7.496094 6.222656 7.484375 C 6.234375 7.496094 6.238281 7.507812 6.269531 7.519531 C 6.277344 7.523438 6.277344 7.53125 6.277344 7.535156 C 6.277344 7.542969 6.28125 7.550781 6.300781 7.5625 C 6.320312 7.570312 6.328125 7.582031 6.328125 7.59375 C 6.332031 7.621094 6.347656 7.648438 6.382812 7.679688 C 6.390625 7.683594 6.398438 7.691406 6.398438 7.699219 C 6.394531 7.722656 6.398438 7.746094 6.394531 7.769531 C 6.386719 7.789062 6.394531 7.8125 6.402344 7.835938 C 6.414062 7.867188 6.421875 7.898438 6.417969 7.929688 C 6.414062 7.957031 6.417969 7.988281 6.417969 8.015625 C 6.417969 8.023438 6.417969 8.03125 6.417969 8.042969 C 6.421875 8.050781 6.421875 8.058594 6.429688 8.066406 C 6.441406 8.078125 6.445312 8.089844 6.441406 8.105469 C 6.441406 8.117188 6.4375 8.132812 6.453125 8.148438 C 6.453125 8.148438 6.453125 8.148438 6.453125 8.152344 C 6.441406 8.179688 6.46875 8.210938 6.480469 8.242188 C 6.488281 8.257812 6.480469 8.273438 6.480469 8.292969 C 6.480469 8.300781 6.476562 8.304688 6.480469 8.3125 C 6.488281 8.34375 6.488281 8.375 6.492188 8.40625 C 6.503906 8.480469 6.484375 8.554688 6.484375 8.628906 C 6.484375 8.664062 6.476562 8.703125 6.46875 8.738281 C 6.460938 8.757812 6.46875 8.777344 6.464844 8.796875 L 6.4375 9.109375 C 6.433594 9.144531 6.433594 9.175781 6.429688 9.210938 C 6.5625 9.03125 6.707031 8.851562 6.855469 8.675781 C 6.9375 8.574219 7.023438 8.476562 7.113281 8.378906 L 7.378906 8.09375 C 7.554688 7.898438 7.746094 7.71875 7.933594 7.535156 C 8.03125 7.433594 8.140625 7.339844 8.246094 7.246094 C 8.355469 7.152344 8.460938 7.054688 8.574219 6.960938 L 8.914062 6.691406 C 8.96875 6.648438 9.027344 6.601562 9.085938 6.558594 L 9.261719 6.433594 C 9.425781 6.316406 9.589844 6.191406 9.761719 6.085938 L 10.019531 5.917969 L 10.148438 5.835938 C 10.191406 5.808594 10.234375 5.785156 10.28125 5.761719 C 10.386719 5.699219 10.496094 5.636719 10.605469 5.574219 C 10.660156 5.542969 10.714844 5.511719 10.769531 5.484375 L 10.9375 5.398438 L 11.277344 5.230469 C 11.332031 5.199219 11.390625 5.175781 11.445312 5.148438 L 11.621094 5.074219 C 11.742188 5.019531 11.863281 4.964844 11.988281 4.914062 C 12.113281 4.867188 12.238281 4.820312 12.367188 4.773438 C 12.617188 4.675781 12.878906 4.601562 13.136719 4.523438 C 13.183594 4.507812 13.230469 4.492188 13.277344 4.480469 L 13.417969 4.445312 C 13.515625 4.421875 13.613281 4.398438 13.707031 4.375 C 13.796875 4.355469 13.882812 4.332031 13.972656 4.3125 L 14.242188 4.261719 L 14.507812 4.210938 C 14.554688 4.203125 14.597656 4.195312 14.644531 4.1875 L 14.777344 4.167969 L 15.320312 4.09375 L 15.863281 4.046875 C 16.046875 4.027344 16.230469 4.027344 16.410156 4.023438 L 16.683594 4.015625 C 16.730469 4.011719 16.773438 4.011719 16.820312 4.015625 L 16.957031 4.015625 C 17.082031 4.019531 17.207031 4.023438 17.332031 4.023438 C 17.4375 4.019531 17.539062 4.023438 17.644531 4.03125 C 17.746094 4.039062 17.847656 4.050781 17.953125 4.0625 C 18 4.070312 18.058594 4.074219 18.105469 4.074219 C 18.308594 4.085938 18.511719 4.113281 18.710938 4.140625 C 18.761719 4.148438 18.8125 4.152344 18.863281 4.160156 L 19.011719 4.1875 C 19.113281 4.207031 19.214844 4.222656 19.3125 4.238281 C 19.496094 4.265625 19.671875 4.308594 19.851562 4.347656 L 20.117188 4.410156 C 20.207031 4.429688 20.292969 4.457031 20.382812 4.480469 C 20.601562 4.542969 20.828125 4.597656 21.042969 4.675781 C 21.261719 4.75 21.480469 4.820312 21.695312 4.90625 C 21.894531 4.984375 22.09375 5.054688 22.289062 5.144531 C 22.484375 5.234375 22.683594 5.3125 22.871094 5.414062 C 23.078125 5.519531 23.285156 5.621094 23.484375 5.738281 L 23.863281 5.953125 L 24.238281 6.1875 L 24.421875 6.304688 L 24.601562 6.429688 L 24.960938 6.683594 C 25.558594 7.128906 26.113281 7.625 26.632812 8.160156 C 27.066406 8.597656 27.457031 9.078125 27.828125 9.574219 L 28.097656 9.953125 C 28.1875 10.078125 28.265625 10.210938 28.351562 10.339844 L 28.476562 10.535156 C 28.519531 10.601562 28.554688 10.667969 28.59375 10.734375 L 28.824219 11.136719 C 28.925781 11.332031 29.027344 11.527344 29.128906 11.722656 C 29.164062 11.796875 29.195312 11.875 29.230469 11.949219 C 29.289062 12.070312 29.34375 12.1875 29.398438 12.304688 C 29.453125 12.425781 29.5 12.546875 29.546875 12.667969 L 29.621094 12.851562 C 29.644531 12.914062 29.667969 12.972656 29.6875 13.035156 L 29.816406 13.410156 C 29.882812 13.589844 29.933594 13.773438 29.992188 13.957031 L 30.074219 14.234375 C 30.097656 14.328125 30.121094 14.421875 30.144531 14.511719 C 30.171875 14.625 30.199219 14.738281 30.222656 14.847656 C 30.257812 15.023438 30.285156 15.199219 30.316406 15.375 C 30.332031 15.460938 30.351562 15.550781 30.363281 15.636719 C 30.375 15.726562 30.390625 15.8125 30.402344 15.902344 C 30.414062 16.007812 30.429688 16.109375 30.445312 16.214844 C 30.460938 16.316406 30.464844 16.421875 30.472656 16.527344 L 30.496094 16.84375 C 30.5 16.894531 30.507812 16.949219 30.507812 17 L 30.511719 17.15625 C 30.519531 17.421875 30.53125 17.683594 30.519531 17.945312 Z M 23.113281 9.496094 C 23.105469 9.632812 23.113281 9.777344 23.113281 9.917969 C 23.105469 10.273438 23.101562 10.628906 23.09375 10.984375 C 23.085938 11.339844 23.082031 11.695312 23.0625 12.046875 C 23.054688 12.230469 23.0625 12.425781 23.0625 12.617188 C 23.070312 12.839844 23.074219 13.0625 23.078125 13.285156 C 23.082031 13.371094 23.078125 13.453125 23.058594 13.515625 C 23.042969 13.566406 23.042969 13.628906 23.042969 13.695312 L 23.03125 14.167969 C 23.03125 14.207031 23.03125 14.25 23.03125 14.289062 C 23.042969 14.53125 23.035156 14.769531 23.03125 15.011719 C 23.027344 15.171875 23.019531 15.320312 23 15.464844 C 22.996094 15.496094 22.992188 15.523438 22.988281 15.554688 C 23.132812 15.550781 23.277344 15.550781 23.421875 15.546875 L 24.097656 15.542969 L 24.722656 15.53125 C 24.835938 15.53125 24.945312 15.527344 25.058594 15.527344 L 25.273438 15.527344 L 25.328125 15.523438 L 25.386719 15.523438 L 25.46875 15.527344 C 25.496094 15.53125 25.523438 15.535156 25.550781 15.539062 C 25.769531 15.574219 25.972656 15.679688 26.128906 15.835938 C 26.328125 16.03125 26.445312 16.308594 26.445312 16.589844 L 26.445312 17.132812 L 26.449219 18.941406 L 26.449219 19.261719 C 26.449219 19.300781 26.449219 19.34375 26.453125 19.382812 C 26.464844 19.636719 26.460938 19.890625 26.464844 20.148438 C 26.464844 20.335938 26.472656 20.519531 26.480469 20.707031 C 26.480469 20.761719 26.484375 20.820312 26.480469 20.875 C 26.476562 20.960938 26.476562 21.046875 26.480469 21.132812 L 26.480469 21.167969 L 26.476562 21.21875 C 26.476562 21.25 26.476562 21.285156 26.46875 21.320312 C 26.460938 21.390625 26.445312 21.457031 26.425781 21.523438 C 26.328125 21.835938 26.082031 22.097656 25.773438 22.214844 C 25.675781 22.253906 25.574219 22.273438 25.472656 22.285156 L 25.394531 22.289062 L 25.375 22.292969 L 24.859375 22.292969 C 24.738281 22.296875 24.613281 22.304688 24.492188 22.304688 C 24.144531 22.304688 23.800781 22.304688 23.453125 22.308594 C 23.273438 22.308594 23.09375 22.3125 22.914062 22.316406 C 22.917969 22.332031 22.917969 22.34375 22.917969 22.359375 C 22.917969 22.460938 22.921875 22.550781 22.941406 22.628906 C 22.964844 22.71875 22.96875 22.832031 22.972656 22.953125 C 22.980469 23.261719 22.996094 23.558594 23.035156 23.835938 C 23.042969 23.898438 23.050781 23.976562 23.050781 24.046875 C 23.050781 24.300781 23.058594 24.558594 23.054688 24.816406 C 23.050781 25.0625 23.058594 25.3125 23.070312 25.558594 C 23.078125 25.730469 23.085938 25.902344 23.089844 26.074219 L 23.09375 26.207031 C 23.089844 26.238281 23.089844 26.269531 23.089844 26.304688 C 23.085938 26.335938 23.078125 26.367188 23.074219 26.398438 C 23.050781 26.523438 23 26.648438 22.929688 26.753906 C 22.804688 26.941406 22.621094 27.089844 22.40625 27.164062 C 22.296875 27.203125 22.179688 27.21875 22.074219 27.222656 L 21.84375 27.226562 C 21.742188 27.226562 21.644531 27.226562 21.542969 27.226562 C 21.460938 27.230469 21.375 27.230469 21.300781 27.238281 C 21.167969 27.253906 21.03125 27.257812 20.886719 27.257812 C 20.730469 27.257812 20.574219 27.253906 20.421875 27.269531 C 20.40625 27.273438 20.390625 27.273438 20.375 27.273438 C 20.042969 27.265625 19.734375 27.292969 19.417969 27.308594 C 19.230469 27.320312 19.039062 27.3125 18.851562 27.3125 C 18.765625 27.3125 18.683594 27.3125 18.601562 27.3125 C 18.265625 27.324219 17.925781 27.328125 17.585938 27.335938 C 16.773438 27.355469 15.960938 27.34375 15.148438 27.351562 C 14.726562 27.355469 14.304688 27.351562 13.882812 27.34375 C 13.667969 27.34375 13.449219 27.347656 13.234375 27.347656 L 11.503906 27.351562 L 10.074219 27.351562 C 10.015625 27.347656 9.957031 27.339844 9.894531 27.328125 C 9.777344 27.304688 9.664062 27.257812 9.558594 27.199219 C 9.308594 27.058594 9.117188 26.824219 9.03125 26.550781 C 9.011719 26.480469 8.996094 26.410156 8.984375 26.339844 C 8.976562 26.273438 8.976562 26.183594 8.976562 26.15625 L 8.976562 24.878906 C 8.972656 24.480469 8.96875 24.082031 8.964844 23.6875 L 8.960938 21.867188 L 8.964844 20.253906 C 8.964844 19.957031 8.957031 19.65625 8.964844 19.359375 C 8.980469 18.863281 8.957031 18.371094 8.964844 17.875 C 8.964844 17.578125 8.960938 17.277344 8.960938 16.976562 C 8.957031 16.679688 8.953125 16.382812 8.949219 16.085938 C 8.949219 15.5625 8.949219 15.042969 8.949219 14.519531 C 8.949219 14.386719 8.949219 14.253906 8.945312 14.121094 L 8.960938 12.429688 L 8.96875 11.476562 L 8.96875 11.464844 C 8.972656 11.339844 9.023438 11.222656 9.109375 11.140625 L 9.667969 10.59375 L 10.570312 9.703125 C 10.9375 9.339844 11.304688 8.976562 11.671875 8.625 C 11.824219 8.476562 11.976562 8.328125 12.125 8.179688 L 12.128906 8.175781 C 12.210938 8.09375 12.324219 8.050781 12.433594 8.050781 L 12.792969 8.054688 C 13.117188 8.054688 13.4375 8.058594 13.761719 8.0625 C 13.863281 8.0625 13.960938 8.0625 14.0625 8.0625 C 14.773438 8.058594 15.488281 8.070312 16.199219 8.070312 C 16.40625 8.070312 16.613281 8.070312 16.820312 8.070312 C 17.050781 8.070312 17.285156 8.074219 17.515625 8.074219 C 17.796875 8.078125 18.082031 8.078125 18.363281 8.078125 C 18.894531 8.082031 19.425781 8.085938 19.953125 8.089844 L 21.449219 8.09375 L 21.84375 8.097656 C 21.890625 8.097656 21.9375 8.097656 21.980469 8.097656 L 22.136719 8.097656 C 22.289062 8.101562 22.4375 8.144531 22.5625 8.210938 C 22.691406 8.277344 22.800781 8.375 22.875 8.484375 C 22.914062 8.535156 22.957031 8.601562 22.992188 8.667969 C 23.074219 8.816406 23.117188 8.984375 23.121094 9.152344 C 23.121094 9.179688 23.121094 9.1875 23.121094 9.203125 L 23.121094 9.246094 L 23.117188 9.328125 Z M 10.296875 11.164062 C 10.34375 11.160156 10.394531 11.15625 10.441406 11.152344 C 10.472656 11.152344 10.5 11.148438 10.53125 11.148438 C 10.542969 11.148438 10.550781 11.148438 10.5625 11.144531 C 10.578125 11.136719 10.597656 11.132812 10.613281 11.144531 C 10.617188 11.148438 10.621094 11.148438 10.625 11.144531 C 10.660156 11.128906 10.691406 11.140625 10.726562 11.132812 C 10.757812 11.128906 10.785156 11.128906 10.816406 11.128906 C 10.855469 11.125 10.890625 11.125 10.929688 11.121094 C 10.964844 11.117188 11 11.113281 11.035156 11.109375 C 11.054688 11.105469 11.074219 11.109375 11.09375 11.109375 C 11.140625 11.105469 11.1875 11.097656 11.238281 11.097656 C 11.296875 11.09375 11.359375 11.09375 11.417969 11.09375 L 11.722656 11.089844 L 11.757812 11.089844 C 11.761719 11.085938 11.765625 11.089844 11.769531 11.085938 C 11.785156 11.070312 11.804688 11.074219 11.820312 11.066406 C 11.832031 11.0625 11.839844 11.046875 11.851562 11.039062 C 11.851562 11.035156 11.855469 11.03125 11.859375 11.03125 C 11.871094 11.035156 11.878906 11.023438 11.886719 11.011719 C 11.890625 11.007812 11.894531 11 11.902344 10.996094 C 11.90625 10.992188 11.910156 10.988281 11.914062 10.984375 C 11.929688 10.972656 11.941406 10.960938 11.949219 10.945312 C 11.953125 10.9375 11.953125 10.929688 11.953125 10.921875 C 11.964844 10.902344 11.972656 10.882812 11.976562 10.863281 C 11.980469 10.835938 11.972656 10.8125 11.964844 10.785156 L 11.964844 10.777344 C 11.960938 10.6875 11.953125 10.597656 11.949219 10.507812 C 11.945312 10.460938 11.945312 10.414062 11.945312 10.367188 C 11.941406 10.289062 11.9375 10.207031 11.9375 10.125 C 11.933594 10.082031 11.9375 10.042969 11.941406 10 C 11.941406 9.941406 11.945312 9.882812 11.945312 9.824219 C 11.949219 9.808594 11.953125 9.789062 11.957031 9.769531 C 11.957031 9.742188 11.957031 9.710938 11.957031 9.683594 C 11.960938 9.648438 11.957031 9.613281 11.972656 9.578125 C 11.972656 9.574219 11.972656 9.570312 11.972656 9.566406 C 11.972656 9.539062 11.972656 9.511719 11.972656 9.484375 L 11.550781 9.90625 Z M 23.304688 16.3125 C 23.160156 16.3125 23.019531 16.308594 22.875 16.308594 L 22.355469 16.304688 L 21.378906 16.292969 L 20.460938 16.289062 C 20.378906 16.289062 20.296875 16.285156 20.214844 16.285156 C 20.160156 16.285156 20.105469 16.285156 20.050781 16.285156 C 19.929688 16.292969 19.816406 16.292969 19.710938 16.265625 C 19.683594 16.257812 19.652344 16.253906 19.621094 16.253906 C 19.484375 16.25 19.347656 16.25 19.210938 16.242188 C 19.125 16.238281 19.039062 16.242188 18.953125 16.242188 C 18.734375 16.234375 18.515625 16.234375 18.296875 16.222656 C 18.078125 16.214844 17.859375 16.210938 17.644531 16.195312 C 17.53125 16.183594 17.410156 16.191406 17.292969 16.191406 C 17.15625 16.195312 17.019531 16.203125 16.882812 16.207031 C 16.828125 16.210938 16.777344 16.207031 16.738281 16.1875 C 16.710938 16.175781 16.671875 16.171875 16.628906 16.171875 L 16.339844 16.160156 C 16.316406 16.160156 16.289062 16.160156 16.261719 16.160156 C 16.117188 16.171875 15.96875 16.167969 15.820312 16.160156 C 15.722656 16.160156 15.632812 16.148438 15.542969 16.128906 C 15.46875 16.117188 15.390625 16.101562 15.316406 16.085938 C 15.304688 16.085938 15.296875 16.078125 15.277344 16.070312 C 15.328125 16.050781 15.386719 16.050781 15.445312 16.042969 C 15.496094 16.039062 15.550781 16.035156 15.609375 16.03125 C 15.597656 16.027344 15.589844 16.023438 15.582031 16.023438 C 15.5625 16.019531 15.539062 16.019531 15.550781 16.007812 C 15.554688 16 15.570312 16 15.582031 15.996094 C 15.597656 15.984375 15.609375 15.976562 15.621094 15.964844 C 15.585938 15.941406 15.519531 15.953125 15.476562 15.9375 C 15.46875 15.921875 15.496094 15.917969 15.519531 15.914062 C 15.695312 15.886719 15.882812 15.871094 16.070312 15.859375 C 16.328125 15.839844 16.589844 15.820312 16.851562 15.792969 C 17.132812 15.765625 17.421875 15.746094 17.707031 15.722656 C 17.90625 15.707031 18.105469 15.691406 18.308594 15.675781 C 18.554688 15.65625 18.800781 15.640625 19.046875 15.625 C 19.308594 15.609375 19.574219 15.597656 19.839844 15.59375 C 19.933594 15.589844 20.03125 15.589844 20.128906 15.589844 L 21.195312 15.574219 L 21.730469 15.570312 C 21.792969 15.566406 21.855469 15.566406 21.914062 15.566406 C 22.015625 15.558594 22.117188 15.554688 22.21875 15.566406 C 22.242188 15.566406 22.269531 15.566406 22.292969 15.566406 C 22.460938 15.550781 22.625 15.554688 22.792969 15.554688 C 22.789062 15.539062 22.789062 15.519531 22.785156 15.503906 C 22.753906 15.214844 22.742188 14.910156 22.730469 14.609375 C 22.707031 14.183594 22.691406 13.757812 22.664062 13.335938 C 22.636719 12.875 22.617188 12.410156 22.59375 11.945312 C 22.574219 11.617188 22.558594 11.292969 22.542969 10.964844 C 22.527344 10.5625 22.511719 10.160156 22.496094 9.757812 C 22.492188 9.652344 22.488281 9.546875 22.484375 9.4375 L 22.480469 9.277344 L 22.476562 9.199219 L 22.476562 9.179688 C 22.476562 9.171875 22.476562 9.167969 22.476562 9.164062 L 22.472656 9.140625 C 22.46875 9.082031 22.441406 9.023438 22.410156 8.972656 C 22.375 8.921875 22.332031 8.878906 22.277344 8.847656 C 22.242188 8.828125 22.199219 8.808594 22.15625 8.800781 C 22.136719 8.796875 22.117188 8.792969 22.09375 8.792969 L 21.988281 8.792969 C 21.40625 8.800781 20.828125 8.804688 20.25 8.808594 L 19.378906 8.8125 C 19.277344 8.816406 19.179688 8.816406 19.082031 8.820312 C 18.914062 8.824219 18.75 8.828125 18.585938 8.816406 C 18.546875 8.816406 18.503906 8.816406 18.460938 8.816406 C 18.140625 8.835938 17.816406 8.824219 17.496094 8.828125 C 17.203125 8.832031 16.914062 8.832031 16.625 8.835938 C 16.257812 8.835938 15.894531 8.839844 15.53125 8.84375 C 15.191406 8.84375 14.851562 8.851562 14.511719 8.855469 C 14.328125 8.855469 14.144531 8.855469 13.964844 8.855469 L 12.734375 8.863281 C 12.734375 8.867188 12.734375 8.867188 12.734375 8.871094 C 12.75 8.90625 12.761719 8.941406 12.761719 8.976562 C 12.761719 9.007812 12.765625 9.039062 12.769531 9.070312 C 12.769531 9.082031 12.769531 9.09375 12.773438 9.101562 C 12.773438 9.113281 12.777344 9.121094 12.785156 9.128906 C 12.800781 9.140625 12.800781 9.15625 12.804688 9.171875 C 12.804688 9.1875 12.800781 9.203125 12.816406 9.21875 C 12.816406 9.222656 12.820312 9.222656 12.816406 9.222656 C 12.808594 9.257812 12.839844 9.289062 12.855469 9.324219 C 12.863281 9.34375 12.855469 9.363281 12.859375 9.382812 C 12.859375 9.390625 12.855469 9.398438 12.859375 9.40625 C 12.871094 9.441406 12.875 9.476562 12.882812 9.511719 C 12.902344 9.597656 12.886719 9.679688 12.894531 9.765625 C 12.898438 9.808594 12.894531 9.851562 12.890625 9.898438 C 12.886719 9.917969 12.894531 9.941406 12.894531 9.964844 L 12.898438 10.324219 C 12.898438 10.394531 12.898438 10.464844 12.898438 10.535156 C 12.902344 10.574219 12.910156 10.617188 12.910156 10.65625 L 12.910156 10.753906 L 12.914062 10.777344 L 12.914062 10.789062 L 12.910156 10.808594 L 12.90625 10.886719 C 12.902344 10.933594 12.894531 10.980469 12.886719 11.027344 C 12.875 11.074219 12.863281 11.121094 12.847656 11.164062 C 12.839844 11.191406 12.832031 11.214844 12.824219 11.238281 C 12.8125 11.265625 12.800781 11.289062 12.785156 11.308594 C 12.734375 11.378906 12.707031 11.464844 12.644531 11.527344 C 12.609375 11.566406 12.578125 11.609375 12.539062 11.644531 C 12.503906 11.683594 12.46875 11.71875 12.425781 11.75 C 12.386719 11.78125 12.347656 11.804688 12.308594 11.828125 C 12.265625 11.847656 12.226562 11.871094 12.183594 11.886719 C 12.160156 11.894531 12.136719 11.90625 12.117188 11.910156 C 12.019531 11.941406 11.917969 11.957031 11.816406 11.957031 C 11.792969 11.957031 11.765625 11.957031 11.742188 11.953125 L 11.699219 11.949219 C 11.667969 11.945312 11.636719 11.945312 11.605469 11.941406 C 11.5625 11.9375 11.519531 11.933594 11.476562 11.933594 C 11.421875 11.929688 11.371094 11.925781 11.316406 11.917969 C 11.28125 11.910156 11.246094 11.910156 11.214844 11.910156 C 11.179688 11.90625 11.144531 11.902344 11.113281 11.902344 C 11.101562 11.898438 11.09375 11.898438 11.082031 11.902344 C 11.007812 11.902344 10.933594 11.894531 10.859375 11.894531 C 10.839844 11.894531 10.816406 11.890625 10.796875 11.894531 C 10.773438 11.894531 10.746094 11.886719 10.722656 11.886719 C 10.695312 11.886719 10.664062 11.882812 10.636719 11.882812 C 10.582031 11.878906 10.527344 11.875 10.472656 11.871094 C 10.417969 11.871094 10.367188 11.871094 10.316406 11.871094 C 10.300781 11.871094 10.289062 11.863281 10.273438 11.863281 C 10.265625 11.863281 10.257812 11.863281 10.246094 11.867188 C 10.226562 11.871094 10.207031 11.871094 10.191406 11.84375 C 10.1875 11.835938 10.179688 11.835938 10.175781 11.832031 C 10.152344 11.832031 10.128906 11.832031 10.105469 11.820312 C 10.089844 11.816406 10.078125 11.824219 10.0625 11.820312 C 10.027344 11.816406 9.988281 11.8125 9.953125 11.804688 C 9.914062 11.792969 9.878906 11.789062 9.839844 11.773438 C 9.835938 11.769531 9.832031 11.769531 9.828125 11.769531 L 9.828125 11.816406 C 9.828125 11.988281 9.828125 12.164062 9.828125 12.335938 C 9.828125 12.402344 9.828125 12.46875 9.832031 12.535156 C 9.84375 12.949219 9.839844 13.363281 9.84375 13.777344 C 9.84375 14.082031 9.851562 14.386719 9.859375 14.691406 C 9.859375 14.78125 9.863281 14.871094 9.859375 14.960938 C 9.851562 15.246094 9.859375 15.523438 9.863281 15.808594 C 9.871094 16.136719 9.867188 16.46875 9.867188 16.800781 L 9.871094 18.046875 C 9.871094 18.246094 9.878906 18.445312 9.878906 18.644531 C 9.878906 19.207031 9.878906 19.769531 9.886719 20.332031 C 9.894531 21.039062 9.902344 21.742188 9.910156 22.449219 C 9.910156 22.480469 9.910156 22.511719 9.910156 22.546875 C 9.914062 23.410156 9.921875 24.273438 9.925781 25.136719 L 9.929688 25.804688 L 9.929688 26.140625 C 9.929688 26.167969 9.929688 26.207031 9.929688 26.207031 C 9.929688 26.210938 9.929688 26.214844 9.929688 26.21875 C 9.929688 26.222656 9.933594 26.226562 9.933594 26.230469 C 9.933594 26.246094 9.941406 26.261719 9.945312 26.277344 C 9.96875 26.328125 10.019531 26.371094 10.070312 26.390625 C 10.078125 26.390625 10.085938 26.390625 10.09375 26.394531 C 10.097656 26.394531 10.105469 26.394531 10.113281 26.394531 C 10.117188 26.394531 10.121094 26.394531 10.125 26.394531 C 10.128906 26.394531 10.125 26.398438 10.140625 26.398438 L 10.214844 26.398438 L 10.511719 26.394531 L 11.691406 26.390625 L 12.886719 26.394531 C 13.449219 26.398438 14.015625 26.398438 14.578125 26.402344 C 14.75 26.40625 14.925781 26.40625 15.097656 26.410156 L 15.941406 26.414062 C 16.28125 26.414062 16.625 26.414062 16.960938 26.425781 C 17.003906 26.429688 17.042969 26.425781 17.085938 26.425781 C 17.566406 26.425781 18.046875 26.425781 18.53125 26.429688 C 19.058594 26.4375 19.589844 26.441406 20.121094 26.449219 C 20.1875 26.449219 20.253906 26.453125 20.320312 26.453125 C 20.695312 26.457031 21.074219 26.460938 21.449219 26.472656 C 21.636719 26.476562 21.824219 26.484375 22.011719 26.488281 L 22.078125 26.492188 C 22.089844 26.492188 22.101562 26.492188 22.109375 26.492188 C 22.121094 26.492188 22.128906 26.492188 22.140625 26.488281 C 22.148438 26.488281 22.160156 26.488281 22.167969 26.484375 C 22.207031 26.476562 22.246094 26.457031 22.28125 26.433594 C 22.320312 26.402344 22.355469 26.367188 22.382812 26.324219 C 22.40625 26.292969 22.421875 26.25 22.429688 26.207031 L 22.429688 26.199219 L 22.433594 26.183594 L 22.433594 26.148438 L 22.4375 26.085938 L 22.445312 25.953125 C 22.453125 25.777344 22.460938 25.601562 22.46875 25.425781 C 22.480469 25.105469 22.496094 24.789062 22.519531 24.476562 C 22.535156 24.269531 22.550781 24.058594 22.5625 23.851562 C 22.582031 23.601562 22.597656 23.351562 22.621094 23.109375 C 22.636719 22.945312 22.660156 22.792969 22.679688 22.632812 C 22.683594 22.613281 22.6875 22.585938 22.691406 22.578125 C 22.722656 22.519531 22.746094 22.421875 22.761719 22.320312 C 22.558594 22.324219 22.355469 22.328125 22.152344 22.332031 L 22.09375 22.332031 L 20.503906 22.351562 L 19.675781 22.351562 L 18.222656 22.363281 C 17.980469 22.363281 17.734375 22.359375 17.492188 22.359375 L 16.449219 22.351562 C 16.34375 22.347656 16.238281 22.34375 16.128906 22.34375 L 15.613281 22.339844 L 15.296875 22.335938 L 15.246094 22.335938 L 15.183594 22.332031 C 15.136719 22.328125 15.09375 22.320312 15.050781 22.3125 C 15.007812 22.304688 14.96875 22.289062 14.925781 22.277344 C 14.886719 22.261719 14.84375 22.246094 14.804688 22.226562 C 14.769531 22.207031 14.730469 22.191406 14.695312 22.167969 C 14.480469 22.042969 14.3125 21.851562 14.214844 21.628906 C 14.164062 21.515625 14.136719 21.394531 14.125 21.269531 C 14.121094 21.242188 14.121094 21.210938 14.121094 21.179688 L 14.117188 21.160156 L 14.117188 21.148438 L 14.121094 21.121094 L 14.121094 21.007812 C 14.125 20.683594 14.132812 20.355469 14.140625 20.03125 L 14.144531 19.910156 C 14.148438 19.445312 14.171875 18.984375 14.199219 18.523438 C 14.203125 18.460938 14.210938 18.394531 14.222656 18.332031 C 14.253906 18.121094 14.265625 17.90625 14.277344 17.6875 C 14.292969 17.492188 14.308594 17.296875 14.332031 17.105469 C 14.347656 16.976562 14.359375 16.847656 14.375 16.71875 L 14.390625 16.605469 L 14.398438 16.535156 C 14.402344 16.511719 14.40625 16.488281 14.414062 16.464844 C 14.4375 16.371094 14.476562 16.285156 14.527344 16.210938 C 14.597656 16.109375 14.6875 16.035156 14.785156 15.984375 C 14.796875 15.976562 14.816406 15.96875 14.824219 15.96875 C 14.882812 15.972656 14.964844 15.949219 15.042969 15.945312 C 15.058594 15.945312 15.066406 15.945312 15.078125 15.949219 C 15.128906 15.957031 15.152344 15.964844 15.179688 15.96875 C 15.203125 15.972656 15.226562 15.976562 15.277344 15.988281 C 15.203125 16 15.136719 16.023438 15.105469 16.0625 C 15.097656 16.078125 15.066406 16.085938 15.046875 16.097656 C 15 16.117188 14.96875 16.148438 14.949219 16.1875 C 14.933594 16.230469 14.902344 16.269531 14.875 16.3125 C 14.835938 16.371094 14.816406 16.433594 14.8125 16.496094 C 14.8125 16.527344 14.816406 16.554688 14.820312 16.585938 L 14.832031 16.644531 L 14.847656 16.710938 C 14.855469 16.75 14.863281 16.796875 14.863281 16.839844 C 14.863281 16.996094 14.871094 17.15625 14.867188 17.3125 C 14.863281 17.464844 14.871094 17.621094 14.882812 17.769531 C 14.898438 17.980469 14.90625 18.191406 14.90625 18.40625 C 14.90625 18.597656 14.914062 18.785156 14.917969 18.972656 C 14.917969 19.035156 14.917969 19.09375 14.917969 19.15625 C 14.921875 19.207031 14.921875 19.257812 14.929688 19.304688 C 14.945312 19.386719 14.949219 19.472656 14.949219 19.558594 C 14.949219 19.65625 14.945312 19.753906 14.960938 19.84375 C 14.964844 19.855469 14.964844 19.867188 14.964844 19.875 C 14.957031 20.078125 14.984375 20.269531 15 20.460938 C 15.011719 20.578125 15.003906 20.695312 15.003906 20.8125 C 15.007812 20.863281 15.003906 20.914062 15.003906 20.964844 L 15.011719 21.121094 L 15.015625 21.160156 L 15.015625 21.179688 C 15.019531 21.1875 15.019531 21.199219 15.023438 21.207031 C 15.03125 21.242188 15.046875 21.277344 15.074219 21.308594 C 15.101562 21.339844 15.140625 21.367188 15.179688 21.382812 C 15.199219 21.390625 15.21875 21.398438 15.238281 21.402344 C 15.25 21.402344 15.257812 21.402344 15.269531 21.402344 C 15.273438 21.402344 15.273438 21.40625 15.28125 21.40625 L 15.351562 21.40625 C 15.601562 21.40625 15.851562 21.40625 16.101562 21.402344 C 16.359375 21.398438 16.621094 21.402344 16.878906 21.40625 C 17.011719 21.410156 17.144531 21.402344 17.277344 21.402344 L 19.402344 21.398438 L 20.660156 21.398438 C 20.902344 21.394531 21.148438 21.390625 21.390625 21.386719 L 23.5 21.386719 C 23.683594 21.386719 23.871094 21.378906 24.050781 21.386719 C 24.355469 21.40625 24.660156 21.378906 24.964844 21.386719 C 25.054688 21.386719 25.148438 21.386719 25.238281 21.386719 L 25.34375 21.386719 C 25.351562 21.386719 25.371094 21.386719 25.371094 21.382812 C 25.375 21.382812 25.382812 21.382812 25.390625 21.382812 C 25.398438 21.378906 25.402344 21.378906 25.410156 21.378906 C 25.464844 21.363281 25.511719 21.324219 25.539062 21.277344 C 25.550781 21.257812 25.558594 21.234375 25.5625 21.210938 C 25.566406 21.203125 25.570312 21.191406 25.566406 21.179688 C 25.570312 21.175781 25.570312 21.171875 25.570312 21.171875 C 25.570312 21.167969 25.570312 21.167969 25.570312 21.167969 L 25.570312 20.601562 C 25.570312 20.523438 25.566406 20.441406 25.566406 20.359375 L 25.582031 19.320312 L 25.597656 18.25 L 25.605469 17.472656 L 25.613281 16.996094 L 25.617188 16.761719 L 25.621094 16.640625 L 25.621094 16.597656 C 25.621094 16.59375 25.621094 16.59375 25.621094 16.589844 C 25.621094 16.582031 25.621094 16.574219 25.621094 16.570312 C 25.621094 16.492188 25.574219 16.421875 25.511719 16.375 C 25.480469 16.351562 25.445312 16.335938 25.410156 16.332031 C 25.402344 16.328125 25.390625 16.324219 25.382812 16.324219 C 25.375 16.324219 25.371094 16.324219 25.367188 16.324219 L 25.332031 16.324219 L 25.183594 16.320312 C 25.121094 16.320312 25.0625 16.320312 25 16.320312 C 24.5625 16.324219 24.125 16.3125 23.683594 16.3125 C 23.558594 16.3125 23.429688 16.3125 23.304688 16.3125 Z M 22.910156 15.554688 C 22.90625 15.488281 22.902344 15.425781 22.902344 15.359375 C 22.898438 15.371094 22.894531 15.382812 22.894531 15.398438 C 22.890625 15.429688 22.890625 15.46875 22.878906 15.453125 C 22.871094 15.445312 22.871094 15.417969 22.867188 15.398438 C 22.855469 15.378906 22.847656 15.355469 22.835938 15.335938 C 22.816406 15.386719 22.824219 15.484375 22.8125 15.554688 C 22.835938 15.554688 22.863281 15.554688 22.890625 15.554688 C 22.898438 15.554688 22.902344 15.554688 22.910156 15.554688 Z M 22.578125 20.117188 C 22.574219 20.085938 22.570312 20.054688 22.5625 20.027344 C 22.550781 19.992188 22.554688 19.957031 22.527344 19.929688 C 22.527344 19.925781 22.523438 19.921875 22.527344 19.917969 C 22.535156 19.898438 22.523438 19.882812 22.511719 19.867188 C 22.503906 19.859375 22.5 19.847656 22.496094 19.839844 C 22.484375 19.8125 22.472656 19.785156 22.457031 19.761719 C 22.425781 19.710938 22.386719 19.664062 22.347656 19.621094 C 22.339844 19.609375 22.328125 19.59375 22.316406 19.585938 C 22.28125 19.558594 22.246094 19.535156 22.203125 19.519531 C 22.164062 19.507812 22.125 19.496094 22.082031 19.492188 C 22.050781 19.488281 22.015625 19.488281 21.984375 19.492188 C 21.9375 19.496094 21.894531 19.503906 21.851562 19.519531 C 21.816406 19.535156 21.78125 19.542969 21.75 19.5625 C 21.726562 19.570312 21.703125 19.582031 21.683594 19.613281 C 21.679688 19.617188 21.679688 19.617188 21.679688 19.632812 C 21.683594 19.652344 21.6875 19.640625 21.691406 19.664062 C 21.6875 19.671875 21.6875 19.683594 21.6875 19.691406 C 21.683594 19.695312 21.683594 19.699219 21.683594 19.703125 C 21.679688 19.714844 21.683594 19.71875 21.683594 19.722656 C 21.683594 19.722656 21.683594 19.726562 21.6875 19.726562 L 21.671875 19.742188 C 21.667969 19.746094 21.664062 19.746094 21.660156 19.765625 C 21.660156 19.773438 21.660156 19.78125 21.660156 19.78125 C 21.667969 19.796875 21.671875 19.8125 21.675781 19.828125 C 21.679688 19.84375 21.683594 19.855469 21.691406 19.859375 C 21.699219 19.863281 21.703125 19.871094 21.714844 19.863281 C 21.714844 19.859375 21.71875 19.863281 21.71875 19.863281 C 21.722656 19.867188 21.726562 19.871094 21.734375 19.875 C 21.734375 19.878906 21.734375 19.878906 21.734375 19.894531 C 21.730469 19.914062 21.730469 19.917969 21.734375 19.914062 C 21.742188 19.914062 21.75 19.910156 21.757812 19.90625 C 21.765625 19.90625 21.773438 19.90625 21.773438 19.914062 C 21.777344 19.9375 21.785156 19.941406 21.789062 19.957031 C 21.792969 19.96875 21.796875 19.980469 21.800781 19.988281 C 21.804688 19.992188 21.808594 19.988281 21.808594 19.996094 C 21.808594 20.007812 21.8125 20.007812 21.8125 20.015625 C 21.8125 20.015625 21.8125 20.019531 21.808594 20.027344 C 21.789062 20.046875 21.792969 20.050781 21.800781 20.050781 C 21.800781 20.050781 21.804688 20.050781 21.804688 20.050781 C 21.804688 20.054688 21.800781 20.0625 21.804688 20.0625 C 21.808594 20.070312 21.8125 20.082031 21.816406 20.089844 C 21.820312 20.09375 21.816406 20.101562 21.816406 20.105469 C 21.820312 20.109375 21.816406 20.117188 21.816406 20.121094 C 21.816406 20.128906 21.816406 20.132812 21.816406 20.136719 C 21.816406 20.140625 21.8125 20.148438 21.8125 20.152344 C 21.8125 20.15625 21.8125 20.160156 21.8125 20.164062 C 21.8125 20.175781 21.800781 20.1875 21.800781 20.199219 C 21.800781 20.199219 21.800781 20.203125 21.800781 20.203125 C 21.796875 20.207031 21.789062 20.210938 21.785156 20.214844 C 21.78125 20.21875 21.78125 20.222656 21.773438 20.226562 C 21.765625 20.226562 21.761719 20.226562 21.757812 20.230469 C 21.753906 20.230469 21.75 20.234375 21.746094 20.234375 C 21.742188 20.234375 21.738281 20.242188 21.730469 20.242188 C 21.726562 20.242188 21.722656 20.242188 21.714844 20.238281 C 21.710938 20.238281 21.707031 20.238281 21.703125 20.238281 C 21.699219 20.238281 21.695312 20.238281 21.695312 20.234375 C 21.691406 20.234375 21.6875 20.234375 21.683594 20.230469 C 21.683594 20.230469 21.683594 20.234375 21.683594 20.234375 C 21.679688 20.238281 21.671875 20.238281 21.667969 20.238281 C 21.667969 20.242188 21.664062 20.246094 21.660156 20.25 C 21.660156 20.253906 21.65625 20.253906 21.652344 20.253906 C 21.648438 20.25 21.644531 20.253906 21.644531 20.257812 C 21.640625 20.261719 21.636719 20.261719 21.636719 20.253906 C 21.636719 20.242188 21.628906 20.25 21.628906 20.25 C 21.625 20.246094 21.621094 20.246094 21.621094 20.246094 C 21.617188 20.242188 21.617188 20.242188 21.613281 20.242188 C 21.609375 20.238281 21.609375 20.238281 21.605469 20.234375 C 21.601562 20.234375 21.597656 20.234375 21.597656 20.230469 C 21.589844 20.230469 21.585938 20.230469 21.578125 20.230469 C 21.574219 20.222656 21.570312 20.214844 21.566406 20.207031 C 21.558594 20.195312 21.554688 20.183594 21.550781 20.171875 C 21.550781 20.167969 21.542969 20.164062 21.546875 20.160156 C 21.554688 20.15625 21.554688 20.152344 21.554688 20.144531 C 21.546875 20.132812 21.5625 20.128906 21.550781 20.113281 C 21.542969 20.105469 21.542969 20.097656 21.535156 20.089844 C 21.535156 20.085938 21.539062 20.085938 21.539062 20.085938 C 21.539062 20.078125 21.546875 20.082031 21.539062 20.074219 C 21.53125 20.058594 21.511719 20.035156 21.523438 20.035156 C 21.515625 20.019531 21.519531 20.019531 21.523438 20.019531 C 21.523438 20.015625 21.523438 20.011719 21.515625 19.996094 C 21.511719 19.988281 21.511719 19.988281 21.515625 19.984375 C 21.515625 19.980469 21.515625 19.980469 21.519531 19.976562 C 21.523438 19.96875 21.527344 19.960938 21.535156 19.957031 C 21.542969 19.949219 21.546875 19.9375 21.550781 19.917969 C 21.550781 19.90625 21.558594 19.894531 21.566406 19.894531 C 21.574219 19.894531 21.578125 19.886719 21.589844 19.886719 C 21.589844 19.882812 21.589844 19.878906 21.589844 19.867188 C 21.589844 19.828125 21.601562 19.808594 21.613281 19.800781 C 21.617188 19.796875 21.621094 19.789062 21.625 19.769531 C 21.625 19.75 21.628906 19.742188 21.636719 19.742188 C 21.636719 19.742188 21.640625 19.742188 21.640625 19.734375 C 21.644531 19.703125 21.652344 19.695312 21.660156 19.679688 C 21.648438 19.660156 21.648438 19.660156 21.636719 19.613281 C 21.636719 19.609375 21.636719 19.601562 21.632812 19.601562 C 21.625 19.578125 21.613281 19.558594 21.605469 19.519531 C 21.605469 19.515625 21.601562 19.511719 21.601562 19.507812 C 21.585938 19.488281 21.574219 19.46875 21.558594 19.453125 C 21.535156 19.4375 21.511719 19.421875 21.484375 19.410156 C 21.464844 19.398438 21.441406 19.390625 21.417969 19.382812 C 21.382812 19.367188 21.347656 19.363281 21.3125 19.363281 C 21.277344 19.367188 21.238281 19.367188 21.191406 19.363281 C 21.175781 19.359375 21.164062 19.359375 21.152344 19.363281 C 21.066406 19.378906 20.984375 19.417969 20.921875 19.480469 C 20.917969 19.484375 20.910156 19.488281 20.90625 19.492188 C 20.882812 19.511719 20.859375 19.535156 20.839844 19.558594 C 20.816406 19.582031 20.796875 19.605469 20.777344 19.628906 C 20.746094 19.675781 20.722656 19.730469 20.703125 19.78125 C 20.699219 19.785156 20.699219 19.792969 20.695312 19.796875 C 20.667969 19.828125 20.65625 19.867188 20.644531 19.90625 C 20.636719 19.941406 20.628906 19.972656 20.625 20.007812 C 20.621094 20.027344 20.609375 20.046875 20.609375 20.066406 C 20.605469 20.101562 20.601562 20.136719 20.597656 20.167969 C 20.597656 20.203125 20.601562 20.238281 20.601562 20.269531 C 20.605469 20.320312 20.609375 20.367188 20.621094 20.414062 C 20.644531 20.507812 20.6875 20.597656 20.734375 20.679688 C 20.765625 20.726562 20.792969 20.773438 20.828125 20.8125 C 20.898438 20.890625 20.976562 20.960938 21.0625 21.011719 C 21.066406 21.015625 21.070312 21.015625 21.074219 21.019531 C 21.148438 21.058594 21.226562 21.089844 21.304688 21.113281 C 21.335938 21.121094 21.367188 21.128906 21.398438 21.136719 C 21.433594 21.144531 21.464844 21.152344 21.496094 21.15625 C 21.519531 21.160156 21.542969 21.15625 21.566406 21.15625 C 21.613281 21.160156 21.660156 21.164062 21.707031 21.15625 C 21.742188 21.15625 21.78125 21.152344 21.816406 21.140625 C 21.847656 21.132812 21.878906 21.117188 21.910156 21.117188 C 21.921875 21.117188 21.929688 21.113281 21.941406 21.109375 C 21.972656 21.09375 22 21.074219 22.03125 21.058594 C 22.070312 21.035156 22.117188 21.023438 22.148438 20.984375 C 22.152344 20.980469 22.160156 20.976562 22.167969 20.972656 C 22.183594 20.964844 22.199219 20.953125 22.214844 20.941406 C 22.300781 20.878906 22.375 20.800781 22.4375 20.710938 C 22.472656 20.660156 22.503906 20.601562 22.527344 20.542969 C 22.546875 20.496094 22.558594 20.445312 22.566406 20.398438 C 22.570312 20.378906 22.578125 20.359375 22.578125 20.339844 C 22.582031 20.304688 22.582031 20.265625 22.582031 20.230469 C 22.582031 20.191406 22.582031 20.152344 22.578125 20.117188 Z M 19.03125 18.59375 C 19.070312 18.59375 19.109375 18.589844 19.144531 18.578125 C 19.175781 18.566406 19.203125 18.554688 19.238281 18.554688 C 19.246094 18.554688 19.257812 18.546875 19.265625 18.542969 C 19.296875 18.53125 19.328125 18.507812 19.359375 18.496094 C 19.398438 18.472656 19.441406 18.457031 19.472656 18.421875 C 19.480469 18.417969 19.488281 18.414062 19.492188 18.410156 C 19.507812 18.398438 19.523438 18.390625 19.539062 18.378906 C 19.625 18.3125 19.703125 18.238281 19.761719 18.148438 C 19.796875 18.09375 19.832031 18.039062 19.855469 17.980469 C 19.871094 17.933594 19.886719 17.882812 19.894531 17.832031 C 19.898438 17.8125 19.902344 17.796875 19.90625 17.777344 C 19.90625 17.738281 19.910156 17.703125 19.90625 17.667969 C 19.90625 17.628906 19.90625 17.589844 19.902344 17.550781 C 19.898438 17.519531 19.894531 17.492188 19.886719 17.460938 C 19.878906 17.429688 19.882812 17.394531 19.855469 17.367188 C 19.851562 17.363281 19.851562 17.359375 19.851562 17.351562 C 19.859375 17.332031 19.847656 17.316406 19.835938 17.304688 C 19.832031 17.296875 19.828125 17.285156 19.824219 17.277344 C 19.8125 17.25 19.796875 17.222656 19.78125 17.195312 C 19.75 17.144531 19.714844 17.097656 19.675781 17.054688 C 19.664062 17.042969 19.65625 17.03125 19.640625 17.023438 C 19.609375 16.996094 19.570312 16.96875 19.527344 16.957031 C 19.488281 16.945312 19.449219 16.933594 19.410156 16.929688 C 19.375 16.925781 19.34375 16.925781 19.3125 16.929688 C 19.265625 16.933594 19.222656 16.9375 19.179688 16.953125 C 19.140625 16.96875 19.105469 16.980469 19.074219 16.996094 C 19.050781 17.007812 19.027344 17.019531 19.007812 17.046875 C 19.007812 17.050781 19.003906 17.054688 19.003906 17.070312 C 19.007812 17.085938 19.015625 17.074219 19.015625 17.097656 C 19.015625 17.109375 19.011719 17.117188 19.011719 17.128906 C 19.011719 17.132812 19.007812 17.136719 19.007812 17.140625 C 19.007812 17.152344 19.007812 17.15625 19.011719 17.15625 C 19.011719 17.160156 19.011719 17.160156 19.011719 17.164062 L 18.996094 17.175781 C 18.992188 17.183594 18.988281 17.183594 18.984375 17.203125 C 18.984375 17.210938 18.988281 17.214844 18.988281 17.21875 C 18.992188 17.234375 18.996094 17.246094 19 17.261719 C 19.007812 17.28125 19.011719 17.292969 19.015625 17.296875 C 19.023438 17.300781 19.03125 17.308594 19.039062 17.296875 C 19.042969 17.296875 19.042969 17.296875 19.046875 17.300781 C 19.050781 17.304688 19.054688 17.308594 19.058594 17.3125 C 19.058594 17.316406 19.0625 17.316406 19.058594 17.332031 C 19.054688 17.351562 19.058594 17.351562 19.0625 17.351562 C 19.070312 17.347656 19.078125 17.34375 19.085938 17.34375 C 19.089844 17.34375 19.101562 17.339844 19.101562 17.351562 C 19.105469 17.371094 19.109375 17.378906 19.113281 17.394531 C 19.117188 17.40625 19.121094 17.414062 19.128906 17.421875 C 19.128906 17.425781 19.136719 17.425781 19.136719 17.433594 C 19.132812 17.441406 19.136719 17.445312 19.140625 17.453125 C 19.140625 17.453125 19.136719 17.457031 19.132812 17.460938 C 19.117188 17.484375 19.117188 17.484375 19.125 17.484375 C 19.128906 17.484375 19.128906 17.488281 19.128906 17.488281 C 19.128906 17.492188 19.128906 17.496094 19.128906 17.5 C 19.132812 17.507812 19.140625 17.515625 19.140625 17.527344 C 19.144531 17.53125 19.144531 17.539062 19.144531 17.542969 C 19.144531 17.546875 19.144531 17.554688 19.144531 17.558594 C 19.144531 17.5625 19.144531 17.570312 19.140625 17.574219 C 19.140625 17.578125 19.136719 17.582031 19.136719 17.585938 C 19.140625 17.589844 19.136719 17.59375 19.136719 17.597656 C 19.136719 17.613281 19.125 17.621094 19.125 17.632812 C 19.125 17.636719 19.125 17.636719 19.125 17.640625 C 19.121094 17.644531 19.113281 17.648438 19.113281 17.652344 C 19.109375 17.65625 19.105469 17.660156 19.097656 17.660156 C 19.09375 17.660156 19.085938 17.664062 19.085938 17.664062 C 19.082031 17.667969 19.078125 17.667969 19.074219 17.671875 C 19.066406 17.671875 19.0625 17.675781 19.054688 17.675781 C 19.050781 17.675781 19.046875 17.675781 19.042969 17.675781 C 19.039062 17.675781 19.035156 17.675781 19.03125 17.675781 C 19.027344 17.671875 19.023438 17.671875 19.019531 17.671875 C 19.015625 17.671875 19.011719 17.671875 19.011719 17.667969 C 19.007812 17.667969 19.007812 17.671875 19.007812 17.671875 C 19.003906 17.671875 19 17.671875 18.996094 17.675781 C 18.992188 17.679688 18.988281 17.683594 18.988281 17.6875 C 18.984375 17.691406 18.980469 17.691406 18.976562 17.6875 C 18.976562 17.6875 18.972656 17.691406 18.96875 17.695312 C 18.964844 17.695312 18.960938 17.699219 18.960938 17.691406 C 18.960938 17.679688 18.957031 17.6875 18.953125 17.683594 C 18.949219 17.683594 18.949219 17.683594 18.945312 17.679688 C 18.945312 17.679688 18.941406 17.679688 18.9375 17.675781 C 18.9375 17.675781 18.933594 17.675781 18.929688 17.671875 C 18.929688 17.671875 18.925781 17.667969 18.921875 17.667969 C 18.917969 17.667969 18.910156 17.667969 18.90625 17.664062 C 18.898438 17.660156 18.894531 17.652344 18.890625 17.644531 C 18.882812 17.632812 18.878906 17.621094 18.875 17.605469 C 18.875 17.605469 18.867188 17.601562 18.871094 17.597656 C 18.878906 17.59375 18.878906 17.585938 18.878906 17.582031 C 18.871094 17.570312 18.890625 17.566406 18.875 17.546875 C 18.871094 17.539062 18.867188 17.535156 18.863281 17.523438 C 18.859375 17.523438 18.863281 17.523438 18.863281 17.519531 C 18.863281 17.515625 18.871094 17.519531 18.867188 17.511719 C 18.855469 17.496094 18.839844 17.472656 18.851562 17.472656 C 18.851562 17.472656 18.851562 17.472656 18.847656 17.472656 C 18.839844 17.457031 18.84375 17.457031 18.847656 17.453125 C 18.851562 17.453125 18.851562 17.445312 18.84375 17.433594 C 18.839844 17.425781 18.839844 17.421875 18.839844 17.421875 C 18.839844 17.417969 18.84375 17.417969 18.84375 17.414062 C 18.847656 17.40625 18.851562 17.394531 18.859375 17.390625 C 18.867188 17.386719 18.871094 17.375 18.875 17.355469 C 18.875 17.339844 18.882812 17.332031 18.890625 17.332031 C 18.898438 17.332031 18.90625 17.324219 18.914062 17.320312 C 18.914062 17.320312 18.917969 17.3125 18.917969 17.304688 C 18.917969 17.261719 18.925781 17.246094 18.9375 17.238281 C 18.945312 17.234375 18.949219 17.226562 18.949219 17.207031 C 18.953125 17.183594 18.957031 17.179688 18.960938 17.179688 C 18.964844 17.179688 18.964844 17.175781 18.96875 17.167969 C 18.96875 17.136719 18.976562 17.132812 18.984375 17.117188 C 18.972656 17.097656 18.972656 17.097656 18.964844 17.050781 C 18.960938 17.046875 18.960938 17.039062 18.960938 17.035156 C 18.949219 17.015625 18.941406 16.996094 18.933594 16.957031 C 18.929688 16.953125 18.929688 16.949219 18.925781 16.945312 C 18.914062 16.925781 18.898438 16.90625 18.882812 16.890625 C 18.859375 16.871094 18.835938 16.859375 18.808594 16.847656 C 18.789062 16.835938 18.765625 16.828125 18.742188 16.816406 C 18.707031 16.804688 18.671875 16.800781 18.640625 16.800781 C 18.601562 16.800781 18.5625 16.804688 18.515625 16.796875 C 18.503906 16.796875 18.488281 16.796875 18.476562 16.796875 C 18.394531 16.816406 18.3125 16.855469 18.25 16.914062 C 18.242188 16.917969 18.238281 16.925781 18.230469 16.929688 C 18.207031 16.949219 18.1875 16.972656 18.164062 16.996094 C 18.140625 17.015625 18.121094 17.039062 18.105469 17.066406 C 18.070312 17.113281 18.050781 17.164062 18.027344 17.21875 C 18.023438 17.222656 18.023438 17.226562 18.019531 17.230469 C 17.992188 17.265625 17.984375 17.304688 17.972656 17.34375 C 17.960938 17.375 17.957031 17.410156 17.949219 17.441406 C 17.945312 17.460938 17.9375 17.484375 17.933594 17.503906 C 17.929688 17.539062 17.925781 17.570312 17.925781 17.605469 C 17.925781 17.640625 17.925781 17.671875 17.925781 17.707031 C 17.933594 17.753906 17.933594 17.804688 17.949219 17.851562 C 17.972656 17.945312 18.015625 18.035156 18.0625 18.117188 C 18.089844 18.164062 18.117188 18.207031 18.15625 18.25 C 18.222656 18.328125 18.300781 18.394531 18.390625 18.449219 C 18.394531 18.453125 18.394531 18.453125 18.398438 18.457031 C 18.472656 18.496094 18.550781 18.523438 18.632812 18.546875 C 18.664062 18.558594 18.695312 18.566406 18.726562 18.574219 C 18.757812 18.582031 18.789062 18.589844 18.820312 18.59375 C 18.84375 18.597656 18.867188 18.59375 18.890625 18.59375 C 18.9375 18.59375 18.984375 18.597656 19.03125 18.59375 Z M 20.664062 19.21875 C 20.679688 19.203125 20.691406 19.179688 20.710938 19.167969 C 20.742188 19.140625 20.75 19.097656 20.789062 19.078125 C 20.808594 19.066406 20.820312 19.042969 20.835938 19.027344 C 20.867188 18.996094 20.894531 18.964844 20.921875 18.933594 C 20.953125 18.898438 20.988281 18.863281 21.015625 18.828125 C 21.039062 18.804688 21.050781 18.773438 21.074219 18.75 C 21.109375 18.710938 21.144531 18.671875 21.179688 18.628906 C 21.238281 18.5625 21.300781 18.496094 21.359375 18.425781 C 21.371094 18.414062 21.378906 18.398438 21.390625 18.386719 C 21.417969 18.367188 21.441406 18.34375 21.460938 18.316406 C 21.5 18.265625 21.554688 18.226562 21.582031 18.164062 C 21.59375 18.140625 21.609375 18.117188 21.617188 18.089844 C 21.621094 18.085938 21.628906 18.082031 21.632812 18.078125 C 21.640625 18.0625 21.65625 18.058594 21.65625 18.039062 C 21.664062 18.011719 21.65625 17.972656 21.683594 17.960938 C 21.683594 17.960938 21.683594 17.957031 21.683594 17.957031 C 21.679688 17.9375 21.691406 17.929688 21.699219 17.921875 C 21.707031 17.914062 21.710938 17.902344 21.707031 17.882812 C 21.703125 17.875 21.707031 17.867188 21.710938 17.863281 C 21.714844 17.855469 21.71875 17.851562 21.722656 17.84375 C 21.738281 17.824219 21.75 17.800781 21.765625 17.785156 C 21.785156 17.765625 21.792969 17.734375 21.800781 17.707031 C 21.808594 17.683594 21.816406 17.664062 21.828125 17.652344 C 21.847656 17.640625 21.855469 17.621094 21.867188 17.605469 C 21.871094 17.601562 21.871094 17.59375 21.867188 17.582031 C 21.851562 17.539062 21.855469 17.511719 21.867188 17.488281 C 21.871094 17.480469 21.875 17.46875 21.863281 17.449219 C 21.851562 17.429688 21.851562 17.421875 21.855469 17.414062 C 21.859375 17.414062 21.863281 17.410156 21.859375 17.402344 C 21.839844 17.375 21.84375 17.363281 21.839844 17.347656 C 21.8125 17.34375 21.8125 17.34375 21.769531 17.320312 C 21.765625 17.316406 21.761719 17.316406 21.757812 17.3125 C 21.734375 17.308594 21.714844 17.300781 21.679688 17.277344 C 21.675781 17.273438 21.671875 17.273438 21.667969 17.273438 C 21.644531 17.269531 21.621094 17.261719 21.601562 17.261719 C 21.570312 17.261719 21.546875 17.265625 21.519531 17.265625 C 21.496094 17.269531 21.476562 17.273438 21.453125 17.273438 C 21.417969 17.273438 21.390625 17.28125 21.363281 17.292969 C 21.335938 17.304688 21.304688 17.316406 21.265625 17.3125 C 21.253906 17.3125 21.242188 17.316406 21.234375 17.320312 C 21.171875 17.34375 21.117188 17.371094 21.074219 17.410156 C 21.070312 17.414062 21.0625 17.417969 21.058594 17.421875 C 21.027344 17.445312 20.992188 17.472656 20.960938 17.5 C 20.933594 17.523438 20.910156 17.554688 20.882812 17.582031 C 20.878906 17.585938 20.878906 17.585938 20.875 17.589844 C 20.847656 17.597656 20.832031 17.621094 20.8125 17.640625 C 20.796875 17.65625 20.78125 17.671875 20.765625 17.6875 C 20.753906 17.695312 20.742188 17.703125 20.730469 17.710938 C 20.699219 17.742188 20.667969 17.773438 20.636719 17.804688 C 20.613281 17.828125 20.589844 17.847656 20.570312 17.871094 C 20.53125 17.917969 20.492188 17.96875 20.453125 18.015625 C 20.429688 18.042969 20.40625 18.066406 20.382812 18.09375 C 20.339844 18.148438 20.300781 18.203125 20.257812 18.257812 C 20.257812 18.257812 20.253906 18.261719 20.253906 18.261719 C 20.222656 18.308594 20.191406 18.359375 20.160156 18.402344 C 20.132812 18.4375 20.101562 18.46875 20.074219 18.503906 C 20.0625 18.515625 20.058594 18.53125 20.046875 18.542969 C 20.027344 18.570312 20.003906 18.59375 19.984375 18.617188 C 19.96875 18.636719 19.949219 18.65625 19.9375 18.679688 C 19.925781 18.699219 19.914062 18.71875 19.894531 18.730469 C 19.886719 18.734375 19.882812 18.742188 19.878906 18.746094 C 19.867188 18.769531 19.859375 18.792969 19.84375 18.8125 C 19.824219 18.839844 19.800781 18.859375 19.785156 18.890625 C 19.785156 18.898438 19.78125 18.898438 19.777344 18.902344 C 19.769531 18.914062 19.757812 18.925781 19.75 18.933594 C 19.699219 18.992188 19.648438 19.050781 19.597656 19.109375 C 19.566406 19.144531 19.535156 19.175781 19.503906 19.214844 C 19.484375 19.242188 19.460938 19.273438 19.441406 19.300781 C 19.429688 19.3125 19.421875 19.324219 19.414062 19.335938 C 19.398438 19.355469 19.382812 19.378906 19.367188 19.402344 C 19.351562 19.425781 19.332031 19.445312 19.3125 19.46875 C 19.300781 19.488281 19.285156 19.503906 19.273438 19.523438 C 19.257812 19.546875 19.234375 19.558594 19.230469 19.585938 C 19.230469 19.589844 19.226562 19.59375 19.222656 19.59375 C 19.203125 19.597656 19.199219 19.609375 19.195312 19.625 C 19.195312 19.632812 19.1875 19.636719 19.183594 19.644531 C 19.167969 19.660156 19.152344 19.679688 19.140625 19.695312 C 19.113281 19.734375 19.085938 19.769531 19.058594 19.808594 C 19.054688 19.820312 19.042969 19.828125 19.039062 19.835938 C 19.019531 19.867188 19.003906 19.898438 18.992188 19.933594 C 18.984375 19.96875 18.972656 20.003906 18.964844 20.039062 C 18.960938 20.066406 18.953125 20.097656 18.949219 20.125 C 18.941406 20.167969 18.933594 20.210938 18.929688 20.257812 C 18.925781 20.296875 18.917969 20.335938 18.910156 20.375 C 18.902344 20.402344 18.898438 20.425781 18.90625 20.464844 C 18.90625 20.46875 18.90625 20.472656 18.917969 20.484375 C 18.933594 20.488281 18.929688 20.476562 18.949219 20.488281 C 18.957031 20.496094 18.960938 20.503906 18.96875 20.511719 C 18.96875 20.515625 18.972656 20.519531 18.972656 20.523438 C 18.984375 20.53125 18.988281 20.53125 18.988281 20.53125 C 18.992188 20.53125 18.996094 20.53125 18.996094 20.53125 C 18.996094 20.542969 18.996094 20.550781 18.992188 20.558594 C 18.992188 20.566406 18.988281 20.574219 19 20.59375 C 19.003906 20.59375 19.011719 20.597656 19.015625 20.597656 C 19.03125 20.601562 19.046875 20.605469 19.066406 20.605469 C 19.085938 20.609375 19.101562 20.609375 19.113281 20.601562 C 19.128906 20.589844 19.144531 20.582031 19.148438 20.558594 C 19.152344 20.554688 19.152344 20.554688 19.15625 20.550781 C 19.167969 20.546875 19.179688 20.539062 19.1875 20.53125 C 19.195312 20.527344 19.199219 20.527344 19.210938 20.535156 C 19.230469 20.542969 19.234375 20.539062 19.238281 20.53125 C 19.246094 20.515625 19.253906 20.5 19.261719 20.484375 C 19.269531 20.46875 19.277344 20.453125 19.292969 20.449219 C 19.324219 20.441406 19.34375 20.421875 19.371094 20.410156 C 19.398438 20.394531 19.417969 20.375 19.441406 20.359375 C 19.449219 20.351562 19.453125 20.339844 19.464844 20.335938 C 19.480469 20.328125 19.492188 20.316406 19.507812 20.304688 C 19.511719 20.300781 19.515625 20.300781 19.523438 20.300781 C 19.554688 20.3125 19.5625 20.300781 19.570312 20.285156 C 19.570312 20.277344 19.574219 20.273438 19.582031 20.269531 C 19.589844 20.261719 19.601562 20.257812 19.605469 20.25 C 19.632812 20.222656 19.660156 20.191406 19.6875 20.164062 C 19.71875 20.136719 19.75 20.105469 19.78125 20.078125 C 19.796875 20.0625 19.8125 20.046875 19.828125 20.03125 C 19.839844 20.019531 19.855469 20.011719 19.867188 19.996094 C 19.878906 19.984375 19.890625 19.972656 19.902344 19.960938 C 19.941406 19.917969 19.984375 19.882812 20.019531 19.839844 C 20.027344 19.835938 20.03125 19.828125 20.035156 19.824219 C 20.054688 19.804688 20.074219 19.789062 20.09375 19.773438 C 20.113281 19.753906 20.128906 19.734375 20.152344 19.71875 C 20.1875 19.699219 20.214844 19.667969 20.246094 19.640625 C 20.269531 19.617188 20.292969 19.59375 20.320312 19.574219 C 20.355469 19.542969 20.390625 19.515625 20.425781 19.484375 C 20.457031 19.453125 20.492188 19.425781 20.523438 19.394531 C 20.53125 19.386719 20.539062 19.378906 20.542969 19.371094 C 20.570312 19.339844 20.601562 19.308594 20.625 19.277344 C 20.640625 19.261719 20.652344 19.238281 20.664062 19.21875 Z M 20.664062 19.21875 " fill-opacity="1" fill-rule="nonzero"/></g></svg>