<svg xmlns="http://www.w3.org/2000/svg" xmlns:xlink="http://www.w3.org/1999/xlink" width="48" zoomAndPan="magnify" viewBox="0 0 36 36.000001" height="48" preserveAspectRatio="xMidYMid meet" version="1.0"><defs><clipPath id="c4189c216b"><path d="M 0.488281 0 L 35.511719 0 L 35.511719 35.027344 L 0.488281 35.027344 Z M 0.488281 0 " clip-rule="nonzero"/></clipPath><clipPath id="5d88d3cfcb"><path d="M 3.113281 2.628906 L 32.300781 2.628906 L 32.300781 31.816406 L 3.113281 31.816406 Z M 3.113281 2.628906 " clip-rule="nonzero"/></clipPath></defs><g clip-path="url(#c4189c216b)"><path fill="#ffffff" d="M 0.488281 0 L 35.511719 0 L 35.511719 35.027344 L 0.488281 35.027344 Z M 0.488281 0 " fill-opacity="1" fill-rule="nonzero"/><path fill="#ffffff" d="M 0.488281 0 L 35.511719 0 L 35.511719 35.027344 L 0.488281 35.027344 Z M 0.488281 0 " fill-opacity="1" fill-rule="nonzero"/></g><g clip-path="url(#5d88d3cfcb)"><path fill="#57aaf9" d="M 17.558594 30.453125 C 10.171875 30.453125 4.183594 24.460938 4.183594 17.074219 C 4.183594 9.683594 10.171875 3.695312 17.558594 3.695312 C 24.949219 3.695312 30.9375 9.683594 30.9375 17.074219 C 30.9375 24.460938 24.949219 30.453125 17.558594 30.453125 Z M 17.558594 2.628906 C 9.582031 2.628906 3.113281 9.09375 3.113281 17.074219 C 3.113281 25.050781 9.582031 31.519531 17.558594 31.519531 C 25.539062 31.519531 32.007812 25.050781 32.007812 17.074219 C 32.007812 9.09375 25.539062 2.628906 17.558594 2.628906 " fill-opacity="1" fill-rule="nonzero"/></g><path fill="#57aaf9" d="M 17.65625 17.121094 C 17.601562 17.074219 17.539062 17.039062 17.464844 17.027344 C 17.539062 17.039062 17.601562 17.074219 17.65625 17.121094 " fill-opacity="1" fill-rule="nonzero"/><path fill="#57aaf9" d="M 11.964844 22.28125 C 11.964844 22.386719 11.964844 22.472656 11.964844 22.570312 C 12.324219 22.570312 12.679688 22.574219 13.03125 22.570312 C 13.132812 22.570312 13.179688 22.515625 13.21875 22.453125 C 13.4375 22.078125 13.664062 21.707031 13.886719 21.332031 C 13.90625 21.300781 13.925781 21.265625 13.949219 21.226562 C 13.980469 21.246094 13.984375 21.265625 13.992188 21.289062 C 14.242188 21.988281 14.496094 22.6875 14.75 23.390625 C 14.777344 23.46875 14.816406 23.539062 14.953125 23.542969 C 15.085938 23.546875 15.136719 23.484375 15.179688 23.402344 C 15.464844 22.863281 15.753906 22.320312 16.042969 21.78125 C 16.050781 21.761719 16.0625 21.746094 16.082031 21.710938 C 16.164062 21.859375 16.238281 21.992188 16.316406 22.125 C 16.382812 22.25 16.453125 22.375 16.523438 22.5 C 16.554688 22.5625 16.613281 22.605469 16.707031 22.605469 C 17.058594 22.609375 17.40625 22.605469 17.765625 22.605469 C 17.765625 22.511719 17.765625 22.421875 17.765625 22.320312 C 17.492188 22.320312 17.230469 22.316406 16.960938 22.320312 C 16.875 22.320312 16.84375 22.300781 16.8125 22.246094 C 16.636719 21.925781 16.457031 21.609375 16.277344 21.289062 C 16.242188 21.222656 16.183594 21.171875 16.078125 21.171875 C 15.96875 21.167969 15.90625 21.222656 15.871094 21.292969 C 15.867188 21.296875 15.867188 21.304688 15.863281 21.308594 C 15.597656 21.808594 15.332031 22.308594 15.066406 22.808594 C 15.046875 22.839844 15.027344 22.871094 15.007812 22.914062 C 14.953125 22.851562 14.945312 22.789062 14.921875 22.730469 C 14.6875 22.074219 14.449219 21.421875 14.214844 20.769531 C 14.1875 20.695312 14.148438 20.628906 14.023438 20.625 C 13.90625 20.617188 13.84375 20.667969 13.800781 20.742188 C 13.515625 21.226562 13.222656 21.707031 12.9375 22.191406 C 12.898438 22.257812 12.855469 22.289062 12.75 22.285156 C 12.492188 22.277344 12.234375 22.28125 11.964844 22.28125 " fill-opacity="1" fill-rule="nonzero"/><path fill="#57aaf9" d="M 24.574219 22.335938 C 24.554688 22.363281 24.535156 22.394531 24.519531 22.425781 C 24.511719 22.445312 24.5 22.460938 24.488281 22.480469 L 22.1875 25.613281 C 22.128906 25.695312 22.039062 25.75 21.9375 25.757812 C 21.921875 25.761719 21.90625 25.761719 21.890625 25.761719 C 21.808594 25.757812 21.726562 25.730469 21.664062 25.675781 L 19.988281 24.226562 C 19.976562 24.214844 19.960938 24.203125 19.949219 24.1875 C 19.929688 24.160156 19.90625 24.136719 19.878906 24.113281 C 19.765625 24.027344 19.699219 23.890625 19.703125 23.738281 C 19.707031 23.515625 19.871094 23.332031 20.082031 23.292969 C 20.191406 23.253906 20.316406 23.273438 20.414062 23.351562 C 20.457031 23.378906 20.492188 23.410156 20.523438 23.445312 L 21.644531 24.414062 C 21.734375 24.492188 21.863281 24.476562 21.933594 24.382812 L 23.746094 21.910156 C 23.761719 21.890625 23.773438 21.871094 23.785156 21.851562 C 23.820312 21.777344 23.871094 21.714844 23.9375 21.667969 C 24.011719 21.609375 24.105469 21.582031 24.195312 21.585938 C 24.203125 21.585938 24.207031 21.585938 24.214844 21.585938 C 24.472656 21.59375 24.675781 21.808594 24.671875 22.066406 C 24.667969 22.167969 24.632812 22.261719 24.574219 22.335938 Z M 23.679688 20.410156 C 23.3125 20.238281 22.914062 20.128906 22.492188 20.089844 C 22.382812 20.082031 22.277344 20.074219 22.167969 20.074219 C 20.191406 20.074219 18.59375 21.675781 18.59375 23.652344 C 18.59375 24.011719 18.644531 24.359375 18.746094 24.683594 C 18.875 25.125 19.089844 25.527344 19.367188 25.875 C 20.023438 26.699219 21.035156 27.226562 22.167969 27.226562 C 24.140625 27.226562 25.742188 25.625 25.742188 23.652344 C 25.742188 22.21875 24.898438 20.980469 23.679688 20.410156 " fill-opacity="1" fill-rule="nonzero"/><path fill="#57aaf9" d="M 22.191406 10.382812 C 22.355469 10.382812 22.492188 10.515625 22.492188 10.679688 L 22.492188 19.652344 C 22.914062 19.6875 23.3125 19.765625 23.679688 19.9375 L 23.679688 9.785156 C 23.679688 9.457031 23.414062 9.191406 23.085938 9.191406 L 20.742188 9.191406 L 20.742188 10.382812 L 22.191406 10.382812 " fill-opacity="1" fill-rule="nonzero"/><path fill="#57aaf9" d="M 10.871094 24.683594 C 10.707031 24.683594 10.570312 24.550781 10.570312 24.386719 L 10.570312 10.679688 C 10.570312 10.515625 10.707031 10.382812 10.871094 10.382812 L 12.3125 10.382812 L 12.3125 9.191406 L 9.972656 9.191406 C 9.644531 9.191406 9.375 9.457031 9.375 9.785156 L 9.375 25.28125 C 9.375 25.609375 9.644531 25.875 9.972656 25.875 L 18.863281 25.875 C 18.582031 25.527344 18.4375 25.125 18.304688 24.683594 L 10.871094 24.683594 " fill-opacity="1" fill-rule="nonzero"/><path fill="#57aaf9" d="M 16.523438 7.765625 C 16.945312 7.765625 17.285156 8.101562 17.289062 8.519531 C 17.289062 8.542969 17.289062 8.570312 17.285156 8.59375 C 17.246094 8.976562 16.917969 9.28125 16.527344 9.28125 C 16.136719 9.277344 15.816406 8.980469 15.777344 8.59375 C 15.773438 8.566406 15.773438 8.542969 15.773438 8.515625 C 15.773438 8.109375 16.113281 7.765625 16.523438 7.765625 Z M 12.75 10.382812 L 12.75 11.035156 L 20.304688 11.035156 L 20.304688 10.382812 C 20.304688 9.984375 20.304688 9.589844 20.304688 9.191406 L 20.304688 8.515625 L 18.304688 8.515625 C 18.296875 8.449219 18.296875 8.402344 18.292969 8.351562 C 18.21875 7.648438 17.769531 7.078125 17.191406 6.972656 C 16.796875 6.902344 16.398438 6.910156 15.996094 6.953125 C 15.558594 7 15.25 7.234375 15.023438 7.601562 C 14.851562 7.878906 14.777344 8.1875 14.753906 8.527344 L 12.75 8.527344 L 12.75 9.191406 C 12.75 9.589844 12.75 9.984375 12.75 10.382812 " fill-opacity="1" fill-rule="nonzero"/><path fill="#57aaf9" d="M 11.894531 12.726562 L 13.183594 12.726562 L 13.183594 14.011719 L 11.894531 14.011719 L 11.894531 12.726562 " fill-opacity="1" fill-rule="nonzero"/><path fill="#57aaf9" d="M 13.625 12.894531 L 17.46875 12.894531 L 17.46875 13.207031 L 13.625 13.207031 L 13.625 12.894531 " fill-opacity="1" fill-rule="nonzero"/><path fill="#57aaf9" d="M 13.625 13.53125 L 18.785156 13.53125 L 18.785156 13.84375 L 13.625 13.84375 L 13.625 13.53125 " fill-opacity="1" fill-rule="nonzero"/><path fill="#57aaf9" d="M 17.898438 12.894531 L 21.183594 12.894531 L 21.183594 13.207031 L 17.898438 13.207031 L 17.898438 12.894531 " fill-opacity="1" fill-rule="nonzero"/><path fill="#57aaf9" d="M 11.894531 15.425781 L 13.183594 15.425781 L 13.183594 16.714844 L 11.894531 16.714844 L 11.894531 15.425781 " fill-opacity="1" fill-rule="nonzero"/><path fill="#57aaf9" d="M 13.625 15.59375 L 17.46875 15.59375 L 17.46875 15.90625 L 13.625 15.90625 L 13.625 15.59375 " fill-opacity="1" fill-rule="nonzero"/><path fill="#57aaf9" d="M 13.625 16.230469 L 18.785156 16.230469 L 18.785156 16.546875 L 13.625 16.546875 L 13.625 16.230469 " fill-opacity="1" fill-rule="nonzero"/><path fill="#57aaf9" d="M 17.890625 15.59375 L 20.355469 15.59375 L 20.355469 15.90625 L 17.890625 15.90625 L 17.890625 15.59375 " fill-opacity="1" fill-rule="nonzero"/><path fill="#57aaf9" d="M 11.894531 18.34375 L 13.183594 18.34375 L 13.183594 19.632812 L 11.894531 19.632812 L 11.894531 18.34375 " fill-opacity="1" fill-rule="nonzero"/><path fill="#57aaf9" d="M 13.625 18.511719 L 17.46875 18.511719 L 17.46875 18.824219 L 13.625 18.824219 L 13.625 18.511719 " fill-opacity="1" fill-rule="nonzero"/><path fill="#57aaf9" d="M 13.625 19.148438 L 18.761719 19.148438 L 18.761719 19.464844 L 13.625 19.464844 L 13.625 19.148438 " fill-opacity="1" fill-rule="nonzero"/><path fill="#57aaf9" d="M 17.894531 18.511719 L 20.863281 18.511719 L 20.863281 18.824219 L 17.894531 18.824219 L 17.894531 18.511719 " fill-opacity="1" fill-rule="nonzero"/></svg>