<svg xmlns="http://www.w3.org/2000/svg" xmlns:xlink="http://www.w3.org/1999/xlink" width="48" zoomAndPan="magnify" viewBox="0 0 36 36.000001" height="48" preserveAspectRatio="xMidYMid meet" version="1.0"><defs><clipPath id="cec9b965ac"><path d="M 0.488281 0 L 35.511719 0 L 35.511719 35.027344 L 0.488281 35.027344 Z M 0.488281 0 " clip-rule="nonzero"/></clipPath><clipPath id="dad478b2f8"><path d="M 6.042969 10 L 30 10 L 30 30.265625 L 6.042969 30.265625 Z M 6.042969 10 " clip-rule="nonzero"/></clipPath><clipPath id="e62d920e15"><path d="M 19 4.726562 L 21 4.726562 L 21 8 L 19 8 Z M 19 4.726562 " clip-rule="nonzero"/></clipPath></defs><g clip-path="url(#cec9b965ac)"><path fill="#ffffff" d="M 0.488281 0 L 35.511719 0 L 35.511719 35.027344 L 0.488281 35.027344 Z M 0.488281 0 " fill-opacity="1" fill-rule="nonzero"/><path fill="#ffffff" d="M 0.488281 0 L 35.511719 0 L 35.511719 35.027344 L 0.488281 35.027344 Z M 0.488281 0 " fill-opacity="1" fill-rule="nonzero"/></g><g clip-path="url(#dad478b2f8)"><path fill="#57aaf9" d="M 29.730469 23.734375 L 26.371094 20.898438 C 26.480469 20.699219 26.550781 20.472656 26.570312 20.238281 C 26.609375 19.78125 26.46875 19.335938 26.171875 18.988281 C 25.957031 18.734375 25.675781 18.550781 25.363281 18.457031 C 25.828125 17.832031 25.824219 16.945312 25.300781 16.328125 C 25.074219 16.058594 24.777344 15.871094 24.441406 15.78125 C 24.816406 15.167969 24.777344 14.359375 24.289062 13.78125 C 24.019531 13.464844 23.648438 13.257812 23.238281 13.195312 C 23.425781 12.644531 23.332031 12.011719 22.929688 11.535156 C 22.636719 11.1875 22.222656 10.972656 21.765625 10.9375 C 21.308594 10.894531 20.867188 11.039062 20.519531 11.332031 L 20.453125 11.382812 L 18.53125 10.488281 C 17.523438 9.964844 16.640625 10.375 16.214844 11.011719 C 16.074219 11.226562 15.988281 11.453125 15.941406 11.683594 L 15.523438 11.332031 C 14.800781 10.722656 13.71875 10.816406 13.109375 11.535156 C 12.707031 12.011719 12.613281 12.644531 12.800781 13.195312 C 12.390625 13.257812 12.019531 13.464844 11.75 13.78125 C 11.457031 14.132812 11.316406 14.574219 11.355469 15.03125 C 11.375 15.300781 11.460938 15.554688 11.597656 15.78125 C 11.273438 15.867188 10.96875 16.050781 10.738281 16.328125 C 10.214844 16.945312 10.210938 17.832031 10.675781 18.457031 C 10.371094 18.550781 10.085938 18.726562 9.867188 18.988281 C 9.402344 19.539062 9.347656 20.300781 9.667969 20.898438 L 6.3125 23.734375 C 6.136719 23.882812 6.113281 24.140625 6.261719 24.316406 C 6.34375 24.410156 6.460938 24.460938 6.578125 24.460938 C 6.671875 24.460938 6.765625 24.429688 6.84375 24.363281 L 10.214844 21.519531 L 11.566406 22.660156 C 11.875 22.921875 12.261719 23.0625 12.664062 23.0625 C 12.710938 23.0625 12.761719 23.058594 12.8125 23.054688 C 13.265625 23.015625 13.679688 22.804688 13.972656 22.457031 C 14.265625 22.109375 14.40625 21.667969 14.371094 21.210938 C 14.347656 20.96875 14.277344 20.742188 14.164062 20.535156 C 14.507812 20.453125 14.824219 20.269531 15.070312 19.980469 C 15.402344 19.585938 15.515625 19.082031 15.441406 18.605469 C 15.921875 18.605469 16.394531 18.40625 16.71875 18.023438 C 17.023438 17.71875 17.179688 17.304688 17.160156 16.855469 C 17.160156 16.84375 17.15625 16.828125 17.15625 16.8125 C 17.222656 16.820312 17.289062 16.832031 17.359375 16.832031 C 17.40625 16.832031 17.457031 16.832031 17.507812 16.828125 C 17.960938 16.789062 18.375 16.574219 18.644531 16.253906 C 18.949219 15.949219 19.105469 15.535156 19.085938 15.089844 C 19.070312 14.679688 18.90625 14.296875 18.636719 13.996094 L 21.046875 11.960938 C 21.230469 11.808594 21.457031 11.734375 21.695312 11.757812 C 21.933594 11.777344 22.148438 11.886719 22.296875 12.066406 C 22.613281 12.441406 22.566406 13 22.191406 13.316406 L 21.878906 13.582031 C 21.707031 13.726562 21.683594 13.988281 21.832031 14.160156 C 21.976562 14.335938 22.238281 14.355469 22.414062 14.210938 L 22.414062 14.207031 C 22.59375 14.058594 22.824219 13.988281 23.054688 14.003906 C 23.292969 14.023438 23.507812 14.132812 23.660156 14.316406 C 23.976562 14.6875 23.925781 15.25 23.554688 15.5625 L 22.890625 16.125 C 22.71875 16.269531 22.695312 16.53125 22.84375 16.703125 C 22.988281 16.878906 23.25 16.902344 23.425781 16.753906 C 23.605469 16.601562 23.839844 16.53125 24.070312 16.546875 C 24.304688 16.570312 24.519531 16.679688 24.671875 16.859375 C 24.984375 17.230469 24.9375 17.792969 24.566406 18.105469 L 23.761719 18.785156 C 23.589844 18.929688 23.566406 19.191406 23.714844 19.367188 C 23.859375 19.539062 24.121094 19.5625 24.292969 19.414062 L 24.296875 19.414062 C 24.476562 19.261719 24.703125 19.191406 24.941406 19.210938 C 25.175781 19.230469 25.390625 19.339844 25.542969 19.519531 C 25.695312 19.703125 25.765625 19.929688 25.746094 20.167969 C 25.726562 20.402344 25.617188 20.617188 25.4375 20.769531 L 21.691406 23.933594 C 20.160156 25.222656 18.898438 25.085938 17.003906 24.710938 C 16.882812 24.683594 16.753906 24.71875 16.65625 24.800781 L 11.015625 29.5625 C 10.839844 29.710938 10.820312 29.96875 10.96875 30.144531 C 11.046875 30.242188 11.164062 30.289062 11.28125 30.289062 C 11.375 30.289062 11.46875 30.257812 11.546875 30.191406 L 17.039062 25.558594 C 17.820312 25.707031 18.539062 25.8125 19.230469 25.789062 L 24.496094 30.195312 C 24.574219 30.257812 24.667969 30.289062 24.761719 30.289062 C 24.878906 30.289062 24.996094 30.238281 25.078125 30.144531 C 25.222656 29.96875 25.199219 29.707031 25.027344 29.5625 L 20.320312 25.625 C 20.941406 25.445312 21.566406 25.117188 22.222656 24.5625 L 25.828125 21.519531 L 29.195312 24.363281 C 29.273438 24.429688 29.367188 24.460938 29.460938 24.460938 C 29.582031 24.460938 29.695312 24.410156 29.777344 24.316406 C 29.925781 24.140625 29.902344 23.882812 29.730469 23.734375 Z M 16.945312 12.53125 C 16.632812 12.265625 16.6875 11.789062 16.902344 11.472656 C 17.007812 11.316406 17.40625 10.832031 18.167969 11.226562 L 19.761719 11.96875 L 18.019531 13.441406 L 16.949219 12.535156 Z M 13.34375 21.925781 C 13.191406 22.105469 12.980469 22.214844 12.742188 22.234375 C 12.503906 22.253906 12.277344 22.179688 12.097656 22.03125 L 10.601562 20.769531 C 10.230469 20.453125 10.183594 19.894531 10.496094 19.519531 C 10.808594 19.148438 11.363281 19.101562 11.738281 19.410156 L 13.238281 20.675781 C 13.417969 20.828125 13.527344 21.042969 13.546875 21.277344 C 13.570312 21.515625 13.496094 21.746094 13.34375 21.925781 Z M 14.4375 19.449219 C 14.125 19.824219 13.5625 19.871094 13.191406 19.558594 L 12.28125 18.789062 C 12.277344 18.789062 12.277344 18.785156 12.277344 18.785156 L 11.472656 18.109375 C 11.101562 17.792969 11.054688 17.230469 11.367188 16.859375 C 11.519531 16.679688 11.734375 16.570312 11.972656 16.546875 C 12.207031 16.527344 12.4375 16.601562 12.617188 16.753906 C 12.617188 16.753906 12.621094 16.753906 12.621094 16.753906 L 14.332031 18.203125 C 14.707031 18.515625 14.753906 19.078125 14.4375 19.449219 Z M 16.113281 17.464844 C 15.796875 17.839844 15.238281 17.886719 14.863281 17.570312 L 13.144531 16.117188 C 13.144531 16.117188 13.144531 16.117188 13.140625 16.117188 L 12.484375 15.5625 C 12.304688 15.410156 12.195312 15.199219 12.175781 14.960938 C 12.15625 14.722656 12.230469 14.492188 12.378906 14.316406 C 12.53125 14.132812 12.746094 14.023438 12.980469 14.003906 C 13.214844 13.984375 13.445312 14.058594 13.625 14.207031 L 13.628906 14.210938 L 16.007812 16.21875 C 16.203125 16.382812 16.328125 16.636719 16.339844 16.890625 C 16.347656 17.105469 16.277344 17.300781 16.113281 17.464844 Z M 18.039062 15.695312 C 17.886719 15.875 17.675781 15.984375 17.4375 16.003906 C 17.199219 16.027344 16.972656 15.953125 16.792969 15.800781 C 16.773438 15.785156 16.753906 15.785156 16.738281 15.792969 C 16.675781 15.722656 16.613281 15.648438 16.539062 15.585938 L 14.160156 13.578125 C 14.160156 13.578125 14.15625 13.578125 14.15625 13.574219 L 13.847656 13.316406 C 13.472656 13 13.425781 12.441406 13.742188 12.066406 C 14.054688 11.695312 14.617188 11.644531 14.988281 11.960938 L 15.554688 12.4375 L 16.449219 13.195312 L 16.726562 13.425781 L 17.933594 14.445312 C 18.132812 14.613281 18.253906 14.863281 18.265625 15.121094 C 18.273438 15.335938 18.203125 15.53125 18.039062 15.695312 Z M 18.039062 15.695312 " fill-opacity="1" fill-rule="nonzero"/></g><g clip-path="url(#e62d920e15)"><path fill="#57aaf9" d="M 19.671875 7.71875 C 19.898438 7.71875 20.082031 7.535156 20.082031 7.308594 L 20.082031 5.140625 C 20.082031 4.910156 19.898438 4.726562 19.671875 4.726562 C 19.441406 4.726562 19.257812 4.910156 19.257812 5.140625 L 19.257812 7.308594 C 19.257812 7.535156 19.441406 7.71875 19.671875 7.71875 Z M 19.671875 7.71875 " fill-opacity="1" fill-rule="nonzero"/></g><path fill="#57aaf9" d="M 25.132812 8.90625 C 25.261719 8.90625 25.386719 8.847656 25.46875 8.738281 L 26.75 6.988281 C 26.882812 6.804688 26.84375 6.546875 26.660156 6.414062 C 26.476562 6.277344 26.21875 6.320312 26.085938 6.5 L 24.800781 8.25 C 24.667969 8.433594 24.707031 8.691406 24.890625 8.828125 C 24.964844 8.878906 25.050781 8.90625 25.132812 8.90625 Z M 25.132812 8.90625 " fill-opacity="1" fill-rule="nonzero"/><path fill="#57aaf9" d="M 13.875 8.738281 C 13.957031 8.847656 14.082031 8.90625 14.207031 8.90625 C 14.292969 8.90625 14.378906 8.878906 14.453125 8.824219 C 14.636719 8.691406 14.675781 8.433594 14.539062 8.25 L 13.257812 6.5 C 13.121094 6.320312 12.863281 6.277344 12.679688 6.414062 C 12.496094 6.546875 12.457031 6.804688 12.59375 6.988281 Z M 13.875 8.738281 " fill-opacity="1" fill-rule="nonzero"/></svg>